G04 #@! TF.GenerationSoftware,KiCad,Pcbnew,(5.1.10-1-10_14)*
G04 #@! TF.CreationDate,2021-10-26T20:18:43-04:00*
G04 #@! TF.ProjectId,DaemonBite_MD2,4461656d-6f6e-4426-9974-655f4d44322e,1*
G04 #@! TF.SameCoordinates,Original*
G04 #@! TF.FileFunction,Legend,Top*
G04 #@! TF.FilePolarity,Positive*
%FSLAX46Y46*%
G04 Gerber Fmt 4.6, Leading zero omitted, Abs format (unit mm)*
G04 Created by KiCad (PCBNEW (5.1.10-1-10_14)) date 2021-10-26 20:18:43*
%MOMM*%
%LPD*%
G01*
G04 APERTURE LIST*
%ADD10C,0.154000*%
%ADD11C,0.150000*%
%ADD12C,4.101600*%
%ADD13C,1.625600*%
%ADD14C,1.601600*%
G04 APERTURE END LIST*
%LPC*%
D10*
X158600476Y-104082380D02*
X159171904Y-104082380D01*
X158886190Y-105082380D02*
X158886190Y-104082380D01*
X159695714Y-104082380D02*
X159886190Y-104082380D01*
X159981428Y-104130000D01*
X160076666Y-104225238D01*
X160124285Y-104415714D01*
X160124285Y-104749047D01*
X160076666Y-104939523D01*
X159981428Y-105034761D01*
X159886190Y-105082380D01*
X159695714Y-105082380D01*
X159600476Y-105034761D01*
X159505238Y-104939523D01*
X159457619Y-104749047D01*
X159457619Y-104415714D01*
X159505238Y-104225238D01*
X159600476Y-104130000D01*
X159695714Y-104082380D01*
X160552857Y-105082380D02*
X160552857Y-104082380D01*
X160933809Y-104082380D01*
X161029047Y-104130000D01*
X161076666Y-104177619D01*
X161124285Y-104272857D01*
X161124285Y-104415714D01*
X161076666Y-104510952D01*
X161029047Y-104558571D01*
X160933809Y-104606190D01*
X160552857Y-104606190D01*
D11*
X150651904Y-90762380D02*
X150651904Y-89762380D01*
X151032857Y-89762380D01*
X151128095Y-89810000D01*
X151175714Y-89857619D01*
X151223333Y-89952857D01*
X151223333Y-90095714D01*
X151175714Y-90190952D01*
X151128095Y-90238571D01*
X151032857Y-90286190D01*
X150651904Y-90286190D01*
X152175714Y-90762380D02*
X151604285Y-90762380D01*
X151890000Y-90762380D02*
X151890000Y-89762380D01*
X151794761Y-89905238D01*
X151699523Y-90000476D01*
X151604285Y-90048095D01*
X117401904Y-91892380D02*
X117401904Y-90892380D01*
X117782857Y-90892380D01*
X117878095Y-90940000D01*
X117925714Y-90987619D01*
X117973333Y-91082857D01*
X117973333Y-91225714D01*
X117925714Y-91320952D01*
X117878095Y-91368571D01*
X117782857Y-91416190D01*
X117401904Y-91416190D01*
X118354285Y-90987619D02*
X118401904Y-90940000D01*
X118497142Y-90892380D01*
X118735238Y-90892380D01*
X118830476Y-90940000D01*
X118878095Y-90987619D01*
X118925714Y-91082857D01*
X118925714Y-91178095D01*
X118878095Y-91320952D01*
X118306666Y-91892380D01*
X118925714Y-91892380D01*
D12*
X138880000Y-99840000D03*
X163870000Y-99840000D03*
D13*
X147230000Y-98090000D03*
X150000000Y-98090000D03*
X152770000Y-98090000D03*
X155540000Y-98090000D03*
X145845000Y-100930000D03*
X148615000Y-100930000D03*
X151385000Y-100930000D03*
X154155000Y-100930000D03*
X156925000Y-100930000D03*
D12*
X107560000Y-99840000D03*
X132550000Y-99840000D03*
D13*
X115910000Y-98090000D03*
X118680000Y-98090000D03*
X121450000Y-98090000D03*
X124220000Y-98090000D03*
X114525000Y-100930000D03*
X117295000Y-100930000D03*
X120065000Y-100930000D03*
X122835000Y-100930000D03*
X125605000Y-100930000D03*
D14*
X138380000Y-89580000D03*
X135840000Y-89580000D03*
X133300000Y-89580000D03*
X130760000Y-89580000D03*
X128220000Y-89580000D03*
X125680000Y-89580000D03*
X123140000Y-89580000D03*
X120600000Y-89580000D03*
G36*
G01*
X117259200Y-90330000D02*
X117259200Y-88830000D01*
G75*
G02*
X117310000Y-88779200I50800J0D01*
G01*
X118810000Y-88779200D01*
G75*
G02*
X118860800Y-88830000I0J-50800D01*
G01*
X118860800Y-90330000D01*
G75*
G02*
X118810000Y-90380800I-50800J0D01*
G01*
X117310000Y-90380800D01*
G75*
G02*
X117259200Y-90330000I0J50800D01*
G01*
G37*
G36*
G01*
X114719200Y-90330000D02*
X114719200Y-88830000D01*
G75*
G02*
X114770000Y-88779200I50800J0D01*
G01*
X116270000Y-88779200D01*
G75*
G02*
X116320800Y-88830000I0J-50800D01*
G01*
X116320800Y-90330000D01*
G75*
G02*
X116270000Y-90380800I-50800J0D01*
G01*
X114770000Y-90380800D01*
G75*
G02*
X114719200Y-90330000I0J50800D01*
G01*
G37*
X112980000Y-89580000D03*
X110440000Y-89580000D03*
X138380000Y-104580000D03*
X135840000Y-104580000D03*
X133300000Y-104580000D03*
X130760000Y-104580000D03*
X128220000Y-104580000D03*
X125680000Y-104580000D03*
X123140000Y-104580000D03*
X120600000Y-104580000D03*
X118060000Y-104580000D03*
X115520000Y-104580000D03*
G36*
G01*
X112179200Y-105330000D02*
X112179200Y-103830000D01*
G75*
G02*
X112230000Y-103779200I50800J0D01*
G01*
X113730000Y-103779200D01*
G75*
G02*
X113780800Y-103830000I0J-50800D01*
G01*
X113780800Y-105330000D01*
G75*
G02*
X113730000Y-105380800I-50800J0D01*
G01*
X112230000Y-105380800D01*
G75*
G02*
X112179200Y-105330000I0J50800D01*
G01*
G37*
X110440000Y-104580000D03*
M02*
