G04 #@! TF.GenerationSoftware,KiCad,Pcbnew,(5.1.10-1-10_14)*
G04 #@! TF.CreationDate,2021-10-26T20:18:43-04:00*
G04 #@! TF.ProjectId,DaemonBite_MD2,4461656d-6f6e-4426-9974-655f4d44322e,1*
G04 #@! TF.SameCoordinates,Original*
G04 #@! TF.FileFunction,Copper,L2,Bot*
G04 #@! TF.FilePolarity,Positive*
%FSLAX46Y46*%
G04 Gerber Fmt 4.6, Leading zero omitted, Abs format (unit mm)*
G04 Created by KiCad (PCBNEW (5.1.10-1-10_14)) date 2021-10-26 20:18:43*
%MOMM*%
%LPD*%
G01*
G04 APERTURE LIST*
G04 #@! TA.AperFunction,ComponentPad*
%ADD10C,4.000000*%
G04 #@! TD*
G04 #@! TA.AperFunction,ComponentPad*
%ADD11C,1.524000*%
G04 #@! TD*
G04 #@! TA.AperFunction,ComponentPad*
%ADD12C,1.500000*%
G04 #@! TD*
G04 #@! TA.AperFunction,ComponentPad*
%ADD13R,1.500000X1.500000*%
G04 #@! TD*
G04 #@! TA.AperFunction,ViaPad*
%ADD14C,0.889000*%
G04 #@! TD*
G04 #@! TA.AperFunction,ViaPad*
%ADD15C,0.700000*%
G04 #@! TD*
G04 #@! TA.AperFunction,Conductor*
%ADD16C,0.508000*%
G04 #@! TD*
G04 #@! TA.AperFunction,Conductor*
%ADD17C,0.250000*%
G04 #@! TD*
G04 #@! TA.AperFunction,Conductor*
%ADD18C,0.160000*%
G04 #@! TD*
G04 #@! TA.AperFunction,Conductor*
%ADD19C,0.152400*%
G04 #@! TD*
G04 #@! TA.AperFunction,Conductor*
%ADD20C,0.025400*%
G04 #@! TD*
G04 APERTURE END LIST*
D10*
X138880000Y-99840000D03*
X163870000Y-99840000D03*
D11*
X147230000Y-98090000D03*
X150000000Y-98090000D03*
X152770000Y-98090000D03*
X155540000Y-98090000D03*
X145845000Y-100930000D03*
X148615000Y-100930000D03*
X151385000Y-100930000D03*
X154155000Y-100930000D03*
X156925000Y-100930000D03*
D10*
X107560000Y-99840000D03*
X132550000Y-99840000D03*
D11*
X115910000Y-98090000D03*
X118680000Y-98090000D03*
X121450000Y-98090000D03*
X124220000Y-98090000D03*
X114525000Y-100930000D03*
X117295000Y-100930000D03*
X120065000Y-100930000D03*
X122835000Y-100930000D03*
X125605000Y-100930000D03*
D12*
X138380000Y-89580000D03*
X135840000Y-89580000D03*
X133300000Y-89580000D03*
X130760000Y-89580000D03*
X128220000Y-89580000D03*
X125680000Y-89580000D03*
X123140000Y-89580000D03*
X120600000Y-89580000D03*
D13*
X118060000Y-89580000D03*
X115520000Y-89580000D03*
D12*
X112980000Y-89580000D03*
X110440000Y-89580000D03*
X138380000Y-104580000D03*
X135840000Y-104580000D03*
X133300000Y-104580000D03*
X130760000Y-104580000D03*
X128220000Y-104580000D03*
X125680000Y-104580000D03*
X123140000Y-104580000D03*
X120600000Y-104580000D03*
X118060000Y-104580000D03*
X115520000Y-104580000D03*
D13*
X112980000Y-104580000D03*
D12*
X110440000Y-104580000D03*
D14*
X143289998Y-94370000D03*
D15*
X150810000Y-95960000D03*
X146610000Y-96010000D03*
X132040000Y-91680000D03*
X123830000Y-93940000D03*
X156390000Y-95570000D03*
X125670002Y-92900000D03*
X117440000Y-96050000D03*
X114500000Y-92030000D03*
X118290000Y-94360000D03*
D16*
X114500000Y-102170000D02*
X114500000Y-101250000D01*
X115250000Y-102920000D02*
X114500000Y-102170000D01*
X116880000Y-102920000D02*
X115250000Y-102920000D01*
X118100000Y-104140000D02*
X116880000Y-102920000D01*
X118100000Y-104970000D02*
X118100000Y-104140000D01*
X141889998Y-92970000D02*
X143289998Y-94370000D01*
X129850000Y-92970000D02*
X141889998Y-92970000D01*
X126490000Y-98800000D02*
X126490000Y-96330000D01*
X127150000Y-99460000D02*
X126490000Y-98800000D01*
X127150000Y-102050000D02*
X127150000Y-99460000D01*
X126490000Y-96330000D02*
X129850000Y-92970000D01*
X119550000Y-102690000D02*
X126510000Y-102690000D01*
X126510000Y-102690000D02*
X127150000Y-102050000D01*
X118100000Y-104140000D02*
X119550000Y-102690000D01*
D17*
X140450000Y-96510000D02*
X142030000Y-98090000D01*
X131120000Y-96510000D02*
X140450000Y-96510000D01*
X130760000Y-104580000D02*
X130760000Y-103480000D01*
X129880000Y-97750000D02*
X131120000Y-96510000D01*
X142030000Y-98090000D02*
X147240000Y-98090000D01*
X130760000Y-103480000D02*
X129880000Y-102600000D01*
X129880000Y-102600000D02*
X129880000Y-97750000D01*
X158870000Y-98820000D02*
X158150000Y-98100000D01*
X158150000Y-98100000D02*
X155530000Y-98100000D01*
X158870000Y-102130000D02*
X158870000Y-98820000D01*
X157920000Y-103080000D02*
X158870000Y-102130000D01*
X140900000Y-102800000D02*
X141180000Y-103080000D01*
X141180000Y-103080000D02*
X157920000Y-103080000D01*
X133300000Y-103500000D02*
X134000000Y-102800000D01*
X134000000Y-102800000D02*
X140900000Y-102800000D01*
X133300000Y-104580000D02*
X133300000Y-103500000D01*
X128730000Y-96580000D02*
X128730000Y-96620000D01*
X130600000Y-94710000D02*
X128730000Y-96580000D01*
X140890000Y-94710000D02*
X130600000Y-94710000D01*
X142250000Y-96070000D02*
X140890000Y-94710000D01*
X128730000Y-96620000D02*
X128450000Y-96900000D01*
X144430000Y-96070000D02*
X142250000Y-96070000D01*
X145950000Y-94550000D02*
X144430000Y-96070000D01*
X155370000Y-94550000D02*
X145950000Y-94550000D01*
X156390000Y-95570000D02*
X155370000Y-94550000D01*
X128450000Y-96900000D02*
X128450000Y-103040000D01*
X128450000Y-103040000D02*
X128220000Y-103270000D01*
X128220000Y-103270000D02*
X128220000Y-104580000D01*
X130740000Y-90870000D02*
X130740000Y-89590000D01*
X130270000Y-91340000D02*
X130740000Y-90870000D01*
X124530000Y-91340000D02*
X130270000Y-91340000D01*
X115910000Y-94700000D02*
X117750000Y-92860000D01*
X123010000Y-92860000D02*
X124530000Y-91340000D01*
X117750000Y-92860000D02*
X123010000Y-92860000D01*
X115910000Y-98090000D02*
X115910000Y-94700000D01*
X125670002Y-93394974D02*
X125670002Y-92900000D01*
X125670002Y-94369998D02*
X125670002Y-93394974D01*
X124210000Y-95830000D02*
X125670002Y-94369998D01*
X124210000Y-98080000D02*
X124210000Y-95830000D01*
X122470000Y-91440000D02*
X123120000Y-90790000D01*
X117200000Y-91440000D02*
X122470000Y-91440000D01*
X114030000Y-94610000D02*
X117200000Y-91440000D01*
X117295000Y-100255000D02*
X116590000Y-99550000D01*
X114030000Y-98690000D02*
X114030000Y-94610000D01*
X123120000Y-90790000D02*
X123120000Y-89590000D01*
X117295000Y-100930000D02*
X117295000Y-100255000D01*
X114890000Y-99550000D02*
X114030000Y-98690000D01*
X116590000Y-99550000D02*
X114890000Y-99550000D01*
X119310000Y-96050000D02*
X117440000Y-96050000D01*
X120060000Y-98790000D02*
X120060000Y-96800000D01*
X120060000Y-96800000D02*
X119310000Y-96050000D01*
X120750000Y-99480000D02*
X120060000Y-98790000D01*
X121400000Y-99480000D02*
X120750000Y-99480000D01*
X122830000Y-100910000D02*
X121400000Y-99480000D01*
X122830000Y-100930000D02*
X122830000Y-100910000D01*
X121510000Y-94360000D02*
X118290000Y-94360000D01*
X122840000Y-98810000D02*
X122840000Y-95690000D01*
X123520000Y-99490000D02*
X122840000Y-98810000D01*
X124180000Y-99490000D02*
X123520000Y-99490000D01*
X125605000Y-100915000D02*
X124180000Y-99490000D01*
X122840000Y-95690000D02*
X121510000Y-94360000D01*
X125605000Y-100930000D02*
X125605000Y-100915000D01*
X110460000Y-90860000D02*
X111630000Y-92030000D01*
X111630000Y-92030000D02*
X114500000Y-92030000D01*
X110460000Y-89640000D02*
X110460000Y-90860000D01*
D18*
X109789788Y-88787715D02*
X109647715Y-88929788D01*
X109536088Y-89096849D01*
X109459198Y-89282477D01*
X109420000Y-89479539D01*
X109420000Y-89680461D01*
X109459198Y-89877523D01*
X109536088Y-90063151D01*
X109647715Y-90230212D01*
X109713720Y-90296217D01*
X109793056Y-90384388D01*
X109844785Y-90457328D01*
X109882909Y-90526671D01*
X109915295Y-90600723D01*
X109947730Y-90685253D01*
X109948580Y-90687441D01*
X109984729Y-90779255D01*
X109991010Y-90793920D01*
X110035235Y-90889297D01*
X110046925Y-90911699D01*
X110080251Y-90968865D01*
X110081597Y-90973302D01*
X110093303Y-91011891D01*
X110129982Y-91080512D01*
X110179343Y-91140658D01*
X110194411Y-91153024D01*
X111336975Y-92295589D01*
X111349342Y-92310658D01*
X111409488Y-92360019D01*
X111478109Y-92396698D01*
X111529980Y-92412432D01*
X111552566Y-92419284D01*
X111559856Y-92420002D01*
X111610599Y-92425000D01*
X111610606Y-92425000D01*
X111630000Y-92426910D01*
X111649394Y-92425000D01*
X113805737Y-92425000D01*
X113869528Y-92427022D01*
X113912760Y-92431733D01*
X113943038Y-92437930D01*
X113966108Y-92445194D01*
X113988658Y-92454830D01*
X114016476Y-92469357D01*
X114053191Y-92490651D01*
X114098153Y-92517276D01*
X114102879Y-92520010D01*
X114154601Y-92549242D01*
X114164085Y-92554356D01*
X114184401Y-92564792D01*
X114206320Y-92579437D01*
X114319153Y-92626174D01*
X114438935Y-92650000D01*
X114561065Y-92650000D01*
X114680847Y-92626174D01*
X114793680Y-92579437D01*
X114895227Y-92511586D01*
X114981586Y-92425227D01*
X115049437Y-92323680D01*
X115096174Y-92210847D01*
X115120000Y-92091065D01*
X115120000Y-91968935D01*
X115096174Y-91849153D01*
X115049437Y-91736320D01*
X114981586Y-91634773D01*
X114895227Y-91548414D01*
X114793680Y-91480563D01*
X114680847Y-91433826D01*
X114561065Y-91410000D01*
X114438935Y-91410000D01*
X114319153Y-91433826D01*
X114206320Y-91480563D01*
X114184399Y-91495210D01*
X114164089Y-91505642D01*
X114154601Y-91510757D01*
X114102879Y-91539989D01*
X114098153Y-91542723D01*
X114053191Y-91569348D01*
X114016476Y-91590642D01*
X113988658Y-91605169D01*
X113966108Y-91614805D01*
X113943038Y-91622069D01*
X113912760Y-91628266D01*
X113869528Y-91632977D01*
X113805731Y-91635000D01*
X111793614Y-91635000D01*
X110905747Y-90747134D01*
X110855000Y-90683288D01*
X110855000Y-90661513D01*
X110857895Y-90654856D01*
X110898869Y-90598575D01*
X110971346Y-90518709D01*
X111062955Y-90423656D01*
X111068466Y-90417764D01*
X111163841Y-90312694D01*
X111178454Y-90295161D01*
X111214480Y-90248017D01*
X111232285Y-90230212D01*
X111261516Y-90186465D01*
X111266266Y-90180249D01*
X111287044Y-90148708D01*
X111288641Y-90145869D01*
X111343912Y-90063151D01*
X111420802Y-89877523D01*
X111460000Y-89680461D01*
X111460000Y-89479539D01*
X111420802Y-89282477D01*
X111343912Y-89096849D01*
X111232285Y-88929788D01*
X111090212Y-88787715D01*
X110988870Y-88720000D01*
X112431130Y-88720000D01*
X112329788Y-88787715D01*
X112187715Y-88929788D01*
X112076088Y-89096849D01*
X111999198Y-89282477D01*
X111960000Y-89479539D01*
X111960000Y-89680461D01*
X111999198Y-89877523D01*
X112076088Y-90063151D01*
X112187715Y-90230212D01*
X112329788Y-90372285D01*
X112496849Y-90483912D01*
X112682477Y-90560802D01*
X112879539Y-90600000D01*
X113080461Y-90600000D01*
X113277523Y-90560802D01*
X113463151Y-90483912D01*
X113630212Y-90372285D01*
X113672497Y-90330000D01*
X114438403Y-90330000D01*
X114444775Y-90394691D01*
X114463644Y-90456897D01*
X114494287Y-90514225D01*
X114535526Y-90564474D01*
X114585775Y-90605713D01*
X114643103Y-90636356D01*
X114705309Y-90655225D01*
X114770000Y-90661597D01*
X115392500Y-90660000D01*
X115475000Y-90577500D01*
X115475000Y-89625000D01*
X115565000Y-89625000D01*
X115565000Y-90577500D01*
X115647500Y-90660000D01*
X116270000Y-90661597D01*
X116334691Y-90655225D01*
X116396897Y-90636356D01*
X116454225Y-90605713D01*
X116504474Y-90564474D01*
X116545713Y-90514225D01*
X116576356Y-90456897D01*
X116595225Y-90394691D01*
X116601597Y-90330000D01*
X116978403Y-90330000D01*
X116984775Y-90394691D01*
X117003644Y-90456897D01*
X117034287Y-90514225D01*
X117075526Y-90564474D01*
X117125775Y-90605713D01*
X117183103Y-90636356D01*
X117245309Y-90655225D01*
X117310000Y-90661597D01*
X117932500Y-90660000D01*
X118015000Y-90577500D01*
X118015000Y-89625000D01*
X118105000Y-89625000D01*
X118105000Y-90577500D01*
X118187500Y-90660000D01*
X118810000Y-90661597D01*
X118874691Y-90655225D01*
X118936897Y-90636356D01*
X118994225Y-90605713D01*
X119044474Y-90564474D01*
X119085713Y-90514225D01*
X119116356Y-90456897D01*
X119135225Y-90394691D01*
X119141597Y-90330000D01*
X119140000Y-89707500D01*
X119057500Y-89625000D01*
X118105000Y-89625000D01*
X118015000Y-89625000D01*
X117062500Y-89625000D01*
X116980000Y-89707500D01*
X116978403Y-90330000D01*
X116601597Y-90330000D01*
X116600000Y-89707500D01*
X116517500Y-89625000D01*
X115565000Y-89625000D01*
X115475000Y-89625000D01*
X114522500Y-89625000D01*
X114440000Y-89707500D01*
X114438403Y-90330000D01*
X113672497Y-90330000D01*
X113772285Y-90230212D01*
X113883912Y-90063151D01*
X113960802Y-89877523D01*
X114000000Y-89680461D01*
X114000000Y-89479539D01*
X113960802Y-89282477D01*
X113883912Y-89096849D01*
X113772285Y-88929788D01*
X113630212Y-88787715D01*
X113528870Y-88720000D01*
X114458519Y-88720000D01*
X114444775Y-88765309D01*
X114438403Y-88830000D01*
X114440000Y-89452500D01*
X114522500Y-89535000D01*
X115475000Y-89535000D01*
X115475000Y-89515000D01*
X115565000Y-89515000D01*
X115565000Y-89535000D01*
X116517500Y-89535000D01*
X116600000Y-89452500D01*
X116601597Y-88830000D01*
X116595225Y-88765309D01*
X116581481Y-88720000D01*
X116998519Y-88720000D01*
X116984775Y-88765309D01*
X116978403Y-88830000D01*
X116980000Y-89452500D01*
X117062500Y-89535000D01*
X118015000Y-89535000D01*
X118015000Y-89515000D01*
X118105000Y-89515000D01*
X118105000Y-89535000D01*
X119057500Y-89535000D01*
X119140000Y-89452500D01*
X119141597Y-88830000D01*
X119135225Y-88765309D01*
X119121481Y-88720000D01*
X120051130Y-88720000D01*
X119949788Y-88787715D01*
X119807715Y-88929788D01*
X119696088Y-89096849D01*
X119619198Y-89282477D01*
X119580000Y-89479539D01*
X119580000Y-89680461D01*
X119619198Y-89877523D01*
X119696088Y-90063151D01*
X119807715Y-90230212D01*
X119949788Y-90372285D01*
X120116849Y-90483912D01*
X120302477Y-90560802D01*
X120499539Y-90600000D01*
X120700461Y-90600000D01*
X120897523Y-90560802D01*
X121083151Y-90483912D01*
X121250212Y-90372285D01*
X121392285Y-90230212D01*
X121503912Y-90063151D01*
X121580802Y-89877523D01*
X121620000Y-89680461D01*
X121620000Y-89479539D01*
X121580802Y-89282477D01*
X121503912Y-89096849D01*
X121392285Y-88929788D01*
X121250212Y-88787715D01*
X121148870Y-88720000D01*
X122591130Y-88720000D01*
X122489788Y-88787715D01*
X122347715Y-88929788D01*
X122236088Y-89096849D01*
X122159198Y-89282477D01*
X122120000Y-89479539D01*
X122120000Y-89680461D01*
X122159198Y-89877523D01*
X122236088Y-90063151D01*
X122284210Y-90135170D01*
X122288608Y-90143126D01*
X122307130Y-90172102D01*
X122327027Y-90199250D01*
X122347715Y-90230212D01*
X122355217Y-90237714D01*
X122389338Y-90284270D01*
X122401945Y-90300180D01*
X122490183Y-90403324D01*
X122494158Y-90407868D01*
X122577305Y-90500773D01*
X122641158Y-90577649D01*
X122675793Y-90630626D01*
X122682492Y-90648568D01*
X122677897Y-90660389D01*
X122625119Y-90726267D01*
X122306387Y-91045000D01*
X117219394Y-91045000D01*
X117200000Y-91043090D01*
X117180606Y-91045000D01*
X117180599Y-91045000D01*
X117129856Y-91049998D01*
X117122566Y-91050716D01*
X117106502Y-91055589D01*
X117048109Y-91073302D01*
X116979488Y-91109981D01*
X116919342Y-91159342D01*
X116906975Y-91174411D01*
X113764412Y-94316975D01*
X113749343Y-94329342D01*
X113699982Y-94389488D01*
X113674355Y-94437433D01*
X113663303Y-94458109D01*
X113640716Y-94532567D01*
X113633090Y-94610000D01*
X113635001Y-94629404D01*
X113635000Y-98670606D01*
X113633090Y-98690000D01*
X113635000Y-98709394D01*
X113635000Y-98709400D01*
X113638267Y-98742567D01*
X113640328Y-98763488D01*
X113640716Y-98767432D01*
X113663302Y-98841890D01*
X113699981Y-98910511D01*
X113749342Y-98970658D01*
X113764416Y-98983029D01*
X114596974Y-99815588D01*
X114609342Y-99830658D01*
X114669488Y-99880019D01*
X114702750Y-99897798D01*
X114738108Y-99916698D01*
X114771380Y-99926791D01*
X114626643Y-99898000D01*
X114423357Y-99898000D01*
X114223977Y-99937660D01*
X114036165Y-100015454D01*
X113867139Y-100128394D01*
X113723394Y-100272139D01*
X113610454Y-100441165D01*
X113532660Y-100628977D01*
X113493000Y-100828357D01*
X113493000Y-101031643D01*
X113532660Y-101231023D01*
X113610454Y-101418835D01*
X113723394Y-101587861D01*
X113787958Y-101652425D01*
X113858769Y-101734987D01*
X113898979Y-101801743D01*
X113926404Y-101869691D01*
X113947991Y-101949108D01*
X113968293Y-102044502D01*
X113969097Y-102048155D01*
X113976000Y-102078518D01*
X113976000Y-102144271D01*
X113973466Y-102170000D01*
X113976000Y-102195729D01*
X113976000Y-102195738D01*
X113983582Y-102272721D01*
X114013545Y-102371495D01*
X114062202Y-102462527D01*
X114127684Y-102542316D01*
X114147677Y-102558724D01*
X114861280Y-103272328D01*
X114877684Y-103292316D01*
X114897672Y-103308720D01*
X114897676Y-103308724D01*
X114921296Y-103328108D01*
X114957473Y-103357798D01*
X115048504Y-103406455D01*
X115147278Y-103436418D01*
X115224261Y-103444000D01*
X115224270Y-103444000D01*
X115249999Y-103446534D01*
X115275728Y-103444000D01*
X116662953Y-103444000D01*
X116919060Y-103700107D01*
X116996885Y-103785282D01*
X117045406Y-103851957D01*
X117074108Y-103905820D01*
X117089929Y-103952030D01*
X117097977Y-103999180D01*
X117099706Y-104055886D01*
X117094657Y-104127501D01*
X117083090Y-104216080D01*
X117066988Y-104321103D01*
X117066682Y-104323150D01*
X117054631Y-104405984D01*
X117040000Y-104479539D01*
X117040000Y-104680461D01*
X117079198Y-104877523D01*
X117156088Y-105063151D01*
X117267715Y-105230212D01*
X117409788Y-105372285D01*
X117576849Y-105483912D01*
X117762477Y-105560802D01*
X117959539Y-105600000D01*
X118160461Y-105600000D01*
X118357523Y-105560802D01*
X118543151Y-105483912D01*
X118710212Y-105372285D01*
X118852285Y-105230212D01*
X118963912Y-105063151D01*
X119040802Y-104877523D01*
X119080000Y-104680461D01*
X119080000Y-104479539D01*
X119580000Y-104479539D01*
X119580000Y-104680461D01*
X119619198Y-104877523D01*
X119696088Y-105063151D01*
X119807715Y-105230212D01*
X119949788Y-105372285D01*
X120116849Y-105483912D01*
X120302477Y-105560802D01*
X120499539Y-105600000D01*
X120700461Y-105600000D01*
X120897523Y-105560802D01*
X121083151Y-105483912D01*
X121250212Y-105372285D01*
X121392285Y-105230212D01*
X121503912Y-105063151D01*
X121580802Y-104877523D01*
X121620000Y-104680461D01*
X121620000Y-104479539D01*
X122120000Y-104479539D01*
X122120000Y-104680461D01*
X122159198Y-104877523D01*
X122236088Y-105063151D01*
X122347715Y-105230212D01*
X122489788Y-105372285D01*
X122656849Y-105483912D01*
X122842477Y-105560802D01*
X123039539Y-105600000D01*
X123240461Y-105600000D01*
X123437523Y-105560802D01*
X123623151Y-105483912D01*
X123790212Y-105372285D01*
X123932285Y-105230212D01*
X124043912Y-105063151D01*
X124120802Y-104877523D01*
X124160000Y-104680461D01*
X124160000Y-104479539D01*
X124660000Y-104479539D01*
X124660000Y-104680461D01*
X124699198Y-104877523D01*
X124776088Y-105063151D01*
X124887715Y-105230212D01*
X125029788Y-105372285D01*
X125196849Y-105483912D01*
X125382477Y-105560802D01*
X125579539Y-105600000D01*
X125780461Y-105600000D01*
X125977523Y-105560802D01*
X126163151Y-105483912D01*
X126330212Y-105372285D01*
X126472285Y-105230212D01*
X126583912Y-105063151D01*
X126660802Y-104877523D01*
X126700000Y-104680461D01*
X126700000Y-104479539D01*
X127200000Y-104479539D01*
X127200000Y-104680461D01*
X127239198Y-104877523D01*
X127316088Y-105063151D01*
X127427715Y-105230212D01*
X127569788Y-105372285D01*
X127736849Y-105483912D01*
X127922477Y-105560802D01*
X128119539Y-105600000D01*
X128320461Y-105600000D01*
X128517523Y-105560802D01*
X128703151Y-105483912D01*
X128870212Y-105372285D01*
X129012285Y-105230212D01*
X129123912Y-105063151D01*
X129200802Y-104877523D01*
X129240000Y-104680461D01*
X129240000Y-104479539D01*
X129200802Y-104282477D01*
X129123912Y-104096849D01*
X129012285Y-103929788D01*
X128984308Y-103901811D01*
X128936642Y-103843102D01*
X128921447Y-103825931D01*
X128821546Y-103722265D01*
X128815778Y-103716459D01*
X128719675Y-103622602D01*
X128643163Y-103543405D01*
X128615000Y-103507254D01*
X128615000Y-103441447D01*
X128644738Y-103403875D01*
X128715584Y-103333029D01*
X128730658Y-103320658D01*
X128780019Y-103260512D01*
X128816698Y-103191891D01*
X128839284Y-103117433D01*
X128845000Y-103059401D01*
X128845000Y-103059395D01*
X128846910Y-103040001D01*
X128845000Y-103020607D01*
X128845000Y-97750000D01*
X129483090Y-97750000D01*
X129485001Y-97769404D01*
X129485000Y-102580606D01*
X129483090Y-102600000D01*
X129485000Y-102619394D01*
X129485000Y-102619400D01*
X129487828Y-102648109D01*
X129490716Y-102677433D01*
X129496511Y-102696535D01*
X129513302Y-102751890D01*
X129549981Y-102820511D01*
X129599342Y-102880658D01*
X129614416Y-102893029D01*
X130187930Y-103466544D01*
X130238964Y-103529445D01*
X130246011Y-103546055D01*
X130241533Y-103561747D01*
X130216142Y-103607747D01*
X130165214Y-103677499D01*
X130094512Y-103764608D01*
X130093446Y-103765930D01*
X130014994Y-103863840D01*
X130005943Y-103875802D01*
X129930693Y-103981219D01*
X129915791Y-104004536D01*
X129904421Y-104024514D01*
X129856088Y-104096849D01*
X129779198Y-104282477D01*
X129740000Y-104479539D01*
X129740000Y-104680461D01*
X129779198Y-104877523D01*
X129856088Y-105063151D01*
X129967715Y-105230212D01*
X130109788Y-105372285D01*
X130276849Y-105483912D01*
X130462477Y-105560802D01*
X130659539Y-105600000D01*
X130860461Y-105600000D01*
X131057523Y-105560802D01*
X131243151Y-105483912D01*
X131410212Y-105372285D01*
X131552285Y-105230212D01*
X131663912Y-105063151D01*
X131740802Y-104877523D01*
X131780000Y-104680461D01*
X131780000Y-104479539D01*
X132280000Y-104479539D01*
X132280000Y-104680461D01*
X132319198Y-104877523D01*
X132396088Y-105063151D01*
X132507715Y-105230212D01*
X132649788Y-105372285D01*
X132816849Y-105483912D01*
X133002477Y-105560802D01*
X133199539Y-105600000D01*
X133400461Y-105600000D01*
X133597523Y-105560802D01*
X133783151Y-105483912D01*
X133950212Y-105372285D01*
X134092285Y-105230212D01*
X134203912Y-105063151D01*
X134280802Y-104877523D01*
X134320000Y-104680461D01*
X134320000Y-104479539D01*
X134820000Y-104479539D01*
X134820000Y-104680461D01*
X134859198Y-104877523D01*
X134936088Y-105063151D01*
X135047715Y-105230212D01*
X135189788Y-105372285D01*
X135356849Y-105483912D01*
X135542477Y-105560802D01*
X135739539Y-105600000D01*
X135940461Y-105600000D01*
X136137523Y-105560802D01*
X136323151Y-105483912D01*
X136490212Y-105372285D01*
X136632285Y-105230212D01*
X136743912Y-105063151D01*
X136820802Y-104877523D01*
X136860000Y-104680461D01*
X136860000Y-104479539D01*
X137360000Y-104479539D01*
X137360000Y-104680461D01*
X137399198Y-104877523D01*
X137476088Y-105063151D01*
X137587715Y-105230212D01*
X137729788Y-105372285D01*
X137896849Y-105483912D01*
X138082477Y-105560802D01*
X138279539Y-105600000D01*
X138480461Y-105600000D01*
X138677523Y-105560802D01*
X138863151Y-105483912D01*
X139030212Y-105372285D01*
X139172285Y-105230212D01*
X139283912Y-105063151D01*
X139360802Y-104877523D01*
X139400000Y-104680461D01*
X139400000Y-104479539D01*
X139360802Y-104282477D01*
X139283912Y-104096849D01*
X139172285Y-103929788D01*
X139030212Y-103787715D01*
X138863151Y-103676088D01*
X138677523Y-103599198D01*
X138480461Y-103560000D01*
X138279539Y-103560000D01*
X138082477Y-103599198D01*
X137896849Y-103676088D01*
X137729788Y-103787715D01*
X137587715Y-103929788D01*
X137476088Y-104096849D01*
X137399198Y-104282477D01*
X137360000Y-104479539D01*
X136860000Y-104479539D01*
X136820802Y-104282477D01*
X136743912Y-104096849D01*
X136632285Y-103929788D01*
X136490212Y-103787715D01*
X136323151Y-103676088D01*
X136137523Y-103599198D01*
X135940461Y-103560000D01*
X135739539Y-103560000D01*
X135542477Y-103599198D01*
X135356849Y-103676088D01*
X135189788Y-103787715D01*
X135047715Y-103929788D01*
X134936088Y-104096849D01*
X134859198Y-104282477D01*
X134820000Y-104479539D01*
X134320000Y-104479539D01*
X134280802Y-104282477D01*
X134203912Y-104096849D01*
X134157596Y-104027532D01*
X134145478Y-104006119D01*
X134131283Y-103983686D01*
X134057610Y-103879021D01*
X134049183Y-103867691D01*
X133972742Y-103770336D01*
X133972148Y-103769582D01*
X133903834Y-103683211D01*
X133855256Y-103614523D01*
X133831422Y-103569534D01*
X133827160Y-103553546D01*
X133827164Y-103553478D01*
X133835026Y-103535281D01*
X133886081Y-103472533D01*
X134163614Y-103195000D01*
X140736387Y-103195000D01*
X140886975Y-103345589D01*
X140899342Y-103360658D01*
X140959488Y-103410019D01*
X141028109Y-103446698D01*
X141102567Y-103469284D01*
X141160599Y-103475000D01*
X141160606Y-103475000D01*
X141180000Y-103476910D01*
X141199394Y-103475000D01*
X157900606Y-103475000D01*
X157920000Y-103476910D01*
X157939394Y-103475000D01*
X157939401Y-103475000D01*
X157997433Y-103469284D01*
X158071891Y-103446698D01*
X158140512Y-103410019D01*
X158200658Y-103360658D01*
X158213029Y-103345584D01*
X159135590Y-102423024D01*
X159150658Y-102410658D01*
X159200019Y-102350512D01*
X159236698Y-102281891D01*
X159259284Y-102207433D01*
X159265000Y-102149401D01*
X159265000Y-102149394D01*
X159266910Y-102130000D01*
X159265000Y-102110606D01*
X159265000Y-101468697D01*
X162304942Y-101468697D01*
X162530493Y-101760231D01*
X162930850Y-101984660D01*
X163367298Y-102126670D01*
X163823065Y-102180805D01*
X164280635Y-102144983D01*
X164722425Y-102020582D01*
X165131457Y-101812383D01*
X165209507Y-101760231D01*
X165435058Y-101468697D01*
X163870000Y-99903640D01*
X162304942Y-101468697D01*
X159265000Y-101468697D01*
X159265000Y-99793065D01*
X161529195Y-99793065D01*
X161565017Y-100250635D01*
X161689418Y-100692425D01*
X161897617Y-101101457D01*
X161949769Y-101179507D01*
X162241303Y-101405058D01*
X163806360Y-99840000D01*
X163933640Y-99840000D01*
X165498697Y-101405058D01*
X165790231Y-101179507D01*
X166014660Y-100779150D01*
X166156670Y-100342702D01*
X166210805Y-99886935D01*
X166174983Y-99429365D01*
X166050582Y-98987575D01*
X165842383Y-98578543D01*
X165790231Y-98500493D01*
X165498697Y-98274942D01*
X163933640Y-99840000D01*
X163806360Y-99840000D01*
X162241303Y-98274942D01*
X161949769Y-98500493D01*
X161725340Y-98900850D01*
X161583330Y-99337298D01*
X161529195Y-99793065D01*
X159265000Y-99793065D01*
X159265000Y-98839394D01*
X159266910Y-98820000D01*
X159265000Y-98800606D01*
X159265000Y-98800599D01*
X159259284Y-98742567D01*
X159236698Y-98668109D01*
X159200019Y-98599488D01*
X159150658Y-98539342D01*
X159135589Y-98526975D01*
X158819917Y-98211303D01*
X162304942Y-98211303D01*
X163870000Y-99776360D01*
X165435058Y-98211303D01*
X165209507Y-97919769D01*
X164809150Y-97695340D01*
X164372702Y-97553330D01*
X163916935Y-97499195D01*
X163459365Y-97535017D01*
X163017575Y-97659418D01*
X162608543Y-97867617D01*
X162530493Y-97919769D01*
X162304942Y-98211303D01*
X158819917Y-98211303D01*
X158443029Y-97834416D01*
X158430658Y-97819342D01*
X158370512Y-97769981D01*
X158301891Y-97733302D01*
X158227433Y-97710716D01*
X158169401Y-97705000D01*
X158169394Y-97705000D01*
X158150000Y-97703090D01*
X158130606Y-97705000D01*
X157058820Y-97705000D01*
X156905138Y-97697241D01*
X156795323Y-97678089D01*
X156712419Y-97650874D01*
X156642791Y-97615865D01*
X156573913Y-97569650D01*
X156497064Y-97508889D01*
X156409154Y-97436105D01*
X156403260Y-97431363D01*
X156303435Y-97353323D01*
X156289123Y-97342872D01*
X156172844Y-97263683D01*
X156152760Y-97251255D01*
X156088111Y-97215061D01*
X156028835Y-97175454D01*
X155841023Y-97097660D01*
X155641643Y-97058000D01*
X155438357Y-97058000D01*
X155238977Y-97097660D01*
X155051165Y-97175454D01*
X154882139Y-97288394D01*
X154738394Y-97432139D01*
X154625454Y-97601165D01*
X154547660Y-97788977D01*
X154508000Y-97988357D01*
X154508000Y-98191643D01*
X154547660Y-98391023D01*
X154625454Y-98578835D01*
X154738394Y-98747861D01*
X154882139Y-98891606D01*
X155051165Y-99004546D01*
X155238977Y-99082340D01*
X155438357Y-99122000D01*
X155641643Y-99122000D01*
X155841023Y-99082340D01*
X156028835Y-99004546D01*
X156074778Y-98973848D01*
X156131343Y-98944105D01*
X156152098Y-98931983D01*
X156270960Y-98855269D01*
X156286077Y-98844766D01*
X156388050Y-98768632D01*
X156394719Y-98763488D01*
X156484744Y-98691795D01*
X156563819Y-98631241D01*
X156634766Y-98584839D01*
X156706443Y-98549510D01*
X156791393Y-98522049D01*
X156903180Y-98502782D01*
X157058752Y-98495000D01*
X157986387Y-98495000D01*
X158475001Y-98983615D01*
X158475000Y-101966386D01*
X157756387Y-102685000D01*
X141343614Y-102685000D01*
X141193029Y-102534416D01*
X141180658Y-102519342D01*
X141120512Y-102469981D01*
X141051891Y-102433302D01*
X140977433Y-102410716D01*
X140919401Y-102405000D01*
X140919394Y-102405000D01*
X140900000Y-102403090D01*
X140880606Y-102405000D01*
X134019390Y-102405000D01*
X133999999Y-102403090D01*
X133980608Y-102405000D01*
X133980599Y-102405000D01*
X133922567Y-102410716D01*
X133848109Y-102433302D01*
X133779488Y-102469981D01*
X133719342Y-102519342D01*
X133706975Y-102534411D01*
X133034411Y-103206976D01*
X133019343Y-103219342D01*
X133006976Y-103234411D01*
X133006975Y-103234412D01*
X132998153Y-103245162D01*
X132969982Y-103279488D01*
X132944392Y-103327364D01*
X132933303Y-103348109D01*
X132910716Y-103422567D01*
X132910110Y-103428721D01*
X132893430Y-103454521D01*
X132892745Y-103455586D01*
X132842976Y-103533366D01*
X132792974Y-103607424D01*
X132736819Y-103682640D01*
X132667648Y-103764801D01*
X132576169Y-103861334D01*
X132507715Y-103929788D01*
X132396088Y-104096849D01*
X132319198Y-104282477D01*
X132280000Y-104479539D01*
X131780000Y-104479539D01*
X131740802Y-104282477D01*
X131663912Y-104096849D01*
X131552285Y-103929788D01*
X131484095Y-103861598D01*
X131394106Y-103766095D01*
X131327060Y-103684969D01*
X131273114Y-103610358D01*
X131225277Y-103536325D01*
X131177509Y-103457797D01*
X131176777Y-103456602D01*
X131150382Y-103413713D01*
X131149284Y-103402567D01*
X131146907Y-103394729D01*
X131140323Y-103373025D01*
X131126698Y-103328109D01*
X131090019Y-103259488D01*
X131040658Y-103199342D01*
X131025589Y-103186975D01*
X130275000Y-102436387D01*
X130275000Y-101468697D01*
X130984942Y-101468697D01*
X131210493Y-101760231D01*
X131610850Y-101984660D01*
X132047298Y-102126670D01*
X132503065Y-102180805D01*
X132960635Y-102144983D01*
X133402425Y-102020582D01*
X133811457Y-101812383D01*
X133889507Y-101760231D01*
X134115058Y-101468697D01*
X137314942Y-101468697D01*
X137540493Y-101760231D01*
X137940850Y-101984660D01*
X138377298Y-102126670D01*
X138833065Y-102180805D01*
X139290635Y-102144983D01*
X139732425Y-102020582D01*
X140141457Y-101812383D01*
X140219507Y-101760231D01*
X140445058Y-101468697D01*
X138880000Y-99903640D01*
X137314942Y-101468697D01*
X134115058Y-101468697D01*
X132550000Y-99903640D01*
X130984942Y-101468697D01*
X130275000Y-101468697D01*
X130275000Y-100357115D01*
X130369418Y-100692425D01*
X130577617Y-101101457D01*
X130629769Y-101179507D01*
X130921303Y-101405058D01*
X132486360Y-99840000D01*
X132613640Y-99840000D01*
X134178697Y-101405058D01*
X134470231Y-101179507D01*
X134694660Y-100779150D01*
X134836670Y-100342702D01*
X134890805Y-99886935D01*
X134883457Y-99793065D01*
X136539195Y-99793065D01*
X136575017Y-100250635D01*
X136699418Y-100692425D01*
X136907617Y-101101457D01*
X136959769Y-101179507D01*
X137251303Y-101405058D01*
X138816360Y-99840000D01*
X138943640Y-99840000D01*
X140508697Y-101405058D01*
X140800231Y-101179507D01*
X140997075Y-100828357D01*
X144813000Y-100828357D01*
X144813000Y-101031643D01*
X144852660Y-101231023D01*
X144930454Y-101418835D01*
X145043394Y-101587861D01*
X145187139Y-101731606D01*
X145356165Y-101844546D01*
X145543977Y-101922340D01*
X145743357Y-101962000D01*
X145946643Y-101962000D01*
X146146023Y-101922340D01*
X146333835Y-101844546D01*
X146502861Y-101731606D01*
X146646606Y-101587861D01*
X146759546Y-101418835D01*
X146837340Y-101231023D01*
X146877000Y-101031643D01*
X146877000Y-100828357D01*
X147583000Y-100828357D01*
X147583000Y-101031643D01*
X147622660Y-101231023D01*
X147700454Y-101418835D01*
X147813394Y-101587861D01*
X147957139Y-101731606D01*
X148126165Y-101844546D01*
X148313977Y-101922340D01*
X148513357Y-101962000D01*
X148716643Y-101962000D01*
X148916023Y-101922340D01*
X149103835Y-101844546D01*
X149272861Y-101731606D01*
X149416606Y-101587861D01*
X149529546Y-101418835D01*
X149607340Y-101231023D01*
X149647000Y-101031643D01*
X149647000Y-100828357D01*
X150353000Y-100828357D01*
X150353000Y-101031643D01*
X150392660Y-101231023D01*
X150470454Y-101418835D01*
X150583394Y-101587861D01*
X150727139Y-101731606D01*
X150896165Y-101844546D01*
X151083977Y-101922340D01*
X151283357Y-101962000D01*
X151486643Y-101962000D01*
X151686023Y-101922340D01*
X151873835Y-101844546D01*
X152042861Y-101731606D01*
X152186606Y-101587861D01*
X152299546Y-101418835D01*
X152377340Y-101231023D01*
X152417000Y-101031643D01*
X152417000Y-100828357D01*
X153123000Y-100828357D01*
X153123000Y-101031643D01*
X153162660Y-101231023D01*
X153240454Y-101418835D01*
X153353394Y-101587861D01*
X153497139Y-101731606D01*
X153666165Y-101844546D01*
X153853977Y-101922340D01*
X154053357Y-101962000D01*
X154256643Y-101962000D01*
X154456023Y-101922340D01*
X154643835Y-101844546D01*
X154812861Y-101731606D01*
X154956606Y-101587861D01*
X155069546Y-101418835D01*
X155147340Y-101231023D01*
X155187000Y-101031643D01*
X155187000Y-100828357D01*
X155893000Y-100828357D01*
X155893000Y-101031643D01*
X155932660Y-101231023D01*
X156010454Y-101418835D01*
X156123394Y-101587861D01*
X156267139Y-101731606D01*
X156436165Y-101844546D01*
X156623977Y-101922340D01*
X156823357Y-101962000D01*
X157026643Y-101962000D01*
X157226023Y-101922340D01*
X157413835Y-101844546D01*
X157582861Y-101731606D01*
X157726606Y-101587861D01*
X157839546Y-101418835D01*
X157917340Y-101231023D01*
X157957000Y-101031643D01*
X157957000Y-100828357D01*
X157917340Y-100628977D01*
X157839546Y-100441165D01*
X157726606Y-100272139D01*
X157582861Y-100128394D01*
X157413835Y-100015454D01*
X157226023Y-99937660D01*
X157026643Y-99898000D01*
X156823357Y-99898000D01*
X156623977Y-99937660D01*
X156436165Y-100015454D01*
X156267139Y-100128394D01*
X156123394Y-100272139D01*
X156010454Y-100441165D01*
X155932660Y-100628977D01*
X155893000Y-100828357D01*
X155187000Y-100828357D01*
X155147340Y-100628977D01*
X155069546Y-100441165D01*
X154956606Y-100272139D01*
X154812861Y-100128394D01*
X154643835Y-100015454D01*
X154456023Y-99937660D01*
X154256643Y-99898000D01*
X154053357Y-99898000D01*
X153853977Y-99937660D01*
X153666165Y-100015454D01*
X153497139Y-100128394D01*
X153353394Y-100272139D01*
X153240454Y-100441165D01*
X153162660Y-100628977D01*
X153123000Y-100828357D01*
X152417000Y-100828357D01*
X152377340Y-100628977D01*
X152299546Y-100441165D01*
X152186606Y-100272139D01*
X152042861Y-100128394D01*
X151873835Y-100015454D01*
X151686023Y-99937660D01*
X151486643Y-99898000D01*
X151283357Y-99898000D01*
X151083977Y-99937660D01*
X150896165Y-100015454D01*
X150727139Y-100128394D01*
X150583394Y-100272139D01*
X150470454Y-100441165D01*
X150392660Y-100628977D01*
X150353000Y-100828357D01*
X149647000Y-100828357D01*
X149607340Y-100628977D01*
X149529546Y-100441165D01*
X149416606Y-100272139D01*
X149272861Y-100128394D01*
X149103835Y-100015454D01*
X148916023Y-99937660D01*
X148716643Y-99898000D01*
X148513357Y-99898000D01*
X148313977Y-99937660D01*
X148126165Y-100015454D01*
X147957139Y-100128394D01*
X147813394Y-100272139D01*
X147700454Y-100441165D01*
X147622660Y-100628977D01*
X147583000Y-100828357D01*
X146877000Y-100828357D01*
X146837340Y-100628977D01*
X146759546Y-100441165D01*
X146646606Y-100272139D01*
X146502861Y-100128394D01*
X146333835Y-100015454D01*
X146146023Y-99937660D01*
X145946643Y-99898000D01*
X145743357Y-99898000D01*
X145543977Y-99937660D01*
X145356165Y-100015454D01*
X145187139Y-100128394D01*
X145043394Y-100272139D01*
X144930454Y-100441165D01*
X144852660Y-100628977D01*
X144813000Y-100828357D01*
X140997075Y-100828357D01*
X141024660Y-100779150D01*
X141166670Y-100342702D01*
X141220805Y-99886935D01*
X141184983Y-99429365D01*
X141060582Y-98987575D01*
X140852383Y-98578543D01*
X140800231Y-98500493D01*
X140508697Y-98274942D01*
X138943640Y-99840000D01*
X138816360Y-99840000D01*
X137251303Y-98274942D01*
X136959769Y-98500493D01*
X136735340Y-98900850D01*
X136593330Y-99337298D01*
X136539195Y-99793065D01*
X134883457Y-99793065D01*
X134854983Y-99429365D01*
X134730582Y-98987575D01*
X134522383Y-98578543D01*
X134470231Y-98500493D01*
X134178697Y-98274942D01*
X132613640Y-99840000D01*
X132486360Y-99840000D01*
X130921303Y-98274942D01*
X130629769Y-98500493D01*
X130405340Y-98900850D01*
X130275000Y-99301432D01*
X130275000Y-98211303D01*
X130984942Y-98211303D01*
X132550000Y-99776360D01*
X134115058Y-98211303D01*
X137314942Y-98211303D01*
X138880000Y-99776360D01*
X140445058Y-98211303D01*
X140219507Y-97919769D01*
X139819150Y-97695340D01*
X139382702Y-97553330D01*
X138926935Y-97499195D01*
X138469365Y-97535017D01*
X138027575Y-97659418D01*
X137618543Y-97867617D01*
X137540493Y-97919769D01*
X137314942Y-98211303D01*
X134115058Y-98211303D01*
X133889507Y-97919769D01*
X133489150Y-97695340D01*
X133052702Y-97553330D01*
X132596935Y-97499195D01*
X132139365Y-97535017D01*
X131697575Y-97659418D01*
X131288543Y-97867617D01*
X131210493Y-97919769D01*
X130984942Y-98211303D01*
X130275000Y-98211303D01*
X130275000Y-97913613D01*
X131283614Y-96905000D01*
X140286387Y-96905000D01*
X141736975Y-98355589D01*
X141749342Y-98370658D01*
X141809488Y-98420019D01*
X141878109Y-98456698D01*
X141952567Y-98479284D01*
X142010599Y-98485000D01*
X142010608Y-98485000D01*
X142029999Y-98486910D01*
X142049390Y-98485000D01*
X145711215Y-98485000D01*
X145865837Y-98492770D01*
X145976622Y-98511980D01*
X146060544Y-98539320D01*
X146131186Y-98574492D01*
X146201088Y-98620803D01*
X146279049Y-98681474D01*
X146368011Y-98753720D01*
X146374289Y-98758666D01*
X146475187Y-98835763D01*
X146489904Y-98846247D01*
X146607476Y-98924210D01*
X146627900Y-98936492D01*
X146688698Y-98969489D01*
X146741165Y-99004546D01*
X146928977Y-99082340D01*
X147128357Y-99122000D01*
X147331643Y-99122000D01*
X147531023Y-99082340D01*
X147718835Y-99004546D01*
X147887861Y-98891606D01*
X147940792Y-98838675D01*
X149314965Y-98838675D01*
X149391982Y-99003425D01*
X149581864Y-99104492D01*
X149787816Y-99166574D01*
X150001922Y-99187283D01*
X150215954Y-99165824D01*
X150421687Y-99103022D01*
X150608018Y-99003425D01*
X150685035Y-98838675D01*
X150000000Y-98153640D01*
X149314965Y-98838675D01*
X147940792Y-98838675D01*
X148031606Y-98747861D01*
X148144546Y-98578835D01*
X148222340Y-98391023D01*
X148262000Y-98191643D01*
X148262000Y-98091922D01*
X148902717Y-98091922D01*
X148924176Y-98305954D01*
X148986978Y-98511687D01*
X149086575Y-98698018D01*
X149251325Y-98775035D01*
X149936360Y-98090000D01*
X150063640Y-98090000D01*
X150748675Y-98775035D01*
X150913425Y-98698018D01*
X151014492Y-98508136D01*
X151076574Y-98302184D01*
X151097283Y-98088078D01*
X151087285Y-97988357D01*
X151738000Y-97988357D01*
X151738000Y-98191643D01*
X151777660Y-98391023D01*
X151855454Y-98578835D01*
X151968394Y-98747861D01*
X152112139Y-98891606D01*
X152281165Y-99004546D01*
X152468977Y-99082340D01*
X152668357Y-99122000D01*
X152871643Y-99122000D01*
X153071023Y-99082340D01*
X153258835Y-99004546D01*
X153427861Y-98891606D01*
X153571606Y-98747861D01*
X153684546Y-98578835D01*
X153762340Y-98391023D01*
X153802000Y-98191643D01*
X153802000Y-97988357D01*
X153762340Y-97788977D01*
X153684546Y-97601165D01*
X153571606Y-97432139D01*
X153427861Y-97288394D01*
X153258835Y-97175454D01*
X153071023Y-97097660D01*
X152871643Y-97058000D01*
X152668357Y-97058000D01*
X152468977Y-97097660D01*
X152281165Y-97175454D01*
X152112139Y-97288394D01*
X151968394Y-97432139D01*
X151855454Y-97601165D01*
X151777660Y-97788977D01*
X151738000Y-97988357D01*
X151087285Y-97988357D01*
X151075824Y-97874046D01*
X151013022Y-97668313D01*
X150913425Y-97481982D01*
X150748675Y-97404965D01*
X150063640Y-98090000D01*
X149936360Y-98090000D01*
X149251325Y-97404965D01*
X149086575Y-97481982D01*
X148985508Y-97671864D01*
X148923426Y-97877816D01*
X148902717Y-98091922D01*
X148262000Y-98091922D01*
X148262000Y-97988357D01*
X148222340Y-97788977D01*
X148144546Y-97601165D01*
X148031606Y-97432139D01*
X147940792Y-97341325D01*
X149314965Y-97341325D01*
X150000000Y-98026360D01*
X150685035Y-97341325D01*
X150608018Y-97176575D01*
X150418136Y-97075508D01*
X150212184Y-97013426D01*
X149998078Y-96992717D01*
X149784046Y-97014176D01*
X149578313Y-97076978D01*
X149391982Y-97176575D01*
X149314965Y-97341325D01*
X147940792Y-97341325D01*
X147887861Y-97288394D01*
X147718835Y-97175454D01*
X147531023Y-97097660D01*
X147331643Y-97058000D01*
X147128357Y-97058000D01*
X146928977Y-97097660D01*
X146741165Y-97175454D01*
X146688698Y-97210511D01*
X146627901Y-97243507D01*
X146607476Y-97255789D01*
X146489904Y-97333752D01*
X146475187Y-97344236D01*
X146374289Y-97421333D01*
X146368011Y-97426279D01*
X146279049Y-97498525D01*
X146201088Y-97559196D01*
X146131186Y-97605507D01*
X146060544Y-97640679D01*
X145976622Y-97668019D01*
X145865837Y-97687229D01*
X145711212Y-97695000D01*
X142193614Y-97695000D01*
X140743029Y-96244416D01*
X140730658Y-96229342D01*
X140670512Y-96179981D01*
X140601891Y-96143302D01*
X140527433Y-96120716D01*
X140469401Y-96115000D01*
X140469394Y-96115000D01*
X140450000Y-96113090D01*
X140430606Y-96115000D01*
X131139394Y-96115000D01*
X131120000Y-96113090D01*
X131100606Y-96115000D01*
X131100599Y-96115000D01*
X131049856Y-96119998D01*
X131042566Y-96120716D01*
X131020423Y-96127433D01*
X130968109Y-96143302D01*
X130899488Y-96179981D01*
X130839342Y-96229342D01*
X130826975Y-96244411D01*
X129614411Y-97456976D01*
X129599343Y-97469342D01*
X129549982Y-97529488D01*
X129547027Y-97535017D01*
X129513303Y-97598109D01*
X129490716Y-97672567D01*
X129483090Y-97750000D01*
X128845000Y-97750000D01*
X128845000Y-97063613D01*
X128995589Y-96913025D01*
X129010658Y-96900658D01*
X129030322Y-96876698D01*
X129060018Y-96840512D01*
X129069610Y-96822568D01*
X129096669Y-96771944D01*
X130763614Y-95105000D01*
X140726387Y-95105000D01*
X141956975Y-96335589D01*
X141969342Y-96350658D01*
X141984411Y-96363025D01*
X141998038Y-96374208D01*
X142029488Y-96400019D01*
X142098109Y-96436698D01*
X142172567Y-96459284D01*
X142230599Y-96465000D01*
X142230608Y-96465000D01*
X142249999Y-96466910D01*
X142269390Y-96465000D01*
X144410606Y-96465000D01*
X144430000Y-96466910D01*
X144449394Y-96465000D01*
X144449401Y-96465000D01*
X144507433Y-96459284D01*
X144581891Y-96436698D01*
X144650512Y-96400019D01*
X144710658Y-96350658D01*
X144723029Y-96335584D01*
X146113615Y-94945000D01*
X155206387Y-94945000D01*
X155619760Y-95358374D01*
X155663449Y-95404924D01*
X155690692Y-95438830D01*
X155707717Y-95464619D01*
X155718893Y-95486066D01*
X155728029Y-95508834D01*
X155737430Y-95538785D01*
X155748327Y-95579774D01*
X155761294Y-95630402D01*
X155762704Y-95635683D01*
X155778607Y-95692926D01*
X155781698Y-95703249D01*
X155788681Y-95724982D01*
X155793826Y-95750847D01*
X155840563Y-95863680D01*
X155908414Y-95965227D01*
X155994773Y-96051586D01*
X156096320Y-96119437D01*
X156209153Y-96166174D01*
X156328935Y-96190000D01*
X156451065Y-96190000D01*
X156570847Y-96166174D01*
X156683680Y-96119437D01*
X156785227Y-96051586D01*
X156871586Y-95965227D01*
X156939437Y-95863680D01*
X156986174Y-95750847D01*
X157010000Y-95631065D01*
X157010000Y-95508935D01*
X156986174Y-95389153D01*
X156939437Y-95276320D01*
X156871586Y-95174773D01*
X156785227Y-95088414D01*
X156683680Y-95020563D01*
X156570847Y-94973826D01*
X156544982Y-94968681D01*
X156523249Y-94961698D01*
X156512926Y-94958607D01*
X156455683Y-94942704D01*
X156450402Y-94941294D01*
X156399774Y-94928327D01*
X156358785Y-94917430D01*
X156328834Y-94908029D01*
X156306066Y-94898893D01*
X156284619Y-94887717D01*
X156258830Y-94870692D01*
X156224924Y-94843449D01*
X156178374Y-94799760D01*
X155663029Y-94284416D01*
X155650658Y-94269342D01*
X155590512Y-94219981D01*
X155521891Y-94183302D01*
X155447433Y-94160716D01*
X155389401Y-94155000D01*
X155389394Y-94155000D01*
X155370000Y-94153090D01*
X155350606Y-94155000D01*
X145969394Y-94155000D01*
X145950000Y-94153090D01*
X145930606Y-94155000D01*
X145930599Y-94155000D01*
X145872567Y-94160716D01*
X145798108Y-94183302D01*
X145729488Y-94219981D01*
X145684411Y-94256974D01*
X145684405Y-94256980D01*
X145669342Y-94269342D01*
X145656980Y-94284405D01*
X144266387Y-95675000D01*
X142413614Y-95675000D01*
X141183029Y-94444416D01*
X141170658Y-94429342D01*
X141110512Y-94379981D01*
X141041891Y-94343302D01*
X140967433Y-94320716D01*
X140909401Y-94315000D01*
X140909394Y-94315000D01*
X140890000Y-94313090D01*
X140870606Y-94315000D01*
X130619390Y-94315000D01*
X130599999Y-94313090D01*
X130580608Y-94315000D01*
X130580599Y-94315000D01*
X130522567Y-94320716D01*
X130448109Y-94343302D01*
X130379488Y-94379981D01*
X130319342Y-94429342D01*
X130306975Y-94444411D01*
X128464416Y-96286971D01*
X128449342Y-96299342D01*
X128399981Y-96359489D01*
X128363331Y-96428055D01*
X128184416Y-96606971D01*
X128169342Y-96619342D01*
X128119981Y-96679489D01*
X128083302Y-96748110D01*
X128076088Y-96771892D01*
X128060716Y-96822567D01*
X128059923Y-96830615D01*
X128055000Y-96880600D01*
X128055000Y-96880606D01*
X128053090Y-96900000D01*
X128055000Y-96919394D01*
X128055001Y-102876386D01*
X127954416Y-102976971D01*
X127939342Y-102989342D01*
X127889981Y-103049489D01*
X127853302Y-103118110D01*
X127843541Y-103150288D01*
X127790888Y-103249143D01*
X127778744Y-103275198D01*
X127739662Y-103372231D01*
X127733510Y-103389104D01*
X127702818Y-103482861D01*
X127702013Y-103485360D01*
X127674887Y-103571031D01*
X127647527Y-103644130D01*
X127614515Y-103710639D01*
X127568125Y-103779685D01*
X127492968Y-103864535D01*
X127427715Y-103929788D01*
X127316088Y-104096849D01*
X127239198Y-104282477D01*
X127200000Y-104479539D01*
X126700000Y-104479539D01*
X126660802Y-104282477D01*
X126583912Y-104096849D01*
X126472285Y-103929788D01*
X126330212Y-103787715D01*
X126163151Y-103676088D01*
X125977523Y-103599198D01*
X125780461Y-103560000D01*
X125579539Y-103560000D01*
X125382477Y-103599198D01*
X125196849Y-103676088D01*
X125029788Y-103787715D01*
X124887715Y-103929788D01*
X124776088Y-104096849D01*
X124699198Y-104282477D01*
X124660000Y-104479539D01*
X124160000Y-104479539D01*
X124120802Y-104282477D01*
X124043912Y-104096849D01*
X123932285Y-103929788D01*
X123790212Y-103787715D01*
X123623151Y-103676088D01*
X123437523Y-103599198D01*
X123240461Y-103560000D01*
X123039539Y-103560000D01*
X122842477Y-103599198D01*
X122656849Y-103676088D01*
X122489788Y-103787715D01*
X122347715Y-103929788D01*
X122236088Y-104096849D01*
X122159198Y-104282477D01*
X122120000Y-104479539D01*
X121620000Y-104479539D01*
X121580802Y-104282477D01*
X121503912Y-104096849D01*
X121392285Y-103929788D01*
X121250212Y-103787715D01*
X121083151Y-103676088D01*
X120897523Y-103599198D01*
X120700461Y-103560000D01*
X120499539Y-103560000D01*
X120302477Y-103599198D01*
X120116849Y-103676088D01*
X119949788Y-103787715D01*
X119807715Y-103929788D01*
X119696088Y-104096849D01*
X119619198Y-104282477D01*
X119580000Y-104479539D01*
X119080000Y-104479539D01*
X119073396Y-104446337D01*
X119070376Y-104399730D01*
X119070084Y-104395686D01*
X119061175Y-104284162D01*
X119054917Y-104189089D01*
X119053751Y-104111635D01*
X119058541Y-104049328D01*
X119069561Y-103996554D01*
X119088924Y-103944628D01*
X119122028Y-103885072D01*
X119175796Y-103812640D01*
X119259463Y-103721585D01*
X119767048Y-103214000D01*
X126484271Y-103214000D01*
X126510000Y-103216534D01*
X126535729Y-103214000D01*
X126535739Y-103214000D01*
X126612722Y-103206418D01*
X126711496Y-103176455D01*
X126802527Y-103127798D01*
X126882316Y-103062316D01*
X126898724Y-103042323D01*
X127502328Y-102438720D01*
X127522316Y-102422316D01*
X127538720Y-102402328D01*
X127538724Y-102402324D01*
X127587798Y-102342528D01*
X127636455Y-102251497D01*
X127644156Y-102226108D01*
X127666418Y-102152722D01*
X127674000Y-102075739D01*
X127674000Y-102075729D01*
X127676534Y-102050000D01*
X127674000Y-102024271D01*
X127674000Y-99485729D01*
X127676534Y-99460000D01*
X127674000Y-99434271D01*
X127674000Y-99434261D01*
X127666418Y-99357278D01*
X127636455Y-99258504D01*
X127598188Y-99186911D01*
X127587798Y-99167472D01*
X127538724Y-99107676D01*
X127538720Y-99107672D01*
X127522316Y-99087684D01*
X127502328Y-99071280D01*
X127014000Y-98582953D01*
X127014000Y-96547047D01*
X130067048Y-93494000D01*
X141672951Y-93494000D01*
X142293081Y-94114130D01*
X142358936Y-94181205D01*
X142411505Y-94237546D01*
X142452863Y-94285319D01*
X142484867Y-94326284D01*
X142509932Y-94362829D01*
X142530869Y-94398354D01*
X142550252Y-94436917D01*
X142569973Y-94482403D01*
X142591292Y-94537748D01*
X142599390Y-94560483D01*
X142602956Y-94578412D01*
X142656816Y-94708443D01*
X142735010Y-94825467D01*
X142834531Y-94924988D01*
X142951555Y-95003182D01*
X143081586Y-95057042D01*
X143219626Y-95084500D01*
X143360370Y-95084500D01*
X143498410Y-95057042D01*
X143628441Y-95003182D01*
X143745465Y-94924988D01*
X143844986Y-94825467D01*
X143923180Y-94708443D01*
X143977040Y-94578412D01*
X144004498Y-94440372D01*
X144004498Y-94299628D01*
X143977040Y-94161588D01*
X143923180Y-94031557D01*
X143844986Y-93914533D01*
X143745465Y-93815012D01*
X143628441Y-93736818D01*
X143498410Y-93682958D01*
X143480481Y-93679392D01*
X143457746Y-93671294D01*
X143402401Y-93649975D01*
X143356915Y-93630254D01*
X143318352Y-93610871D01*
X143282827Y-93589934D01*
X143246282Y-93564869D01*
X143205317Y-93532865D01*
X143157544Y-93491507D01*
X143101203Y-93438938D01*
X143034128Y-93373083D01*
X142278722Y-92617677D01*
X142262314Y-92597684D01*
X142182525Y-92532202D01*
X142091494Y-92483545D01*
X141992720Y-92453582D01*
X141915737Y-92446000D01*
X141915727Y-92446000D01*
X141889998Y-92443466D01*
X141864269Y-92446000D01*
X129875731Y-92446000D01*
X129850000Y-92443466D01*
X129824269Y-92446000D01*
X129824261Y-92446000D01*
X129747278Y-92453582D01*
X129648503Y-92483545D01*
X129557473Y-92532202D01*
X129497676Y-92581276D01*
X129497672Y-92581280D01*
X129477684Y-92597684D01*
X129461280Y-92617672D01*
X126137673Y-95941280D01*
X126117685Y-95957684D01*
X126101281Y-95977672D01*
X126101276Y-95977677D01*
X126052202Y-96037473D01*
X126003546Y-96128504D01*
X125973583Y-96227278D01*
X125963466Y-96330000D01*
X125966001Y-96355739D01*
X125966000Y-98774271D01*
X125963466Y-98800000D01*
X125966000Y-98825729D01*
X125966000Y-98825738D01*
X125973582Y-98902721D01*
X126003545Y-99001495D01*
X126052202Y-99092527D01*
X126117684Y-99172316D01*
X126137677Y-99188724D01*
X126626001Y-99677049D01*
X126626000Y-100773060D01*
X126597340Y-100628977D01*
X126519546Y-100441165D01*
X126406606Y-100272139D01*
X126262861Y-100128394D01*
X126093835Y-100015454D01*
X125906023Y-99937660D01*
X125853455Y-99927203D01*
X125789522Y-99907197D01*
X125767117Y-99901229D01*
X125627100Y-99870304D01*
X125609766Y-99867065D01*
X125482386Y-99847546D01*
X125474655Y-99846476D01*
X125359248Y-99832192D01*
X125259588Y-99817787D01*
X125175294Y-99799110D01*
X125097833Y-99771887D01*
X125016193Y-99729335D01*
X124921219Y-99661660D01*
X124803438Y-99554825D01*
X124473029Y-99224416D01*
X124460658Y-99209342D01*
X124400512Y-99159981D01*
X124331891Y-99123302D01*
X124325240Y-99121284D01*
X124521023Y-99082340D01*
X124708835Y-99004546D01*
X124877861Y-98891606D01*
X125021606Y-98747861D01*
X125134546Y-98578835D01*
X125212340Y-98391023D01*
X125252000Y-98191643D01*
X125252000Y-97988357D01*
X125212340Y-97788977D01*
X125134546Y-97601165D01*
X125095925Y-97543365D01*
X125058262Y-97475807D01*
X125046323Y-97456370D01*
X124966642Y-97338156D01*
X124956708Y-97324375D01*
X124878459Y-97222719D01*
X124874132Y-97217245D01*
X124801459Y-97127718D01*
X124740887Y-97049347D01*
X124694611Y-96978671D01*
X124659364Y-96906792D01*
X124631937Y-96821116D01*
X124612725Y-96708178D01*
X124605000Y-96551354D01*
X124605000Y-95993613D01*
X125935598Y-94663017D01*
X125950660Y-94650656D01*
X125963022Y-94635593D01*
X125963028Y-94635587D01*
X126000021Y-94590510D01*
X126036700Y-94521890D01*
X126059286Y-94447431D01*
X126060271Y-94437433D01*
X126065002Y-94389399D01*
X126065002Y-94389392D01*
X126066912Y-94369998D01*
X126065002Y-94350604D01*
X126065002Y-93604132D01*
X126067009Y-93538491D01*
X126071756Y-93493401D01*
X126078090Y-93461430D01*
X126085553Y-93436992D01*
X126095330Y-93413460D01*
X126109837Y-93384985D01*
X126130933Y-93347859D01*
X126157532Y-93302243D01*
X126159892Y-93298112D01*
X126189369Y-93245450D01*
X126194101Y-93236615D01*
X126205080Y-93215170D01*
X126219439Y-93193680D01*
X126266176Y-93080847D01*
X126290002Y-92961065D01*
X126290002Y-92838935D01*
X126266176Y-92719153D01*
X126219439Y-92606320D01*
X126151588Y-92504773D01*
X126065229Y-92418414D01*
X125963682Y-92350563D01*
X125850849Y-92303826D01*
X125731067Y-92280000D01*
X125608937Y-92280000D01*
X125489155Y-92303826D01*
X125376322Y-92350563D01*
X125274775Y-92418414D01*
X125188416Y-92504773D01*
X125120565Y-92606320D01*
X125073828Y-92719153D01*
X125050002Y-92838935D01*
X125050002Y-92961065D01*
X125073828Y-93080847D01*
X125120565Y-93193680D01*
X125134919Y-93215163D01*
X125145900Y-93236612D01*
X125150634Y-93245450D01*
X125180111Y-93298112D01*
X125182471Y-93302243D01*
X125209070Y-93347859D01*
X125230166Y-93384985D01*
X125244673Y-93413460D01*
X125254450Y-93436992D01*
X125261913Y-93461430D01*
X125268247Y-93493401D01*
X125272994Y-93538491D01*
X125275003Y-93604162D01*
X125275002Y-94206383D01*
X123944411Y-95536976D01*
X123929343Y-95549342D01*
X123879982Y-95609488D01*
X123852600Y-95660716D01*
X123843303Y-95678109D01*
X123820716Y-95752567D01*
X123813090Y-95830000D01*
X123815001Y-95849404D01*
X123815001Y-96551410D01*
X123807260Y-96710087D01*
X123787959Y-96824947D01*
X123760331Y-96912619D01*
X123724817Y-96986519D01*
X123678425Y-97059209D01*
X123618124Y-97139754D01*
X123546578Y-97231351D01*
X123541865Y-97237568D01*
X123465543Y-97341324D01*
X123455563Y-97355862D01*
X123378361Y-97476602D01*
X123366714Y-97496669D01*
X123335501Y-97556197D01*
X123305454Y-97601165D01*
X123235000Y-97771257D01*
X123235000Y-95709393D01*
X123236910Y-95689999D01*
X123235000Y-95670605D01*
X123235000Y-95670599D01*
X123229284Y-95612567D01*
X123228351Y-95609489D01*
X123222241Y-95589348D01*
X123206698Y-95538109D01*
X123170019Y-95469488D01*
X123120658Y-95409342D01*
X123105589Y-95396975D01*
X121803029Y-94094416D01*
X121790658Y-94079342D01*
X121730512Y-94029981D01*
X121661891Y-93993302D01*
X121587433Y-93970716D01*
X121529401Y-93965000D01*
X121529394Y-93965000D01*
X121510000Y-93963090D01*
X121490606Y-93965000D01*
X118984269Y-93965000D01*
X118920471Y-93962977D01*
X118877239Y-93958266D01*
X118846961Y-93952069D01*
X118823891Y-93944805D01*
X118801341Y-93935169D01*
X118773523Y-93920642D01*
X118736808Y-93899348D01*
X118691846Y-93872723D01*
X118687120Y-93869989D01*
X118635398Y-93840757D01*
X118625912Y-93835643D01*
X118605603Y-93825212D01*
X118583680Y-93810563D01*
X118470847Y-93763826D01*
X118351065Y-93740000D01*
X118228935Y-93740000D01*
X118109153Y-93763826D01*
X117996320Y-93810563D01*
X117894773Y-93878414D01*
X117808414Y-93964773D01*
X117740563Y-94066320D01*
X117693826Y-94179153D01*
X117670000Y-94298935D01*
X117670000Y-94421065D01*
X117693826Y-94540847D01*
X117740563Y-94653680D01*
X117808414Y-94755227D01*
X117894773Y-94841586D01*
X117996320Y-94909437D01*
X118109153Y-94956174D01*
X118228935Y-94980000D01*
X118351065Y-94980000D01*
X118470847Y-94956174D01*
X118583680Y-94909437D01*
X118605604Y-94894788D01*
X118625915Y-94884355D01*
X118635398Y-94879242D01*
X118687120Y-94850010D01*
X118691846Y-94847276D01*
X118736808Y-94820651D01*
X118773523Y-94799357D01*
X118801341Y-94784830D01*
X118823891Y-94775194D01*
X118846961Y-94767930D01*
X118877239Y-94761733D01*
X118920471Y-94757022D01*
X118984263Y-94755000D01*
X121346387Y-94755000D01*
X122445001Y-95853615D01*
X122445000Y-97802349D01*
X122442340Y-97788977D01*
X122364546Y-97601165D01*
X122251606Y-97432139D01*
X122107861Y-97288394D01*
X121938835Y-97175454D01*
X121751023Y-97097660D01*
X121551643Y-97058000D01*
X121348357Y-97058000D01*
X121148977Y-97097660D01*
X120961165Y-97175454D01*
X120792139Y-97288394D01*
X120648394Y-97432139D01*
X120535454Y-97601165D01*
X120457660Y-97788977D01*
X120455000Y-97802349D01*
X120455000Y-96819393D01*
X120456910Y-96799999D01*
X120455000Y-96780605D01*
X120455000Y-96780599D01*
X120449284Y-96722567D01*
X120448119Y-96718724D01*
X120441660Y-96697432D01*
X120426698Y-96648109D01*
X120390019Y-96579488D01*
X120340658Y-96519342D01*
X120325589Y-96506975D01*
X119603029Y-95784416D01*
X119590658Y-95769342D01*
X119530512Y-95719981D01*
X119461891Y-95683302D01*
X119387433Y-95660716D01*
X119329401Y-95655000D01*
X119329394Y-95655000D01*
X119310000Y-95653090D01*
X119290606Y-95655000D01*
X118134269Y-95655000D01*
X118070471Y-95652977D01*
X118027239Y-95648266D01*
X117996961Y-95642069D01*
X117973891Y-95634805D01*
X117951341Y-95625169D01*
X117923523Y-95610642D01*
X117886808Y-95589348D01*
X117841846Y-95562723D01*
X117837120Y-95559989D01*
X117785398Y-95530757D01*
X117775912Y-95525643D01*
X117755603Y-95515212D01*
X117733680Y-95500563D01*
X117620847Y-95453826D01*
X117501065Y-95430000D01*
X117378935Y-95430000D01*
X117259153Y-95453826D01*
X117146320Y-95500563D01*
X117044773Y-95568414D01*
X116958414Y-95654773D01*
X116890563Y-95756320D01*
X116843826Y-95869153D01*
X116820000Y-95988935D01*
X116820000Y-96111065D01*
X116843826Y-96230847D01*
X116890563Y-96343680D01*
X116958414Y-96445227D01*
X117044773Y-96531586D01*
X117146320Y-96599437D01*
X117259153Y-96646174D01*
X117378935Y-96670000D01*
X117501065Y-96670000D01*
X117620847Y-96646174D01*
X117733680Y-96599437D01*
X117755604Y-96584788D01*
X117775915Y-96574355D01*
X117785398Y-96569242D01*
X117837120Y-96540010D01*
X117841846Y-96537276D01*
X117886808Y-96510651D01*
X117923523Y-96489357D01*
X117951341Y-96474830D01*
X117973891Y-96465194D01*
X117996961Y-96457930D01*
X118027239Y-96451733D01*
X118070471Y-96447022D01*
X118134263Y-96445000D01*
X119146387Y-96445000D01*
X119665001Y-96963615D01*
X119665001Y-97615889D01*
X119593425Y-97481982D01*
X119428675Y-97404965D01*
X118743640Y-98090000D01*
X119428675Y-98775035D01*
X119593425Y-98698018D01*
X119665000Y-98563545D01*
X119665000Y-98770606D01*
X119663090Y-98790000D01*
X119665000Y-98809394D01*
X119665000Y-98809400D01*
X119670716Y-98867432D01*
X119693302Y-98941890D01*
X119729981Y-99010511D01*
X119779342Y-99070658D01*
X119794416Y-99083029D01*
X120456974Y-99745588D01*
X120469342Y-99760658D01*
X120529488Y-99810019D01*
X120598109Y-99846698D01*
X120672567Y-99869284D01*
X120730599Y-99875000D01*
X120730608Y-99875000D01*
X120749999Y-99876910D01*
X120769390Y-99875000D01*
X121236387Y-99875000D01*
X121476824Y-100115437D01*
X121581964Y-100231508D01*
X121647946Y-100324648D01*
X121688885Y-100404333D01*
X121714586Y-100479833D01*
X121731657Y-100562329D01*
X121744048Y-100660401D01*
X121755759Y-100774975D01*
X121756564Y-100781948D01*
X121772896Y-100908987D01*
X121775603Y-100925821D01*
X121802624Y-101065553D01*
X121807920Y-101087827D01*
X121828966Y-101162179D01*
X121842660Y-101231023D01*
X121920454Y-101418835D01*
X122033394Y-101587861D01*
X122177139Y-101731606D01*
X122346165Y-101844546D01*
X122533977Y-101922340D01*
X122733357Y-101962000D01*
X122936643Y-101962000D01*
X123136023Y-101922340D01*
X123323835Y-101844546D01*
X123492861Y-101731606D01*
X123636606Y-101587861D01*
X123749546Y-101418835D01*
X123827340Y-101231023D01*
X123867000Y-101031643D01*
X123867000Y-100828357D01*
X123827340Y-100628977D01*
X123749546Y-100441165D01*
X123636606Y-100272139D01*
X123492861Y-100128394D01*
X123323835Y-100015454D01*
X123136023Y-99937660D01*
X123083288Y-99927170D01*
X123019815Y-99907319D01*
X122997289Y-99901328D01*
X122857517Y-99870548D01*
X122840074Y-99867304D01*
X122712899Y-99847949D01*
X122705075Y-99846875D01*
X122589834Y-99832771D01*
X122490274Y-99818541D01*
X122406172Y-99800049D01*
X122328951Y-99773035D01*
X122247611Y-99730748D01*
X122152951Y-99663385D01*
X122035500Y-99556886D01*
X121693029Y-99214416D01*
X121680658Y-99199342D01*
X121620512Y-99149981D01*
X121563683Y-99119605D01*
X121751023Y-99082340D01*
X121938835Y-99004546D01*
X122107861Y-98891606D01*
X122251606Y-98747861D01*
X122364546Y-98578835D01*
X122442340Y-98391023D01*
X122445000Y-98377651D01*
X122445000Y-98790606D01*
X122443090Y-98810000D01*
X122445000Y-98829394D01*
X122445000Y-98829400D01*
X122450716Y-98887432D01*
X122473302Y-98961890D01*
X122509981Y-99030511D01*
X122559342Y-99090658D01*
X122574416Y-99103029D01*
X123226974Y-99755588D01*
X123239342Y-99770658D01*
X123299488Y-99820019D01*
X123368109Y-99856698D01*
X123409601Y-99869284D01*
X123442566Y-99879284D01*
X123450019Y-99880018D01*
X123500599Y-99885000D01*
X123500605Y-99885000D01*
X123519999Y-99886910D01*
X123539393Y-99885000D01*
X124016387Y-99885000D01*
X124244772Y-100113385D01*
X124350242Y-100229780D01*
X124416536Y-100323240D01*
X124457744Y-100403239D01*
X124483656Y-100478999D01*
X124500902Y-100561666D01*
X124513476Y-100659923D01*
X124525363Y-100774623D01*
X124526167Y-100781510D01*
X124542667Y-100908761D01*
X124545372Y-100925489D01*
X124572543Y-101065473D01*
X124577822Y-101087630D01*
X124599015Y-101162429D01*
X124612660Y-101231023D01*
X124690454Y-101418835D01*
X124803394Y-101587861D01*
X124947139Y-101731606D01*
X125116165Y-101844546D01*
X125303977Y-101922340D01*
X125503357Y-101962000D01*
X125706643Y-101962000D01*
X125906023Y-101922340D01*
X126093835Y-101844546D01*
X126262861Y-101731606D01*
X126406606Y-101587861D01*
X126519546Y-101418835D01*
X126597340Y-101231023D01*
X126626000Y-101086941D01*
X126626000Y-101832952D01*
X126292953Y-102166000D01*
X119575729Y-102166000D01*
X119550000Y-102163466D01*
X119524271Y-102166000D01*
X119524261Y-102166000D01*
X119447278Y-102173582D01*
X119374240Y-102195738D01*
X119348503Y-102203545D01*
X119257472Y-102252202D01*
X119197676Y-102301276D01*
X119197672Y-102301280D01*
X119177684Y-102317684D01*
X119161280Y-102337672D01*
X118516756Y-102982196D01*
X118383336Y-103109151D01*
X118269292Y-103206149D01*
X118167734Y-103282570D01*
X118097332Y-103329604D01*
X118018340Y-103273311D01*
X117914493Y-103192061D01*
X117798019Y-103091071D01*
X117662283Y-102961236D01*
X117268723Y-102567676D01*
X117252316Y-102547684D01*
X117172527Y-102482202D01*
X117081496Y-102433545D01*
X116982722Y-102403582D01*
X116905739Y-102396000D01*
X116905729Y-102396000D01*
X116880000Y-102393466D01*
X116854271Y-102396000D01*
X115467048Y-102396000D01*
X115087366Y-102016319D01*
X115042149Y-101960047D01*
X115039332Y-101953092D01*
X115042487Y-101943089D01*
X115067736Y-101900026D01*
X115118217Y-101834480D01*
X115188277Y-101752824D01*
X115188852Y-101752152D01*
X115266570Y-101660968D01*
X115275489Y-101649928D01*
X115311209Y-101603258D01*
X115326606Y-101587861D01*
X115357365Y-101541828D01*
X115365320Y-101530258D01*
X115367922Y-101526028D01*
X115439546Y-101418835D01*
X115517340Y-101231023D01*
X115557000Y-101031643D01*
X115557000Y-100828357D01*
X115517340Y-100628977D01*
X115439546Y-100441165D01*
X115326606Y-100272139D01*
X115182861Y-100128394D01*
X115013835Y-100015454D01*
X114835365Y-99941530D01*
X114870599Y-99945000D01*
X114870606Y-99945000D01*
X114890000Y-99946910D01*
X114909394Y-99945000D01*
X116421212Y-99945000D01*
X116450315Y-99978327D01*
X116480458Y-100027601D01*
X116492393Y-100061383D01*
X116495776Y-100091120D01*
X116492176Y-100130561D01*
X116478029Y-100187184D01*
X116451432Y-100261973D01*
X116413812Y-100354053D01*
X116370511Y-100458647D01*
X116367622Y-100465921D01*
X116338598Y-100542214D01*
X116302660Y-100628977D01*
X116263000Y-100828357D01*
X116263000Y-101031643D01*
X116302660Y-101231023D01*
X116380454Y-101418835D01*
X116493394Y-101587861D01*
X116637139Y-101731606D01*
X116806165Y-101844546D01*
X116993977Y-101922340D01*
X117193357Y-101962000D01*
X117396643Y-101962000D01*
X117596023Y-101922340D01*
X117783835Y-101844546D01*
X117952861Y-101731606D01*
X118096606Y-101587861D01*
X118209546Y-101418835D01*
X118287340Y-101231023D01*
X118327000Y-101031643D01*
X118327000Y-100828357D01*
X119033000Y-100828357D01*
X119033000Y-101031643D01*
X119072660Y-101231023D01*
X119150454Y-101418835D01*
X119263394Y-101587861D01*
X119407139Y-101731606D01*
X119576165Y-101844546D01*
X119763977Y-101922340D01*
X119963357Y-101962000D01*
X120166643Y-101962000D01*
X120366023Y-101922340D01*
X120553835Y-101844546D01*
X120722861Y-101731606D01*
X120866606Y-101587861D01*
X120979546Y-101418835D01*
X121057340Y-101231023D01*
X121097000Y-101031643D01*
X121097000Y-100828357D01*
X121057340Y-100628977D01*
X120979546Y-100441165D01*
X120866606Y-100272139D01*
X120722861Y-100128394D01*
X120553835Y-100015454D01*
X120366023Y-99937660D01*
X120166643Y-99898000D01*
X119963357Y-99898000D01*
X119763977Y-99937660D01*
X119576165Y-100015454D01*
X119407139Y-100128394D01*
X119263394Y-100272139D01*
X119150454Y-100441165D01*
X119072660Y-100628977D01*
X119033000Y-100828357D01*
X118327000Y-100828357D01*
X118287340Y-100628977D01*
X118209546Y-100441165D01*
X118096606Y-100272139D01*
X117952861Y-100128394D01*
X117939846Y-100119698D01*
X117898994Y-100080989D01*
X117887132Y-100070394D01*
X117778822Y-99979249D01*
X117766417Y-99969417D01*
X117666838Y-99895134D01*
X117656364Y-99887702D01*
X117562027Y-99824080D01*
X117556437Y-99820410D01*
X117464476Y-99761650D01*
X117374195Y-99703364D01*
X117283587Y-99640714D01*
X117186469Y-99566287D01*
X117077050Y-99472459D01*
X116948357Y-99349744D01*
X116883029Y-99284416D01*
X116870658Y-99269342D01*
X116810512Y-99219981D01*
X116741891Y-99183302D01*
X116667433Y-99160716D01*
X116609401Y-99155000D01*
X116609394Y-99155000D01*
X116590000Y-99153090D01*
X116570606Y-99155000D01*
X115053614Y-99155000D01*
X114425000Y-98526387D01*
X114425000Y-94773613D01*
X117363614Y-91835000D01*
X122450606Y-91835000D01*
X122470000Y-91836910D01*
X122489394Y-91835000D01*
X122489401Y-91835000D01*
X122547433Y-91829284D01*
X122621891Y-91806698D01*
X122690512Y-91770019D01*
X122750658Y-91720658D01*
X122763029Y-91705584D01*
X123385590Y-91083024D01*
X123400658Y-91070658D01*
X123450019Y-91010512D01*
X123486698Y-90941891D01*
X123508058Y-90871474D01*
X123549299Y-90796315D01*
X123555337Y-90784645D01*
X123598344Y-90696333D01*
X123599190Y-90694582D01*
X123638496Y-90612369D01*
X123677581Y-90538000D01*
X123722558Y-90465891D01*
X123781071Y-90388899D01*
X123865311Y-90297186D01*
X123932285Y-90230212D01*
X124043912Y-90063151D01*
X124120802Y-89877523D01*
X124160000Y-89680461D01*
X124160000Y-89479539D01*
X124120802Y-89282477D01*
X124043912Y-89096849D01*
X123932285Y-88929788D01*
X123790212Y-88787715D01*
X123688870Y-88720000D01*
X125131130Y-88720000D01*
X125029788Y-88787715D01*
X124887715Y-88929788D01*
X124776088Y-89096849D01*
X124699198Y-89282477D01*
X124660000Y-89479539D01*
X124660000Y-89680461D01*
X124699198Y-89877523D01*
X124776088Y-90063151D01*
X124887715Y-90230212D01*
X125029788Y-90372285D01*
X125196849Y-90483912D01*
X125382477Y-90560802D01*
X125579539Y-90600000D01*
X125780461Y-90600000D01*
X125977523Y-90560802D01*
X126163151Y-90483912D01*
X126330212Y-90372285D01*
X126472285Y-90230212D01*
X126583912Y-90063151D01*
X126660802Y-89877523D01*
X126700000Y-89680461D01*
X126700000Y-89479539D01*
X126660802Y-89282477D01*
X126583912Y-89096849D01*
X126472285Y-88929788D01*
X126330212Y-88787715D01*
X126228870Y-88720000D01*
X127671130Y-88720000D01*
X127569788Y-88787715D01*
X127427715Y-88929788D01*
X127316088Y-89096849D01*
X127239198Y-89282477D01*
X127200000Y-89479539D01*
X127200000Y-89680461D01*
X127239198Y-89877523D01*
X127316088Y-90063151D01*
X127427715Y-90230212D01*
X127569788Y-90372285D01*
X127736849Y-90483912D01*
X127922477Y-90560802D01*
X128119539Y-90600000D01*
X128320461Y-90600000D01*
X128517523Y-90560802D01*
X128703151Y-90483912D01*
X128870212Y-90372285D01*
X129012285Y-90230212D01*
X129123912Y-90063151D01*
X129200802Y-89877523D01*
X129240000Y-89680461D01*
X129240000Y-89479539D01*
X129200802Y-89282477D01*
X129123912Y-89096849D01*
X129012285Y-88929788D01*
X128870212Y-88787715D01*
X128768870Y-88720000D01*
X130211130Y-88720000D01*
X130109788Y-88787715D01*
X129967715Y-88929788D01*
X129856088Y-89096849D01*
X129779198Y-89282477D01*
X129740000Y-89479539D01*
X129740000Y-89680461D01*
X129779198Y-89877523D01*
X129856088Y-90063151D01*
X129912438Y-90147484D01*
X129913577Y-90149504D01*
X129934671Y-90181394D01*
X129937924Y-90185626D01*
X129967715Y-90230212D01*
X129987047Y-90249544D01*
X130023289Y-90296701D01*
X130038181Y-90314447D01*
X130134580Y-90419791D01*
X130140305Y-90425857D01*
X130233160Y-90521237D01*
X130306845Y-90601468D01*
X130345000Y-90653132D01*
X130345000Y-90695040D01*
X130301276Y-90750110D01*
X130106387Y-90945000D01*
X124549394Y-90945000D01*
X124530000Y-90943090D01*
X124510606Y-90945000D01*
X124510599Y-90945000D01*
X124452567Y-90950716D01*
X124378108Y-90973302D01*
X124309488Y-91009981D01*
X124264411Y-91046974D01*
X124264405Y-91046980D01*
X124249342Y-91059342D01*
X124236980Y-91074405D01*
X122846387Y-92465000D01*
X117769394Y-92465000D01*
X117750000Y-92463090D01*
X117730606Y-92465000D01*
X117730599Y-92465000D01*
X117679856Y-92469998D01*
X117672566Y-92470716D01*
X117663122Y-92473581D01*
X117598109Y-92493302D01*
X117529488Y-92529981D01*
X117469342Y-92579342D01*
X117456975Y-92594411D01*
X115644411Y-94406976D01*
X115629343Y-94419342D01*
X115579982Y-94479488D01*
X115548881Y-94537674D01*
X115543303Y-94548109D01*
X115520716Y-94622567D01*
X115513090Y-94700000D01*
X115515001Y-94719404D01*
X115515000Y-96561295D01*
X115507248Y-96717480D01*
X115488012Y-96829822D01*
X115460571Y-96915125D01*
X115425294Y-96986882D01*
X115378973Y-97057661D01*
X115318409Y-97136375D01*
X115246229Y-97226133D01*
X115241494Y-97232196D01*
X115164299Y-97333998D01*
X115154079Y-97348434D01*
X115075871Y-97466959D01*
X115063832Y-97487050D01*
X115030102Y-97549311D01*
X114995454Y-97601165D01*
X114917660Y-97788977D01*
X114878000Y-97988357D01*
X114878000Y-98191643D01*
X114917660Y-98391023D01*
X114995454Y-98578835D01*
X115108394Y-98747861D01*
X115252139Y-98891606D01*
X115421165Y-99004546D01*
X115608977Y-99082340D01*
X115808357Y-99122000D01*
X116011643Y-99122000D01*
X116211023Y-99082340D01*
X116398835Y-99004546D01*
X116567861Y-98891606D01*
X116620792Y-98838675D01*
X117994965Y-98838675D01*
X118071982Y-99003425D01*
X118261864Y-99104492D01*
X118467816Y-99166574D01*
X118681922Y-99187283D01*
X118895954Y-99165824D01*
X119101687Y-99103022D01*
X119288018Y-99003425D01*
X119365035Y-98838675D01*
X118680000Y-98153640D01*
X117994965Y-98838675D01*
X116620792Y-98838675D01*
X116711606Y-98747861D01*
X116824546Y-98578835D01*
X116902340Y-98391023D01*
X116942000Y-98191643D01*
X116942000Y-98091922D01*
X117582717Y-98091922D01*
X117604176Y-98305954D01*
X117666978Y-98511687D01*
X117766575Y-98698018D01*
X117931325Y-98775035D01*
X118616360Y-98090000D01*
X117931325Y-97404965D01*
X117766575Y-97481982D01*
X117665508Y-97671864D01*
X117603426Y-97877816D01*
X117582717Y-98091922D01*
X116942000Y-98091922D01*
X116942000Y-97988357D01*
X116902340Y-97788977D01*
X116824546Y-97601165D01*
X116789896Y-97549307D01*
X116756166Y-97487048D01*
X116744128Y-97466959D01*
X116665920Y-97348434D01*
X116660888Y-97341325D01*
X117994965Y-97341325D01*
X118680000Y-98026360D01*
X119365035Y-97341325D01*
X119288018Y-97176575D01*
X119098136Y-97075508D01*
X118892184Y-97013426D01*
X118678078Y-96992717D01*
X118464046Y-97014176D01*
X118258313Y-97076978D01*
X118071982Y-97176575D01*
X117994965Y-97341325D01*
X116660888Y-97341325D01*
X116655700Y-97333998D01*
X116578505Y-97232196D01*
X116573770Y-97226133D01*
X116501590Y-97136375D01*
X116441026Y-97057661D01*
X116394705Y-96986882D01*
X116359428Y-96915125D01*
X116331987Y-96829822D01*
X116312751Y-96717480D01*
X116305000Y-96561305D01*
X116305000Y-94863613D01*
X117913614Y-93255000D01*
X122990606Y-93255000D01*
X123010000Y-93256910D01*
X123029394Y-93255000D01*
X123029401Y-93255000D01*
X123087433Y-93249284D01*
X123161891Y-93226698D01*
X123230512Y-93190019D01*
X123290658Y-93140658D01*
X123303029Y-93125584D01*
X124693615Y-91735000D01*
X130250606Y-91735000D01*
X130270000Y-91736910D01*
X130289394Y-91735000D01*
X130289401Y-91735000D01*
X130347433Y-91729284D01*
X130421891Y-91706698D01*
X130490512Y-91670019D01*
X130550658Y-91620658D01*
X130563029Y-91605584D01*
X131005590Y-91163024D01*
X131020658Y-91150658D01*
X131036570Y-91131270D01*
X131070018Y-91090513D01*
X131070019Y-91090512D01*
X131106698Y-91021891D01*
X131117913Y-90984920D01*
X131159477Y-90912422D01*
X131171281Y-90889329D01*
X131214585Y-90793513D01*
X131220861Y-90778426D01*
X131256021Y-90686121D01*
X131256865Y-90683874D01*
X131288330Y-90599010D01*
X131319790Y-90525017D01*
X131356976Y-90456092D01*
X131407771Y-90383743D01*
X131486420Y-90296077D01*
X131552285Y-90230212D01*
X131663912Y-90063151D01*
X131740802Y-89877523D01*
X131780000Y-89680461D01*
X131780000Y-89479539D01*
X131740802Y-89282477D01*
X131663912Y-89096849D01*
X131552285Y-88929788D01*
X131410212Y-88787715D01*
X131308870Y-88720000D01*
X132751130Y-88720000D01*
X132649788Y-88787715D01*
X132507715Y-88929788D01*
X132396088Y-89096849D01*
X132319198Y-89282477D01*
X132280000Y-89479539D01*
X132280000Y-89680461D01*
X132319198Y-89877523D01*
X132396088Y-90063151D01*
X132507715Y-90230212D01*
X132649788Y-90372285D01*
X132816849Y-90483912D01*
X133002477Y-90560802D01*
X133199539Y-90600000D01*
X133400461Y-90600000D01*
X133597523Y-90560802D01*
X133783151Y-90483912D01*
X133950212Y-90372285D01*
X134092285Y-90230212D01*
X134203912Y-90063151D01*
X134280802Y-89877523D01*
X134320000Y-89680461D01*
X134320000Y-89479539D01*
X134280802Y-89282477D01*
X134203912Y-89096849D01*
X134092285Y-88929788D01*
X133950212Y-88787715D01*
X133848870Y-88720000D01*
X135291130Y-88720000D01*
X135189788Y-88787715D01*
X135047715Y-88929788D01*
X134936088Y-89096849D01*
X134859198Y-89282477D01*
X134820000Y-89479539D01*
X134820000Y-89680461D01*
X134859198Y-89877523D01*
X134936088Y-90063151D01*
X135047715Y-90230212D01*
X135189788Y-90372285D01*
X135356849Y-90483912D01*
X135542477Y-90560802D01*
X135739539Y-90600000D01*
X135940461Y-90600000D01*
X136137523Y-90560802D01*
X136323151Y-90483912D01*
X136490212Y-90372285D01*
X136632285Y-90230212D01*
X136743912Y-90063151D01*
X136820802Y-89877523D01*
X136860000Y-89680461D01*
X136860000Y-89479539D01*
X136820802Y-89282477D01*
X136743912Y-89096849D01*
X136632285Y-88929788D01*
X136490212Y-88787715D01*
X136388870Y-88720000D01*
X137831130Y-88720000D01*
X137729788Y-88787715D01*
X137587715Y-88929788D01*
X137476088Y-89096849D01*
X137399198Y-89282477D01*
X137360000Y-89479539D01*
X137360000Y-89680461D01*
X137399198Y-89877523D01*
X137476088Y-90063151D01*
X137587715Y-90230212D01*
X137729788Y-90372285D01*
X137896849Y-90483912D01*
X138082477Y-90560802D01*
X138279539Y-90600000D01*
X138480461Y-90600000D01*
X138677523Y-90560802D01*
X138863151Y-90483912D01*
X139030212Y-90372285D01*
X139172285Y-90230212D01*
X139283912Y-90063151D01*
X139360802Y-89877523D01*
X139400000Y-89680461D01*
X139400000Y-89479539D01*
X139360802Y-89282477D01*
X139283912Y-89096849D01*
X139172285Y-88929788D01*
X139030212Y-88787715D01*
X138928870Y-88720000D01*
X166410000Y-88720000D01*
X166410001Y-102218455D01*
X162948457Y-105680000D01*
X108501544Y-105680000D01*
X107301083Y-104479539D01*
X109420000Y-104479539D01*
X109420000Y-104680461D01*
X109459198Y-104877523D01*
X109536088Y-105063151D01*
X109647715Y-105230212D01*
X109789788Y-105372285D01*
X109956849Y-105483912D01*
X110142477Y-105560802D01*
X110339539Y-105600000D01*
X110540461Y-105600000D01*
X110737523Y-105560802D01*
X110923151Y-105483912D01*
X111090212Y-105372285D01*
X111132497Y-105330000D01*
X111898403Y-105330000D01*
X111904775Y-105394691D01*
X111923644Y-105456897D01*
X111954287Y-105514225D01*
X111995526Y-105564474D01*
X112045775Y-105605713D01*
X112103103Y-105636356D01*
X112165309Y-105655225D01*
X112230000Y-105661597D01*
X112852500Y-105660000D01*
X112935000Y-105577500D01*
X112935000Y-104625000D01*
X113025000Y-104625000D01*
X113025000Y-105577500D01*
X113107500Y-105660000D01*
X113730000Y-105661597D01*
X113794691Y-105655225D01*
X113856897Y-105636356D01*
X113914225Y-105605713D01*
X113964474Y-105564474D01*
X114005713Y-105514225D01*
X114036356Y-105456897D01*
X114055225Y-105394691D01*
X114061597Y-105330000D01*
X114060000Y-104707500D01*
X113977500Y-104625000D01*
X113025000Y-104625000D01*
X112935000Y-104625000D01*
X111982500Y-104625000D01*
X111900000Y-104707500D01*
X111898403Y-105330000D01*
X111132497Y-105330000D01*
X111232285Y-105230212D01*
X111343912Y-105063151D01*
X111420802Y-104877523D01*
X111460000Y-104680461D01*
X111460000Y-104479539D01*
X111420802Y-104282477D01*
X111343912Y-104096849D01*
X111232285Y-103929788D01*
X111132497Y-103830000D01*
X111898403Y-103830000D01*
X111900000Y-104452500D01*
X111982500Y-104535000D01*
X112935000Y-104535000D01*
X112935000Y-103582500D01*
X113025000Y-103582500D01*
X113025000Y-104535000D01*
X113977500Y-104535000D01*
X114032961Y-104479539D01*
X114500000Y-104479539D01*
X114500000Y-104680461D01*
X114539198Y-104877523D01*
X114616088Y-105063151D01*
X114727715Y-105230212D01*
X114869788Y-105372285D01*
X115036849Y-105483912D01*
X115222477Y-105560802D01*
X115419539Y-105600000D01*
X115620461Y-105600000D01*
X115817523Y-105560802D01*
X116003151Y-105483912D01*
X116170212Y-105372285D01*
X116312285Y-105230212D01*
X116423912Y-105063151D01*
X116500802Y-104877523D01*
X116540000Y-104680461D01*
X116540000Y-104479539D01*
X116500802Y-104282477D01*
X116423912Y-104096849D01*
X116312285Y-103929788D01*
X116170212Y-103787715D01*
X116003151Y-103676088D01*
X115817523Y-103599198D01*
X115620461Y-103560000D01*
X115419539Y-103560000D01*
X115222477Y-103599198D01*
X115036849Y-103676088D01*
X114869788Y-103787715D01*
X114727715Y-103929788D01*
X114616088Y-104096849D01*
X114539198Y-104282477D01*
X114500000Y-104479539D01*
X114032961Y-104479539D01*
X114060000Y-104452500D01*
X114061597Y-103830000D01*
X114055225Y-103765309D01*
X114036356Y-103703103D01*
X114005713Y-103645775D01*
X113964474Y-103595526D01*
X113914225Y-103554287D01*
X113856897Y-103523644D01*
X113794691Y-103504775D01*
X113730000Y-103498403D01*
X113107500Y-103500000D01*
X113025000Y-103582500D01*
X112935000Y-103582500D01*
X112852500Y-103500000D01*
X112230000Y-103498403D01*
X112165309Y-103504775D01*
X112103103Y-103523644D01*
X112045775Y-103554287D01*
X111995526Y-103595526D01*
X111954287Y-103645775D01*
X111923644Y-103703103D01*
X111904775Y-103765309D01*
X111898403Y-103830000D01*
X111132497Y-103830000D01*
X111090212Y-103787715D01*
X110923151Y-103676088D01*
X110737523Y-103599198D01*
X110540461Y-103560000D01*
X110339539Y-103560000D01*
X110142477Y-103599198D01*
X109956849Y-103676088D01*
X109789788Y-103787715D01*
X109647715Y-103929788D01*
X109536088Y-104096849D01*
X109459198Y-104282477D01*
X109420000Y-104479539D01*
X107301083Y-104479539D01*
X105040000Y-102218457D01*
X105040000Y-101468697D01*
X105994942Y-101468697D01*
X106220493Y-101760231D01*
X106620850Y-101984660D01*
X107057298Y-102126670D01*
X107513065Y-102180805D01*
X107970635Y-102144983D01*
X108412425Y-102020582D01*
X108821457Y-101812383D01*
X108899507Y-101760231D01*
X109125058Y-101468697D01*
X107560000Y-99903640D01*
X105994942Y-101468697D01*
X105040000Y-101468697D01*
X105040000Y-99793065D01*
X105219195Y-99793065D01*
X105255017Y-100250635D01*
X105379418Y-100692425D01*
X105587617Y-101101457D01*
X105639769Y-101179507D01*
X105931303Y-101405058D01*
X107496360Y-99840000D01*
X107623640Y-99840000D01*
X109188697Y-101405058D01*
X109480231Y-101179507D01*
X109704660Y-100779150D01*
X109846670Y-100342702D01*
X109900805Y-99886935D01*
X109864983Y-99429365D01*
X109740582Y-98987575D01*
X109532383Y-98578543D01*
X109480231Y-98500493D01*
X109188697Y-98274942D01*
X107623640Y-99840000D01*
X107496360Y-99840000D01*
X105931303Y-98274942D01*
X105639769Y-98500493D01*
X105415340Y-98900850D01*
X105273330Y-99337298D01*
X105219195Y-99793065D01*
X105040000Y-99793065D01*
X105040000Y-98211303D01*
X105994942Y-98211303D01*
X107560000Y-99776360D01*
X109125058Y-98211303D01*
X108899507Y-97919769D01*
X108499150Y-97695340D01*
X108062702Y-97553330D01*
X107606935Y-97499195D01*
X107149365Y-97535017D01*
X106707575Y-97659418D01*
X106298543Y-97867617D01*
X106220493Y-97919769D01*
X105994942Y-98211303D01*
X105040000Y-98211303D01*
X105040000Y-88720000D01*
X109891130Y-88720000D01*
X109789788Y-88787715D01*
G04 #@! TA.AperFunction,Conductor*
D19*
G36*
X109789788Y-88787715D02*
G01*
X109647715Y-88929788D01*
X109536088Y-89096849D01*
X109459198Y-89282477D01*
X109420000Y-89479539D01*
X109420000Y-89680461D01*
X109459198Y-89877523D01*
X109536088Y-90063151D01*
X109647715Y-90230212D01*
X109713720Y-90296217D01*
X109793056Y-90384388D01*
X109844785Y-90457328D01*
X109882909Y-90526671D01*
X109915295Y-90600723D01*
X109947730Y-90685253D01*
X109948580Y-90687441D01*
X109984729Y-90779255D01*
X109991010Y-90793920D01*
X110035235Y-90889297D01*
X110046925Y-90911699D01*
X110080251Y-90968865D01*
X110081597Y-90973302D01*
X110093303Y-91011891D01*
X110129982Y-91080512D01*
X110179343Y-91140658D01*
X110194411Y-91153024D01*
X111336975Y-92295589D01*
X111349342Y-92310658D01*
X111409488Y-92360019D01*
X111478109Y-92396698D01*
X111529980Y-92412432D01*
X111552566Y-92419284D01*
X111559856Y-92420002D01*
X111610599Y-92425000D01*
X111610606Y-92425000D01*
X111630000Y-92426910D01*
X111649394Y-92425000D01*
X113805737Y-92425000D01*
X113869528Y-92427022D01*
X113912760Y-92431733D01*
X113943038Y-92437930D01*
X113966108Y-92445194D01*
X113988658Y-92454830D01*
X114016476Y-92469357D01*
X114053191Y-92490651D01*
X114098153Y-92517276D01*
X114102879Y-92520010D01*
X114154601Y-92549242D01*
X114164085Y-92554356D01*
X114184401Y-92564792D01*
X114206320Y-92579437D01*
X114319153Y-92626174D01*
X114438935Y-92650000D01*
X114561065Y-92650000D01*
X114680847Y-92626174D01*
X114793680Y-92579437D01*
X114895227Y-92511586D01*
X114981586Y-92425227D01*
X115049437Y-92323680D01*
X115096174Y-92210847D01*
X115120000Y-92091065D01*
X115120000Y-91968935D01*
X115096174Y-91849153D01*
X115049437Y-91736320D01*
X114981586Y-91634773D01*
X114895227Y-91548414D01*
X114793680Y-91480563D01*
X114680847Y-91433826D01*
X114561065Y-91410000D01*
X114438935Y-91410000D01*
X114319153Y-91433826D01*
X114206320Y-91480563D01*
X114184399Y-91495210D01*
X114164089Y-91505642D01*
X114154601Y-91510757D01*
X114102879Y-91539989D01*
X114098153Y-91542723D01*
X114053191Y-91569348D01*
X114016476Y-91590642D01*
X113988658Y-91605169D01*
X113966108Y-91614805D01*
X113943038Y-91622069D01*
X113912760Y-91628266D01*
X113869528Y-91632977D01*
X113805731Y-91635000D01*
X111793614Y-91635000D01*
X110905747Y-90747134D01*
X110855000Y-90683288D01*
X110855000Y-90661513D01*
X110857895Y-90654856D01*
X110898869Y-90598575D01*
X110971346Y-90518709D01*
X111062955Y-90423656D01*
X111068466Y-90417764D01*
X111163841Y-90312694D01*
X111178454Y-90295161D01*
X111214480Y-90248017D01*
X111232285Y-90230212D01*
X111261516Y-90186465D01*
X111266266Y-90180249D01*
X111287044Y-90148708D01*
X111288641Y-90145869D01*
X111343912Y-90063151D01*
X111420802Y-89877523D01*
X111460000Y-89680461D01*
X111460000Y-89479539D01*
X111420802Y-89282477D01*
X111343912Y-89096849D01*
X111232285Y-88929788D01*
X111090212Y-88787715D01*
X110988870Y-88720000D01*
X112431130Y-88720000D01*
X112329788Y-88787715D01*
X112187715Y-88929788D01*
X112076088Y-89096849D01*
X111999198Y-89282477D01*
X111960000Y-89479539D01*
X111960000Y-89680461D01*
X111999198Y-89877523D01*
X112076088Y-90063151D01*
X112187715Y-90230212D01*
X112329788Y-90372285D01*
X112496849Y-90483912D01*
X112682477Y-90560802D01*
X112879539Y-90600000D01*
X113080461Y-90600000D01*
X113277523Y-90560802D01*
X113463151Y-90483912D01*
X113630212Y-90372285D01*
X113672497Y-90330000D01*
X114438403Y-90330000D01*
X114444775Y-90394691D01*
X114463644Y-90456897D01*
X114494287Y-90514225D01*
X114535526Y-90564474D01*
X114585775Y-90605713D01*
X114643103Y-90636356D01*
X114705309Y-90655225D01*
X114770000Y-90661597D01*
X115392500Y-90660000D01*
X115475000Y-90577500D01*
X115475000Y-89625000D01*
X115565000Y-89625000D01*
X115565000Y-90577500D01*
X115647500Y-90660000D01*
X116270000Y-90661597D01*
X116334691Y-90655225D01*
X116396897Y-90636356D01*
X116454225Y-90605713D01*
X116504474Y-90564474D01*
X116545713Y-90514225D01*
X116576356Y-90456897D01*
X116595225Y-90394691D01*
X116601597Y-90330000D01*
X116978403Y-90330000D01*
X116984775Y-90394691D01*
X117003644Y-90456897D01*
X117034287Y-90514225D01*
X117075526Y-90564474D01*
X117125775Y-90605713D01*
X117183103Y-90636356D01*
X117245309Y-90655225D01*
X117310000Y-90661597D01*
X117932500Y-90660000D01*
X118015000Y-90577500D01*
X118015000Y-89625000D01*
X118105000Y-89625000D01*
X118105000Y-90577500D01*
X118187500Y-90660000D01*
X118810000Y-90661597D01*
X118874691Y-90655225D01*
X118936897Y-90636356D01*
X118994225Y-90605713D01*
X119044474Y-90564474D01*
X119085713Y-90514225D01*
X119116356Y-90456897D01*
X119135225Y-90394691D01*
X119141597Y-90330000D01*
X119140000Y-89707500D01*
X119057500Y-89625000D01*
X118105000Y-89625000D01*
X118015000Y-89625000D01*
X117062500Y-89625000D01*
X116980000Y-89707500D01*
X116978403Y-90330000D01*
X116601597Y-90330000D01*
X116600000Y-89707500D01*
X116517500Y-89625000D01*
X115565000Y-89625000D01*
X115475000Y-89625000D01*
X114522500Y-89625000D01*
X114440000Y-89707500D01*
X114438403Y-90330000D01*
X113672497Y-90330000D01*
X113772285Y-90230212D01*
X113883912Y-90063151D01*
X113960802Y-89877523D01*
X114000000Y-89680461D01*
X114000000Y-89479539D01*
X113960802Y-89282477D01*
X113883912Y-89096849D01*
X113772285Y-88929788D01*
X113630212Y-88787715D01*
X113528870Y-88720000D01*
X114458519Y-88720000D01*
X114444775Y-88765309D01*
X114438403Y-88830000D01*
X114440000Y-89452500D01*
X114522500Y-89535000D01*
X115475000Y-89535000D01*
X115475000Y-89515000D01*
X115565000Y-89515000D01*
X115565000Y-89535000D01*
X116517500Y-89535000D01*
X116600000Y-89452500D01*
X116601597Y-88830000D01*
X116595225Y-88765309D01*
X116581481Y-88720000D01*
X116998519Y-88720000D01*
X116984775Y-88765309D01*
X116978403Y-88830000D01*
X116980000Y-89452500D01*
X117062500Y-89535000D01*
X118015000Y-89535000D01*
X118015000Y-89515000D01*
X118105000Y-89515000D01*
X118105000Y-89535000D01*
X119057500Y-89535000D01*
X119140000Y-89452500D01*
X119141597Y-88830000D01*
X119135225Y-88765309D01*
X119121481Y-88720000D01*
X120051130Y-88720000D01*
X119949788Y-88787715D01*
X119807715Y-88929788D01*
X119696088Y-89096849D01*
X119619198Y-89282477D01*
X119580000Y-89479539D01*
X119580000Y-89680461D01*
X119619198Y-89877523D01*
X119696088Y-90063151D01*
X119807715Y-90230212D01*
X119949788Y-90372285D01*
X120116849Y-90483912D01*
X120302477Y-90560802D01*
X120499539Y-90600000D01*
X120700461Y-90600000D01*
X120897523Y-90560802D01*
X121083151Y-90483912D01*
X121250212Y-90372285D01*
X121392285Y-90230212D01*
X121503912Y-90063151D01*
X121580802Y-89877523D01*
X121620000Y-89680461D01*
X121620000Y-89479539D01*
X121580802Y-89282477D01*
X121503912Y-89096849D01*
X121392285Y-88929788D01*
X121250212Y-88787715D01*
X121148870Y-88720000D01*
X122591130Y-88720000D01*
X122489788Y-88787715D01*
X122347715Y-88929788D01*
X122236088Y-89096849D01*
X122159198Y-89282477D01*
X122120000Y-89479539D01*
X122120000Y-89680461D01*
X122159198Y-89877523D01*
X122236088Y-90063151D01*
X122284210Y-90135170D01*
X122288608Y-90143126D01*
X122307130Y-90172102D01*
X122327027Y-90199250D01*
X122347715Y-90230212D01*
X122355217Y-90237714D01*
X122389338Y-90284270D01*
X122401945Y-90300180D01*
X122490183Y-90403324D01*
X122494158Y-90407868D01*
X122577305Y-90500773D01*
X122641158Y-90577649D01*
X122675793Y-90630626D01*
X122682492Y-90648568D01*
X122677897Y-90660389D01*
X122625119Y-90726267D01*
X122306387Y-91045000D01*
X117219394Y-91045000D01*
X117200000Y-91043090D01*
X117180606Y-91045000D01*
X117180599Y-91045000D01*
X117129856Y-91049998D01*
X117122566Y-91050716D01*
X117106502Y-91055589D01*
X117048109Y-91073302D01*
X116979488Y-91109981D01*
X116919342Y-91159342D01*
X116906975Y-91174411D01*
X113764412Y-94316975D01*
X113749343Y-94329342D01*
X113699982Y-94389488D01*
X113674355Y-94437433D01*
X113663303Y-94458109D01*
X113640716Y-94532567D01*
X113633090Y-94610000D01*
X113635001Y-94629404D01*
X113635000Y-98670606D01*
X113633090Y-98690000D01*
X113635000Y-98709394D01*
X113635000Y-98709400D01*
X113638267Y-98742567D01*
X113640328Y-98763488D01*
X113640716Y-98767432D01*
X113663302Y-98841890D01*
X113699981Y-98910511D01*
X113749342Y-98970658D01*
X113764416Y-98983029D01*
X114596974Y-99815588D01*
X114609342Y-99830658D01*
X114669488Y-99880019D01*
X114702750Y-99897798D01*
X114738108Y-99916698D01*
X114771380Y-99926791D01*
X114626643Y-99898000D01*
X114423357Y-99898000D01*
X114223977Y-99937660D01*
X114036165Y-100015454D01*
X113867139Y-100128394D01*
X113723394Y-100272139D01*
X113610454Y-100441165D01*
X113532660Y-100628977D01*
X113493000Y-100828357D01*
X113493000Y-101031643D01*
X113532660Y-101231023D01*
X113610454Y-101418835D01*
X113723394Y-101587861D01*
X113787958Y-101652425D01*
X113858769Y-101734987D01*
X113898979Y-101801743D01*
X113926404Y-101869691D01*
X113947991Y-101949108D01*
X113968293Y-102044502D01*
X113969097Y-102048155D01*
X113976000Y-102078518D01*
X113976000Y-102144271D01*
X113973466Y-102170000D01*
X113976000Y-102195729D01*
X113976000Y-102195738D01*
X113983582Y-102272721D01*
X114013545Y-102371495D01*
X114062202Y-102462527D01*
X114127684Y-102542316D01*
X114147677Y-102558724D01*
X114861280Y-103272328D01*
X114877684Y-103292316D01*
X114897672Y-103308720D01*
X114897676Y-103308724D01*
X114921296Y-103328108D01*
X114957473Y-103357798D01*
X115048504Y-103406455D01*
X115147278Y-103436418D01*
X115224261Y-103444000D01*
X115224270Y-103444000D01*
X115249999Y-103446534D01*
X115275728Y-103444000D01*
X116662953Y-103444000D01*
X116919060Y-103700107D01*
X116996885Y-103785282D01*
X117045406Y-103851957D01*
X117074108Y-103905820D01*
X117089929Y-103952030D01*
X117097977Y-103999180D01*
X117099706Y-104055886D01*
X117094657Y-104127501D01*
X117083090Y-104216080D01*
X117066988Y-104321103D01*
X117066682Y-104323150D01*
X117054631Y-104405984D01*
X117040000Y-104479539D01*
X117040000Y-104680461D01*
X117079198Y-104877523D01*
X117156088Y-105063151D01*
X117267715Y-105230212D01*
X117409788Y-105372285D01*
X117576849Y-105483912D01*
X117762477Y-105560802D01*
X117959539Y-105600000D01*
X118160461Y-105600000D01*
X118357523Y-105560802D01*
X118543151Y-105483912D01*
X118710212Y-105372285D01*
X118852285Y-105230212D01*
X118963912Y-105063151D01*
X119040802Y-104877523D01*
X119080000Y-104680461D01*
X119080000Y-104479539D01*
X119580000Y-104479539D01*
X119580000Y-104680461D01*
X119619198Y-104877523D01*
X119696088Y-105063151D01*
X119807715Y-105230212D01*
X119949788Y-105372285D01*
X120116849Y-105483912D01*
X120302477Y-105560802D01*
X120499539Y-105600000D01*
X120700461Y-105600000D01*
X120897523Y-105560802D01*
X121083151Y-105483912D01*
X121250212Y-105372285D01*
X121392285Y-105230212D01*
X121503912Y-105063151D01*
X121580802Y-104877523D01*
X121620000Y-104680461D01*
X121620000Y-104479539D01*
X122120000Y-104479539D01*
X122120000Y-104680461D01*
X122159198Y-104877523D01*
X122236088Y-105063151D01*
X122347715Y-105230212D01*
X122489788Y-105372285D01*
X122656849Y-105483912D01*
X122842477Y-105560802D01*
X123039539Y-105600000D01*
X123240461Y-105600000D01*
X123437523Y-105560802D01*
X123623151Y-105483912D01*
X123790212Y-105372285D01*
X123932285Y-105230212D01*
X124043912Y-105063151D01*
X124120802Y-104877523D01*
X124160000Y-104680461D01*
X124160000Y-104479539D01*
X124660000Y-104479539D01*
X124660000Y-104680461D01*
X124699198Y-104877523D01*
X124776088Y-105063151D01*
X124887715Y-105230212D01*
X125029788Y-105372285D01*
X125196849Y-105483912D01*
X125382477Y-105560802D01*
X125579539Y-105600000D01*
X125780461Y-105600000D01*
X125977523Y-105560802D01*
X126163151Y-105483912D01*
X126330212Y-105372285D01*
X126472285Y-105230212D01*
X126583912Y-105063151D01*
X126660802Y-104877523D01*
X126700000Y-104680461D01*
X126700000Y-104479539D01*
X127200000Y-104479539D01*
X127200000Y-104680461D01*
X127239198Y-104877523D01*
X127316088Y-105063151D01*
X127427715Y-105230212D01*
X127569788Y-105372285D01*
X127736849Y-105483912D01*
X127922477Y-105560802D01*
X128119539Y-105600000D01*
X128320461Y-105600000D01*
X128517523Y-105560802D01*
X128703151Y-105483912D01*
X128870212Y-105372285D01*
X129012285Y-105230212D01*
X129123912Y-105063151D01*
X129200802Y-104877523D01*
X129240000Y-104680461D01*
X129240000Y-104479539D01*
X129200802Y-104282477D01*
X129123912Y-104096849D01*
X129012285Y-103929788D01*
X128984308Y-103901811D01*
X128936642Y-103843102D01*
X128921447Y-103825931D01*
X128821546Y-103722265D01*
X128815778Y-103716459D01*
X128719675Y-103622602D01*
X128643163Y-103543405D01*
X128615000Y-103507254D01*
X128615000Y-103441447D01*
X128644738Y-103403875D01*
X128715584Y-103333029D01*
X128730658Y-103320658D01*
X128780019Y-103260512D01*
X128816698Y-103191891D01*
X128839284Y-103117433D01*
X128845000Y-103059401D01*
X128845000Y-103059395D01*
X128846910Y-103040001D01*
X128845000Y-103020607D01*
X128845000Y-97750000D01*
X129483090Y-97750000D01*
X129485001Y-97769404D01*
X129485000Y-102580606D01*
X129483090Y-102600000D01*
X129485000Y-102619394D01*
X129485000Y-102619400D01*
X129487828Y-102648109D01*
X129490716Y-102677433D01*
X129496511Y-102696535D01*
X129513302Y-102751890D01*
X129549981Y-102820511D01*
X129599342Y-102880658D01*
X129614416Y-102893029D01*
X130187930Y-103466544D01*
X130238964Y-103529445D01*
X130246011Y-103546055D01*
X130241533Y-103561747D01*
X130216142Y-103607747D01*
X130165214Y-103677499D01*
X130094512Y-103764608D01*
X130093446Y-103765930D01*
X130014994Y-103863840D01*
X130005943Y-103875802D01*
X129930693Y-103981219D01*
X129915791Y-104004536D01*
X129904421Y-104024514D01*
X129856088Y-104096849D01*
X129779198Y-104282477D01*
X129740000Y-104479539D01*
X129740000Y-104680461D01*
X129779198Y-104877523D01*
X129856088Y-105063151D01*
X129967715Y-105230212D01*
X130109788Y-105372285D01*
X130276849Y-105483912D01*
X130462477Y-105560802D01*
X130659539Y-105600000D01*
X130860461Y-105600000D01*
X131057523Y-105560802D01*
X131243151Y-105483912D01*
X131410212Y-105372285D01*
X131552285Y-105230212D01*
X131663912Y-105063151D01*
X131740802Y-104877523D01*
X131780000Y-104680461D01*
X131780000Y-104479539D01*
X132280000Y-104479539D01*
X132280000Y-104680461D01*
X132319198Y-104877523D01*
X132396088Y-105063151D01*
X132507715Y-105230212D01*
X132649788Y-105372285D01*
X132816849Y-105483912D01*
X133002477Y-105560802D01*
X133199539Y-105600000D01*
X133400461Y-105600000D01*
X133597523Y-105560802D01*
X133783151Y-105483912D01*
X133950212Y-105372285D01*
X134092285Y-105230212D01*
X134203912Y-105063151D01*
X134280802Y-104877523D01*
X134320000Y-104680461D01*
X134320000Y-104479539D01*
X134820000Y-104479539D01*
X134820000Y-104680461D01*
X134859198Y-104877523D01*
X134936088Y-105063151D01*
X135047715Y-105230212D01*
X135189788Y-105372285D01*
X135356849Y-105483912D01*
X135542477Y-105560802D01*
X135739539Y-105600000D01*
X135940461Y-105600000D01*
X136137523Y-105560802D01*
X136323151Y-105483912D01*
X136490212Y-105372285D01*
X136632285Y-105230212D01*
X136743912Y-105063151D01*
X136820802Y-104877523D01*
X136860000Y-104680461D01*
X136860000Y-104479539D01*
X137360000Y-104479539D01*
X137360000Y-104680461D01*
X137399198Y-104877523D01*
X137476088Y-105063151D01*
X137587715Y-105230212D01*
X137729788Y-105372285D01*
X137896849Y-105483912D01*
X138082477Y-105560802D01*
X138279539Y-105600000D01*
X138480461Y-105600000D01*
X138677523Y-105560802D01*
X138863151Y-105483912D01*
X139030212Y-105372285D01*
X139172285Y-105230212D01*
X139283912Y-105063151D01*
X139360802Y-104877523D01*
X139400000Y-104680461D01*
X139400000Y-104479539D01*
X139360802Y-104282477D01*
X139283912Y-104096849D01*
X139172285Y-103929788D01*
X139030212Y-103787715D01*
X138863151Y-103676088D01*
X138677523Y-103599198D01*
X138480461Y-103560000D01*
X138279539Y-103560000D01*
X138082477Y-103599198D01*
X137896849Y-103676088D01*
X137729788Y-103787715D01*
X137587715Y-103929788D01*
X137476088Y-104096849D01*
X137399198Y-104282477D01*
X137360000Y-104479539D01*
X136860000Y-104479539D01*
X136820802Y-104282477D01*
X136743912Y-104096849D01*
X136632285Y-103929788D01*
X136490212Y-103787715D01*
X136323151Y-103676088D01*
X136137523Y-103599198D01*
X135940461Y-103560000D01*
X135739539Y-103560000D01*
X135542477Y-103599198D01*
X135356849Y-103676088D01*
X135189788Y-103787715D01*
X135047715Y-103929788D01*
X134936088Y-104096849D01*
X134859198Y-104282477D01*
X134820000Y-104479539D01*
X134320000Y-104479539D01*
X134280802Y-104282477D01*
X134203912Y-104096849D01*
X134157596Y-104027532D01*
X134145478Y-104006119D01*
X134131283Y-103983686D01*
X134057610Y-103879021D01*
X134049183Y-103867691D01*
X133972742Y-103770336D01*
X133972148Y-103769582D01*
X133903834Y-103683211D01*
X133855256Y-103614523D01*
X133831422Y-103569534D01*
X133827160Y-103553546D01*
X133827164Y-103553478D01*
X133835026Y-103535281D01*
X133886081Y-103472533D01*
X134163614Y-103195000D01*
X140736387Y-103195000D01*
X140886975Y-103345589D01*
X140899342Y-103360658D01*
X140959488Y-103410019D01*
X141028109Y-103446698D01*
X141102567Y-103469284D01*
X141160599Y-103475000D01*
X141160606Y-103475000D01*
X141180000Y-103476910D01*
X141199394Y-103475000D01*
X157900606Y-103475000D01*
X157920000Y-103476910D01*
X157939394Y-103475000D01*
X157939401Y-103475000D01*
X157997433Y-103469284D01*
X158071891Y-103446698D01*
X158140512Y-103410019D01*
X158200658Y-103360658D01*
X158213029Y-103345584D01*
X159135590Y-102423024D01*
X159150658Y-102410658D01*
X159200019Y-102350512D01*
X159236698Y-102281891D01*
X159259284Y-102207433D01*
X159265000Y-102149401D01*
X159265000Y-102149394D01*
X159266910Y-102130000D01*
X159265000Y-102110606D01*
X159265000Y-101468697D01*
X162304942Y-101468697D01*
X162530493Y-101760231D01*
X162930850Y-101984660D01*
X163367298Y-102126670D01*
X163823065Y-102180805D01*
X164280635Y-102144983D01*
X164722425Y-102020582D01*
X165131457Y-101812383D01*
X165209507Y-101760231D01*
X165435058Y-101468697D01*
X163870000Y-99903640D01*
X162304942Y-101468697D01*
X159265000Y-101468697D01*
X159265000Y-99793065D01*
X161529195Y-99793065D01*
X161565017Y-100250635D01*
X161689418Y-100692425D01*
X161897617Y-101101457D01*
X161949769Y-101179507D01*
X162241303Y-101405058D01*
X163806360Y-99840000D01*
X163933640Y-99840000D01*
X165498697Y-101405058D01*
X165790231Y-101179507D01*
X166014660Y-100779150D01*
X166156670Y-100342702D01*
X166210805Y-99886935D01*
X166174983Y-99429365D01*
X166050582Y-98987575D01*
X165842383Y-98578543D01*
X165790231Y-98500493D01*
X165498697Y-98274942D01*
X163933640Y-99840000D01*
X163806360Y-99840000D01*
X162241303Y-98274942D01*
X161949769Y-98500493D01*
X161725340Y-98900850D01*
X161583330Y-99337298D01*
X161529195Y-99793065D01*
X159265000Y-99793065D01*
X159265000Y-98839394D01*
X159266910Y-98820000D01*
X159265000Y-98800606D01*
X159265000Y-98800599D01*
X159259284Y-98742567D01*
X159236698Y-98668109D01*
X159200019Y-98599488D01*
X159150658Y-98539342D01*
X159135589Y-98526975D01*
X158819917Y-98211303D01*
X162304942Y-98211303D01*
X163870000Y-99776360D01*
X165435058Y-98211303D01*
X165209507Y-97919769D01*
X164809150Y-97695340D01*
X164372702Y-97553330D01*
X163916935Y-97499195D01*
X163459365Y-97535017D01*
X163017575Y-97659418D01*
X162608543Y-97867617D01*
X162530493Y-97919769D01*
X162304942Y-98211303D01*
X158819917Y-98211303D01*
X158443029Y-97834416D01*
X158430658Y-97819342D01*
X158370512Y-97769981D01*
X158301891Y-97733302D01*
X158227433Y-97710716D01*
X158169401Y-97705000D01*
X158169394Y-97705000D01*
X158150000Y-97703090D01*
X158130606Y-97705000D01*
X157058820Y-97705000D01*
X156905138Y-97697241D01*
X156795323Y-97678089D01*
X156712419Y-97650874D01*
X156642791Y-97615865D01*
X156573913Y-97569650D01*
X156497064Y-97508889D01*
X156409154Y-97436105D01*
X156403260Y-97431363D01*
X156303435Y-97353323D01*
X156289123Y-97342872D01*
X156172844Y-97263683D01*
X156152760Y-97251255D01*
X156088111Y-97215061D01*
X156028835Y-97175454D01*
X155841023Y-97097660D01*
X155641643Y-97058000D01*
X155438357Y-97058000D01*
X155238977Y-97097660D01*
X155051165Y-97175454D01*
X154882139Y-97288394D01*
X154738394Y-97432139D01*
X154625454Y-97601165D01*
X154547660Y-97788977D01*
X154508000Y-97988357D01*
X154508000Y-98191643D01*
X154547660Y-98391023D01*
X154625454Y-98578835D01*
X154738394Y-98747861D01*
X154882139Y-98891606D01*
X155051165Y-99004546D01*
X155238977Y-99082340D01*
X155438357Y-99122000D01*
X155641643Y-99122000D01*
X155841023Y-99082340D01*
X156028835Y-99004546D01*
X156074778Y-98973848D01*
X156131343Y-98944105D01*
X156152098Y-98931983D01*
X156270960Y-98855269D01*
X156286077Y-98844766D01*
X156388050Y-98768632D01*
X156394719Y-98763488D01*
X156484744Y-98691795D01*
X156563819Y-98631241D01*
X156634766Y-98584839D01*
X156706443Y-98549510D01*
X156791393Y-98522049D01*
X156903180Y-98502782D01*
X157058752Y-98495000D01*
X157986387Y-98495000D01*
X158475001Y-98983615D01*
X158475000Y-101966386D01*
X157756387Y-102685000D01*
X141343614Y-102685000D01*
X141193029Y-102534416D01*
X141180658Y-102519342D01*
X141120512Y-102469981D01*
X141051891Y-102433302D01*
X140977433Y-102410716D01*
X140919401Y-102405000D01*
X140919394Y-102405000D01*
X140900000Y-102403090D01*
X140880606Y-102405000D01*
X134019390Y-102405000D01*
X133999999Y-102403090D01*
X133980608Y-102405000D01*
X133980599Y-102405000D01*
X133922567Y-102410716D01*
X133848109Y-102433302D01*
X133779488Y-102469981D01*
X133719342Y-102519342D01*
X133706975Y-102534411D01*
X133034411Y-103206976D01*
X133019343Y-103219342D01*
X133006976Y-103234411D01*
X133006975Y-103234412D01*
X132998153Y-103245162D01*
X132969982Y-103279488D01*
X132944392Y-103327364D01*
X132933303Y-103348109D01*
X132910716Y-103422567D01*
X132910110Y-103428721D01*
X132893430Y-103454521D01*
X132892745Y-103455586D01*
X132842976Y-103533366D01*
X132792974Y-103607424D01*
X132736819Y-103682640D01*
X132667648Y-103764801D01*
X132576169Y-103861334D01*
X132507715Y-103929788D01*
X132396088Y-104096849D01*
X132319198Y-104282477D01*
X132280000Y-104479539D01*
X131780000Y-104479539D01*
X131740802Y-104282477D01*
X131663912Y-104096849D01*
X131552285Y-103929788D01*
X131484095Y-103861598D01*
X131394106Y-103766095D01*
X131327060Y-103684969D01*
X131273114Y-103610358D01*
X131225277Y-103536325D01*
X131177509Y-103457797D01*
X131176777Y-103456602D01*
X131150382Y-103413713D01*
X131149284Y-103402567D01*
X131146907Y-103394729D01*
X131140323Y-103373025D01*
X131126698Y-103328109D01*
X131090019Y-103259488D01*
X131040658Y-103199342D01*
X131025589Y-103186975D01*
X130275000Y-102436387D01*
X130275000Y-101468697D01*
X130984942Y-101468697D01*
X131210493Y-101760231D01*
X131610850Y-101984660D01*
X132047298Y-102126670D01*
X132503065Y-102180805D01*
X132960635Y-102144983D01*
X133402425Y-102020582D01*
X133811457Y-101812383D01*
X133889507Y-101760231D01*
X134115058Y-101468697D01*
X137314942Y-101468697D01*
X137540493Y-101760231D01*
X137940850Y-101984660D01*
X138377298Y-102126670D01*
X138833065Y-102180805D01*
X139290635Y-102144983D01*
X139732425Y-102020582D01*
X140141457Y-101812383D01*
X140219507Y-101760231D01*
X140445058Y-101468697D01*
X138880000Y-99903640D01*
X137314942Y-101468697D01*
X134115058Y-101468697D01*
X132550000Y-99903640D01*
X130984942Y-101468697D01*
X130275000Y-101468697D01*
X130275000Y-100357115D01*
X130369418Y-100692425D01*
X130577617Y-101101457D01*
X130629769Y-101179507D01*
X130921303Y-101405058D01*
X132486360Y-99840000D01*
X132613640Y-99840000D01*
X134178697Y-101405058D01*
X134470231Y-101179507D01*
X134694660Y-100779150D01*
X134836670Y-100342702D01*
X134890805Y-99886935D01*
X134883457Y-99793065D01*
X136539195Y-99793065D01*
X136575017Y-100250635D01*
X136699418Y-100692425D01*
X136907617Y-101101457D01*
X136959769Y-101179507D01*
X137251303Y-101405058D01*
X138816360Y-99840000D01*
X138943640Y-99840000D01*
X140508697Y-101405058D01*
X140800231Y-101179507D01*
X140997075Y-100828357D01*
X144813000Y-100828357D01*
X144813000Y-101031643D01*
X144852660Y-101231023D01*
X144930454Y-101418835D01*
X145043394Y-101587861D01*
X145187139Y-101731606D01*
X145356165Y-101844546D01*
X145543977Y-101922340D01*
X145743357Y-101962000D01*
X145946643Y-101962000D01*
X146146023Y-101922340D01*
X146333835Y-101844546D01*
X146502861Y-101731606D01*
X146646606Y-101587861D01*
X146759546Y-101418835D01*
X146837340Y-101231023D01*
X146877000Y-101031643D01*
X146877000Y-100828357D01*
X147583000Y-100828357D01*
X147583000Y-101031643D01*
X147622660Y-101231023D01*
X147700454Y-101418835D01*
X147813394Y-101587861D01*
X147957139Y-101731606D01*
X148126165Y-101844546D01*
X148313977Y-101922340D01*
X148513357Y-101962000D01*
X148716643Y-101962000D01*
X148916023Y-101922340D01*
X149103835Y-101844546D01*
X149272861Y-101731606D01*
X149416606Y-101587861D01*
X149529546Y-101418835D01*
X149607340Y-101231023D01*
X149647000Y-101031643D01*
X149647000Y-100828357D01*
X150353000Y-100828357D01*
X150353000Y-101031643D01*
X150392660Y-101231023D01*
X150470454Y-101418835D01*
X150583394Y-101587861D01*
X150727139Y-101731606D01*
X150896165Y-101844546D01*
X151083977Y-101922340D01*
X151283357Y-101962000D01*
X151486643Y-101962000D01*
X151686023Y-101922340D01*
X151873835Y-101844546D01*
X152042861Y-101731606D01*
X152186606Y-101587861D01*
X152299546Y-101418835D01*
X152377340Y-101231023D01*
X152417000Y-101031643D01*
X152417000Y-100828357D01*
X153123000Y-100828357D01*
X153123000Y-101031643D01*
X153162660Y-101231023D01*
X153240454Y-101418835D01*
X153353394Y-101587861D01*
X153497139Y-101731606D01*
X153666165Y-101844546D01*
X153853977Y-101922340D01*
X154053357Y-101962000D01*
X154256643Y-101962000D01*
X154456023Y-101922340D01*
X154643835Y-101844546D01*
X154812861Y-101731606D01*
X154956606Y-101587861D01*
X155069546Y-101418835D01*
X155147340Y-101231023D01*
X155187000Y-101031643D01*
X155187000Y-100828357D01*
X155893000Y-100828357D01*
X155893000Y-101031643D01*
X155932660Y-101231023D01*
X156010454Y-101418835D01*
X156123394Y-101587861D01*
X156267139Y-101731606D01*
X156436165Y-101844546D01*
X156623977Y-101922340D01*
X156823357Y-101962000D01*
X157026643Y-101962000D01*
X157226023Y-101922340D01*
X157413835Y-101844546D01*
X157582861Y-101731606D01*
X157726606Y-101587861D01*
X157839546Y-101418835D01*
X157917340Y-101231023D01*
X157957000Y-101031643D01*
X157957000Y-100828357D01*
X157917340Y-100628977D01*
X157839546Y-100441165D01*
X157726606Y-100272139D01*
X157582861Y-100128394D01*
X157413835Y-100015454D01*
X157226023Y-99937660D01*
X157026643Y-99898000D01*
X156823357Y-99898000D01*
X156623977Y-99937660D01*
X156436165Y-100015454D01*
X156267139Y-100128394D01*
X156123394Y-100272139D01*
X156010454Y-100441165D01*
X155932660Y-100628977D01*
X155893000Y-100828357D01*
X155187000Y-100828357D01*
X155147340Y-100628977D01*
X155069546Y-100441165D01*
X154956606Y-100272139D01*
X154812861Y-100128394D01*
X154643835Y-100015454D01*
X154456023Y-99937660D01*
X154256643Y-99898000D01*
X154053357Y-99898000D01*
X153853977Y-99937660D01*
X153666165Y-100015454D01*
X153497139Y-100128394D01*
X153353394Y-100272139D01*
X153240454Y-100441165D01*
X153162660Y-100628977D01*
X153123000Y-100828357D01*
X152417000Y-100828357D01*
X152377340Y-100628977D01*
X152299546Y-100441165D01*
X152186606Y-100272139D01*
X152042861Y-100128394D01*
X151873835Y-100015454D01*
X151686023Y-99937660D01*
X151486643Y-99898000D01*
X151283357Y-99898000D01*
X151083977Y-99937660D01*
X150896165Y-100015454D01*
X150727139Y-100128394D01*
X150583394Y-100272139D01*
X150470454Y-100441165D01*
X150392660Y-100628977D01*
X150353000Y-100828357D01*
X149647000Y-100828357D01*
X149607340Y-100628977D01*
X149529546Y-100441165D01*
X149416606Y-100272139D01*
X149272861Y-100128394D01*
X149103835Y-100015454D01*
X148916023Y-99937660D01*
X148716643Y-99898000D01*
X148513357Y-99898000D01*
X148313977Y-99937660D01*
X148126165Y-100015454D01*
X147957139Y-100128394D01*
X147813394Y-100272139D01*
X147700454Y-100441165D01*
X147622660Y-100628977D01*
X147583000Y-100828357D01*
X146877000Y-100828357D01*
X146837340Y-100628977D01*
X146759546Y-100441165D01*
X146646606Y-100272139D01*
X146502861Y-100128394D01*
X146333835Y-100015454D01*
X146146023Y-99937660D01*
X145946643Y-99898000D01*
X145743357Y-99898000D01*
X145543977Y-99937660D01*
X145356165Y-100015454D01*
X145187139Y-100128394D01*
X145043394Y-100272139D01*
X144930454Y-100441165D01*
X144852660Y-100628977D01*
X144813000Y-100828357D01*
X140997075Y-100828357D01*
X141024660Y-100779150D01*
X141166670Y-100342702D01*
X141220805Y-99886935D01*
X141184983Y-99429365D01*
X141060582Y-98987575D01*
X140852383Y-98578543D01*
X140800231Y-98500493D01*
X140508697Y-98274942D01*
X138943640Y-99840000D01*
X138816360Y-99840000D01*
X137251303Y-98274942D01*
X136959769Y-98500493D01*
X136735340Y-98900850D01*
X136593330Y-99337298D01*
X136539195Y-99793065D01*
X134883457Y-99793065D01*
X134854983Y-99429365D01*
X134730582Y-98987575D01*
X134522383Y-98578543D01*
X134470231Y-98500493D01*
X134178697Y-98274942D01*
X132613640Y-99840000D01*
X132486360Y-99840000D01*
X130921303Y-98274942D01*
X130629769Y-98500493D01*
X130405340Y-98900850D01*
X130275000Y-99301432D01*
X130275000Y-98211303D01*
X130984942Y-98211303D01*
X132550000Y-99776360D01*
X134115058Y-98211303D01*
X137314942Y-98211303D01*
X138880000Y-99776360D01*
X140445058Y-98211303D01*
X140219507Y-97919769D01*
X139819150Y-97695340D01*
X139382702Y-97553330D01*
X138926935Y-97499195D01*
X138469365Y-97535017D01*
X138027575Y-97659418D01*
X137618543Y-97867617D01*
X137540493Y-97919769D01*
X137314942Y-98211303D01*
X134115058Y-98211303D01*
X133889507Y-97919769D01*
X133489150Y-97695340D01*
X133052702Y-97553330D01*
X132596935Y-97499195D01*
X132139365Y-97535017D01*
X131697575Y-97659418D01*
X131288543Y-97867617D01*
X131210493Y-97919769D01*
X130984942Y-98211303D01*
X130275000Y-98211303D01*
X130275000Y-97913613D01*
X131283614Y-96905000D01*
X140286387Y-96905000D01*
X141736975Y-98355589D01*
X141749342Y-98370658D01*
X141809488Y-98420019D01*
X141878109Y-98456698D01*
X141952567Y-98479284D01*
X142010599Y-98485000D01*
X142010608Y-98485000D01*
X142029999Y-98486910D01*
X142049390Y-98485000D01*
X145711215Y-98485000D01*
X145865837Y-98492770D01*
X145976622Y-98511980D01*
X146060544Y-98539320D01*
X146131186Y-98574492D01*
X146201088Y-98620803D01*
X146279049Y-98681474D01*
X146368011Y-98753720D01*
X146374289Y-98758666D01*
X146475187Y-98835763D01*
X146489904Y-98846247D01*
X146607476Y-98924210D01*
X146627900Y-98936492D01*
X146688698Y-98969489D01*
X146741165Y-99004546D01*
X146928977Y-99082340D01*
X147128357Y-99122000D01*
X147331643Y-99122000D01*
X147531023Y-99082340D01*
X147718835Y-99004546D01*
X147887861Y-98891606D01*
X147940792Y-98838675D01*
X149314965Y-98838675D01*
X149391982Y-99003425D01*
X149581864Y-99104492D01*
X149787816Y-99166574D01*
X150001922Y-99187283D01*
X150215954Y-99165824D01*
X150421687Y-99103022D01*
X150608018Y-99003425D01*
X150685035Y-98838675D01*
X150000000Y-98153640D01*
X149314965Y-98838675D01*
X147940792Y-98838675D01*
X148031606Y-98747861D01*
X148144546Y-98578835D01*
X148222340Y-98391023D01*
X148262000Y-98191643D01*
X148262000Y-98091922D01*
X148902717Y-98091922D01*
X148924176Y-98305954D01*
X148986978Y-98511687D01*
X149086575Y-98698018D01*
X149251325Y-98775035D01*
X149936360Y-98090000D01*
X150063640Y-98090000D01*
X150748675Y-98775035D01*
X150913425Y-98698018D01*
X151014492Y-98508136D01*
X151076574Y-98302184D01*
X151097283Y-98088078D01*
X151087285Y-97988357D01*
X151738000Y-97988357D01*
X151738000Y-98191643D01*
X151777660Y-98391023D01*
X151855454Y-98578835D01*
X151968394Y-98747861D01*
X152112139Y-98891606D01*
X152281165Y-99004546D01*
X152468977Y-99082340D01*
X152668357Y-99122000D01*
X152871643Y-99122000D01*
X153071023Y-99082340D01*
X153258835Y-99004546D01*
X153427861Y-98891606D01*
X153571606Y-98747861D01*
X153684546Y-98578835D01*
X153762340Y-98391023D01*
X153802000Y-98191643D01*
X153802000Y-97988357D01*
X153762340Y-97788977D01*
X153684546Y-97601165D01*
X153571606Y-97432139D01*
X153427861Y-97288394D01*
X153258835Y-97175454D01*
X153071023Y-97097660D01*
X152871643Y-97058000D01*
X152668357Y-97058000D01*
X152468977Y-97097660D01*
X152281165Y-97175454D01*
X152112139Y-97288394D01*
X151968394Y-97432139D01*
X151855454Y-97601165D01*
X151777660Y-97788977D01*
X151738000Y-97988357D01*
X151087285Y-97988357D01*
X151075824Y-97874046D01*
X151013022Y-97668313D01*
X150913425Y-97481982D01*
X150748675Y-97404965D01*
X150063640Y-98090000D01*
X149936360Y-98090000D01*
X149251325Y-97404965D01*
X149086575Y-97481982D01*
X148985508Y-97671864D01*
X148923426Y-97877816D01*
X148902717Y-98091922D01*
X148262000Y-98091922D01*
X148262000Y-97988357D01*
X148222340Y-97788977D01*
X148144546Y-97601165D01*
X148031606Y-97432139D01*
X147940792Y-97341325D01*
X149314965Y-97341325D01*
X150000000Y-98026360D01*
X150685035Y-97341325D01*
X150608018Y-97176575D01*
X150418136Y-97075508D01*
X150212184Y-97013426D01*
X149998078Y-96992717D01*
X149784046Y-97014176D01*
X149578313Y-97076978D01*
X149391982Y-97176575D01*
X149314965Y-97341325D01*
X147940792Y-97341325D01*
X147887861Y-97288394D01*
X147718835Y-97175454D01*
X147531023Y-97097660D01*
X147331643Y-97058000D01*
X147128357Y-97058000D01*
X146928977Y-97097660D01*
X146741165Y-97175454D01*
X146688698Y-97210511D01*
X146627901Y-97243507D01*
X146607476Y-97255789D01*
X146489904Y-97333752D01*
X146475187Y-97344236D01*
X146374289Y-97421333D01*
X146368011Y-97426279D01*
X146279049Y-97498525D01*
X146201088Y-97559196D01*
X146131186Y-97605507D01*
X146060544Y-97640679D01*
X145976622Y-97668019D01*
X145865837Y-97687229D01*
X145711212Y-97695000D01*
X142193614Y-97695000D01*
X140743029Y-96244416D01*
X140730658Y-96229342D01*
X140670512Y-96179981D01*
X140601891Y-96143302D01*
X140527433Y-96120716D01*
X140469401Y-96115000D01*
X140469394Y-96115000D01*
X140450000Y-96113090D01*
X140430606Y-96115000D01*
X131139394Y-96115000D01*
X131120000Y-96113090D01*
X131100606Y-96115000D01*
X131100599Y-96115000D01*
X131049856Y-96119998D01*
X131042566Y-96120716D01*
X131020423Y-96127433D01*
X130968109Y-96143302D01*
X130899488Y-96179981D01*
X130839342Y-96229342D01*
X130826975Y-96244411D01*
X129614411Y-97456976D01*
X129599343Y-97469342D01*
X129549982Y-97529488D01*
X129547027Y-97535017D01*
X129513303Y-97598109D01*
X129490716Y-97672567D01*
X129483090Y-97750000D01*
X128845000Y-97750000D01*
X128845000Y-97063613D01*
X128995589Y-96913025D01*
X129010658Y-96900658D01*
X129030322Y-96876698D01*
X129060018Y-96840512D01*
X129069610Y-96822568D01*
X129096669Y-96771944D01*
X130763614Y-95105000D01*
X140726387Y-95105000D01*
X141956975Y-96335589D01*
X141969342Y-96350658D01*
X141984411Y-96363025D01*
X141998038Y-96374208D01*
X142029488Y-96400019D01*
X142098109Y-96436698D01*
X142172567Y-96459284D01*
X142230599Y-96465000D01*
X142230608Y-96465000D01*
X142249999Y-96466910D01*
X142269390Y-96465000D01*
X144410606Y-96465000D01*
X144430000Y-96466910D01*
X144449394Y-96465000D01*
X144449401Y-96465000D01*
X144507433Y-96459284D01*
X144581891Y-96436698D01*
X144650512Y-96400019D01*
X144710658Y-96350658D01*
X144723029Y-96335584D01*
X146113615Y-94945000D01*
X155206387Y-94945000D01*
X155619760Y-95358374D01*
X155663449Y-95404924D01*
X155690692Y-95438830D01*
X155707717Y-95464619D01*
X155718893Y-95486066D01*
X155728029Y-95508834D01*
X155737430Y-95538785D01*
X155748327Y-95579774D01*
X155761294Y-95630402D01*
X155762704Y-95635683D01*
X155778607Y-95692926D01*
X155781698Y-95703249D01*
X155788681Y-95724982D01*
X155793826Y-95750847D01*
X155840563Y-95863680D01*
X155908414Y-95965227D01*
X155994773Y-96051586D01*
X156096320Y-96119437D01*
X156209153Y-96166174D01*
X156328935Y-96190000D01*
X156451065Y-96190000D01*
X156570847Y-96166174D01*
X156683680Y-96119437D01*
X156785227Y-96051586D01*
X156871586Y-95965227D01*
X156939437Y-95863680D01*
X156986174Y-95750847D01*
X157010000Y-95631065D01*
X157010000Y-95508935D01*
X156986174Y-95389153D01*
X156939437Y-95276320D01*
X156871586Y-95174773D01*
X156785227Y-95088414D01*
X156683680Y-95020563D01*
X156570847Y-94973826D01*
X156544982Y-94968681D01*
X156523249Y-94961698D01*
X156512926Y-94958607D01*
X156455683Y-94942704D01*
X156450402Y-94941294D01*
X156399774Y-94928327D01*
X156358785Y-94917430D01*
X156328834Y-94908029D01*
X156306066Y-94898893D01*
X156284619Y-94887717D01*
X156258830Y-94870692D01*
X156224924Y-94843449D01*
X156178374Y-94799760D01*
X155663029Y-94284416D01*
X155650658Y-94269342D01*
X155590512Y-94219981D01*
X155521891Y-94183302D01*
X155447433Y-94160716D01*
X155389401Y-94155000D01*
X155389394Y-94155000D01*
X155370000Y-94153090D01*
X155350606Y-94155000D01*
X145969394Y-94155000D01*
X145950000Y-94153090D01*
X145930606Y-94155000D01*
X145930599Y-94155000D01*
X145872567Y-94160716D01*
X145798108Y-94183302D01*
X145729488Y-94219981D01*
X145684411Y-94256974D01*
X145684405Y-94256980D01*
X145669342Y-94269342D01*
X145656980Y-94284405D01*
X144266387Y-95675000D01*
X142413614Y-95675000D01*
X141183029Y-94444416D01*
X141170658Y-94429342D01*
X141110512Y-94379981D01*
X141041891Y-94343302D01*
X140967433Y-94320716D01*
X140909401Y-94315000D01*
X140909394Y-94315000D01*
X140890000Y-94313090D01*
X140870606Y-94315000D01*
X130619390Y-94315000D01*
X130599999Y-94313090D01*
X130580608Y-94315000D01*
X130580599Y-94315000D01*
X130522567Y-94320716D01*
X130448109Y-94343302D01*
X130379488Y-94379981D01*
X130319342Y-94429342D01*
X130306975Y-94444411D01*
X128464416Y-96286971D01*
X128449342Y-96299342D01*
X128399981Y-96359489D01*
X128363331Y-96428055D01*
X128184416Y-96606971D01*
X128169342Y-96619342D01*
X128119981Y-96679489D01*
X128083302Y-96748110D01*
X128076088Y-96771892D01*
X128060716Y-96822567D01*
X128059923Y-96830615D01*
X128055000Y-96880600D01*
X128055000Y-96880606D01*
X128053090Y-96900000D01*
X128055000Y-96919394D01*
X128055001Y-102876386D01*
X127954416Y-102976971D01*
X127939342Y-102989342D01*
X127889981Y-103049489D01*
X127853302Y-103118110D01*
X127843541Y-103150288D01*
X127790888Y-103249143D01*
X127778744Y-103275198D01*
X127739662Y-103372231D01*
X127733510Y-103389104D01*
X127702818Y-103482861D01*
X127702013Y-103485360D01*
X127674887Y-103571031D01*
X127647527Y-103644130D01*
X127614515Y-103710639D01*
X127568125Y-103779685D01*
X127492968Y-103864535D01*
X127427715Y-103929788D01*
X127316088Y-104096849D01*
X127239198Y-104282477D01*
X127200000Y-104479539D01*
X126700000Y-104479539D01*
X126660802Y-104282477D01*
X126583912Y-104096849D01*
X126472285Y-103929788D01*
X126330212Y-103787715D01*
X126163151Y-103676088D01*
X125977523Y-103599198D01*
X125780461Y-103560000D01*
X125579539Y-103560000D01*
X125382477Y-103599198D01*
X125196849Y-103676088D01*
X125029788Y-103787715D01*
X124887715Y-103929788D01*
X124776088Y-104096849D01*
X124699198Y-104282477D01*
X124660000Y-104479539D01*
X124160000Y-104479539D01*
X124120802Y-104282477D01*
X124043912Y-104096849D01*
X123932285Y-103929788D01*
X123790212Y-103787715D01*
X123623151Y-103676088D01*
X123437523Y-103599198D01*
X123240461Y-103560000D01*
X123039539Y-103560000D01*
X122842477Y-103599198D01*
X122656849Y-103676088D01*
X122489788Y-103787715D01*
X122347715Y-103929788D01*
X122236088Y-104096849D01*
X122159198Y-104282477D01*
X122120000Y-104479539D01*
X121620000Y-104479539D01*
X121580802Y-104282477D01*
X121503912Y-104096849D01*
X121392285Y-103929788D01*
X121250212Y-103787715D01*
X121083151Y-103676088D01*
X120897523Y-103599198D01*
X120700461Y-103560000D01*
X120499539Y-103560000D01*
X120302477Y-103599198D01*
X120116849Y-103676088D01*
X119949788Y-103787715D01*
X119807715Y-103929788D01*
X119696088Y-104096849D01*
X119619198Y-104282477D01*
X119580000Y-104479539D01*
X119080000Y-104479539D01*
X119073396Y-104446337D01*
X119070376Y-104399730D01*
X119070084Y-104395686D01*
X119061175Y-104284162D01*
X119054917Y-104189089D01*
X119053751Y-104111635D01*
X119058541Y-104049328D01*
X119069561Y-103996554D01*
X119088924Y-103944628D01*
X119122028Y-103885072D01*
X119175796Y-103812640D01*
X119259463Y-103721585D01*
X119767048Y-103214000D01*
X126484271Y-103214000D01*
X126510000Y-103216534D01*
X126535729Y-103214000D01*
X126535739Y-103214000D01*
X126612722Y-103206418D01*
X126711496Y-103176455D01*
X126802527Y-103127798D01*
X126882316Y-103062316D01*
X126898724Y-103042323D01*
X127502328Y-102438720D01*
X127522316Y-102422316D01*
X127538720Y-102402328D01*
X127538724Y-102402324D01*
X127587798Y-102342528D01*
X127636455Y-102251497D01*
X127644156Y-102226108D01*
X127666418Y-102152722D01*
X127674000Y-102075739D01*
X127674000Y-102075729D01*
X127676534Y-102050000D01*
X127674000Y-102024271D01*
X127674000Y-99485729D01*
X127676534Y-99460000D01*
X127674000Y-99434271D01*
X127674000Y-99434261D01*
X127666418Y-99357278D01*
X127636455Y-99258504D01*
X127598188Y-99186911D01*
X127587798Y-99167472D01*
X127538724Y-99107676D01*
X127538720Y-99107672D01*
X127522316Y-99087684D01*
X127502328Y-99071280D01*
X127014000Y-98582953D01*
X127014000Y-96547047D01*
X130067048Y-93494000D01*
X141672951Y-93494000D01*
X142293081Y-94114130D01*
X142358936Y-94181205D01*
X142411505Y-94237546D01*
X142452863Y-94285319D01*
X142484867Y-94326284D01*
X142509932Y-94362829D01*
X142530869Y-94398354D01*
X142550252Y-94436917D01*
X142569973Y-94482403D01*
X142591292Y-94537748D01*
X142599390Y-94560483D01*
X142602956Y-94578412D01*
X142656816Y-94708443D01*
X142735010Y-94825467D01*
X142834531Y-94924988D01*
X142951555Y-95003182D01*
X143081586Y-95057042D01*
X143219626Y-95084500D01*
X143360370Y-95084500D01*
X143498410Y-95057042D01*
X143628441Y-95003182D01*
X143745465Y-94924988D01*
X143844986Y-94825467D01*
X143923180Y-94708443D01*
X143977040Y-94578412D01*
X144004498Y-94440372D01*
X144004498Y-94299628D01*
X143977040Y-94161588D01*
X143923180Y-94031557D01*
X143844986Y-93914533D01*
X143745465Y-93815012D01*
X143628441Y-93736818D01*
X143498410Y-93682958D01*
X143480481Y-93679392D01*
X143457746Y-93671294D01*
X143402401Y-93649975D01*
X143356915Y-93630254D01*
X143318352Y-93610871D01*
X143282827Y-93589934D01*
X143246282Y-93564869D01*
X143205317Y-93532865D01*
X143157544Y-93491507D01*
X143101203Y-93438938D01*
X143034128Y-93373083D01*
X142278722Y-92617677D01*
X142262314Y-92597684D01*
X142182525Y-92532202D01*
X142091494Y-92483545D01*
X141992720Y-92453582D01*
X141915737Y-92446000D01*
X141915727Y-92446000D01*
X141889998Y-92443466D01*
X141864269Y-92446000D01*
X129875731Y-92446000D01*
X129850000Y-92443466D01*
X129824269Y-92446000D01*
X129824261Y-92446000D01*
X129747278Y-92453582D01*
X129648503Y-92483545D01*
X129557473Y-92532202D01*
X129497676Y-92581276D01*
X129497672Y-92581280D01*
X129477684Y-92597684D01*
X129461280Y-92617672D01*
X126137673Y-95941280D01*
X126117685Y-95957684D01*
X126101281Y-95977672D01*
X126101276Y-95977677D01*
X126052202Y-96037473D01*
X126003546Y-96128504D01*
X125973583Y-96227278D01*
X125963466Y-96330000D01*
X125966001Y-96355739D01*
X125966000Y-98774271D01*
X125963466Y-98800000D01*
X125966000Y-98825729D01*
X125966000Y-98825738D01*
X125973582Y-98902721D01*
X126003545Y-99001495D01*
X126052202Y-99092527D01*
X126117684Y-99172316D01*
X126137677Y-99188724D01*
X126626001Y-99677049D01*
X126626000Y-100773060D01*
X126597340Y-100628977D01*
X126519546Y-100441165D01*
X126406606Y-100272139D01*
X126262861Y-100128394D01*
X126093835Y-100015454D01*
X125906023Y-99937660D01*
X125853455Y-99927203D01*
X125789522Y-99907197D01*
X125767117Y-99901229D01*
X125627100Y-99870304D01*
X125609766Y-99867065D01*
X125482386Y-99847546D01*
X125474655Y-99846476D01*
X125359248Y-99832192D01*
X125259588Y-99817787D01*
X125175294Y-99799110D01*
X125097833Y-99771887D01*
X125016193Y-99729335D01*
X124921219Y-99661660D01*
X124803438Y-99554825D01*
X124473029Y-99224416D01*
X124460658Y-99209342D01*
X124400512Y-99159981D01*
X124331891Y-99123302D01*
X124325240Y-99121284D01*
X124521023Y-99082340D01*
X124708835Y-99004546D01*
X124877861Y-98891606D01*
X125021606Y-98747861D01*
X125134546Y-98578835D01*
X125212340Y-98391023D01*
X125252000Y-98191643D01*
X125252000Y-97988357D01*
X125212340Y-97788977D01*
X125134546Y-97601165D01*
X125095925Y-97543365D01*
X125058262Y-97475807D01*
X125046323Y-97456370D01*
X124966642Y-97338156D01*
X124956708Y-97324375D01*
X124878459Y-97222719D01*
X124874132Y-97217245D01*
X124801459Y-97127718D01*
X124740887Y-97049347D01*
X124694611Y-96978671D01*
X124659364Y-96906792D01*
X124631937Y-96821116D01*
X124612725Y-96708178D01*
X124605000Y-96551354D01*
X124605000Y-95993613D01*
X125935598Y-94663017D01*
X125950660Y-94650656D01*
X125963022Y-94635593D01*
X125963028Y-94635587D01*
X126000021Y-94590510D01*
X126036700Y-94521890D01*
X126059286Y-94447431D01*
X126060271Y-94437433D01*
X126065002Y-94389399D01*
X126065002Y-94389392D01*
X126066912Y-94369998D01*
X126065002Y-94350604D01*
X126065002Y-93604132D01*
X126067009Y-93538491D01*
X126071756Y-93493401D01*
X126078090Y-93461430D01*
X126085553Y-93436992D01*
X126095330Y-93413460D01*
X126109837Y-93384985D01*
X126130933Y-93347859D01*
X126157532Y-93302243D01*
X126159892Y-93298112D01*
X126189369Y-93245450D01*
X126194101Y-93236615D01*
X126205080Y-93215170D01*
X126219439Y-93193680D01*
X126266176Y-93080847D01*
X126290002Y-92961065D01*
X126290002Y-92838935D01*
X126266176Y-92719153D01*
X126219439Y-92606320D01*
X126151588Y-92504773D01*
X126065229Y-92418414D01*
X125963682Y-92350563D01*
X125850849Y-92303826D01*
X125731067Y-92280000D01*
X125608937Y-92280000D01*
X125489155Y-92303826D01*
X125376322Y-92350563D01*
X125274775Y-92418414D01*
X125188416Y-92504773D01*
X125120565Y-92606320D01*
X125073828Y-92719153D01*
X125050002Y-92838935D01*
X125050002Y-92961065D01*
X125073828Y-93080847D01*
X125120565Y-93193680D01*
X125134919Y-93215163D01*
X125145900Y-93236612D01*
X125150634Y-93245450D01*
X125180111Y-93298112D01*
X125182471Y-93302243D01*
X125209070Y-93347859D01*
X125230166Y-93384985D01*
X125244673Y-93413460D01*
X125254450Y-93436992D01*
X125261913Y-93461430D01*
X125268247Y-93493401D01*
X125272994Y-93538491D01*
X125275003Y-93604162D01*
X125275002Y-94206383D01*
X123944411Y-95536976D01*
X123929343Y-95549342D01*
X123879982Y-95609488D01*
X123852600Y-95660716D01*
X123843303Y-95678109D01*
X123820716Y-95752567D01*
X123813090Y-95830000D01*
X123815001Y-95849404D01*
X123815001Y-96551410D01*
X123807260Y-96710087D01*
X123787959Y-96824947D01*
X123760331Y-96912619D01*
X123724817Y-96986519D01*
X123678425Y-97059209D01*
X123618124Y-97139754D01*
X123546578Y-97231351D01*
X123541865Y-97237568D01*
X123465543Y-97341324D01*
X123455563Y-97355862D01*
X123378361Y-97476602D01*
X123366714Y-97496669D01*
X123335501Y-97556197D01*
X123305454Y-97601165D01*
X123235000Y-97771257D01*
X123235000Y-95709393D01*
X123236910Y-95689999D01*
X123235000Y-95670605D01*
X123235000Y-95670599D01*
X123229284Y-95612567D01*
X123228351Y-95609489D01*
X123222241Y-95589348D01*
X123206698Y-95538109D01*
X123170019Y-95469488D01*
X123120658Y-95409342D01*
X123105589Y-95396975D01*
X121803029Y-94094416D01*
X121790658Y-94079342D01*
X121730512Y-94029981D01*
X121661891Y-93993302D01*
X121587433Y-93970716D01*
X121529401Y-93965000D01*
X121529394Y-93965000D01*
X121510000Y-93963090D01*
X121490606Y-93965000D01*
X118984269Y-93965000D01*
X118920471Y-93962977D01*
X118877239Y-93958266D01*
X118846961Y-93952069D01*
X118823891Y-93944805D01*
X118801341Y-93935169D01*
X118773523Y-93920642D01*
X118736808Y-93899348D01*
X118691846Y-93872723D01*
X118687120Y-93869989D01*
X118635398Y-93840757D01*
X118625912Y-93835643D01*
X118605603Y-93825212D01*
X118583680Y-93810563D01*
X118470847Y-93763826D01*
X118351065Y-93740000D01*
X118228935Y-93740000D01*
X118109153Y-93763826D01*
X117996320Y-93810563D01*
X117894773Y-93878414D01*
X117808414Y-93964773D01*
X117740563Y-94066320D01*
X117693826Y-94179153D01*
X117670000Y-94298935D01*
X117670000Y-94421065D01*
X117693826Y-94540847D01*
X117740563Y-94653680D01*
X117808414Y-94755227D01*
X117894773Y-94841586D01*
X117996320Y-94909437D01*
X118109153Y-94956174D01*
X118228935Y-94980000D01*
X118351065Y-94980000D01*
X118470847Y-94956174D01*
X118583680Y-94909437D01*
X118605604Y-94894788D01*
X118625915Y-94884355D01*
X118635398Y-94879242D01*
X118687120Y-94850010D01*
X118691846Y-94847276D01*
X118736808Y-94820651D01*
X118773523Y-94799357D01*
X118801341Y-94784830D01*
X118823891Y-94775194D01*
X118846961Y-94767930D01*
X118877239Y-94761733D01*
X118920471Y-94757022D01*
X118984263Y-94755000D01*
X121346387Y-94755000D01*
X122445001Y-95853615D01*
X122445000Y-97802349D01*
X122442340Y-97788977D01*
X122364546Y-97601165D01*
X122251606Y-97432139D01*
X122107861Y-97288394D01*
X121938835Y-97175454D01*
X121751023Y-97097660D01*
X121551643Y-97058000D01*
X121348357Y-97058000D01*
X121148977Y-97097660D01*
X120961165Y-97175454D01*
X120792139Y-97288394D01*
X120648394Y-97432139D01*
X120535454Y-97601165D01*
X120457660Y-97788977D01*
X120455000Y-97802349D01*
X120455000Y-96819393D01*
X120456910Y-96799999D01*
X120455000Y-96780605D01*
X120455000Y-96780599D01*
X120449284Y-96722567D01*
X120448119Y-96718724D01*
X120441660Y-96697432D01*
X120426698Y-96648109D01*
X120390019Y-96579488D01*
X120340658Y-96519342D01*
X120325589Y-96506975D01*
X119603029Y-95784416D01*
X119590658Y-95769342D01*
X119530512Y-95719981D01*
X119461891Y-95683302D01*
X119387433Y-95660716D01*
X119329401Y-95655000D01*
X119329394Y-95655000D01*
X119310000Y-95653090D01*
X119290606Y-95655000D01*
X118134269Y-95655000D01*
X118070471Y-95652977D01*
X118027239Y-95648266D01*
X117996961Y-95642069D01*
X117973891Y-95634805D01*
X117951341Y-95625169D01*
X117923523Y-95610642D01*
X117886808Y-95589348D01*
X117841846Y-95562723D01*
X117837120Y-95559989D01*
X117785398Y-95530757D01*
X117775912Y-95525643D01*
X117755603Y-95515212D01*
X117733680Y-95500563D01*
X117620847Y-95453826D01*
X117501065Y-95430000D01*
X117378935Y-95430000D01*
X117259153Y-95453826D01*
X117146320Y-95500563D01*
X117044773Y-95568414D01*
X116958414Y-95654773D01*
X116890563Y-95756320D01*
X116843826Y-95869153D01*
X116820000Y-95988935D01*
X116820000Y-96111065D01*
X116843826Y-96230847D01*
X116890563Y-96343680D01*
X116958414Y-96445227D01*
X117044773Y-96531586D01*
X117146320Y-96599437D01*
X117259153Y-96646174D01*
X117378935Y-96670000D01*
X117501065Y-96670000D01*
X117620847Y-96646174D01*
X117733680Y-96599437D01*
X117755604Y-96584788D01*
X117775915Y-96574355D01*
X117785398Y-96569242D01*
X117837120Y-96540010D01*
X117841846Y-96537276D01*
X117886808Y-96510651D01*
X117923523Y-96489357D01*
X117951341Y-96474830D01*
X117973891Y-96465194D01*
X117996961Y-96457930D01*
X118027239Y-96451733D01*
X118070471Y-96447022D01*
X118134263Y-96445000D01*
X119146387Y-96445000D01*
X119665001Y-96963615D01*
X119665001Y-97615889D01*
X119593425Y-97481982D01*
X119428675Y-97404965D01*
X118743640Y-98090000D01*
X119428675Y-98775035D01*
X119593425Y-98698018D01*
X119665000Y-98563545D01*
X119665000Y-98770606D01*
X119663090Y-98790000D01*
X119665000Y-98809394D01*
X119665000Y-98809400D01*
X119670716Y-98867432D01*
X119693302Y-98941890D01*
X119729981Y-99010511D01*
X119779342Y-99070658D01*
X119794416Y-99083029D01*
X120456974Y-99745588D01*
X120469342Y-99760658D01*
X120529488Y-99810019D01*
X120598109Y-99846698D01*
X120672567Y-99869284D01*
X120730599Y-99875000D01*
X120730608Y-99875000D01*
X120749999Y-99876910D01*
X120769390Y-99875000D01*
X121236387Y-99875000D01*
X121476824Y-100115437D01*
X121581964Y-100231508D01*
X121647946Y-100324648D01*
X121688885Y-100404333D01*
X121714586Y-100479833D01*
X121731657Y-100562329D01*
X121744048Y-100660401D01*
X121755759Y-100774975D01*
X121756564Y-100781948D01*
X121772896Y-100908987D01*
X121775603Y-100925821D01*
X121802624Y-101065553D01*
X121807920Y-101087827D01*
X121828966Y-101162179D01*
X121842660Y-101231023D01*
X121920454Y-101418835D01*
X122033394Y-101587861D01*
X122177139Y-101731606D01*
X122346165Y-101844546D01*
X122533977Y-101922340D01*
X122733357Y-101962000D01*
X122936643Y-101962000D01*
X123136023Y-101922340D01*
X123323835Y-101844546D01*
X123492861Y-101731606D01*
X123636606Y-101587861D01*
X123749546Y-101418835D01*
X123827340Y-101231023D01*
X123867000Y-101031643D01*
X123867000Y-100828357D01*
X123827340Y-100628977D01*
X123749546Y-100441165D01*
X123636606Y-100272139D01*
X123492861Y-100128394D01*
X123323835Y-100015454D01*
X123136023Y-99937660D01*
X123083288Y-99927170D01*
X123019815Y-99907319D01*
X122997289Y-99901328D01*
X122857517Y-99870548D01*
X122840074Y-99867304D01*
X122712899Y-99847949D01*
X122705075Y-99846875D01*
X122589834Y-99832771D01*
X122490274Y-99818541D01*
X122406172Y-99800049D01*
X122328951Y-99773035D01*
X122247611Y-99730748D01*
X122152951Y-99663385D01*
X122035500Y-99556886D01*
X121693029Y-99214416D01*
X121680658Y-99199342D01*
X121620512Y-99149981D01*
X121563683Y-99119605D01*
X121751023Y-99082340D01*
X121938835Y-99004546D01*
X122107861Y-98891606D01*
X122251606Y-98747861D01*
X122364546Y-98578835D01*
X122442340Y-98391023D01*
X122445000Y-98377651D01*
X122445000Y-98790606D01*
X122443090Y-98810000D01*
X122445000Y-98829394D01*
X122445000Y-98829400D01*
X122450716Y-98887432D01*
X122473302Y-98961890D01*
X122509981Y-99030511D01*
X122559342Y-99090658D01*
X122574416Y-99103029D01*
X123226974Y-99755588D01*
X123239342Y-99770658D01*
X123299488Y-99820019D01*
X123368109Y-99856698D01*
X123409601Y-99869284D01*
X123442566Y-99879284D01*
X123450019Y-99880018D01*
X123500599Y-99885000D01*
X123500605Y-99885000D01*
X123519999Y-99886910D01*
X123539393Y-99885000D01*
X124016387Y-99885000D01*
X124244772Y-100113385D01*
X124350242Y-100229780D01*
X124416536Y-100323240D01*
X124457744Y-100403239D01*
X124483656Y-100478999D01*
X124500902Y-100561666D01*
X124513476Y-100659923D01*
X124525363Y-100774623D01*
X124526167Y-100781510D01*
X124542667Y-100908761D01*
X124545372Y-100925489D01*
X124572543Y-101065473D01*
X124577822Y-101087630D01*
X124599015Y-101162429D01*
X124612660Y-101231023D01*
X124690454Y-101418835D01*
X124803394Y-101587861D01*
X124947139Y-101731606D01*
X125116165Y-101844546D01*
X125303977Y-101922340D01*
X125503357Y-101962000D01*
X125706643Y-101962000D01*
X125906023Y-101922340D01*
X126093835Y-101844546D01*
X126262861Y-101731606D01*
X126406606Y-101587861D01*
X126519546Y-101418835D01*
X126597340Y-101231023D01*
X126626000Y-101086941D01*
X126626000Y-101832952D01*
X126292953Y-102166000D01*
X119575729Y-102166000D01*
X119550000Y-102163466D01*
X119524271Y-102166000D01*
X119524261Y-102166000D01*
X119447278Y-102173582D01*
X119374240Y-102195738D01*
X119348503Y-102203545D01*
X119257472Y-102252202D01*
X119197676Y-102301276D01*
X119197672Y-102301280D01*
X119177684Y-102317684D01*
X119161280Y-102337672D01*
X118516756Y-102982196D01*
X118383336Y-103109151D01*
X118269292Y-103206149D01*
X118167734Y-103282570D01*
X118097332Y-103329604D01*
X118018340Y-103273311D01*
X117914493Y-103192061D01*
X117798019Y-103091071D01*
X117662283Y-102961236D01*
X117268723Y-102567676D01*
X117252316Y-102547684D01*
X117172527Y-102482202D01*
X117081496Y-102433545D01*
X116982722Y-102403582D01*
X116905739Y-102396000D01*
X116905729Y-102396000D01*
X116880000Y-102393466D01*
X116854271Y-102396000D01*
X115467048Y-102396000D01*
X115087366Y-102016319D01*
X115042149Y-101960047D01*
X115039332Y-101953092D01*
X115042487Y-101943089D01*
X115067736Y-101900026D01*
X115118217Y-101834480D01*
X115188277Y-101752824D01*
X115188852Y-101752152D01*
X115266570Y-101660968D01*
X115275489Y-101649928D01*
X115311209Y-101603258D01*
X115326606Y-101587861D01*
X115357365Y-101541828D01*
X115365320Y-101530258D01*
X115367922Y-101526028D01*
X115439546Y-101418835D01*
X115517340Y-101231023D01*
X115557000Y-101031643D01*
X115557000Y-100828357D01*
X115517340Y-100628977D01*
X115439546Y-100441165D01*
X115326606Y-100272139D01*
X115182861Y-100128394D01*
X115013835Y-100015454D01*
X114835365Y-99941530D01*
X114870599Y-99945000D01*
X114870606Y-99945000D01*
X114890000Y-99946910D01*
X114909394Y-99945000D01*
X116421212Y-99945000D01*
X116450315Y-99978327D01*
X116480458Y-100027601D01*
X116492393Y-100061383D01*
X116495776Y-100091120D01*
X116492176Y-100130561D01*
X116478029Y-100187184D01*
X116451432Y-100261973D01*
X116413812Y-100354053D01*
X116370511Y-100458647D01*
X116367622Y-100465921D01*
X116338598Y-100542214D01*
X116302660Y-100628977D01*
X116263000Y-100828357D01*
X116263000Y-101031643D01*
X116302660Y-101231023D01*
X116380454Y-101418835D01*
X116493394Y-101587861D01*
X116637139Y-101731606D01*
X116806165Y-101844546D01*
X116993977Y-101922340D01*
X117193357Y-101962000D01*
X117396643Y-101962000D01*
X117596023Y-101922340D01*
X117783835Y-101844546D01*
X117952861Y-101731606D01*
X118096606Y-101587861D01*
X118209546Y-101418835D01*
X118287340Y-101231023D01*
X118327000Y-101031643D01*
X118327000Y-100828357D01*
X119033000Y-100828357D01*
X119033000Y-101031643D01*
X119072660Y-101231023D01*
X119150454Y-101418835D01*
X119263394Y-101587861D01*
X119407139Y-101731606D01*
X119576165Y-101844546D01*
X119763977Y-101922340D01*
X119963357Y-101962000D01*
X120166643Y-101962000D01*
X120366023Y-101922340D01*
X120553835Y-101844546D01*
X120722861Y-101731606D01*
X120866606Y-101587861D01*
X120979546Y-101418835D01*
X121057340Y-101231023D01*
X121097000Y-101031643D01*
X121097000Y-100828357D01*
X121057340Y-100628977D01*
X120979546Y-100441165D01*
X120866606Y-100272139D01*
X120722861Y-100128394D01*
X120553835Y-100015454D01*
X120366023Y-99937660D01*
X120166643Y-99898000D01*
X119963357Y-99898000D01*
X119763977Y-99937660D01*
X119576165Y-100015454D01*
X119407139Y-100128394D01*
X119263394Y-100272139D01*
X119150454Y-100441165D01*
X119072660Y-100628977D01*
X119033000Y-100828357D01*
X118327000Y-100828357D01*
X118287340Y-100628977D01*
X118209546Y-100441165D01*
X118096606Y-100272139D01*
X117952861Y-100128394D01*
X117939846Y-100119698D01*
X117898994Y-100080989D01*
X117887132Y-100070394D01*
X117778822Y-99979249D01*
X117766417Y-99969417D01*
X117666838Y-99895134D01*
X117656364Y-99887702D01*
X117562027Y-99824080D01*
X117556437Y-99820410D01*
X117464476Y-99761650D01*
X117374195Y-99703364D01*
X117283587Y-99640714D01*
X117186469Y-99566287D01*
X117077050Y-99472459D01*
X116948357Y-99349744D01*
X116883029Y-99284416D01*
X116870658Y-99269342D01*
X116810512Y-99219981D01*
X116741891Y-99183302D01*
X116667433Y-99160716D01*
X116609401Y-99155000D01*
X116609394Y-99155000D01*
X116590000Y-99153090D01*
X116570606Y-99155000D01*
X115053614Y-99155000D01*
X114425000Y-98526387D01*
X114425000Y-94773613D01*
X117363614Y-91835000D01*
X122450606Y-91835000D01*
X122470000Y-91836910D01*
X122489394Y-91835000D01*
X122489401Y-91835000D01*
X122547433Y-91829284D01*
X122621891Y-91806698D01*
X122690512Y-91770019D01*
X122750658Y-91720658D01*
X122763029Y-91705584D01*
X123385590Y-91083024D01*
X123400658Y-91070658D01*
X123450019Y-91010512D01*
X123486698Y-90941891D01*
X123508058Y-90871474D01*
X123549299Y-90796315D01*
X123555337Y-90784645D01*
X123598344Y-90696333D01*
X123599190Y-90694582D01*
X123638496Y-90612369D01*
X123677581Y-90538000D01*
X123722558Y-90465891D01*
X123781071Y-90388899D01*
X123865311Y-90297186D01*
X123932285Y-90230212D01*
X124043912Y-90063151D01*
X124120802Y-89877523D01*
X124160000Y-89680461D01*
X124160000Y-89479539D01*
X124120802Y-89282477D01*
X124043912Y-89096849D01*
X123932285Y-88929788D01*
X123790212Y-88787715D01*
X123688870Y-88720000D01*
X125131130Y-88720000D01*
X125029788Y-88787715D01*
X124887715Y-88929788D01*
X124776088Y-89096849D01*
X124699198Y-89282477D01*
X124660000Y-89479539D01*
X124660000Y-89680461D01*
X124699198Y-89877523D01*
X124776088Y-90063151D01*
X124887715Y-90230212D01*
X125029788Y-90372285D01*
X125196849Y-90483912D01*
X125382477Y-90560802D01*
X125579539Y-90600000D01*
X125780461Y-90600000D01*
X125977523Y-90560802D01*
X126163151Y-90483912D01*
X126330212Y-90372285D01*
X126472285Y-90230212D01*
X126583912Y-90063151D01*
X126660802Y-89877523D01*
X126700000Y-89680461D01*
X126700000Y-89479539D01*
X126660802Y-89282477D01*
X126583912Y-89096849D01*
X126472285Y-88929788D01*
X126330212Y-88787715D01*
X126228870Y-88720000D01*
X127671130Y-88720000D01*
X127569788Y-88787715D01*
X127427715Y-88929788D01*
X127316088Y-89096849D01*
X127239198Y-89282477D01*
X127200000Y-89479539D01*
X127200000Y-89680461D01*
X127239198Y-89877523D01*
X127316088Y-90063151D01*
X127427715Y-90230212D01*
X127569788Y-90372285D01*
X127736849Y-90483912D01*
X127922477Y-90560802D01*
X128119539Y-90600000D01*
X128320461Y-90600000D01*
X128517523Y-90560802D01*
X128703151Y-90483912D01*
X128870212Y-90372285D01*
X129012285Y-90230212D01*
X129123912Y-90063151D01*
X129200802Y-89877523D01*
X129240000Y-89680461D01*
X129240000Y-89479539D01*
X129200802Y-89282477D01*
X129123912Y-89096849D01*
X129012285Y-88929788D01*
X128870212Y-88787715D01*
X128768870Y-88720000D01*
X130211130Y-88720000D01*
X130109788Y-88787715D01*
X129967715Y-88929788D01*
X129856088Y-89096849D01*
X129779198Y-89282477D01*
X129740000Y-89479539D01*
X129740000Y-89680461D01*
X129779198Y-89877523D01*
X129856088Y-90063151D01*
X129912438Y-90147484D01*
X129913577Y-90149504D01*
X129934671Y-90181394D01*
X129937924Y-90185626D01*
X129967715Y-90230212D01*
X129987047Y-90249544D01*
X130023289Y-90296701D01*
X130038181Y-90314447D01*
X130134580Y-90419791D01*
X130140305Y-90425857D01*
X130233160Y-90521237D01*
X130306845Y-90601468D01*
X130345000Y-90653132D01*
X130345000Y-90695040D01*
X130301276Y-90750110D01*
X130106387Y-90945000D01*
X124549394Y-90945000D01*
X124530000Y-90943090D01*
X124510606Y-90945000D01*
X124510599Y-90945000D01*
X124452567Y-90950716D01*
X124378108Y-90973302D01*
X124309488Y-91009981D01*
X124264411Y-91046974D01*
X124264405Y-91046980D01*
X124249342Y-91059342D01*
X124236980Y-91074405D01*
X122846387Y-92465000D01*
X117769394Y-92465000D01*
X117750000Y-92463090D01*
X117730606Y-92465000D01*
X117730599Y-92465000D01*
X117679856Y-92469998D01*
X117672566Y-92470716D01*
X117663122Y-92473581D01*
X117598109Y-92493302D01*
X117529488Y-92529981D01*
X117469342Y-92579342D01*
X117456975Y-92594411D01*
X115644411Y-94406976D01*
X115629343Y-94419342D01*
X115579982Y-94479488D01*
X115548881Y-94537674D01*
X115543303Y-94548109D01*
X115520716Y-94622567D01*
X115513090Y-94700000D01*
X115515001Y-94719404D01*
X115515000Y-96561295D01*
X115507248Y-96717480D01*
X115488012Y-96829822D01*
X115460571Y-96915125D01*
X115425294Y-96986882D01*
X115378973Y-97057661D01*
X115318409Y-97136375D01*
X115246229Y-97226133D01*
X115241494Y-97232196D01*
X115164299Y-97333998D01*
X115154079Y-97348434D01*
X115075871Y-97466959D01*
X115063832Y-97487050D01*
X115030102Y-97549311D01*
X114995454Y-97601165D01*
X114917660Y-97788977D01*
X114878000Y-97988357D01*
X114878000Y-98191643D01*
X114917660Y-98391023D01*
X114995454Y-98578835D01*
X115108394Y-98747861D01*
X115252139Y-98891606D01*
X115421165Y-99004546D01*
X115608977Y-99082340D01*
X115808357Y-99122000D01*
X116011643Y-99122000D01*
X116211023Y-99082340D01*
X116398835Y-99004546D01*
X116567861Y-98891606D01*
X116620792Y-98838675D01*
X117994965Y-98838675D01*
X118071982Y-99003425D01*
X118261864Y-99104492D01*
X118467816Y-99166574D01*
X118681922Y-99187283D01*
X118895954Y-99165824D01*
X119101687Y-99103022D01*
X119288018Y-99003425D01*
X119365035Y-98838675D01*
X118680000Y-98153640D01*
X117994965Y-98838675D01*
X116620792Y-98838675D01*
X116711606Y-98747861D01*
X116824546Y-98578835D01*
X116902340Y-98391023D01*
X116942000Y-98191643D01*
X116942000Y-98091922D01*
X117582717Y-98091922D01*
X117604176Y-98305954D01*
X117666978Y-98511687D01*
X117766575Y-98698018D01*
X117931325Y-98775035D01*
X118616360Y-98090000D01*
X117931325Y-97404965D01*
X117766575Y-97481982D01*
X117665508Y-97671864D01*
X117603426Y-97877816D01*
X117582717Y-98091922D01*
X116942000Y-98091922D01*
X116942000Y-97988357D01*
X116902340Y-97788977D01*
X116824546Y-97601165D01*
X116789896Y-97549307D01*
X116756166Y-97487048D01*
X116744128Y-97466959D01*
X116665920Y-97348434D01*
X116660888Y-97341325D01*
X117994965Y-97341325D01*
X118680000Y-98026360D01*
X119365035Y-97341325D01*
X119288018Y-97176575D01*
X119098136Y-97075508D01*
X118892184Y-97013426D01*
X118678078Y-96992717D01*
X118464046Y-97014176D01*
X118258313Y-97076978D01*
X118071982Y-97176575D01*
X117994965Y-97341325D01*
X116660888Y-97341325D01*
X116655700Y-97333998D01*
X116578505Y-97232196D01*
X116573770Y-97226133D01*
X116501590Y-97136375D01*
X116441026Y-97057661D01*
X116394705Y-96986882D01*
X116359428Y-96915125D01*
X116331987Y-96829822D01*
X116312751Y-96717480D01*
X116305000Y-96561305D01*
X116305000Y-94863613D01*
X117913614Y-93255000D01*
X122990606Y-93255000D01*
X123010000Y-93256910D01*
X123029394Y-93255000D01*
X123029401Y-93255000D01*
X123087433Y-93249284D01*
X123161891Y-93226698D01*
X123230512Y-93190019D01*
X123290658Y-93140658D01*
X123303029Y-93125584D01*
X124693615Y-91735000D01*
X130250606Y-91735000D01*
X130270000Y-91736910D01*
X130289394Y-91735000D01*
X130289401Y-91735000D01*
X130347433Y-91729284D01*
X130421891Y-91706698D01*
X130490512Y-91670019D01*
X130550658Y-91620658D01*
X130563029Y-91605584D01*
X131005590Y-91163024D01*
X131020658Y-91150658D01*
X131036570Y-91131270D01*
X131070018Y-91090513D01*
X131070019Y-91090512D01*
X131106698Y-91021891D01*
X131117913Y-90984920D01*
X131159477Y-90912422D01*
X131171281Y-90889329D01*
X131214585Y-90793513D01*
X131220861Y-90778426D01*
X131256021Y-90686121D01*
X131256865Y-90683874D01*
X131288330Y-90599010D01*
X131319790Y-90525017D01*
X131356976Y-90456092D01*
X131407771Y-90383743D01*
X131486420Y-90296077D01*
X131552285Y-90230212D01*
X131663912Y-90063151D01*
X131740802Y-89877523D01*
X131780000Y-89680461D01*
X131780000Y-89479539D01*
X131740802Y-89282477D01*
X131663912Y-89096849D01*
X131552285Y-88929788D01*
X131410212Y-88787715D01*
X131308870Y-88720000D01*
X132751130Y-88720000D01*
X132649788Y-88787715D01*
X132507715Y-88929788D01*
X132396088Y-89096849D01*
X132319198Y-89282477D01*
X132280000Y-89479539D01*
X132280000Y-89680461D01*
X132319198Y-89877523D01*
X132396088Y-90063151D01*
X132507715Y-90230212D01*
X132649788Y-90372285D01*
X132816849Y-90483912D01*
X133002477Y-90560802D01*
X133199539Y-90600000D01*
X133400461Y-90600000D01*
X133597523Y-90560802D01*
X133783151Y-90483912D01*
X133950212Y-90372285D01*
X134092285Y-90230212D01*
X134203912Y-90063151D01*
X134280802Y-89877523D01*
X134320000Y-89680461D01*
X134320000Y-89479539D01*
X134280802Y-89282477D01*
X134203912Y-89096849D01*
X134092285Y-88929788D01*
X133950212Y-88787715D01*
X133848870Y-88720000D01*
X135291130Y-88720000D01*
X135189788Y-88787715D01*
X135047715Y-88929788D01*
X134936088Y-89096849D01*
X134859198Y-89282477D01*
X134820000Y-89479539D01*
X134820000Y-89680461D01*
X134859198Y-89877523D01*
X134936088Y-90063151D01*
X135047715Y-90230212D01*
X135189788Y-90372285D01*
X135356849Y-90483912D01*
X135542477Y-90560802D01*
X135739539Y-90600000D01*
X135940461Y-90600000D01*
X136137523Y-90560802D01*
X136323151Y-90483912D01*
X136490212Y-90372285D01*
X136632285Y-90230212D01*
X136743912Y-90063151D01*
X136820802Y-89877523D01*
X136860000Y-89680461D01*
X136860000Y-89479539D01*
X136820802Y-89282477D01*
X136743912Y-89096849D01*
X136632285Y-88929788D01*
X136490212Y-88787715D01*
X136388870Y-88720000D01*
X137831130Y-88720000D01*
X137729788Y-88787715D01*
X137587715Y-88929788D01*
X137476088Y-89096849D01*
X137399198Y-89282477D01*
X137360000Y-89479539D01*
X137360000Y-89680461D01*
X137399198Y-89877523D01*
X137476088Y-90063151D01*
X137587715Y-90230212D01*
X137729788Y-90372285D01*
X137896849Y-90483912D01*
X138082477Y-90560802D01*
X138279539Y-90600000D01*
X138480461Y-90600000D01*
X138677523Y-90560802D01*
X138863151Y-90483912D01*
X139030212Y-90372285D01*
X139172285Y-90230212D01*
X139283912Y-90063151D01*
X139360802Y-89877523D01*
X139400000Y-89680461D01*
X139400000Y-89479539D01*
X139360802Y-89282477D01*
X139283912Y-89096849D01*
X139172285Y-88929788D01*
X139030212Y-88787715D01*
X138928870Y-88720000D01*
X166410000Y-88720000D01*
X166410001Y-102218455D01*
X162948457Y-105680000D01*
X108501544Y-105680000D01*
X107301083Y-104479539D01*
X109420000Y-104479539D01*
X109420000Y-104680461D01*
X109459198Y-104877523D01*
X109536088Y-105063151D01*
X109647715Y-105230212D01*
X109789788Y-105372285D01*
X109956849Y-105483912D01*
X110142477Y-105560802D01*
X110339539Y-105600000D01*
X110540461Y-105600000D01*
X110737523Y-105560802D01*
X110923151Y-105483912D01*
X111090212Y-105372285D01*
X111132497Y-105330000D01*
X111898403Y-105330000D01*
X111904775Y-105394691D01*
X111923644Y-105456897D01*
X111954287Y-105514225D01*
X111995526Y-105564474D01*
X112045775Y-105605713D01*
X112103103Y-105636356D01*
X112165309Y-105655225D01*
X112230000Y-105661597D01*
X112852500Y-105660000D01*
X112935000Y-105577500D01*
X112935000Y-104625000D01*
X113025000Y-104625000D01*
X113025000Y-105577500D01*
X113107500Y-105660000D01*
X113730000Y-105661597D01*
X113794691Y-105655225D01*
X113856897Y-105636356D01*
X113914225Y-105605713D01*
X113964474Y-105564474D01*
X114005713Y-105514225D01*
X114036356Y-105456897D01*
X114055225Y-105394691D01*
X114061597Y-105330000D01*
X114060000Y-104707500D01*
X113977500Y-104625000D01*
X113025000Y-104625000D01*
X112935000Y-104625000D01*
X111982500Y-104625000D01*
X111900000Y-104707500D01*
X111898403Y-105330000D01*
X111132497Y-105330000D01*
X111232285Y-105230212D01*
X111343912Y-105063151D01*
X111420802Y-104877523D01*
X111460000Y-104680461D01*
X111460000Y-104479539D01*
X111420802Y-104282477D01*
X111343912Y-104096849D01*
X111232285Y-103929788D01*
X111132497Y-103830000D01*
X111898403Y-103830000D01*
X111900000Y-104452500D01*
X111982500Y-104535000D01*
X112935000Y-104535000D01*
X112935000Y-103582500D01*
X113025000Y-103582500D01*
X113025000Y-104535000D01*
X113977500Y-104535000D01*
X114032961Y-104479539D01*
X114500000Y-104479539D01*
X114500000Y-104680461D01*
X114539198Y-104877523D01*
X114616088Y-105063151D01*
X114727715Y-105230212D01*
X114869788Y-105372285D01*
X115036849Y-105483912D01*
X115222477Y-105560802D01*
X115419539Y-105600000D01*
X115620461Y-105600000D01*
X115817523Y-105560802D01*
X116003151Y-105483912D01*
X116170212Y-105372285D01*
X116312285Y-105230212D01*
X116423912Y-105063151D01*
X116500802Y-104877523D01*
X116540000Y-104680461D01*
X116540000Y-104479539D01*
X116500802Y-104282477D01*
X116423912Y-104096849D01*
X116312285Y-103929788D01*
X116170212Y-103787715D01*
X116003151Y-103676088D01*
X115817523Y-103599198D01*
X115620461Y-103560000D01*
X115419539Y-103560000D01*
X115222477Y-103599198D01*
X115036849Y-103676088D01*
X114869788Y-103787715D01*
X114727715Y-103929788D01*
X114616088Y-104096849D01*
X114539198Y-104282477D01*
X114500000Y-104479539D01*
X114032961Y-104479539D01*
X114060000Y-104452500D01*
X114061597Y-103830000D01*
X114055225Y-103765309D01*
X114036356Y-103703103D01*
X114005713Y-103645775D01*
X113964474Y-103595526D01*
X113914225Y-103554287D01*
X113856897Y-103523644D01*
X113794691Y-103504775D01*
X113730000Y-103498403D01*
X113107500Y-103500000D01*
X113025000Y-103582500D01*
X112935000Y-103582500D01*
X112852500Y-103500000D01*
X112230000Y-103498403D01*
X112165309Y-103504775D01*
X112103103Y-103523644D01*
X112045775Y-103554287D01*
X111995526Y-103595526D01*
X111954287Y-103645775D01*
X111923644Y-103703103D01*
X111904775Y-103765309D01*
X111898403Y-103830000D01*
X111132497Y-103830000D01*
X111090212Y-103787715D01*
X110923151Y-103676088D01*
X110737523Y-103599198D01*
X110540461Y-103560000D01*
X110339539Y-103560000D01*
X110142477Y-103599198D01*
X109956849Y-103676088D01*
X109789788Y-103787715D01*
X109647715Y-103929788D01*
X109536088Y-104096849D01*
X109459198Y-104282477D01*
X109420000Y-104479539D01*
X107301083Y-104479539D01*
X105040000Y-102218457D01*
X105040000Y-101468697D01*
X105994942Y-101468697D01*
X106220493Y-101760231D01*
X106620850Y-101984660D01*
X107057298Y-102126670D01*
X107513065Y-102180805D01*
X107970635Y-102144983D01*
X108412425Y-102020582D01*
X108821457Y-101812383D01*
X108899507Y-101760231D01*
X109125058Y-101468697D01*
X107560000Y-99903640D01*
X105994942Y-101468697D01*
X105040000Y-101468697D01*
X105040000Y-99793065D01*
X105219195Y-99793065D01*
X105255017Y-100250635D01*
X105379418Y-100692425D01*
X105587617Y-101101457D01*
X105639769Y-101179507D01*
X105931303Y-101405058D01*
X107496360Y-99840000D01*
X107623640Y-99840000D01*
X109188697Y-101405058D01*
X109480231Y-101179507D01*
X109704660Y-100779150D01*
X109846670Y-100342702D01*
X109900805Y-99886935D01*
X109864983Y-99429365D01*
X109740582Y-98987575D01*
X109532383Y-98578543D01*
X109480231Y-98500493D01*
X109188697Y-98274942D01*
X107623640Y-99840000D01*
X107496360Y-99840000D01*
X105931303Y-98274942D01*
X105639769Y-98500493D01*
X105415340Y-98900850D01*
X105273330Y-99337298D01*
X105219195Y-99793065D01*
X105040000Y-99793065D01*
X105040000Y-98211303D01*
X105994942Y-98211303D01*
X107560000Y-99776360D01*
X109125058Y-98211303D01*
X108899507Y-97919769D01*
X108499150Y-97695340D01*
X108062702Y-97553330D01*
X107606935Y-97499195D01*
X107149365Y-97535017D01*
X106707575Y-97659418D01*
X106298543Y-97867617D01*
X106220493Y-97919769D01*
X105994942Y-98211303D01*
X105040000Y-98211303D01*
X105040000Y-88720000D01*
X109891130Y-88720000D01*
X109789788Y-88787715D01*
G37*
G04 #@! TD.AperFunction*
D20*
X115183864Y-101285668D02*
X115124859Y-101381603D01*
X115051203Y-101477838D01*
X114973725Y-101568740D01*
X114899016Y-101655814D01*
X114898593Y-101656335D01*
X114833368Y-101741026D01*
X114832474Y-101742351D01*
X114783204Y-101826383D01*
X114782048Y-101828987D01*
X114755205Y-101914087D01*
X114754693Y-101916523D01*
X114754620Y-101918204D01*
X114756677Y-102006097D01*
X114756979Y-102008568D01*
X114757603Y-102010568D01*
X114795033Y-102102980D01*
X114796904Y-102106167D01*
X114869045Y-102195945D01*
X114527475Y-102537515D01*
X114427416Y-102423484D01*
X114351985Y-102307064D01*
X114301613Y-102196338D01*
X114268456Y-102089701D01*
X114244784Y-101985578D01*
X114222929Y-101882889D01*
X114222762Y-101882202D01*
X114195015Y-101780121D01*
X114194537Y-101778699D01*
X114153107Y-101676051D01*
X114152209Y-101674251D01*
X114089286Y-101569788D01*
X114088047Y-101568073D01*
X114001783Y-101467494D01*
X114539426Y-100570463D01*
X115183864Y-101285668D01*
G04 #@! TA.AperFunction,Conductor*
D19*
G36*
X115183864Y-101285668D02*
G01*
X115124859Y-101381603D01*
X115051203Y-101477838D01*
X114973725Y-101568740D01*
X114899016Y-101655814D01*
X114898593Y-101656335D01*
X114833368Y-101741026D01*
X114832474Y-101742351D01*
X114783204Y-101826383D01*
X114782048Y-101828987D01*
X114755205Y-101914087D01*
X114754693Y-101916523D01*
X114754620Y-101918204D01*
X114756677Y-102006097D01*
X114756979Y-102008568D01*
X114757603Y-102010568D01*
X114795033Y-102102980D01*
X114796904Y-102106167D01*
X114869045Y-102195945D01*
X114527475Y-102537515D01*
X114427416Y-102423484D01*
X114351985Y-102307064D01*
X114301613Y-102196338D01*
X114268456Y-102089701D01*
X114244784Y-101985578D01*
X114222929Y-101882889D01*
X114222762Y-101882202D01*
X114195015Y-101780121D01*
X114194537Y-101778699D01*
X114153107Y-101676051D01*
X114152209Y-101674251D01*
X114089286Y-101569788D01*
X114088047Y-101568073D01*
X114001783Y-101467494D01*
X114539426Y-100570463D01*
X115183864Y-101285668D01*
G37*
G04 #@! TD.AperFunction*
D20*
X117607378Y-103299923D02*
X117607837Y-103300340D01*
X117734434Y-103410107D01*
X117734928Y-103410514D01*
X117848910Y-103499694D01*
X117849366Y-103500034D01*
X117954173Y-103574724D01*
X117954480Y-103574937D01*
X118053551Y-103641234D01*
X118053608Y-103641272D01*
X118150283Y-103705207D01*
X118247850Y-103772764D01*
X118349875Y-103850103D01*
X118459851Y-103943333D01*
X118574959Y-104052590D01*
X118171453Y-104918699D01*
X117330464Y-104473639D01*
X117346437Y-104363850D01*
X117362982Y-104255940D01*
X117363022Y-104255659D01*
X117376018Y-104156133D01*
X117376094Y-104155382D01*
X117382665Y-104062173D01*
X117382690Y-104060893D01*
X117379975Y-103971838D01*
X117379800Y-103970088D01*
X117364939Y-103883021D01*
X117364435Y-103881044D01*
X117334566Y-103793803D01*
X117333759Y-103791944D01*
X117286023Y-103702364D01*
X117285084Y-103700864D01*
X117216618Y-103606781D01*
X117215725Y-103605687D01*
X117131859Y-103513900D01*
X117473702Y-103172057D01*
X117607378Y-103299923D01*
G04 #@! TA.AperFunction,Conductor*
D19*
G36*
X117607378Y-103299923D02*
G01*
X117607837Y-103300340D01*
X117734434Y-103410107D01*
X117734928Y-103410514D01*
X117848910Y-103499694D01*
X117849366Y-103500034D01*
X117954173Y-103574724D01*
X117954480Y-103574937D01*
X118053551Y-103641234D01*
X118053608Y-103641272D01*
X118150283Y-103705207D01*
X118247850Y-103772764D01*
X118349875Y-103850103D01*
X118459851Y-103943333D01*
X118574959Y-104052590D01*
X118171453Y-104918699D01*
X117330464Y-104473639D01*
X117346437Y-104363850D01*
X117362982Y-104255940D01*
X117363022Y-104255659D01*
X117376018Y-104156133D01*
X117376094Y-104155382D01*
X117382665Y-104062173D01*
X117382690Y-104060893D01*
X117379975Y-103971838D01*
X117379800Y-103970088D01*
X117364939Y-103883021D01*
X117364435Y-103881044D01*
X117334566Y-103793803D01*
X117333759Y-103791944D01*
X117286023Y-103702364D01*
X117285084Y-103700864D01*
X117216618Y-103606781D01*
X117215725Y-103605687D01*
X117131859Y-103513900D01*
X117473702Y-103172057D01*
X117607378Y-103299923D01*
G37*
G04 #@! TD.AperFunction*
D20*
X142905593Y-93643064D02*
X142905826Y-93643288D01*
X142968351Y-93701627D01*
X142968703Y-93701943D01*
X143025426Y-93751049D01*
X143025919Y-93751455D01*
X143078835Y-93792797D01*
X143079471Y-93793262D01*
X143130573Y-93828311D01*
X143131308Y-93828779D01*
X143182591Y-93859003D01*
X143183336Y-93859409D01*
X143236795Y-93886279D01*
X143237446Y-93886584D01*
X143295075Y-93911570D01*
X143295562Y-93911769D01*
X143359354Y-93936341D01*
X143359658Y-93936454D01*
X143423344Y-93959138D01*
X143434196Y-94514198D01*
X142879136Y-94503346D01*
X142856452Y-94439660D01*
X142856339Y-94439356D01*
X142831767Y-94375564D01*
X142831568Y-94375077D01*
X142806582Y-94317448D01*
X142806277Y-94316797D01*
X142779407Y-94263338D01*
X142779001Y-94262593D01*
X142748777Y-94211310D01*
X142748309Y-94210575D01*
X142713260Y-94159473D01*
X142712795Y-94158837D01*
X142671453Y-94105921D01*
X142671047Y-94105428D01*
X142621941Y-94048705D01*
X142621625Y-94048353D01*
X142563286Y-93985828D01*
X142563062Y-93985595D01*
X142502836Y-93924253D01*
X142844251Y-93582838D01*
X142905593Y-93643064D01*
G04 #@! TA.AperFunction,Conductor*
D19*
G36*
X142905593Y-93643064D02*
G01*
X142905826Y-93643288D01*
X142968351Y-93701627D01*
X142968703Y-93701943D01*
X143025426Y-93751049D01*
X143025919Y-93751455D01*
X143078835Y-93792797D01*
X143079471Y-93793262D01*
X143130573Y-93828311D01*
X143131308Y-93828779D01*
X143182591Y-93859003D01*
X143183336Y-93859409D01*
X143236795Y-93886279D01*
X143237446Y-93886584D01*
X143295075Y-93911570D01*
X143295562Y-93911769D01*
X143359354Y-93936341D01*
X143359658Y-93936454D01*
X143423344Y-93959138D01*
X143434196Y-94514198D01*
X142879136Y-94503346D01*
X142856452Y-94439660D01*
X142856339Y-94439356D01*
X142831767Y-94375564D01*
X142831568Y-94375077D01*
X142806582Y-94317448D01*
X142806277Y-94316797D01*
X142779407Y-94263338D01*
X142779001Y-94262593D01*
X142748777Y-94211310D01*
X142748309Y-94210575D01*
X142713260Y-94159473D01*
X142712795Y-94158837D01*
X142671453Y-94105921D01*
X142671047Y-94105428D01*
X142621941Y-94048705D01*
X142621625Y-94048353D01*
X142563286Y-93985828D01*
X142563062Y-93985595D01*
X142502836Y-93924253D01*
X142844251Y-93582838D01*
X142905593Y-93643064D01*
G37*
G04 #@! TD.AperFunction*
D20*
X119046904Y-103535089D02*
X118958068Y-103631771D01*
X118957223Y-103632794D01*
X118884460Y-103730814D01*
X118883557Y-103732214D01*
X118831948Y-103825061D01*
X118831148Y-103826794D01*
X118797539Y-103916925D01*
X118797007Y-103918766D01*
X118778241Y-104008634D01*
X118778010Y-104010256D01*
X118770932Y-104102318D01*
X118770896Y-104103483D01*
X118772352Y-104200193D01*
X118772378Y-104200836D01*
X118779211Y-104304649D01*
X118779224Y-104304826D01*
X118788277Y-104418152D01*
X118795811Y-104534426D01*
X117920742Y-104908368D01*
X117581328Y-104019466D01*
X117702263Y-103919407D01*
X117817508Y-103834735D01*
X117923820Y-103764979D01*
X118024850Y-103704004D01*
X118124066Y-103645799D01*
X118124249Y-103645690D01*
X118224977Y-103584299D01*
X118225423Y-103584014D01*
X118331076Y-103513430D01*
X118331657Y-103513018D01*
X118445709Y-103427195D01*
X118446301Y-103426721D01*
X118572230Y-103319615D01*
X118572757Y-103319141D01*
X118705062Y-103193247D01*
X119046904Y-103535089D01*
G04 #@! TA.AperFunction,Conductor*
D19*
G36*
X119046904Y-103535089D02*
G01*
X118958068Y-103631771D01*
X118957223Y-103632794D01*
X118884460Y-103730814D01*
X118883557Y-103732214D01*
X118831948Y-103825061D01*
X118831148Y-103826794D01*
X118797539Y-103916925D01*
X118797007Y-103918766D01*
X118778241Y-104008634D01*
X118778010Y-104010256D01*
X118770932Y-104102318D01*
X118770896Y-104103483D01*
X118772352Y-104200193D01*
X118772378Y-104200836D01*
X118779211Y-104304649D01*
X118779224Y-104304826D01*
X118788277Y-104418152D01*
X118795811Y-104534426D01*
X117920742Y-104908368D01*
X117581328Y-104019466D01*
X117702263Y-103919407D01*
X117817508Y-103834735D01*
X117923820Y-103764979D01*
X118024850Y-103704004D01*
X118124066Y-103645799D01*
X118124249Y-103645690D01*
X118224977Y-103584299D01*
X118225423Y-103584014D01*
X118331076Y-103513430D01*
X118331657Y-103513018D01*
X118445709Y-103427195D01*
X118446301Y-103426721D01*
X118572230Y-103319615D01*
X118572757Y-103319141D01*
X118705062Y-103193247D01*
X119046904Y-103535089D01*
G37*
G04 #@! TD.AperFunction*
D20*
X130668435Y-103235650D02*
X130756744Y-103340294D01*
X130827047Y-103434652D01*
X130884957Y-103521802D01*
X130935984Y-103604715D01*
X130985656Y-103686373D01*
X130985839Y-103686666D01*
X131039513Y-103769732D01*
X131039888Y-103770280D01*
X131103075Y-103857672D01*
X131103577Y-103858321D01*
X131181789Y-103952958D01*
X131182336Y-103953577D01*
X131274565Y-104051457D01*
X130757523Y-104934103D01*
X130100731Y-104251119D01*
X130161163Y-104144936D01*
X130235837Y-104040327D01*
X130314011Y-103942763D01*
X130389069Y-103850287D01*
X130389465Y-103849773D01*
X130454529Y-103760661D01*
X130455391Y-103759309D01*
X130503865Y-103671488D01*
X130504958Y-103668836D01*
X130530242Y-103580235D01*
X130530688Y-103577786D01*
X130530715Y-103576125D01*
X130526212Y-103484671D01*
X130525846Y-103482209D01*
X130525218Y-103480336D01*
X130484330Y-103383959D01*
X130482501Y-103380917D01*
X130405843Y-103286432D01*
X130565307Y-103126968D01*
X130668435Y-103235650D01*
G04 #@! TA.AperFunction,Conductor*
D19*
G36*
X130668435Y-103235650D02*
G01*
X130756744Y-103340294D01*
X130827047Y-103434652D01*
X130884957Y-103521802D01*
X130935984Y-103604715D01*
X130985656Y-103686373D01*
X130985839Y-103686666D01*
X131039513Y-103769732D01*
X131039888Y-103770280D01*
X131103075Y-103857672D01*
X131103577Y-103858321D01*
X131181789Y-103952958D01*
X131182336Y-103953577D01*
X131274565Y-104051457D01*
X130757523Y-104934103D01*
X130100731Y-104251119D01*
X130161163Y-104144936D01*
X130235837Y-104040327D01*
X130314011Y-103942763D01*
X130389069Y-103850287D01*
X130389465Y-103849773D01*
X130454529Y-103760661D01*
X130455391Y-103759309D01*
X130503865Y-103671488D01*
X130504958Y-103668836D01*
X130530242Y-103580235D01*
X130530688Y-103577786D01*
X130530715Y-103576125D01*
X130526212Y-103484671D01*
X130525846Y-103482209D01*
X130525218Y-103480336D01*
X130484330Y-103383959D01*
X130482501Y-103380917D01*
X130405843Y-103286432D01*
X130565307Y-103126968D01*
X130668435Y-103235650D01*
G37*
G04 #@! TD.AperFunction*
D20*
X147592678Y-98090000D02*
X146895745Y-98760207D01*
X146763240Y-98688293D01*
X146646491Y-98610876D01*
X146546089Y-98534158D01*
X146455088Y-98460256D01*
X146454882Y-98460092D01*
X146366590Y-98391381D01*
X146365804Y-98390817D01*
X146273442Y-98329626D01*
X146272088Y-98328844D01*
X146168743Y-98277390D01*
X146167017Y-98276684D01*
X146045774Y-98237185D01*
X146044010Y-98236747D01*
X145897953Y-98211421D01*
X145896420Y-98211250D01*
X145730700Y-98202922D01*
X145730700Y-97977078D01*
X145896420Y-97968749D01*
X145897953Y-97968578D01*
X146044010Y-97943252D01*
X146045774Y-97942814D01*
X146167017Y-97903315D01*
X146168743Y-97902609D01*
X146272088Y-97851155D01*
X146273442Y-97850373D01*
X146365804Y-97789182D01*
X146366590Y-97788618D01*
X146454882Y-97719907D01*
X146455088Y-97719743D01*
X146546089Y-97645841D01*
X146646491Y-97569123D01*
X146763240Y-97491706D01*
X146895745Y-97419793D01*
X147592678Y-98090000D01*
G04 #@! TA.AperFunction,Conductor*
D19*
G36*
X147592678Y-98090000D02*
G01*
X146895745Y-98760207D01*
X146763240Y-98688293D01*
X146646491Y-98610876D01*
X146546089Y-98534158D01*
X146455088Y-98460256D01*
X146454882Y-98460092D01*
X146366590Y-98391381D01*
X146365804Y-98390817D01*
X146273442Y-98329626D01*
X146272088Y-98328844D01*
X146168743Y-98277390D01*
X146167017Y-98276684D01*
X146045774Y-98237185D01*
X146044010Y-98236747D01*
X145897953Y-98211421D01*
X145896420Y-98211250D01*
X145730700Y-98202922D01*
X145730700Y-97977078D01*
X145896420Y-97968749D01*
X145897953Y-97968578D01*
X146044010Y-97943252D01*
X146045774Y-97942814D01*
X146167017Y-97903315D01*
X146168743Y-97902609D01*
X146272088Y-97851155D01*
X146273442Y-97850373D01*
X146365804Y-97789182D01*
X146366590Y-97788618D01*
X146454882Y-97719907D01*
X146455088Y-97719743D01*
X146546089Y-97645841D01*
X146646491Y-97569123D01*
X146763240Y-97491706D01*
X146895745Y-97419793D01*
X147592678Y-98090000D01*
G37*
G04 #@! TD.AperFunction*
D20*
X156014177Y-97497658D02*
X156129655Y-97576302D01*
X156229009Y-97653974D01*
X156319107Y-97728569D01*
X156319329Y-97728749D01*
X156406851Y-97797949D01*
X156407652Y-97798533D01*
X156499325Y-97860042D01*
X156500696Y-97860842D01*
X156603391Y-97912478D01*
X156605135Y-97913199D01*
X156725721Y-97952783D01*
X156727500Y-97953227D01*
X156872844Y-97978576D01*
X156874386Y-97978749D01*
X157039300Y-97987075D01*
X157039300Y-98212920D01*
X156872761Y-98221250D01*
X156871238Y-98221419D01*
X156724458Y-98246718D01*
X156722709Y-98247149D01*
X156600795Y-98286558D01*
X156599086Y-98287251D01*
X156495079Y-98338516D01*
X156493743Y-98339278D01*
X156400683Y-98400142D01*
X156399913Y-98400688D01*
X156310842Y-98468897D01*
X156310651Y-98469045D01*
X156218760Y-98542224D01*
X156117296Y-98617978D01*
X155999273Y-98694150D01*
X155865288Y-98764602D01*
X155177355Y-98085165D01*
X155883161Y-97424309D01*
X156014177Y-97497658D01*
G04 #@! TA.AperFunction,Conductor*
D19*
G36*
X156014177Y-97497658D02*
G01*
X156129655Y-97576302D01*
X156229009Y-97653974D01*
X156319107Y-97728569D01*
X156319329Y-97728749D01*
X156406851Y-97797949D01*
X156407652Y-97798533D01*
X156499325Y-97860042D01*
X156500696Y-97860842D01*
X156603391Y-97912478D01*
X156605135Y-97913199D01*
X156725721Y-97952783D01*
X156727500Y-97953227D01*
X156872844Y-97978576D01*
X156874386Y-97978749D01*
X157039300Y-97987075D01*
X157039300Y-98212920D01*
X156872761Y-98221250D01*
X156871238Y-98221419D01*
X156724458Y-98246718D01*
X156722709Y-98247149D01*
X156600795Y-98286558D01*
X156599086Y-98287251D01*
X156495079Y-98338516D01*
X156493743Y-98339278D01*
X156400683Y-98400142D01*
X156399913Y-98400688D01*
X156310842Y-98468897D01*
X156310651Y-98469045D01*
X156218760Y-98542224D01*
X156117296Y-98617978D01*
X155999273Y-98694150D01*
X155865288Y-98764602D01*
X155177355Y-98085165D01*
X155883161Y-97424309D01*
X156014177Y-97497658D01*
G37*
G04 #@! TD.AperFunction*
D20*
X133668288Y-103292279D02*
X133592143Y-103385864D01*
X133590335Y-103388843D01*
X133548988Y-103484555D01*
X133548230Y-103486926D01*
X133547972Y-103488795D01*
X133542256Y-103579756D01*
X133542344Y-103582244D01*
X133542659Y-103583823D01*
X133566174Y-103672041D01*
X133567224Y-103674715D01*
X133613571Y-103762201D01*
X133614424Y-103763589D01*
X133677202Y-103852355D01*
X133677610Y-103852900D01*
X133750392Y-103944920D01*
X133826632Y-104042019D01*
X133899748Y-104145893D01*
X133959286Y-104251102D01*
X133302477Y-104934103D01*
X132785450Y-104051482D01*
X132878303Y-103953498D01*
X132878800Y-103952941D01*
X132958167Y-103858670D01*
X132958629Y-103858089D01*
X133023338Y-103771415D01*
X133023687Y-103770924D01*
X133079129Y-103688809D01*
X133079300Y-103688547D01*
X133130837Y-103608004D01*
X133183805Y-103526073D01*
X133243521Y-103439809D01*
X133315407Y-103346082D01*
X133404943Y-103241715D01*
X133508812Y-103132803D01*
X133668288Y-103292279D01*
G04 #@! TA.AperFunction,Conductor*
D19*
G36*
X133668288Y-103292279D02*
G01*
X133592143Y-103385864D01*
X133590335Y-103388843D01*
X133548988Y-103484555D01*
X133548230Y-103486926D01*
X133547972Y-103488795D01*
X133542256Y-103579756D01*
X133542344Y-103582244D01*
X133542659Y-103583823D01*
X133566174Y-103672041D01*
X133567224Y-103674715D01*
X133613571Y-103762201D01*
X133614424Y-103763589D01*
X133677202Y-103852355D01*
X133677610Y-103852900D01*
X133750392Y-103944920D01*
X133826632Y-104042019D01*
X133899748Y-104145893D01*
X133959286Y-104251102D01*
X133302477Y-104934103D01*
X132785450Y-104051482D01*
X132878303Y-103953498D01*
X132878800Y-103952941D01*
X132958167Y-103858670D01*
X132958629Y-103858089D01*
X133023338Y-103771415D01*
X133023687Y-103770924D01*
X133079129Y-103688809D01*
X133079300Y-103688547D01*
X133130837Y-103608004D01*
X133183805Y-103526073D01*
X133243521Y-103439809D01*
X133315407Y-103346082D01*
X133404943Y-103241715D01*
X133508812Y-103132803D01*
X133668288Y-103292279D01*
G37*
G04 #@! TD.AperFunction*
D20*
X156039031Y-95056688D02*
X156039767Y-95057328D01*
X156091589Y-95098967D01*
X156092547Y-95099666D01*
X156140501Y-95131323D01*
X156141629Y-95131987D01*
X156187263Y-95155766D01*
X156188403Y-95156290D01*
X156233264Y-95174291D01*
X156234190Y-95174621D01*
X156279824Y-95188945D01*
X156280364Y-95189102D01*
X156328321Y-95201851D01*
X156328433Y-95201880D01*
X156380113Y-95215116D01*
X156437027Y-95230928D01*
X156492340Y-95248701D01*
X156500787Y-95680787D01*
X156068701Y-95672340D01*
X156050928Y-95617027D01*
X156035116Y-95560113D01*
X156021880Y-95508433D01*
X156021851Y-95508321D01*
X156009102Y-95460364D01*
X156008945Y-95459824D01*
X155994621Y-95414190D01*
X155994291Y-95413264D01*
X155976290Y-95368403D01*
X155975766Y-95367263D01*
X155951987Y-95321629D01*
X155951323Y-95320501D01*
X155919666Y-95272547D01*
X155918967Y-95271589D01*
X155877328Y-95219767D01*
X155876688Y-95219031D01*
X155831389Y-95170765D01*
X155990765Y-95011389D01*
X156039031Y-95056688D01*
G04 #@! TA.AperFunction,Conductor*
D19*
G36*
X156039031Y-95056688D02*
G01*
X156039767Y-95057328D01*
X156091589Y-95098967D01*
X156092547Y-95099666D01*
X156140501Y-95131323D01*
X156141629Y-95131987D01*
X156187263Y-95155766D01*
X156188403Y-95156290D01*
X156233264Y-95174291D01*
X156234190Y-95174621D01*
X156279824Y-95188945D01*
X156280364Y-95189102D01*
X156328321Y-95201851D01*
X156328433Y-95201880D01*
X156380113Y-95215116D01*
X156437027Y-95230928D01*
X156492340Y-95248701D01*
X156500787Y-95680787D01*
X156068701Y-95672340D01*
X156050928Y-95617027D01*
X156035116Y-95560113D01*
X156021880Y-95508433D01*
X156021851Y-95508321D01*
X156009102Y-95460364D01*
X156008945Y-95459824D01*
X155994621Y-95414190D01*
X155994291Y-95413264D01*
X155976290Y-95368403D01*
X155975766Y-95367263D01*
X155951987Y-95321629D01*
X155951323Y-95320501D01*
X155919666Y-95272547D01*
X155918967Y-95271589D01*
X155877328Y-95219767D01*
X155876688Y-95219031D01*
X155831389Y-95170765D01*
X155990765Y-95011389D01*
X156039031Y-95056688D01*
G37*
G04 #@! TD.AperFunction*
D20*
X128425762Y-103225023D02*
X128343052Y-103329522D01*
X128341705Y-103331616D01*
X128341034Y-103333177D01*
X128304496Y-103436706D01*
X128303902Y-103439124D01*
X128303815Y-103441976D01*
X128311767Y-103538485D01*
X128312214Y-103540934D01*
X128312947Y-103542880D01*
X128356688Y-103635186D01*
X128358146Y-103637553D01*
X128428978Y-103728474D01*
X128429863Y-103729493D01*
X128519084Y-103821845D01*
X128519345Y-103822107D01*
X128618104Y-103918559D01*
X128717511Y-104021711D01*
X128808795Y-104134144D01*
X128879109Y-104251286D01*
X128222477Y-104934103D01*
X127705283Y-104051198D01*
X127791693Y-103953643D01*
X127792728Y-103952305D01*
X127859042Y-103853605D01*
X127859876Y-103852168D01*
X127906908Y-103757412D01*
X127907426Y-103756218D01*
X127942093Y-103663599D01*
X127942307Y-103662981D01*
X127971527Y-103570695D01*
X128002052Y-103477450D01*
X128040720Y-103381443D01*
X128094423Y-103280618D01*
X128170152Y-103172879D01*
X128266453Y-103065714D01*
X128425762Y-103225023D01*
G04 #@! TA.AperFunction,Conductor*
D19*
G36*
X128425762Y-103225023D02*
G01*
X128343052Y-103329522D01*
X128341705Y-103331616D01*
X128341034Y-103333177D01*
X128304496Y-103436706D01*
X128303902Y-103439124D01*
X128303815Y-103441976D01*
X128311767Y-103538485D01*
X128312214Y-103540934D01*
X128312947Y-103542880D01*
X128356688Y-103635186D01*
X128358146Y-103637553D01*
X128428978Y-103728474D01*
X128429863Y-103729493D01*
X128519084Y-103821845D01*
X128519345Y-103822107D01*
X128618104Y-103918559D01*
X128717511Y-104021711D01*
X128808795Y-104134144D01*
X128879109Y-104251286D01*
X128222477Y-104934103D01*
X127705283Y-104051198D01*
X127791693Y-103953643D01*
X127792728Y-103952305D01*
X127859042Y-103853605D01*
X127859876Y-103852168D01*
X127906908Y-103757412D01*
X127907426Y-103756218D01*
X127942093Y-103663599D01*
X127942307Y-103662981D01*
X127971527Y-103570695D01*
X128002052Y-103477450D01*
X128040720Y-103381443D01*
X128094423Y-103280618D01*
X128170152Y-103172879D01*
X128266453Y-103065714D01*
X128425762Y-103225023D01*
G37*
G04 #@! TD.AperFunction*
D20*
X131274739Y-90108691D02*
X131186586Y-90206950D01*
X131185645Y-90208134D01*
X131116494Y-90306630D01*
X131115711Y-90307897D01*
X131065043Y-90401810D01*
X131064533Y-90402871D01*
X131025691Y-90494225D01*
X131025470Y-90494779D01*
X130991812Y-90585559D01*
X130956814Y-90677437D01*
X130913923Y-90772340D01*
X130856466Y-90872559D01*
X130777717Y-90980353D01*
X130679456Y-91088480D01*
X130520108Y-90929132D01*
X130603303Y-90824349D01*
X130604653Y-90822257D01*
X130605297Y-90820781D01*
X130643040Y-90716679D01*
X130643655Y-90714266D01*
X130643775Y-90711550D01*
X130637633Y-90614210D01*
X130637233Y-90611753D01*
X130636567Y-90609860D01*
X130595152Y-90516494D01*
X130593759Y-90514099D01*
X130525682Y-90421920D01*
X130524820Y-90420874D01*
X130438692Y-90327094D01*
X130438438Y-90326826D01*
X130343005Y-90228797D01*
X130247108Y-90124002D01*
X130159370Y-90009840D01*
X130092361Y-89891030D01*
X130767189Y-89225735D01*
X131274739Y-90108691D01*
G04 #@! TA.AperFunction,Conductor*
D19*
G36*
X131274739Y-90108691D02*
G01*
X131186586Y-90206950D01*
X131185645Y-90208134D01*
X131116494Y-90306630D01*
X131115711Y-90307897D01*
X131065043Y-90401810D01*
X131064533Y-90402871D01*
X131025691Y-90494225D01*
X131025470Y-90494779D01*
X130991812Y-90585559D01*
X130956814Y-90677437D01*
X130913923Y-90772340D01*
X130856466Y-90872559D01*
X130777717Y-90980353D01*
X130679456Y-91088480D01*
X130520108Y-90929132D01*
X130603303Y-90824349D01*
X130604653Y-90822257D01*
X130605297Y-90820781D01*
X130643040Y-90716679D01*
X130643655Y-90714266D01*
X130643775Y-90711550D01*
X130637633Y-90614210D01*
X130637233Y-90611753D01*
X130636567Y-90609860D01*
X130595152Y-90516494D01*
X130593759Y-90514099D01*
X130525682Y-90421920D01*
X130524820Y-90420874D01*
X130438692Y-90327094D01*
X130438438Y-90326826D01*
X130343005Y-90228797D01*
X130247108Y-90124002D01*
X130159370Y-90009840D01*
X130092361Y-89891030D01*
X130767189Y-89225735D01*
X131274739Y-90108691D01*
G37*
G04 #@! TD.AperFunction*
D20*
X116031203Y-96747695D02*
X116031369Y-96749208D01*
X116056575Y-96896414D01*
X116057003Y-96898160D01*
X116096341Y-97020448D01*
X116097034Y-97022162D01*
X116148316Y-97126473D01*
X116149086Y-97127824D01*
X116210127Y-97221096D01*
X116210689Y-97221886D01*
X116279301Y-97311061D01*
X116279469Y-97311276D01*
X116353346Y-97403144D01*
X116430193Y-97504486D01*
X116507859Y-97622191D01*
X116580211Y-97755740D01*
X115910000Y-98452678D01*
X115239789Y-97755740D01*
X115312140Y-97622191D01*
X115389806Y-97504486D01*
X115466653Y-97403144D01*
X115540530Y-97311276D01*
X115540698Y-97311061D01*
X115609310Y-97221886D01*
X115609872Y-97221096D01*
X115670913Y-97127824D01*
X115671683Y-97126473D01*
X115722965Y-97022162D01*
X115723658Y-97020448D01*
X115762996Y-96898160D01*
X115763424Y-96896414D01*
X115788630Y-96749208D01*
X115788796Y-96747695D01*
X115797085Y-96580700D01*
X116022915Y-96580700D01*
X116031203Y-96747695D01*
G04 #@! TA.AperFunction,Conductor*
D19*
G36*
X116031203Y-96747695D02*
G01*
X116031369Y-96749208D01*
X116056575Y-96896414D01*
X116057003Y-96898160D01*
X116096341Y-97020448D01*
X116097034Y-97022162D01*
X116148316Y-97126473D01*
X116149086Y-97127824D01*
X116210127Y-97221096D01*
X116210689Y-97221886D01*
X116279301Y-97311061D01*
X116279469Y-97311276D01*
X116353346Y-97403144D01*
X116430193Y-97504486D01*
X116507859Y-97622191D01*
X116580211Y-97755740D01*
X115910000Y-98452678D01*
X115239789Y-97755740D01*
X115312140Y-97622191D01*
X115389806Y-97504486D01*
X115466653Y-97403144D01*
X115540530Y-97311276D01*
X115540698Y-97311061D01*
X115609310Y-97221886D01*
X115609872Y-97221096D01*
X115670913Y-97127824D01*
X115671683Y-97126473D01*
X115722965Y-97022162D01*
X115723658Y-97020448D01*
X115762996Y-96898160D01*
X115763424Y-96896414D01*
X115788630Y-96749208D01*
X115788796Y-96747695D01*
X115797085Y-96580700D01*
X116022915Y-96580700D01*
X116031203Y-96747695D01*
G37*
G04 #@! TD.AperFunction*
D20*
X125969570Y-93054836D02*
X125942567Y-93107581D01*
X125913258Y-93159942D01*
X125885959Y-93206758D01*
X125885888Y-93206881D01*
X125861008Y-93250667D01*
X125860734Y-93251176D01*
X125838693Y-93294439D01*
X125838281Y-93295331D01*
X125819439Y-93340679D01*
X125819021Y-93341843D01*
X125803739Y-93391888D01*
X125803427Y-93393129D01*
X125792065Y-93450478D01*
X125791893Y-93451616D01*
X125784812Y-93518881D01*
X125784748Y-93519823D01*
X125782685Y-93587300D01*
X125557319Y-93587300D01*
X125555255Y-93519823D01*
X125555191Y-93518881D01*
X125548110Y-93451616D01*
X125547938Y-93450478D01*
X125536576Y-93393129D01*
X125536264Y-93391888D01*
X125520982Y-93341843D01*
X125520564Y-93340679D01*
X125501722Y-93295331D01*
X125501310Y-93294439D01*
X125479269Y-93251176D01*
X125478995Y-93250667D01*
X125454115Y-93206881D01*
X125454044Y-93206758D01*
X125426745Y-93159942D01*
X125397436Y-93107581D01*
X125370434Y-93054836D01*
X125670002Y-92743322D01*
X125969570Y-93054836D01*
G04 #@! TA.AperFunction,Conductor*
D19*
G36*
X125969570Y-93054836D02*
G01*
X125942567Y-93107581D01*
X125913258Y-93159942D01*
X125885959Y-93206758D01*
X125885888Y-93206881D01*
X125861008Y-93250667D01*
X125860734Y-93251176D01*
X125838693Y-93294439D01*
X125838281Y-93295331D01*
X125819439Y-93340679D01*
X125819021Y-93341843D01*
X125803739Y-93391888D01*
X125803427Y-93393129D01*
X125792065Y-93450478D01*
X125791893Y-93451616D01*
X125784812Y-93518881D01*
X125784748Y-93519823D01*
X125782685Y-93587300D01*
X125557319Y-93587300D01*
X125555255Y-93519823D01*
X125555191Y-93518881D01*
X125548110Y-93451616D01*
X125547938Y-93450478D01*
X125536576Y-93393129D01*
X125536264Y-93391888D01*
X125520982Y-93341843D01*
X125520564Y-93340679D01*
X125501722Y-93295331D01*
X125501310Y-93294439D01*
X125479269Y-93251176D01*
X125478995Y-93250667D01*
X125454115Y-93206881D01*
X125454044Y-93206758D01*
X125426745Y-93159942D01*
X125397436Y-93107581D01*
X125370434Y-93054836D01*
X125670002Y-92743322D01*
X125969570Y-93054836D01*
G37*
G04 #@! TD.AperFunction*
D20*
X124331160Y-96738190D02*
X124331325Y-96739695D01*
X124356446Y-96887365D01*
X124356871Y-96889107D01*
X124396149Y-97011802D01*
X124396841Y-97013522D01*
X124448154Y-97118165D01*
X124448932Y-97119530D01*
X124510161Y-97213043D01*
X124510737Y-97213852D01*
X124579759Y-97303157D01*
X124579948Y-97303395D01*
X124654525Y-97395267D01*
X124732451Y-97496504D01*
X124811600Y-97613928D01*
X124885819Y-97747059D01*
X124224709Y-98452646D01*
X123545501Y-97764468D01*
X123616834Y-97628427D01*
X123693518Y-97508497D01*
X123769463Y-97405253D01*
X123842621Y-97311592D01*
X123842778Y-97311385D01*
X123910770Y-97220568D01*
X123911310Y-97219789D01*
X123971852Y-97124927D01*
X123972593Y-97123596D01*
X124023493Y-97017679D01*
X124024159Y-97015995D01*
X124063229Y-96892014D01*
X124063640Y-96890302D01*
X124088687Y-96741245D01*
X124088848Y-96739759D01*
X124097096Y-96570700D01*
X124322910Y-96570700D01*
X124331160Y-96738190D01*
G04 #@! TA.AperFunction,Conductor*
D19*
G36*
X124331160Y-96738190D02*
G01*
X124331325Y-96739695D01*
X124356446Y-96887365D01*
X124356871Y-96889107D01*
X124396149Y-97011802D01*
X124396841Y-97013522D01*
X124448154Y-97118165D01*
X124448932Y-97119530D01*
X124510161Y-97213043D01*
X124510737Y-97213852D01*
X124579759Y-97303157D01*
X124579948Y-97303395D01*
X124654525Y-97395267D01*
X124732451Y-97496504D01*
X124811600Y-97613928D01*
X124885819Y-97747059D01*
X124224709Y-98452646D01*
X123545501Y-97764468D01*
X123616834Y-97628427D01*
X123693518Y-97508497D01*
X123769463Y-97405253D01*
X123842621Y-97311592D01*
X123842778Y-97311385D01*
X123910770Y-97220568D01*
X123911310Y-97219789D01*
X123971852Y-97124927D01*
X123972593Y-97123596D01*
X124023493Y-97017679D01*
X124024159Y-97015995D01*
X124063229Y-96892014D01*
X124063640Y-96890302D01*
X124088687Y-96741245D01*
X124088848Y-96739759D01*
X124097096Y-96570700D01*
X124322910Y-96570700D01*
X124331160Y-96738190D01*
G37*
G04 #@! TD.AperFunction*
D20*
X116887114Y-99681969D02*
X116887611Y-99682419D01*
X117008076Y-99785719D01*
X117008618Y-99786158D01*
X117116880Y-99869125D01*
X117117382Y-99869491D01*
X117216929Y-99938322D01*
X117217264Y-99938546D01*
X117311586Y-99999441D01*
X117311636Y-99999473D01*
X117404099Y-100058553D01*
X117498034Y-100121904D01*
X117597093Y-100195799D01*
X117704819Y-100286453D01*
X117818010Y-100393705D01*
X117333490Y-101288973D01*
X116591671Y-100672050D01*
X116631785Y-100566605D01*
X116675309Y-100461471D01*
X116675332Y-100461416D01*
X116715487Y-100363133D01*
X116715696Y-100362585D01*
X116748773Y-100269574D01*
X116749128Y-100268397D01*
X116771488Y-100178903D01*
X116771814Y-100176979D01*
X116779822Y-100089249D01*
X116779794Y-100086659D01*
X116769812Y-99998938D01*
X116769168Y-99996143D01*
X116737560Y-99906676D01*
X116736419Y-99904280D01*
X116679549Y-99811314D01*
X116678281Y-99809588D01*
X116600318Y-99720308D01*
X116759932Y-99560694D01*
X116887114Y-99681969D01*
G04 #@! TA.AperFunction,Conductor*
D19*
G36*
X116887114Y-99681969D02*
G01*
X116887611Y-99682419D01*
X117008076Y-99785719D01*
X117008618Y-99786158D01*
X117116880Y-99869125D01*
X117117382Y-99869491D01*
X117216929Y-99938322D01*
X117217264Y-99938546D01*
X117311586Y-99999441D01*
X117311636Y-99999473D01*
X117404099Y-100058553D01*
X117498034Y-100121904D01*
X117597093Y-100195799D01*
X117704819Y-100286453D01*
X117818010Y-100393705D01*
X117333490Y-101288973D01*
X116591671Y-100672050D01*
X116631785Y-100566605D01*
X116675309Y-100461471D01*
X116675332Y-100461416D01*
X116715487Y-100363133D01*
X116715696Y-100362585D01*
X116748773Y-100269574D01*
X116749128Y-100268397D01*
X116771488Y-100178903D01*
X116771814Y-100176979D01*
X116779822Y-100089249D01*
X116779794Y-100086659D01*
X116769812Y-99998938D01*
X116769168Y-99996143D01*
X116737560Y-99906676D01*
X116736419Y-99904280D01*
X116679549Y-99811314D01*
X116678281Y-99809588D01*
X116600318Y-99720308D01*
X116759932Y-99560694D01*
X116887114Y-99681969D01*
G37*
G04 #@! TD.AperFunction*
D20*
X123654682Y-90108592D02*
X123564367Y-90206919D01*
X123563609Y-90207826D01*
X123489943Y-90304757D01*
X123489278Y-90305720D01*
X123432443Y-90396841D01*
X123431977Y-90397654D01*
X123385862Y-90485400D01*
X123385646Y-90485830D01*
X123344141Y-90572641D01*
X123301310Y-90660592D01*
X123251073Y-90752145D01*
X123187289Y-90849917D01*
X123103784Y-90956501D01*
X123002985Y-91065146D01*
X122843575Y-90905736D01*
X122924447Y-90804790D01*
X122925805Y-90802703D01*
X122926372Y-90801450D01*
X122965779Y-90700066D01*
X122966449Y-90697668D01*
X122966641Y-90695283D01*
X122965272Y-90599843D01*
X122964992Y-90597369D01*
X122964471Y-90595583D01*
X122930126Y-90503592D01*
X122928858Y-90501084D01*
X122869339Y-90410047D01*
X122868479Y-90408883D01*
X122791586Y-90316306D01*
X122791279Y-90315950D01*
X122704902Y-90219436D01*
X122617069Y-90116766D01*
X122535629Y-90005646D01*
X122472300Y-89891090D01*
X123147189Y-89225735D01*
X123654682Y-90108592D01*
G04 #@! TA.AperFunction,Conductor*
D19*
G36*
X123654682Y-90108592D02*
G01*
X123564367Y-90206919D01*
X123563609Y-90207826D01*
X123489943Y-90304757D01*
X123489278Y-90305720D01*
X123432443Y-90396841D01*
X123431977Y-90397654D01*
X123385862Y-90485400D01*
X123385646Y-90485830D01*
X123344141Y-90572641D01*
X123301310Y-90660592D01*
X123251073Y-90752145D01*
X123187289Y-90849917D01*
X123103784Y-90956501D01*
X123002985Y-91065146D01*
X122843575Y-90905736D01*
X122924447Y-90804790D01*
X122925805Y-90802703D01*
X122926372Y-90801450D01*
X122965779Y-90700066D01*
X122966449Y-90697668D01*
X122966641Y-90695283D01*
X122965272Y-90599843D01*
X122964992Y-90597369D01*
X122964471Y-90595583D01*
X122930126Y-90503592D01*
X122928858Y-90501084D01*
X122869339Y-90410047D01*
X122868479Y-90408883D01*
X122791586Y-90316306D01*
X122791279Y-90315950D01*
X122704902Y-90219436D01*
X122617069Y-90116766D01*
X122535629Y-90005646D01*
X122472300Y-89891090D01*
X123147189Y-89225735D01*
X123654682Y-90108592D01*
G37*
G04 #@! TD.AperFunction*
D20*
X117646532Y-95777000D02*
X117697895Y-95806029D01*
X117743835Y-95833233D01*
X117743934Y-95833291D01*
X117786859Y-95858187D01*
X117787352Y-95858458D01*
X117829749Y-95880598D01*
X117830638Y-95881020D01*
X117875088Y-95900013D01*
X117876264Y-95900448D01*
X117925346Y-95915902D01*
X117926613Y-95916230D01*
X117982907Y-95927753D01*
X117984078Y-95927936D01*
X118050164Y-95935137D01*
X118051137Y-95935206D01*
X118117300Y-95937304D01*
X118117300Y-96162696D01*
X118051138Y-96164793D01*
X118050164Y-96164862D01*
X117984078Y-96172063D01*
X117982907Y-96172246D01*
X117926613Y-96183769D01*
X117925346Y-96184097D01*
X117876264Y-96199551D01*
X117875088Y-96199986D01*
X117830638Y-96218979D01*
X117829749Y-96219401D01*
X117787352Y-96241541D01*
X117786859Y-96241812D01*
X117743934Y-96266708D01*
X117743835Y-96266766D01*
X117697895Y-96293970D01*
X117646532Y-96322999D01*
X117594826Y-96349559D01*
X117283322Y-96050000D01*
X117594826Y-95750441D01*
X117646532Y-95777000D01*
G04 #@! TA.AperFunction,Conductor*
D19*
G36*
X117646532Y-95777000D02*
G01*
X117697895Y-95806029D01*
X117743835Y-95833233D01*
X117743934Y-95833291D01*
X117786859Y-95858187D01*
X117787352Y-95858458D01*
X117829749Y-95880598D01*
X117830638Y-95881020D01*
X117875088Y-95900013D01*
X117876264Y-95900448D01*
X117925346Y-95915902D01*
X117926613Y-95916230D01*
X117982907Y-95927753D01*
X117984078Y-95927936D01*
X118050164Y-95935137D01*
X118051137Y-95935206D01*
X118117300Y-95937304D01*
X118117300Y-96162696D01*
X118051138Y-96164793D01*
X118050164Y-96164862D01*
X117984078Y-96172063D01*
X117982907Y-96172246D01*
X117926613Y-96183769D01*
X117925346Y-96184097D01*
X117876264Y-96199551D01*
X117875088Y-96199986D01*
X117830638Y-96218979D01*
X117829749Y-96219401D01*
X117787352Y-96241541D01*
X117786859Y-96241812D01*
X117743934Y-96266708D01*
X117743835Y-96266766D01*
X117697895Y-96293970D01*
X117646532Y-96322999D01*
X117594826Y-96349559D01*
X117283322Y-96050000D01*
X117594826Y-95750441D01*
X117646532Y-95777000D01*
G37*
G04 #@! TD.AperFunction*
D20*
X121974879Y-99883530D02*
X121976046Y-99884469D01*
X122099018Y-99971981D01*
X122100524Y-99972902D01*
X122215701Y-100032779D01*
X122217365Y-100033499D01*
X122328143Y-100072252D01*
X122329610Y-100072668D01*
X122439390Y-100096806D01*
X122440320Y-100096974D01*
X122552499Y-100113008D01*
X122552753Y-100113042D01*
X122670564Y-100127460D01*
X122797119Y-100146721D01*
X122935956Y-100177295D01*
X123082342Y-100223077D01*
X123087884Y-101189969D01*
X122121510Y-101157717D01*
X122080079Y-101011349D01*
X122053236Y-100872536D01*
X122036978Y-100746071D01*
X122024960Y-100628496D01*
X122024926Y-100628195D01*
X122010799Y-100516383D01*
X122010636Y-100515402D01*
X121988024Y-100406126D01*
X121987610Y-100404606D01*
X121950122Y-100294480D01*
X121949395Y-100292769D01*
X121890640Y-100178408D01*
X121889707Y-100176871D01*
X121803293Y-100054889D01*
X121802343Y-100053704D01*
X121689995Y-99929675D01*
X121849671Y-99769999D01*
X121974879Y-99883530D01*
G04 #@! TA.AperFunction,Conductor*
D19*
G36*
X121974879Y-99883530D02*
G01*
X121976046Y-99884469D01*
X122099018Y-99971981D01*
X122100524Y-99972902D01*
X122215701Y-100032779D01*
X122217365Y-100033499D01*
X122328143Y-100072252D01*
X122329610Y-100072668D01*
X122439390Y-100096806D01*
X122440320Y-100096974D01*
X122552499Y-100113008D01*
X122552753Y-100113042D01*
X122670564Y-100127460D01*
X122797119Y-100146721D01*
X122935956Y-100177295D01*
X123082342Y-100223077D01*
X123087884Y-101189969D01*
X122121510Y-101157717D01*
X122080079Y-101011349D01*
X122053236Y-100872536D01*
X122036978Y-100746071D01*
X122024960Y-100628496D01*
X122024926Y-100628195D01*
X122010799Y-100516383D01*
X122010636Y-100515402D01*
X121988024Y-100406126D01*
X121987610Y-100404606D01*
X121950122Y-100294480D01*
X121949395Y-100292769D01*
X121890640Y-100178408D01*
X121889707Y-100176871D01*
X121803293Y-100054889D01*
X121802343Y-100053704D01*
X121689995Y-99929675D01*
X121849671Y-99769999D01*
X121974879Y-99883530D01*
G37*
G04 #@! TD.AperFunction*
D20*
X118496532Y-94087000D02*
X118547895Y-94116029D01*
X118593835Y-94143233D01*
X118593934Y-94143291D01*
X118636859Y-94168187D01*
X118637352Y-94168458D01*
X118679749Y-94190598D01*
X118680638Y-94191020D01*
X118725088Y-94210013D01*
X118726264Y-94210448D01*
X118775346Y-94225902D01*
X118776613Y-94226230D01*
X118832907Y-94237753D01*
X118834078Y-94237936D01*
X118900164Y-94245137D01*
X118901137Y-94245206D01*
X118967300Y-94247304D01*
X118967300Y-94472696D01*
X118901138Y-94474793D01*
X118900164Y-94474862D01*
X118834078Y-94482063D01*
X118832907Y-94482246D01*
X118776613Y-94493769D01*
X118775346Y-94494097D01*
X118726264Y-94509551D01*
X118725088Y-94509986D01*
X118680638Y-94528979D01*
X118679749Y-94529401D01*
X118637352Y-94551541D01*
X118636859Y-94551812D01*
X118593934Y-94576708D01*
X118593835Y-94576766D01*
X118547895Y-94603970D01*
X118496532Y-94632999D01*
X118444826Y-94659559D01*
X118133322Y-94360000D01*
X118444826Y-94060441D01*
X118496532Y-94087000D01*
G04 #@! TA.AperFunction,Conductor*
D19*
G36*
X118496532Y-94087000D02*
G01*
X118547895Y-94116029D01*
X118593835Y-94143233D01*
X118593934Y-94143291D01*
X118636859Y-94168187D01*
X118637352Y-94168458D01*
X118679749Y-94190598D01*
X118680638Y-94191020D01*
X118725088Y-94210013D01*
X118726264Y-94210448D01*
X118775346Y-94225902D01*
X118776613Y-94226230D01*
X118832907Y-94237753D01*
X118834078Y-94237936D01*
X118900164Y-94245137D01*
X118901137Y-94245206D01*
X118967300Y-94247304D01*
X118967300Y-94472696D01*
X118901138Y-94474793D01*
X118900164Y-94474862D01*
X118834078Y-94482063D01*
X118832907Y-94482246D01*
X118776613Y-94493769D01*
X118775346Y-94494097D01*
X118726264Y-94509551D01*
X118725088Y-94509986D01*
X118680638Y-94528979D01*
X118679749Y-94529401D01*
X118637352Y-94551541D01*
X118636859Y-94551812D01*
X118593934Y-94576708D01*
X118593835Y-94576766D01*
X118547895Y-94603970D01*
X118496532Y-94632999D01*
X118444826Y-94659559D01*
X118133322Y-94360000D01*
X118444826Y-94060441D01*
X118496532Y-94087000D01*
G37*
G04 #@! TD.AperFunction*
D20*
X124743059Y-99881731D02*
X124744222Y-99882667D01*
X124867404Y-99970441D01*
X124868904Y-99971360D01*
X124984259Y-100031486D01*
X124985918Y-100032206D01*
X125096856Y-100071194D01*
X125098320Y-100071611D01*
X125208253Y-100095969D01*
X125209183Y-100096139D01*
X125321520Y-100112376D01*
X125321777Y-100112411D01*
X125439768Y-100127015D01*
X125566532Y-100146440D01*
X125705618Y-100177159D01*
X125852306Y-100223062D01*
X125857898Y-101189956D01*
X124891520Y-101157755D01*
X124849960Y-101011077D01*
X124822970Y-100872025D01*
X124806537Y-100745289D01*
X124794337Y-100627566D01*
X124794302Y-100627263D01*
X124779972Y-100515285D01*
X124779807Y-100514303D01*
X124756976Y-100404866D01*
X124756561Y-100403350D01*
X124718838Y-100293056D01*
X124718111Y-100291350D01*
X124659106Y-100176802D01*
X124658175Y-100175270D01*
X124571496Y-100053071D01*
X124570548Y-100051891D01*
X124457925Y-99927603D01*
X124617598Y-99767930D01*
X124743059Y-99881731D01*
G04 #@! TA.AperFunction,Conductor*
D19*
G36*
X124743059Y-99881731D02*
G01*
X124744222Y-99882667D01*
X124867404Y-99970441D01*
X124868904Y-99971360D01*
X124984259Y-100031486D01*
X124985918Y-100032206D01*
X125096856Y-100071194D01*
X125098320Y-100071611D01*
X125208253Y-100095969D01*
X125209183Y-100096139D01*
X125321520Y-100112376D01*
X125321777Y-100112411D01*
X125439768Y-100127015D01*
X125566532Y-100146440D01*
X125705618Y-100177159D01*
X125852306Y-100223062D01*
X125857898Y-101189956D01*
X124891520Y-101157755D01*
X124849960Y-101011077D01*
X124822970Y-100872025D01*
X124806537Y-100745289D01*
X124794337Y-100627566D01*
X124794302Y-100627263D01*
X124779972Y-100515285D01*
X124779807Y-100514303D01*
X124756976Y-100404866D01*
X124756561Y-100403350D01*
X124718838Y-100293056D01*
X124718111Y-100291350D01*
X124659106Y-100176802D01*
X124658175Y-100175270D01*
X124571496Y-100053071D01*
X124570548Y-100051891D01*
X124457925Y-99927603D01*
X124617598Y-99767930D01*
X124743059Y-99881731D01*
G37*
G04 #@! TD.AperFunction*
D20*
X114656678Y-92030000D02*
X114345174Y-92329559D01*
X114293467Y-92302999D01*
X114242104Y-92273970D01*
X114196164Y-92246766D01*
X114196065Y-92246708D01*
X114153140Y-92221812D01*
X114152647Y-92221541D01*
X114110250Y-92199401D01*
X114109361Y-92198979D01*
X114064911Y-92179986D01*
X114063735Y-92179551D01*
X114014653Y-92164097D01*
X114013386Y-92163769D01*
X113957092Y-92152246D01*
X113955921Y-92152063D01*
X113889835Y-92144862D01*
X113888861Y-92144793D01*
X113822700Y-92142696D01*
X113822700Y-91917304D01*
X113888862Y-91915206D01*
X113889835Y-91915137D01*
X113955921Y-91907936D01*
X113957092Y-91907753D01*
X114013386Y-91896230D01*
X114014653Y-91895902D01*
X114063735Y-91880448D01*
X114064911Y-91880013D01*
X114109361Y-91861020D01*
X114110250Y-91860598D01*
X114152647Y-91838458D01*
X114153140Y-91838187D01*
X114196065Y-91813291D01*
X114196164Y-91813233D01*
X114242104Y-91786029D01*
X114293467Y-91757000D01*
X114345174Y-91730441D01*
X114656678Y-92030000D01*
G04 #@! TA.AperFunction,Conductor*
D19*
G36*
X114656678Y-92030000D02*
G01*
X114345174Y-92329559D01*
X114293467Y-92302999D01*
X114242104Y-92273970D01*
X114196164Y-92246766D01*
X114196065Y-92246708D01*
X114153140Y-92221812D01*
X114152647Y-92221541D01*
X114110250Y-92199401D01*
X114109361Y-92198979D01*
X114064911Y-92179986D01*
X114063735Y-92179551D01*
X114014653Y-92164097D01*
X114013386Y-92163769D01*
X113957092Y-92152246D01*
X113955921Y-92152063D01*
X113889835Y-92144862D01*
X113888861Y-92144793D01*
X113822700Y-92142696D01*
X113822700Y-91917304D01*
X113888862Y-91915206D01*
X113889835Y-91915137D01*
X113955921Y-91907936D01*
X113957092Y-91907753D01*
X114013386Y-91896230D01*
X114014653Y-91895902D01*
X114063735Y-91880448D01*
X114064911Y-91880013D01*
X114109361Y-91861020D01*
X114110250Y-91860598D01*
X114152647Y-91838458D01*
X114153140Y-91838187D01*
X114196065Y-91813291D01*
X114196164Y-91813233D01*
X114242104Y-91786029D01*
X114293467Y-91757000D01*
X114345174Y-91730441D01*
X114656678Y-92030000D01*
G37*
G04 #@! TD.AperFunction*
D20*
X111107647Y-89891037D02*
X111041102Y-90009307D01*
X110954160Y-90123080D01*
X110859256Y-90227632D01*
X110764975Y-90325457D01*
X110764714Y-90325735D01*
X110679742Y-90419370D01*
X110678880Y-90420430D01*
X110611873Y-90512471D01*
X110610494Y-90514881D01*
X110569961Y-90608079D01*
X110569196Y-90610448D01*
X110568928Y-90612420D01*
X110563380Y-90709525D01*
X110563482Y-90712012D01*
X110564132Y-90714611D01*
X110602076Y-90818371D01*
X110603156Y-90820614D01*
X110604061Y-90821911D01*
X110686959Y-90926207D01*
X110527602Y-91085564D01*
X110429035Y-90977382D01*
X110349699Y-90869746D01*
X110291454Y-90769836D01*
X110247637Y-90675338D01*
X110211626Y-90583874D01*
X110177007Y-90493652D01*
X110176786Y-90493113D01*
X110137028Y-90402204D01*
X110136521Y-90401174D01*
X110085080Y-90307608D01*
X110084310Y-90306380D01*
X110014598Y-90208083D01*
X110013680Y-90206935D01*
X109925269Y-90108678D01*
X110432811Y-89225735D01*
X111107647Y-89891037D01*
G04 #@! TA.AperFunction,Conductor*
D19*
G36*
X111107647Y-89891037D02*
G01*
X111041102Y-90009307D01*
X110954160Y-90123080D01*
X110859256Y-90227632D01*
X110764975Y-90325457D01*
X110764714Y-90325735D01*
X110679742Y-90419370D01*
X110678880Y-90420430D01*
X110611873Y-90512471D01*
X110610494Y-90514881D01*
X110569961Y-90608079D01*
X110569196Y-90610448D01*
X110568928Y-90612420D01*
X110563380Y-90709525D01*
X110563482Y-90712012D01*
X110564132Y-90714611D01*
X110602076Y-90818371D01*
X110603156Y-90820614D01*
X110604061Y-90821911D01*
X110686959Y-90926207D01*
X110527602Y-91085564D01*
X110429035Y-90977382D01*
X110349699Y-90869746D01*
X110291454Y-90769836D01*
X110247637Y-90675338D01*
X110211626Y-90583874D01*
X110177007Y-90493652D01*
X110176786Y-90493113D01*
X110137028Y-90402204D01*
X110136521Y-90401174D01*
X110085080Y-90307608D01*
X110084310Y-90306380D01*
X110014598Y-90208083D01*
X110013680Y-90206935D01*
X109925269Y-90108678D01*
X110432811Y-89225735D01*
X111107647Y-89891037D01*
G37*
G04 #@! TD.AperFunction*
M02*
