M48
; DRILL file {KiCad (5.1.10-1-10_14)} date Tuesday, October 26, 2021 at 08:18:44 PM
; FORMAT={-:-/ absolute / inch / decimal}
; #@! TF.CreationDate,2021-10-26T20:18:44-04:00
; #@! TF.GenerationSoftware,Kicad,Pcbnew,(5.1.10-1-10_14)
FMAT,2
INCH
T1C0.0118
T2C0.0150
T3C0.0300
T4C0.0394
T5C0.1201
%
G90
G05
T1
X4.5079Y-3.6232
X4.6236Y-3.7815
X4.6571Y-3.715
X4.8752Y-3.6984
X4.9476Y-3.6575
X5.1984Y-3.6094
X5.772Y-3.7799
X5.9374Y-3.778
X6.1571Y-3.7626
T2
X5.6413Y-3.7154
T3
X4.5089Y-3.9736
X4.5634Y-3.8618
X4.6179Y-3.9736
X4.6724Y-3.8618
X4.727Y-3.9736
X4.7815Y-3.8618
X4.836Y-3.9736
X4.8906Y-3.8618
X4.9451Y-3.9736
X5.7419Y-3.9736
X5.7965Y-3.8618
X5.851Y-3.9736
X5.9055Y-3.8618
X5.96Y-3.9736
X6.0146Y-3.8618
X6.0691Y-3.9736
X6.1236Y-3.8618
X6.1781Y-3.9736
T4
X4.348Y-3.5268
X4.348Y-4.1173
X4.448Y-3.5268
X4.448Y-4.1173
X4.548Y-3.5268
X4.548Y-4.1173
X4.648Y-3.5268
X4.648Y-4.1173
X4.748Y-3.5268
X4.748Y-4.1173
X4.848Y-3.5268
X4.848Y-4.1173
X4.948Y-3.5268
X4.948Y-4.1173
X5.048Y-3.5268
X5.048Y-4.1173
X5.148Y-3.5268
X5.148Y-4.1173
X5.248Y-3.5268
X5.248Y-4.1173
X5.348Y-3.5268
X5.348Y-4.1173
X5.448Y-3.5268
X5.448Y-4.1173
T5
X4.2346Y-3.9307
X5.2185Y-3.9307
X5.4677Y-3.9307
X6.4516Y-3.9307
T0
M30
