G04 #@! TF.GenerationSoftware,KiCad,Pcbnew,(5.1.10-1-10_14)*
G04 #@! TF.CreationDate,2021-10-26T20:18:43-04:00*
G04 #@! TF.ProjectId,DaemonBite_MD2,4461656d-6f6e-4426-9974-655f4d44322e,1*
G04 #@! TF.SameCoordinates,Original*
G04 #@! TF.FileFunction,Copper,L1,Top*
G04 #@! TF.FilePolarity,Positive*
%FSLAX46Y46*%
G04 Gerber Fmt 4.6, Leading zero omitted, Abs format (unit mm)*
G04 Created by KiCad (PCBNEW (5.1.10-1-10_14)) date 2021-10-26 20:18:43*
%MOMM*%
%LPD*%
G01*
G04 APERTURE LIST*
G04 #@! TA.AperFunction,ComponentPad*
%ADD10C,4.000000*%
G04 #@! TD*
G04 #@! TA.AperFunction,ComponentPad*
%ADD11C,1.524000*%
G04 #@! TD*
G04 #@! TA.AperFunction,ComponentPad*
%ADD12C,1.500000*%
G04 #@! TD*
G04 #@! TA.AperFunction,ComponentPad*
%ADD13R,1.500000X1.500000*%
G04 #@! TD*
G04 #@! TA.AperFunction,ViaPad*
%ADD14C,0.889000*%
G04 #@! TD*
G04 #@! TA.AperFunction,ViaPad*
%ADD15C,0.700000*%
G04 #@! TD*
G04 #@! TA.AperFunction,Conductor*
%ADD16C,0.508000*%
G04 #@! TD*
G04 #@! TA.AperFunction,Conductor*
%ADD17C,0.250000*%
G04 #@! TD*
G04 #@! TA.AperFunction,Conductor*
%ADD18C,0.160000*%
G04 #@! TD*
G04 #@! TA.AperFunction,Conductor*
%ADD19C,0.152400*%
G04 #@! TD*
G04 #@! TA.AperFunction,Conductor*
%ADD20C,0.025400*%
G04 #@! TD*
G04 APERTURE END LIST*
D10*
X138880000Y-99840000D03*
X163870000Y-99840000D03*
D11*
X147230000Y-98090000D03*
X150000000Y-98090000D03*
X152770000Y-98090000D03*
X155540000Y-98090000D03*
X145845000Y-100930000D03*
X148615000Y-100930000D03*
X151385000Y-100930000D03*
X154155000Y-100930000D03*
X156925000Y-100930000D03*
D10*
X107560000Y-99840000D03*
X132550000Y-99840000D03*
D11*
X115910000Y-98090000D03*
X118680000Y-98090000D03*
X121450000Y-98090000D03*
X124220000Y-98090000D03*
X114525000Y-100930000D03*
X117295000Y-100930000D03*
X120065000Y-100930000D03*
X122835000Y-100930000D03*
X125605000Y-100930000D03*
D12*
X138380000Y-89580000D03*
X135840000Y-89580000D03*
X133300000Y-89580000D03*
X130760000Y-89580000D03*
X128220000Y-89580000D03*
X125680000Y-89580000D03*
X123140000Y-89580000D03*
X120600000Y-89580000D03*
D13*
X118060000Y-89580000D03*
X115520000Y-89580000D03*
D12*
X112980000Y-89580000D03*
X110440000Y-89580000D03*
X138380000Y-104580000D03*
X135840000Y-104580000D03*
X133300000Y-104580000D03*
X130760000Y-104580000D03*
X128220000Y-104580000D03*
X125680000Y-104580000D03*
X123140000Y-104580000D03*
X120600000Y-104580000D03*
X118060000Y-104580000D03*
X115520000Y-104580000D03*
D13*
X112980000Y-104580000D03*
D12*
X110440000Y-104580000D03*
D14*
X143289998Y-94370000D03*
D15*
X150810000Y-95960000D03*
X146610000Y-96010000D03*
X132040000Y-91680000D03*
X123830000Y-93940000D03*
X156390000Y-95570000D03*
X125670002Y-92900000D03*
X117440000Y-96050000D03*
X114500000Y-92030000D03*
X118290000Y-94360000D03*
D16*
X143290000Y-94370000D02*
X143289998Y-94370000D01*
X144460000Y-99550000D02*
X144460000Y-95540000D01*
X144460000Y-95540000D02*
X143290000Y-94370000D01*
X145840000Y-100930000D02*
X144460000Y-99550000D01*
D17*
X149570000Y-91370000D02*
X152770000Y-94570000D01*
X133800000Y-91370000D02*
X149570000Y-91370000D01*
X152770000Y-98440000D02*
X152760000Y-98450000D01*
X152770000Y-94570000D02*
X152770000Y-98440000D01*
X133320000Y-90890000D02*
X133800000Y-91370000D01*
X133320000Y-89610000D02*
X133320000Y-90890000D01*
X133330000Y-89600000D02*
X133320000Y-89610000D01*
X120600000Y-103160000D02*
X120600000Y-104500000D01*
X121410000Y-100110000D02*
X121410000Y-102350000D01*
X146340000Y-93000000D02*
X131780000Y-93000000D01*
X121410000Y-102350000D02*
X120600000Y-103160000D01*
X148630000Y-95290000D02*
X146340000Y-93000000D01*
X148630000Y-101230000D02*
X148630000Y-95290000D01*
X125330000Y-99450000D02*
X122070000Y-99450000D01*
X131780000Y-93000000D02*
X125330000Y-99450000D01*
X122070000Y-99450000D02*
X121410000Y-100110000D01*
X148600000Y-101260000D02*
X148630000Y-101230000D01*
X123140000Y-102950000D02*
X123140000Y-104500000D01*
X123590000Y-102500000D02*
X123140000Y-102950000D01*
X126300000Y-102500000D02*
X123590000Y-102500000D01*
X142460000Y-101460000D02*
X142460000Y-96940000D01*
X128560000Y-98620000D02*
X128560000Y-100240000D01*
X142460000Y-96940000D02*
X141480000Y-95960000D01*
X128560000Y-100240000D02*
X126300000Y-102500000D01*
X141480000Y-95960000D02*
X131220000Y-95960000D01*
X143880000Y-102880000D02*
X142460000Y-101460000D01*
X131220000Y-95960000D02*
X128560000Y-98620000D01*
X150190000Y-102880000D02*
X143880000Y-102880000D01*
X151400000Y-101670000D02*
X150190000Y-102880000D01*
X151400000Y-101270000D02*
X151400000Y-101670000D01*
X151410000Y-101260000D02*
X151400000Y-101270000D01*
X125780000Y-104570000D02*
X125690000Y-104570000D01*
X139900000Y-102830000D02*
X127520000Y-102830000D01*
X141630000Y-104560000D02*
X139900000Y-102830000D01*
X152900000Y-104560000D02*
X141630000Y-104560000D01*
X127520000Y-102830000D02*
X125780000Y-104570000D01*
X154170000Y-103290000D02*
X152900000Y-104560000D01*
X154170000Y-101270000D02*
X154170000Y-103290000D01*
X154140000Y-101240000D02*
X154170000Y-101270000D01*
X157890000Y-97070000D02*
X156390000Y-95570000D01*
X157890000Y-99970000D02*
X157890000Y-97070000D01*
X156920000Y-100940000D02*
X157890000Y-99970000D01*
X128260000Y-91260000D02*
X128260000Y-89610000D01*
X122530000Y-95180000D02*
X126180000Y-95180000D01*
X121440000Y-96270000D02*
X122530000Y-95180000D01*
X128260000Y-93100000D02*
X128260000Y-91260000D01*
X126180000Y-95180000D02*
X128260000Y-93100000D01*
X121440000Y-98420000D02*
X121440000Y-96270000D01*
X125670000Y-89590000D02*
X125670000Y-92899998D01*
X125670000Y-92899998D02*
X125670002Y-92900000D01*
X119680000Y-96500000D02*
X119680000Y-92110000D01*
X120050000Y-96870000D02*
X119680000Y-96500000D01*
X120050000Y-101255000D02*
X120050000Y-96870000D01*
X119680000Y-92110000D02*
X120640000Y-91150000D01*
X120640000Y-91150000D02*
X120640000Y-90780000D01*
X120055000Y-101260000D02*
X120050000Y-101255000D01*
X120640000Y-90780000D02*
X120640000Y-89640000D01*
X116080000Y-96040000D02*
X117430000Y-96040000D01*
X113000000Y-92960000D02*
X116080000Y-96040000D01*
X117430000Y-96040000D02*
X117440000Y-96050000D01*
X113000000Y-89640000D02*
X113000000Y-92960000D01*
X114500000Y-92030000D02*
X116830000Y-94360000D01*
X116830000Y-94360000D02*
X118290000Y-94360000D01*
D18*
X109789788Y-88787715D02*
X109647715Y-88929788D01*
X109536088Y-89096849D01*
X109459198Y-89282477D01*
X109420000Y-89479539D01*
X109420000Y-89680461D01*
X109459198Y-89877523D01*
X109536088Y-90063151D01*
X109647715Y-90230212D01*
X109789788Y-90372285D01*
X109956849Y-90483912D01*
X110142477Y-90560802D01*
X110339539Y-90600000D01*
X110540461Y-90600000D01*
X110737523Y-90560802D01*
X110923151Y-90483912D01*
X111090212Y-90372285D01*
X111232285Y-90230212D01*
X111343912Y-90063151D01*
X111420802Y-89877523D01*
X111460000Y-89680461D01*
X111460000Y-89479539D01*
X111420802Y-89282477D01*
X111343912Y-89096849D01*
X111232285Y-88929788D01*
X111090212Y-88787715D01*
X110988870Y-88720000D01*
X112431130Y-88720000D01*
X112329788Y-88787715D01*
X112187715Y-88929788D01*
X112076088Y-89096849D01*
X111999198Y-89282477D01*
X111960000Y-89479539D01*
X111960000Y-89680461D01*
X111999198Y-89877523D01*
X112076088Y-90063151D01*
X112119216Y-90127697D01*
X112158790Y-90196443D01*
X112170957Y-90215659D01*
X112250225Y-90329904D01*
X112260205Y-90343375D01*
X112337849Y-90441644D01*
X112342028Y-90446801D01*
X112413792Y-90533175D01*
X112473196Y-90608491D01*
X112518187Y-90676023D01*
X112552252Y-90744478D01*
X112578776Y-90826298D01*
X112597447Y-90934864D01*
X112605000Y-91086727D01*
X112605001Y-92940596D01*
X112603090Y-92960000D01*
X112610716Y-93037433D01*
X112623886Y-93080847D01*
X112633303Y-93111891D01*
X112669982Y-93180512D01*
X112680789Y-93193680D01*
X112702809Y-93220511D01*
X112719343Y-93240658D01*
X112734412Y-93253025D01*
X115786974Y-96305588D01*
X115799342Y-96320658D01*
X115859488Y-96370019D01*
X115928109Y-96406698D01*
X116002567Y-96429284D01*
X116060599Y-96435000D01*
X116060606Y-96435000D01*
X116080000Y-96436910D01*
X116099394Y-96435000D01*
X116735786Y-96435000D01*
X116800209Y-96437009D01*
X116843978Y-96441720D01*
X116874517Y-96447925D01*
X116897416Y-96455127D01*
X116919387Y-96464577D01*
X116946280Y-96478846D01*
X116981809Y-96500013D01*
X117026050Y-96527247D01*
X117029528Y-96529352D01*
X117080948Y-96559948D01*
X117089273Y-96564704D01*
X117117414Y-96580123D01*
X117146320Y-96599437D01*
X117259153Y-96646174D01*
X117378935Y-96670000D01*
X117501065Y-96670000D01*
X117620847Y-96646174D01*
X117733680Y-96599437D01*
X117835227Y-96531586D01*
X117921586Y-96445227D01*
X117989437Y-96343680D01*
X118036174Y-96230847D01*
X118060000Y-96111065D01*
X118060000Y-95988935D01*
X118036174Y-95869153D01*
X117989437Y-95756320D01*
X117921586Y-95654773D01*
X117835227Y-95568414D01*
X117733680Y-95500563D01*
X117620847Y-95453826D01*
X117501065Y-95430000D01*
X117378935Y-95430000D01*
X117259153Y-95453826D01*
X117146320Y-95500563D01*
X117132224Y-95509981D01*
X117117754Y-95516882D01*
X117108424Y-95521554D01*
X117054524Y-95549864D01*
X117049756Y-95552430D01*
X117002673Y-95578378D01*
X116964006Y-95599292D01*
X116933909Y-95613987D01*
X116908773Y-95624058D01*
X116882751Y-95631762D01*
X116849288Y-95638217D01*
X116802831Y-95642995D01*
X116735947Y-95645000D01*
X116243614Y-95645000D01*
X113395000Y-92796387D01*
X113395000Y-91968935D01*
X113880000Y-91968935D01*
X113880000Y-92091065D01*
X113903826Y-92210847D01*
X113950563Y-92323680D01*
X114018414Y-92425227D01*
X114104773Y-92511586D01*
X114206320Y-92579437D01*
X114319153Y-92626174D01*
X114345019Y-92631319D01*
X114366752Y-92638302D01*
X114377073Y-92641392D01*
X114434316Y-92657295D01*
X114439597Y-92658705D01*
X114490225Y-92671672D01*
X114531214Y-92682569D01*
X114561165Y-92691970D01*
X114583933Y-92701106D01*
X114605380Y-92712282D01*
X114631169Y-92729307D01*
X114665075Y-92756550D01*
X114711628Y-92800241D01*
X116536980Y-94625595D01*
X116549342Y-94640658D01*
X116564405Y-94653020D01*
X116564411Y-94653026D01*
X116609488Y-94690019D01*
X116678108Y-94726698D01*
X116729596Y-94742316D01*
X116752567Y-94749284D01*
X116810599Y-94755000D01*
X116810606Y-94755000D01*
X116830000Y-94756910D01*
X116849394Y-94755000D01*
X117595737Y-94755000D01*
X117659528Y-94757022D01*
X117702760Y-94761733D01*
X117733038Y-94767930D01*
X117756108Y-94775194D01*
X117778658Y-94784830D01*
X117806476Y-94799357D01*
X117843191Y-94820651D01*
X117888153Y-94847276D01*
X117892879Y-94850010D01*
X117944601Y-94879242D01*
X117954085Y-94884356D01*
X117974401Y-94894792D01*
X117996320Y-94909437D01*
X118109153Y-94956174D01*
X118228935Y-94980000D01*
X118351065Y-94980000D01*
X118470847Y-94956174D01*
X118583680Y-94909437D01*
X118685227Y-94841586D01*
X118771586Y-94755227D01*
X118839437Y-94653680D01*
X118886174Y-94540847D01*
X118910000Y-94421065D01*
X118910000Y-94298935D01*
X118886174Y-94179153D01*
X118839437Y-94066320D01*
X118771586Y-93964773D01*
X118685227Y-93878414D01*
X118583680Y-93810563D01*
X118470847Y-93763826D01*
X118351065Y-93740000D01*
X118228935Y-93740000D01*
X118109153Y-93763826D01*
X117996320Y-93810563D01*
X117974399Y-93825210D01*
X117954089Y-93835642D01*
X117944601Y-93840757D01*
X117892879Y-93869989D01*
X117888153Y-93872723D01*
X117843191Y-93899348D01*
X117806476Y-93920642D01*
X117778658Y-93935169D01*
X117756108Y-93944805D01*
X117733038Y-93952069D01*
X117702760Y-93958266D01*
X117659528Y-93962977D01*
X117595731Y-93965000D01*
X116993615Y-93965000D01*
X115270241Y-92241628D01*
X115226550Y-92195075D01*
X115199307Y-92161169D01*
X115182282Y-92135380D01*
X115171106Y-92113933D01*
X115161970Y-92091165D01*
X115152569Y-92061214D01*
X115141672Y-92020225D01*
X115128705Y-91969597D01*
X115127295Y-91964316D01*
X115111392Y-91907073D01*
X115108302Y-91896752D01*
X115101319Y-91875019D01*
X115096174Y-91849153D01*
X115049437Y-91736320D01*
X114981586Y-91634773D01*
X114895227Y-91548414D01*
X114793680Y-91480563D01*
X114680847Y-91433826D01*
X114561065Y-91410000D01*
X114438935Y-91410000D01*
X114319153Y-91433826D01*
X114206320Y-91480563D01*
X114104773Y-91548414D01*
X114018414Y-91634773D01*
X113950563Y-91736320D01*
X113903826Y-91849153D01*
X113880000Y-91968935D01*
X113395000Y-91968935D01*
X113395000Y-91086589D01*
X113402589Y-90930974D01*
X113421455Y-90818526D01*
X113448421Y-90732647D01*
X113483074Y-90660101D01*
X113528387Y-90588449D01*
X113587250Y-90508815D01*
X113656854Y-90418188D01*
X113661830Y-90411498D01*
X113720512Y-90330000D01*
X114438403Y-90330000D01*
X114444775Y-90394691D01*
X114463644Y-90456897D01*
X114494287Y-90514225D01*
X114535526Y-90564474D01*
X114585775Y-90605713D01*
X114643103Y-90636356D01*
X114705309Y-90655225D01*
X114770000Y-90661597D01*
X115392500Y-90660000D01*
X115475000Y-90577500D01*
X115475000Y-89625000D01*
X115565000Y-89625000D01*
X115565000Y-90577500D01*
X115647500Y-90660000D01*
X116270000Y-90661597D01*
X116334691Y-90655225D01*
X116396897Y-90636356D01*
X116454225Y-90605713D01*
X116504474Y-90564474D01*
X116545713Y-90514225D01*
X116576356Y-90456897D01*
X116595225Y-90394691D01*
X116601597Y-90330000D01*
X116978403Y-90330000D01*
X116984775Y-90394691D01*
X117003644Y-90456897D01*
X117034287Y-90514225D01*
X117075526Y-90564474D01*
X117125775Y-90605713D01*
X117183103Y-90636356D01*
X117245309Y-90655225D01*
X117310000Y-90661597D01*
X117932500Y-90660000D01*
X118015000Y-90577500D01*
X118015000Y-89625000D01*
X118105000Y-89625000D01*
X118105000Y-90577500D01*
X118187500Y-90660000D01*
X118810000Y-90661597D01*
X118874691Y-90655225D01*
X118936897Y-90636356D01*
X118994225Y-90605713D01*
X119044474Y-90564474D01*
X119085713Y-90514225D01*
X119116356Y-90456897D01*
X119135225Y-90394691D01*
X119141597Y-90330000D01*
X119140000Y-89707500D01*
X119057500Y-89625000D01*
X118105000Y-89625000D01*
X118015000Y-89625000D01*
X117062500Y-89625000D01*
X116980000Y-89707500D01*
X116978403Y-90330000D01*
X116601597Y-90330000D01*
X116600000Y-89707500D01*
X116517500Y-89625000D01*
X115565000Y-89625000D01*
X115475000Y-89625000D01*
X114522500Y-89625000D01*
X114440000Y-89707500D01*
X114438403Y-90330000D01*
X113720512Y-90330000D01*
X113735639Y-90308993D01*
X113745722Y-90293951D01*
X113820039Y-90174613D01*
X113831606Y-90154095D01*
X113858353Y-90101403D01*
X113883912Y-90063151D01*
X113960802Y-89877523D01*
X114000000Y-89680461D01*
X114000000Y-89479539D01*
X113960802Y-89282477D01*
X113883912Y-89096849D01*
X113772285Y-88929788D01*
X113630212Y-88787715D01*
X113528870Y-88720000D01*
X114458519Y-88720000D01*
X114444775Y-88765309D01*
X114438403Y-88830000D01*
X114440000Y-89452500D01*
X114522500Y-89535000D01*
X115475000Y-89535000D01*
X115475000Y-89515000D01*
X115565000Y-89515000D01*
X115565000Y-89535000D01*
X116517500Y-89535000D01*
X116600000Y-89452500D01*
X116601597Y-88830000D01*
X116595225Y-88765309D01*
X116581481Y-88720000D01*
X116998519Y-88720000D01*
X116984775Y-88765309D01*
X116978403Y-88830000D01*
X116980000Y-89452500D01*
X117062500Y-89535000D01*
X118015000Y-89535000D01*
X118015000Y-89515000D01*
X118105000Y-89515000D01*
X118105000Y-89535000D01*
X119057500Y-89535000D01*
X119140000Y-89452500D01*
X119141597Y-88830000D01*
X119135225Y-88765309D01*
X119121481Y-88720000D01*
X120051130Y-88720000D01*
X119949788Y-88787715D01*
X119807715Y-88929788D01*
X119696088Y-89096849D01*
X119619198Y-89282477D01*
X119580000Y-89479539D01*
X119580000Y-89680461D01*
X119619198Y-89877523D01*
X119696088Y-90063151D01*
X119750428Y-90144476D01*
X119794755Y-90217022D01*
X119807148Y-90235541D01*
X119888758Y-90347227D01*
X119898610Y-90359901D01*
X119978061Y-90456067D01*
X119981787Y-90460480D01*
X120054546Y-90544806D01*
X120114098Y-90618008D01*
X120158881Y-90683592D01*
X120192616Y-90750097D01*
X120218905Y-90830007D01*
X120237468Y-90936713D01*
X120240202Y-90991184D01*
X119414411Y-91816976D01*
X119399343Y-91829342D01*
X119349982Y-91889488D01*
X119340583Y-91907073D01*
X119313303Y-91958109D01*
X119290716Y-92032567D01*
X119283090Y-92110000D01*
X119285001Y-92129404D01*
X119285000Y-96480606D01*
X119283090Y-96500000D01*
X119285000Y-96519394D01*
X119285000Y-96519400D01*
X119290716Y-96577432D01*
X119313302Y-96651890D01*
X119349981Y-96720511D01*
X119399342Y-96780658D01*
X119414416Y-96793029D01*
X119655001Y-97033615D01*
X119655001Y-97597181D01*
X119593425Y-97481982D01*
X119428675Y-97404965D01*
X118743640Y-98090000D01*
X119428675Y-98775035D01*
X119593425Y-98698018D01*
X119655001Y-98582331D01*
X119655000Y-99722897D01*
X119647038Y-99829254D01*
X119630930Y-99890741D01*
X119610123Y-99932434D01*
X119580303Y-99971167D01*
X119533757Y-100016831D01*
X119468604Y-100072976D01*
X119466511Y-100074798D01*
X119392462Y-100139947D01*
X119377559Y-100154101D01*
X119304546Y-100228931D01*
X119291959Y-100243574D01*
X119263394Y-100272139D01*
X119218798Y-100338882D01*
X119213703Y-100345626D01*
X119199588Y-100367630D01*
X119150454Y-100441165D01*
X119072660Y-100628977D01*
X119033000Y-100828357D01*
X119033000Y-101031643D01*
X119072660Y-101231023D01*
X119150454Y-101418835D01*
X119263394Y-101587861D01*
X119407139Y-101731606D01*
X119576165Y-101844546D01*
X119763977Y-101922340D01*
X119963357Y-101962000D01*
X120166643Y-101962000D01*
X120366023Y-101922340D01*
X120553835Y-101844546D01*
X120722861Y-101731606D01*
X120866606Y-101587861D01*
X120979546Y-101418835D01*
X121015001Y-101333240D01*
X121015001Y-102186385D01*
X120334416Y-102866971D01*
X120319342Y-102879342D01*
X120269981Y-102939489D01*
X120260530Y-102957170D01*
X120237137Y-102988512D01*
X120166653Y-103099740D01*
X120146895Y-103137098D01*
X120101148Y-103242890D01*
X120089168Y-103276550D01*
X120060400Y-103378231D01*
X120055328Y-103399375D01*
X120035779Y-103498268D01*
X120035188Y-103501348D01*
X120018629Y-103590550D01*
X120000441Y-103663122D01*
X119976377Y-103724778D01*
X119939447Y-103786682D01*
X119871391Y-103866112D01*
X119807715Y-103929788D01*
X119696088Y-104096849D01*
X119619198Y-104282477D01*
X119580000Y-104479539D01*
X119580000Y-104680461D01*
X119619198Y-104877523D01*
X119696088Y-105063151D01*
X119807715Y-105230212D01*
X119949788Y-105372285D01*
X120116849Y-105483912D01*
X120302477Y-105560802D01*
X120499539Y-105600000D01*
X120700461Y-105600000D01*
X120897523Y-105560802D01*
X121083151Y-105483912D01*
X121250212Y-105372285D01*
X121392285Y-105230212D01*
X121503912Y-105063151D01*
X121580802Y-104877523D01*
X121620000Y-104680461D01*
X121620000Y-104479539D01*
X122120000Y-104479539D01*
X122120000Y-104680461D01*
X122159198Y-104877523D01*
X122236088Y-105063151D01*
X122347715Y-105230212D01*
X122489788Y-105372285D01*
X122656849Y-105483912D01*
X122842477Y-105560802D01*
X123039539Y-105600000D01*
X123240461Y-105600000D01*
X123437523Y-105560802D01*
X123623151Y-105483912D01*
X123790212Y-105372285D01*
X123932285Y-105230212D01*
X124043912Y-105063151D01*
X124120802Y-104877523D01*
X124160000Y-104680461D01*
X124160000Y-104479539D01*
X124660000Y-104479539D01*
X124660000Y-104680461D01*
X124699198Y-104877523D01*
X124776088Y-105063151D01*
X124887715Y-105230212D01*
X125029788Y-105372285D01*
X125196849Y-105483912D01*
X125382477Y-105560802D01*
X125579539Y-105600000D01*
X125780461Y-105600000D01*
X125977523Y-105560802D01*
X126163151Y-105483912D01*
X126330212Y-105372285D01*
X126472285Y-105230212D01*
X126583912Y-105063151D01*
X126660802Y-104877523D01*
X126663627Y-104863321D01*
X126675896Y-104831996D01*
X126683747Y-104808938D01*
X126723459Y-104672411D01*
X126728233Y-104653468D01*
X126754880Y-104528872D01*
X126756824Y-104518862D01*
X126763692Y-104479539D01*
X127200000Y-104479539D01*
X127200000Y-104680461D01*
X127239198Y-104877523D01*
X127316088Y-105063151D01*
X127427715Y-105230212D01*
X127569788Y-105372285D01*
X127736849Y-105483912D01*
X127922477Y-105560802D01*
X128119539Y-105600000D01*
X128320461Y-105600000D01*
X128517523Y-105560802D01*
X128703151Y-105483912D01*
X128870212Y-105372285D01*
X129012285Y-105230212D01*
X129123912Y-105063151D01*
X129200802Y-104877523D01*
X129240000Y-104680461D01*
X129240000Y-104479539D01*
X129740000Y-104479539D01*
X129740000Y-104680461D01*
X129779198Y-104877523D01*
X129856088Y-105063151D01*
X129967715Y-105230212D01*
X130109788Y-105372285D01*
X130276849Y-105483912D01*
X130462477Y-105560802D01*
X130659539Y-105600000D01*
X130860461Y-105600000D01*
X131057523Y-105560802D01*
X131243151Y-105483912D01*
X131410212Y-105372285D01*
X131552285Y-105230212D01*
X131663912Y-105063151D01*
X131740802Y-104877523D01*
X131780000Y-104680461D01*
X131780000Y-104479539D01*
X132280000Y-104479539D01*
X132280000Y-104680461D01*
X132319198Y-104877523D01*
X132396088Y-105063151D01*
X132507715Y-105230212D01*
X132649788Y-105372285D01*
X132816849Y-105483912D01*
X133002477Y-105560802D01*
X133199539Y-105600000D01*
X133400461Y-105600000D01*
X133597523Y-105560802D01*
X133783151Y-105483912D01*
X133950212Y-105372285D01*
X134092285Y-105230212D01*
X134203912Y-105063151D01*
X134280802Y-104877523D01*
X134320000Y-104680461D01*
X134320000Y-104479539D01*
X134820000Y-104479539D01*
X134820000Y-104680461D01*
X134859198Y-104877523D01*
X134936088Y-105063151D01*
X135047715Y-105230212D01*
X135189788Y-105372285D01*
X135356849Y-105483912D01*
X135542477Y-105560802D01*
X135739539Y-105600000D01*
X135940461Y-105600000D01*
X136137523Y-105560802D01*
X136323151Y-105483912D01*
X136490212Y-105372285D01*
X136632285Y-105230212D01*
X136743912Y-105063151D01*
X136820802Y-104877523D01*
X136860000Y-104680461D01*
X136860000Y-104479539D01*
X137360000Y-104479539D01*
X137360000Y-104680461D01*
X137399198Y-104877523D01*
X137476088Y-105063151D01*
X137587715Y-105230212D01*
X137729788Y-105372285D01*
X137896849Y-105483912D01*
X138082477Y-105560802D01*
X138279539Y-105600000D01*
X138480461Y-105600000D01*
X138677523Y-105560802D01*
X138863151Y-105483912D01*
X139030212Y-105372285D01*
X139172285Y-105230212D01*
X139283912Y-105063151D01*
X139360802Y-104877523D01*
X139400000Y-104680461D01*
X139400000Y-104479539D01*
X139360802Y-104282477D01*
X139283912Y-104096849D01*
X139172285Y-103929788D01*
X139030212Y-103787715D01*
X138863151Y-103676088D01*
X138677523Y-103599198D01*
X138480461Y-103560000D01*
X138279539Y-103560000D01*
X138082477Y-103599198D01*
X137896849Y-103676088D01*
X137729788Y-103787715D01*
X137587715Y-103929788D01*
X137476088Y-104096849D01*
X137399198Y-104282477D01*
X137360000Y-104479539D01*
X136860000Y-104479539D01*
X136820802Y-104282477D01*
X136743912Y-104096849D01*
X136632285Y-103929788D01*
X136490212Y-103787715D01*
X136323151Y-103676088D01*
X136137523Y-103599198D01*
X135940461Y-103560000D01*
X135739539Y-103560000D01*
X135542477Y-103599198D01*
X135356849Y-103676088D01*
X135189788Y-103787715D01*
X135047715Y-103929788D01*
X134936088Y-104096849D01*
X134859198Y-104282477D01*
X134820000Y-104479539D01*
X134320000Y-104479539D01*
X134280802Y-104282477D01*
X134203912Y-104096849D01*
X134092285Y-103929788D01*
X133950212Y-103787715D01*
X133783151Y-103676088D01*
X133597523Y-103599198D01*
X133400461Y-103560000D01*
X133199539Y-103560000D01*
X133002477Y-103599198D01*
X132816849Y-103676088D01*
X132649788Y-103787715D01*
X132507715Y-103929788D01*
X132396088Y-104096849D01*
X132319198Y-104282477D01*
X132280000Y-104479539D01*
X131780000Y-104479539D01*
X131740802Y-104282477D01*
X131663912Y-104096849D01*
X131552285Y-103929788D01*
X131410212Y-103787715D01*
X131243151Y-103676088D01*
X131057523Y-103599198D01*
X130860461Y-103560000D01*
X130659539Y-103560000D01*
X130462477Y-103599198D01*
X130276849Y-103676088D01*
X130109788Y-103787715D01*
X129967715Y-103929788D01*
X129856088Y-104096849D01*
X129779198Y-104282477D01*
X129740000Y-104479539D01*
X129240000Y-104479539D01*
X129200802Y-104282477D01*
X129123912Y-104096849D01*
X129012285Y-103929788D01*
X128870212Y-103787715D01*
X128703151Y-103676088D01*
X128517523Y-103599198D01*
X128320461Y-103560000D01*
X128119539Y-103560000D01*
X127922477Y-103599198D01*
X127736849Y-103676088D01*
X127569788Y-103787715D01*
X127427715Y-103929788D01*
X127316088Y-104096849D01*
X127239198Y-104282477D01*
X127200000Y-104479539D01*
X126763692Y-104479539D01*
X126776843Y-104404250D01*
X126795545Y-104303477D01*
X126817301Y-104217456D01*
X126846952Y-104138073D01*
X126891465Y-104054859D01*
X126960493Y-103958897D01*
X127067955Y-103840659D01*
X127683615Y-103225000D01*
X139736387Y-103225000D01*
X141336975Y-104825589D01*
X141349342Y-104840658D01*
X141409488Y-104890019D01*
X141478109Y-104926698D01*
X141552567Y-104949284D01*
X141610599Y-104955000D01*
X141610608Y-104955000D01*
X141629999Y-104956910D01*
X141649390Y-104955000D01*
X152880606Y-104955000D01*
X152900000Y-104956910D01*
X152919394Y-104955000D01*
X152919401Y-104955000D01*
X152977433Y-104949284D01*
X153051891Y-104926698D01*
X153120512Y-104890019D01*
X153180658Y-104840658D01*
X153193029Y-104825584D01*
X154435589Y-103583025D01*
X154450658Y-103570658D01*
X154464094Y-103554287D01*
X154489242Y-103523644D01*
X154500019Y-103510512D01*
X154536698Y-103441891D01*
X154559284Y-103367433D01*
X154565000Y-103309401D01*
X154565000Y-103309395D01*
X154566910Y-103290001D01*
X154565000Y-103270607D01*
X154565000Y-102468565D01*
X154572743Y-102309421D01*
X154592064Y-102194075D01*
X154619739Y-102105896D01*
X154655320Y-102031474D01*
X154701724Y-101958286D01*
X154761965Y-101877168D01*
X154833209Y-101785060D01*
X154838012Y-101778656D01*
X154913841Y-101674374D01*
X154923825Y-101659647D01*
X155000393Y-101538278D01*
X155011959Y-101518062D01*
X155041557Y-101460723D01*
X155069546Y-101418835D01*
X155147340Y-101231023D01*
X155187000Y-101031643D01*
X155187000Y-100828357D01*
X155147340Y-100628977D01*
X155069546Y-100441165D01*
X154956606Y-100272139D01*
X154812861Y-100128394D01*
X154643835Y-100015454D01*
X154456023Y-99937660D01*
X154256643Y-99898000D01*
X154053357Y-99898000D01*
X153853977Y-99937660D01*
X153666165Y-100015454D01*
X153497139Y-100128394D01*
X153353394Y-100272139D01*
X153240454Y-100441165D01*
X153162660Y-100628977D01*
X153123000Y-100828357D01*
X153123000Y-101031643D01*
X153162660Y-101231023D01*
X153240454Y-101418835D01*
X153281331Y-101480012D01*
X153320570Y-101549350D01*
X153332577Y-101568627D01*
X153412865Y-101686208D01*
X153422779Y-101699798D01*
X153501498Y-101800929D01*
X153505723Y-101806218D01*
X153578631Y-101895189D01*
X153639304Y-101973080D01*
X153685540Y-102043255D01*
X153720712Y-102114631D01*
X153748089Y-102199823D01*
X153767280Y-102312293D01*
X153775001Y-102468664D01*
X153775001Y-103126385D01*
X152736387Y-104165000D01*
X141793614Y-104165000D01*
X140193029Y-102564416D01*
X140180658Y-102549342D01*
X140120512Y-102499981D01*
X140051891Y-102463302D01*
X139977433Y-102440716D01*
X139919401Y-102435000D01*
X139919394Y-102435000D01*
X139900000Y-102433090D01*
X139880606Y-102435000D01*
X127539394Y-102435000D01*
X127520000Y-102433090D01*
X127500606Y-102435000D01*
X127500599Y-102435000D01*
X127442567Y-102440716D01*
X127368108Y-102463302D01*
X127299488Y-102499981D01*
X127254411Y-102536974D01*
X127254405Y-102536980D01*
X127239342Y-102549342D01*
X127226980Y-102564405D01*
X126509646Y-103281740D01*
X126399925Y-103380845D01*
X126313177Y-103441543D01*
X126240089Y-103477916D01*
X126171263Y-103499665D01*
X126095170Y-103512878D01*
X126003001Y-103520620D01*
X125893016Y-103526216D01*
X125888234Y-103526502D01*
X125764528Y-103534999D01*
X125749341Y-103536474D01*
X125613125Y-103553604D01*
X125591645Y-103557191D01*
X125550826Y-103565711D01*
X125382477Y-103599198D01*
X125196849Y-103676088D01*
X125029788Y-103787715D01*
X124887715Y-103929788D01*
X124776088Y-104096849D01*
X124699198Y-104282477D01*
X124660000Y-104479539D01*
X124160000Y-104479539D01*
X124120802Y-104282477D01*
X124043912Y-104096849D01*
X124009917Y-104045973D01*
X123976673Y-103984544D01*
X123964782Y-103964660D01*
X123887945Y-103847863D01*
X123877888Y-103833602D01*
X123802124Y-103733218D01*
X123797528Y-103727300D01*
X123726827Y-103638840D01*
X123667629Y-103561352D01*
X123622470Y-103491813D01*
X123588095Y-103421340D01*
X123561343Y-103337521D01*
X123542571Y-103227051D01*
X123536890Y-103111723D01*
X123753614Y-102895000D01*
X126280606Y-102895000D01*
X126300000Y-102896910D01*
X126319394Y-102895000D01*
X126319401Y-102895000D01*
X126377433Y-102889284D01*
X126451891Y-102866698D01*
X126520512Y-102830019D01*
X126580658Y-102780658D01*
X126593029Y-102765584D01*
X127889917Y-101468697D01*
X130984942Y-101468697D01*
X131210493Y-101760231D01*
X131610850Y-101984660D01*
X132047298Y-102126670D01*
X132503065Y-102180805D01*
X132960635Y-102144983D01*
X133402425Y-102020582D01*
X133811457Y-101812383D01*
X133889507Y-101760231D01*
X134115058Y-101468697D01*
X137314942Y-101468697D01*
X137540493Y-101760231D01*
X137940850Y-101984660D01*
X138377298Y-102126670D01*
X138833065Y-102180805D01*
X139290635Y-102144983D01*
X139732425Y-102020582D01*
X140141457Y-101812383D01*
X140219507Y-101760231D01*
X140445058Y-101468697D01*
X138880000Y-99903640D01*
X137314942Y-101468697D01*
X134115058Y-101468697D01*
X132550000Y-99903640D01*
X130984942Y-101468697D01*
X127889917Y-101468697D01*
X128825595Y-100533020D01*
X128840658Y-100520658D01*
X128853020Y-100505595D01*
X128853026Y-100505589D01*
X128890019Y-100460512D01*
X128926698Y-100391892D01*
X128949284Y-100317433D01*
X128952541Y-100284365D01*
X128955000Y-100259401D01*
X128955000Y-100259394D01*
X128956910Y-100240000D01*
X128955000Y-100220606D01*
X128955000Y-99793065D01*
X130209195Y-99793065D01*
X130245017Y-100250635D01*
X130369418Y-100692425D01*
X130577617Y-101101457D01*
X130629769Y-101179507D01*
X130921303Y-101405058D01*
X132486360Y-99840000D01*
X132613640Y-99840000D01*
X134178697Y-101405058D01*
X134470231Y-101179507D01*
X134694660Y-100779150D01*
X134836670Y-100342702D01*
X134890805Y-99886935D01*
X134883457Y-99793065D01*
X136539195Y-99793065D01*
X136575017Y-100250635D01*
X136699418Y-100692425D01*
X136907617Y-101101457D01*
X136959769Y-101179507D01*
X137251303Y-101405058D01*
X138816360Y-99840000D01*
X138943640Y-99840000D01*
X140508697Y-101405058D01*
X140800231Y-101179507D01*
X141024660Y-100779150D01*
X141166670Y-100342702D01*
X141220805Y-99886935D01*
X141184983Y-99429365D01*
X141060582Y-98987575D01*
X140852383Y-98578543D01*
X140800231Y-98500493D01*
X140508697Y-98274942D01*
X138943640Y-99840000D01*
X138816360Y-99840000D01*
X137251303Y-98274942D01*
X136959769Y-98500493D01*
X136735340Y-98900850D01*
X136593330Y-99337298D01*
X136539195Y-99793065D01*
X134883457Y-99793065D01*
X134854983Y-99429365D01*
X134730582Y-98987575D01*
X134522383Y-98578543D01*
X134470231Y-98500493D01*
X134178697Y-98274942D01*
X132613640Y-99840000D01*
X132486360Y-99840000D01*
X130921303Y-98274942D01*
X130629769Y-98500493D01*
X130405340Y-98900850D01*
X130263330Y-99337298D01*
X130209195Y-99793065D01*
X128955000Y-99793065D01*
X128955000Y-98783613D01*
X129527310Y-98211303D01*
X130984942Y-98211303D01*
X132550000Y-99776360D01*
X134115058Y-98211303D01*
X137314942Y-98211303D01*
X138880000Y-99776360D01*
X140445058Y-98211303D01*
X140219507Y-97919769D01*
X139819150Y-97695340D01*
X139382702Y-97553330D01*
X138926935Y-97499195D01*
X138469365Y-97535017D01*
X138027575Y-97659418D01*
X137618543Y-97867617D01*
X137540493Y-97919769D01*
X137314942Y-98211303D01*
X134115058Y-98211303D01*
X133889507Y-97919769D01*
X133489150Y-97695340D01*
X133052702Y-97553330D01*
X132596935Y-97499195D01*
X132139365Y-97535017D01*
X131697575Y-97659418D01*
X131288543Y-97867617D01*
X131210493Y-97919769D01*
X130984942Y-98211303D01*
X129527310Y-98211303D01*
X131383614Y-96355000D01*
X141316387Y-96355000D01*
X142065001Y-97103615D01*
X142065000Y-101440606D01*
X142063090Y-101460000D01*
X142065000Y-101479394D01*
X142065000Y-101479400D01*
X142068079Y-101510658D01*
X142070716Y-101537433D01*
X142072417Y-101543041D01*
X142093302Y-101611890D01*
X142129981Y-101680511D01*
X142179342Y-101740658D01*
X142194416Y-101753029D01*
X143586975Y-103145589D01*
X143599342Y-103160658D01*
X143659488Y-103210019D01*
X143728109Y-103246698D01*
X143775024Y-103260929D01*
X143802566Y-103269284D01*
X143810614Y-103270077D01*
X143860599Y-103275000D01*
X143860605Y-103275000D01*
X143879999Y-103276910D01*
X143899393Y-103275000D01*
X150170606Y-103275000D01*
X150190000Y-103276910D01*
X150209394Y-103275000D01*
X150209401Y-103275000D01*
X150267433Y-103269284D01*
X150341891Y-103246698D01*
X150410512Y-103210019D01*
X150470658Y-103160658D01*
X150483029Y-103145584D01*
X151110662Y-102517952D01*
X151236017Y-102396525D01*
X151342378Y-102300542D01*
X151435833Y-102222249D01*
X151521585Y-102155085D01*
X151605224Y-102092418D01*
X151689089Y-102029998D01*
X151692695Y-102027268D01*
X151779188Y-101960612D01*
X151785956Y-101955220D01*
X151878276Y-101879236D01*
X151886336Y-101872333D01*
X151988232Y-101781521D01*
X151996034Y-101774287D01*
X152034473Y-101737211D01*
X152042861Y-101731606D01*
X152186606Y-101587861D01*
X152299546Y-101418835D01*
X152377340Y-101231023D01*
X152417000Y-101031643D01*
X152417000Y-100828357D01*
X152377340Y-100628977D01*
X152299546Y-100441165D01*
X152186606Y-100272139D01*
X152042861Y-100128394D01*
X151873835Y-100015454D01*
X151686023Y-99937660D01*
X151486643Y-99898000D01*
X151283357Y-99898000D01*
X151083977Y-99937660D01*
X150896165Y-100015454D01*
X150727139Y-100128394D01*
X150583394Y-100272139D01*
X150470454Y-100441165D01*
X150392660Y-100628977D01*
X150353000Y-100828357D01*
X150353000Y-101031643D01*
X150392660Y-101231023D01*
X150470454Y-101418835D01*
X150488142Y-101445307D01*
X150501164Y-101472117D01*
X150503329Y-101476474D01*
X150551699Y-101571657D01*
X150592306Y-101654645D01*
X150620795Y-101722114D01*
X150636069Y-101772452D01*
X150640532Y-101805776D01*
X150638693Y-101828808D01*
X150630017Y-101855334D01*
X150605065Y-101897340D01*
X150546771Y-101964615D01*
X150026387Y-102485000D01*
X144043614Y-102485000D01*
X142855000Y-101296387D01*
X142855000Y-96959390D01*
X142856910Y-96939999D01*
X142855000Y-96920608D01*
X142855000Y-96920599D01*
X142849284Y-96862567D01*
X142826698Y-96788109D01*
X142790019Y-96719488D01*
X142740658Y-96659342D01*
X142725589Y-96646975D01*
X141773029Y-95694416D01*
X141760658Y-95679342D01*
X141700512Y-95629981D01*
X141631891Y-95593302D01*
X141557433Y-95570716D01*
X141499401Y-95565000D01*
X141499394Y-95565000D01*
X141480000Y-95563090D01*
X141460606Y-95565000D01*
X131239393Y-95565000D01*
X131219999Y-95563090D01*
X131200605Y-95565000D01*
X131200599Y-95565000D01*
X131150614Y-95569923D01*
X131142566Y-95570716D01*
X131119980Y-95577568D01*
X131068109Y-95593302D01*
X130999488Y-95629981D01*
X130939342Y-95679342D01*
X130926975Y-95694411D01*
X128294416Y-98326971D01*
X128279342Y-98339342D01*
X128229981Y-98399489D01*
X128193302Y-98468110D01*
X128170716Y-98542568D01*
X128165000Y-98600600D01*
X128165000Y-98600606D01*
X128163090Y-98620000D01*
X128165000Y-98639394D01*
X128165001Y-100076384D01*
X126136387Y-102105000D01*
X123609393Y-102105000D01*
X123589999Y-102103090D01*
X123570605Y-102105000D01*
X123570599Y-102105000D01*
X123520614Y-102109923D01*
X123512566Y-102110716D01*
X123489980Y-102117568D01*
X123438109Y-102133302D01*
X123369488Y-102169981D01*
X123309342Y-102219342D01*
X123296975Y-102234411D01*
X122874416Y-102656971D01*
X122859342Y-102669342D01*
X122809981Y-102729489D01*
X122773302Y-102798110D01*
X122763629Y-102830000D01*
X122752497Y-102866698D01*
X122750716Y-102872568D01*
X122745000Y-102930600D01*
X122745000Y-102930606D01*
X122743090Y-102950000D01*
X122745000Y-102969394D01*
X122745000Y-103073350D01*
X122737428Y-103227051D01*
X122718656Y-103337521D01*
X122691904Y-103421340D01*
X122657529Y-103491813D01*
X122612370Y-103561352D01*
X122553172Y-103638840D01*
X122482471Y-103727300D01*
X122477875Y-103733218D01*
X122402111Y-103833602D01*
X122392054Y-103847863D01*
X122315217Y-103964660D01*
X122303325Y-103984545D01*
X122270077Y-104045981D01*
X122236088Y-104096849D01*
X122159198Y-104282477D01*
X122120000Y-104479539D01*
X121620000Y-104479539D01*
X121580802Y-104282477D01*
X121503912Y-104096849D01*
X121392285Y-103929788D01*
X121345161Y-103882664D01*
X121297074Y-103826673D01*
X121278999Y-103807591D01*
X121167660Y-103700958D01*
X121159696Y-103693631D01*
X121050181Y-103596854D01*
X120995000Y-103546092D01*
X120995000Y-103323613D01*
X121675589Y-102643025D01*
X121690658Y-102630658D01*
X121740019Y-102570512D01*
X121776698Y-102501891D01*
X121799284Y-102427433D01*
X121805000Y-102369401D01*
X121805000Y-102369394D01*
X121806910Y-102350000D01*
X121805000Y-102330606D01*
X121805000Y-101041697D01*
X121842660Y-101231023D01*
X121920454Y-101418835D01*
X122033394Y-101587861D01*
X122177139Y-101731606D01*
X122346165Y-101844546D01*
X122533977Y-101922340D01*
X122733357Y-101962000D01*
X122936643Y-101962000D01*
X123136023Y-101922340D01*
X123323835Y-101844546D01*
X123492861Y-101731606D01*
X123636606Y-101587861D01*
X123749546Y-101418835D01*
X123827340Y-101231023D01*
X123867000Y-101031643D01*
X123867000Y-100828357D01*
X124573000Y-100828357D01*
X124573000Y-101031643D01*
X124612660Y-101231023D01*
X124690454Y-101418835D01*
X124803394Y-101587861D01*
X124947139Y-101731606D01*
X125116165Y-101844546D01*
X125303977Y-101922340D01*
X125503357Y-101962000D01*
X125706643Y-101962000D01*
X125906023Y-101922340D01*
X126093835Y-101844546D01*
X126262861Y-101731606D01*
X126406606Y-101587861D01*
X126519546Y-101418835D01*
X126597340Y-101231023D01*
X126637000Y-101031643D01*
X126637000Y-100828357D01*
X126597340Y-100628977D01*
X126519546Y-100441165D01*
X126406606Y-100272139D01*
X126262861Y-100128394D01*
X126093835Y-100015454D01*
X125906023Y-99937660D01*
X125706643Y-99898000D01*
X125503357Y-99898000D01*
X125303977Y-99937660D01*
X125116165Y-100015454D01*
X124947139Y-100128394D01*
X124803394Y-100272139D01*
X124690454Y-100441165D01*
X124612660Y-100628977D01*
X124573000Y-100828357D01*
X123867000Y-100828357D01*
X123827340Y-100628977D01*
X123749546Y-100441165D01*
X123636606Y-100272139D01*
X123492861Y-100128394D01*
X123323835Y-100015454D01*
X123136023Y-99937660D01*
X122936643Y-99898000D01*
X122733357Y-99898000D01*
X122533977Y-99937660D01*
X122346165Y-100015454D01*
X122177139Y-100128394D01*
X122033394Y-100272139D01*
X121920454Y-100441165D01*
X121842660Y-100628977D01*
X121805000Y-100818303D01*
X121805000Y-100273613D01*
X122233614Y-99845000D01*
X125310606Y-99845000D01*
X125330000Y-99846910D01*
X125349394Y-99845000D01*
X125349401Y-99845000D01*
X125407433Y-99839284D01*
X125481891Y-99816698D01*
X125550512Y-99780019D01*
X125610658Y-99730658D01*
X125623029Y-99715584D01*
X131038985Y-94299628D01*
X142575498Y-94299628D01*
X142575498Y-94440372D01*
X142602956Y-94578412D01*
X142656816Y-94708443D01*
X142735010Y-94825467D01*
X142834531Y-94924988D01*
X142951555Y-95003182D01*
X143081586Y-95057042D01*
X143099521Y-95060610D01*
X143122233Y-95068699D01*
X143177594Y-95090022D01*
X143223086Y-95109746D01*
X143261639Y-95129125D01*
X143297171Y-95150065D01*
X143333711Y-95175126D01*
X143374680Y-95207135D01*
X143422459Y-95248497D01*
X143478790Y-95301058D01*
X143545871Y-95366919D01*
X143936001Y-95757049D01*
X143936000Y-99524271D01*
X143933466Y-99550000D01*
X143936000Y-99575729D01*
X143936000Y-99575738D01*
X143943582Y-99652721D01*
X143973545Y-99751495D01*
X144022202Y-99842527D01*
X144087684Y-99922316D01*
X144107677Y-99938724D01*
X144390128Y-100221176D01*
X144499320Y-100337774D01*
X144576711Y-100434836D01*
X144631457Y-100518981D01*
X144670736Y-100596099D01*
X144701050Y-100674043D01*
X144727287Y-100760707D01*
X144753318Y-100861849D01*
X144782275Y-100977073D01*
X144783932Y-100983349D01*
X144819458Y-101111587D01*
X144822849Y-101122866D01*
X144844276Y-101188874D01*
X144852660Y-101231023D01*
X144930454Y-101418835D01*
X145043394Y-101587861D01*
X145187139Y-101731606D01*
X145356165Y-101844546D01*
X145543977Y-101922340D01*
X145743357Y-101962000D01*
X145946643Y-101962000D01*
X146146023Y-101922340D01*
X146333835Y-101844546D01*
X146502861Y-101731606D01*
X146646606Y-101587861D01*
X146759546Y-101418835D01*
X146837340Y-101231023D01*
X146877000Y-101031643D01*
X146877000Y-100828357D01*
X146837340Y-100628977D01*
X146759546Y-100441165D01*
X146646606Y-100272139D01*
X146502861Y-100128394D01*
X146333835Y-100015454D01*
X146146023Y-99937660D01*
X146099101Y-99928326D01*
X146028908Y-99906247D01*
X146017730Y-99902995D01*
X145889536Y-99868668D01*
X145883459Y-99867116D01*
X145768452Y-99839166D01*
X145667659Y-99813949D01*
X145581461Y-99788366D01*
X145504022Y-99758612D01*
X145427436Y-99719870D01*
X145343802Y-99665648D01*
X145247247Y-99588780D01*
X145131148Y-99480101D01*
X144984000Y-99332953D01*
X144984000Y-95565729D01*
X144986534Y-95540000D01*
X144984000Y-95514271D01*
X144984000Y-95514261D01*
X144976418Y-95437278D01*
X144946455Y-95338504D01*
X144910159Y-95270599D01*
X144897798Y-95247472D01*
X144848724Y-95187676D01*
X144848720Y-95187672D01*
X144832316Y-95167684D01*
X144812328Y-95151280D01*
X144286918Y-94625871D01*
X144221061Y-94558794D01*
X144168491Y-94502452D01*
X144127133Y-94454679D01*
X144095129Y-94413714D01*
X144070065Y-94377170D01*
X144049124Y-94341640D01*
X144029743Y-94303080D01*
X144010015Y-94257582D01*
X143988698Y-94202239D01*
X143980608Y-94179525D01*
X143977040Y-94161588D01*
X143923180Y-94031557D01*
X143844986Y-93914533D01*
X143745465Y-93815012D01*
X143628441Y-93736818D01*
X143498410Y-93682958D01*
X143360370Y-93655500D01*
X143219626Y-93655500D01*
X143081586Y-93682958D01*
X142951555Y-93736818D01*
X142834531Y-93815012D01*
X142735010Y-93914533D01*
X142656816Y-94031557D01*
X142602956Y-94161588D01*
X142575498Y-94299628D01*
X131038985Y-94299628D01*
X131943614Y-93395000D01*
X146176387Y-93395000D01*
X148235001Y-95453615D01*
X148235001Y-97852625D01*
X148222340Y-97788977D01*
X148144546Y-97601165D01*
X148031606Y-97432139D01*
X147887861Y-97288394D01*
X147718835Y-97175454D01*
X147531023Y-97097660D01*
X147331643Y-97058000D01*
X147128357Y-97058000D01*
X146928977Y-97097660D01*
X146741165Y-97175454D01*
X146572139Y-97288394D01*
X146428394Y-97432139D01*
X146315454Y-97601165D01*
X146237660Y-97788977D01*
X146198000Y-97988357D01*
X146198000Y-98191643D01*
X146237660Y-98391023D01*
X146315454Y-98578835D01*
X146428394Y-98747861D01*
X146572139Y-98891606D01*
X146741165Y-99004546D01*
X146928977Y-99082340D01*
X147128357Y-99122000D01*
X147331643Y-99122000D01*
X147531023Y-99082340D01*
X147718835Y-99004546D01*
X147887861Y-98891606D01*
X148031606Y-98747861D01*
X148144546Y-98578835D01*
X148222340Y-98391023D01*
X148235000Y-98327378D01*
X148235000Y-99698228D01*
X148227350Y-99803763D01*
X148211820Y-99864748D01*
X148192100Y-99905141D01*
X148164257Y-99941763D01*
X148120306Y-99984827D01*
X148056427Y-100038792D01*
X147981752Y-100101751D01*
X147969160Y-100113061D01*
X147893846Y-100185099D01*
X147873280Y-100207094D01*
X147847069Y-100238464D01*
X147813394Y-100272139D01*
X147700454Y-100441165D01*
X147622660Y-100628977D01*
X147583000Y-100828357D01*
X147583000Y-101031643D01*
X147622660Y-101231023D01*
X147700454Y-101418835D01*
X147813394Y-101587861D01*
X147957139Y-101731606D01*
X148126165Y-101844546D01*
X148313977Y-101922340D01*
X148513357Y-101962000D01*
X148716643Y-101962000D01*
X148916023Y-101922340D01*
X149103835Y-101844546D01*
X149272861Y-101731606D01*
X149416606Y-101587861D01*
X149529546Y-101418835D01*
X149607340Y-101231023D01*
X149647000Y-101031643D01*
X149647000Y-100828357D01*
X149607340Y-100628977D01*
X149529546Y-100441165D01*
X149488695Y-100380028D01*
X149487146Y-100377141D01*
X149465890Y-100343686D01*
X149451347Y-100324132D01*
X149416606Y-100272139D01*
X149401274Y-100256807D01*
X149396665Y-100250610D01*
X149375704Y-100225714D01*
X149302509Y-100148718D01*
X149288605Y-100135110D01*
X149214674Y-100067790D01*
X149213139Y-100066403D01*
X149148308Y-100008272D01*
X149101804Y-99960714D01*
X149071325Y-99919493D01*
X149049612Y-99874303D01*
X149032993Y-99808589D01*
X149025000Y-99698241D01*
X149025000Y-98838675D01*
X149314965Y-98838675D01*
X149391982Y-99003425D01*
X149581864Y-99104492D01*
X149787816Y-99166574D01*
X150001922Y-99187283D01*
X150215954Y-99165824D01*
X150421687Y-99103022D01*
X150608018Y-99003425D01*
X150685035Y-98838675D01*
X150000000Y-98153640D01*
X149314965Y-98838675D01*
X149025000Y-98838675D01*
X149025000Y-98582820D01*
X149086575Y-98698018D01*
X149251325Y-98775035D01*
X149936360Y-98090000D01*
X150063640Y-98090000D01*
X150748675Y-98775035D01*
X150913425Y-98698018D01*
X151014492Y-98508136D01*
X151076574Y-98302184D01*
X151097283Y-98088078D01*
X151075824Y-97874046D01*
X151013022Y-97668313D01*
X150913425Y-97481982D01*
X150748675Y-97404965D01*
X150063640Y-98090000D01*
X149936360Y-98090000D01*
X149251325Y-97404965D01*
X149086575Y-97481982D01*
X149025000Y-97597667D01*
X149025000Y-97341325D01*
X149314965Y-97341325D01*
X150000000Y-98026360D01*
X150685035Y-97341325D01*
X150608018Y-97176575D01*
X150418136Y-97075508D01*
X150212184Y-97013426D01*
X149998078Y-96992717D01*
X149784046Y-97014176D01*
X149578313Y-97076978D01*
X149391982Y-97176575D01*
X149314965Y-97341325D01*
X149025000Y-97341325D01*
X149025000Y-95309393D01*
X149026910Y-95289999D01*
X149025000Y-95270605D01*
X149025000Y-95270599D01*
X149019284Y-95212567D01*
X148996698Y-95138109D01*
X148960019Y-95069488D01*
X148910658Y-95009342D01*
X148895589Y-94996975D01*
X146633029Y-92734416D01*
X146620658Y-92719342D01*
X146560512Y-92669981D01*
X146491891Y-92633302D01*
X146417433Y-92610716D01*
X146359401Y-92605000D01*
X146359394Y-92605000D01*
X146340000Y-92603090D01*
X146320606Y-92605000D01*
X131799390Y-92605000D01*
X131779999Y-92603090D01*
X131760608Y-92605000D01*
X131760599Y-92605000D01*
X131702567Y-92610716D01*
X131628109Y-92633302D01*
X131559488Y-92669981D01*
X131499342Y-92719342D01*
X131486975Y-92734411D01*
X125166387Y-99055000D01*
X124587028Y-99055000D01*
X124708835Y-99004546D01*
X124877861Y-98891606D01*
X125021606Y-98747861D01*
X125134546Y-98578835D01*
X125212340Y-98391023D01*
X125252000Y-98191643D01*
X125252000Y-97988357D01*
X125212340Y-97788977D01*
X125134546Y-97601165D01*
X125021606Y-97432139D01*
X124877861Y-97288394D01*
X124708835Y-97175454D01*
X124521023Y-97097660D01*
X124321643Y-97058000D01*
X124118357Y-97058000D01*
X123918977Y-97097660D01*
X123731165Y-97175454D01*
X123562139Y-97288394D01*
X123418394Y-97432139D01*
X123305454Y-97601165D01*
X123227660Y-97788977D01*
X123188000Y-97988357D01*
X123188000Y-98191643D01*
X123227660Y-98391023D01*
X123305454Y-98578835D01*
X123418394Y-98747861D01*
X123562139Y-98891606D01*
X123731165Y-99004546D01*
X123852972Y-99055000D01*
X122089394Y-99055000D01*
X122070000Y-99053090D01*
X122050606Y-99055000D01*
X122050599Y-99055000D01*
X121999856Y-99059998D01*
X121992566Y-99060716D01*
X121983237Y-99063546D01*
X121918109Y-99083302D01*
X121849488Y-99119981D01*
X121789342Y-99169342D01*
X121776975Y-99184411D01*
X121144416Y-99816971D01*
X121129342Y-99829342D01*
X121079981Y-99889489D01*
X121043302Y-99958110D01*
X121020716Y-100032568D01*
X121015000Y-100090600D01*
X121015000Y-100090606D01*
X121013090Y-100110000D01*
X121015000Y-100129394D01*
X121015000Y-100526759D01*
X120979546Y-100441165D01*
X120866606Y-100272139D01*
X120820217Y-100225750D01*
X120805781Y-100208833D01*
X120784053Y-100186181D01*
X120736792Y-100142325D01*
X120722861Y-100128394D01*
X120718997Y-100125812D01*
X120709032Y-100116565D01*
X120695548Y-100104858D01*
X120620723Y-100044115D01*
X120620477Y-100043915D01*
X120556540Y-99992135D01*
X120512887Y-99951159D01*
X120486022Y-99917238D01*
X120467459Y-99880617D01*
X120452572Y-99824131D01*
X120445000Y-99722911D01*
X120445000Y-98327378D01*
X120457660Y-98391023D01*
X120535454Y-98578835D01*
X120648394Y-98747861D01*
X120792139Y-98891606D01*
X120961165Y-99004546D01*
X121148977Y-99082340D01*
X121348357Y-99122000D01*
X121551643Y-99122000D01*
X121751023Y-99082340D01*
X121938835Y-99004546D01*
X122107861Y-98891606D01*
X122251606Y-98747861D01*
X122364546Y-98578835D01*
X122442340Y-98391023D01*
X122482000Y-98191643D01*
X122482000Y-97988357D01*
X122442340Y-97788977D01*
X122364546Y-97601165D01*
X122251606Y-97432139D01*
X122206212Y-97386745D01*
X122197774Y-97376700D01*
X122175697Y-97353386D01*
X122130215Y-97310748D01*
X122107861Y-97288394D01*
X122102670Y-97284926D01*
X122101029Y-97283387D01*
X122087104Y-97271202D01*
X122012386Y-97210211D01*
X122011723Y-97209671D01*
X121947533Y-97157611D01*
X121903441Y-97116296D01*
X121876277Y-97082131D01*
X121857575Y-97045431D01*
X121842621Y-96989042D01*
X121835000Y-96887844D01*
X121835000Y-96433613D01*
X122693614Y-95575000D01*
X126160606Y-95575000D01*
X126180000Y-95576910D01*
X126199394Y-95575000D01*
X126199401Y-95575000D01*
X126257433Y-95569284D01*
X126331891Y-95546698D01*
X126400512Y-95510019D01*
X126460658Y-95460658D01*
X126473029Y-95445584D01*
X128525591Y-93393023D01*
X128540658Y-93380658D01*
X128590019Y-93320512D01*
X128626698Y-93251891D01*
X128648306Y-93180658D01*
X128649284Y-93177434D01*
X128651800Y-93151891D01*
X128655000Y-93119401D01*
X128655000Y-93119395D01*
X128656910Y-93100001D01*
X128655000Y-93080607D01*
X128655000Y-91086505D01*
X128662602Y-90928958D01*
X128681554Y-90814462D01*
X128708720Y-90726447D01*
X128743627Y-90651753D01*
X128789016Y-90577973D01*
X128847546Y-90496047D01*
X128915926Y-90403287D01*
X128921239Y-90395818D01*
X128993016Y-90291192D01*
X129003072Y-90275383D01*
X129074781Y-90153522D01*
X129085979Y-90132408D01*
X129106473Y-90089250D01*
X129123912Y-90063151D01*
X129200802Y-89877523D01*
X129240000Y-89680461D01*
X129240000Y-89479539D01*
X129200802Y-89282477D01*
X129123912Y-89096849D01*
X129012285Y-88929788D01*
X128870212Y-88787715D01*
X128768870Y-88720000D01*
X130211130Y-88720000D01*
X130109788Y-88787715D01*
X129967715Y-88929788D01*
X129856088Y-89096849D01*
X129779198Y-89282477D01*
X129740000Y-89479539D01*
X129740000Y-89680461D01*
X129779198Y-89877523D01*
X129856088Y-90063151D01*
X129967715Y-90230212D01*
X130109788Y-90372285D01*
X130276849Y-90483912D01*
X130462477Y-90560802D01*
X130659539Y-90600000D01*
X130860461Y-90600000D01*
X131057523Y-90560802D01*
X131243151Y-90483912D01*
X131410212Y-90372285D01*
X131552285Y-90230212D01*
X131663912Y-90063151D01*
X131740802Y-89877523D01*
X131780000Y-89680461D01*
X131780000Y-89479539D01*
X131740802Y-89282477D01*
X131663912Y-89096849D01*
X131552285Y-88929788D01*
X131410212Y-88787715D01*
X131308870Y-88720000D01*
X132751130Y-88720000D01*
X132649788Y-88787715D01*
X132507715Y-88929788D01*
X132396088Y-89096849D01*
X132319198Y-89282477D01*
X132280000Y-89479539D01*
X132280000Y-89680461D01*
X132319198Y-89877523D01*
X132396088Y-90063151D01*
X132507715Y-90230212D01*
X132573290Y-90295787D01*
X132650596Y-90382471D01*
X132699520Y-90453591D01*
X132734876Y-90521686D01*
X132764511Y-90595553D01*
X132794038Y-90681084D01*
X132794868Y-90683451D01*
X132828043Y-90776731D01*
X132834282Y-90792659D01*
X132875741Y-90889350D01*
X132887733Y-90913825D01*
X132944275Y-91015851D01*
X132946443Y-91019277D01*
X132952574Y-91039488D01*
X132953303Y-91041891D01*
X132989982Y-91110512D01*
X133039343Y-91170658D01*
X133054411Y-91183024D01*
X133506980Y-91635594D01*
X133519342Y-91650658D01*
X133534405Y-91663020D01*
X133534411Y-91663026D01*
X133579488Y-91700019D01*
X133648108Y-91736698D01*
X133722567Y-91759284D01*
X133780599Y-91765000D01*
X133780606Y-91765000D01*
X133800000Y-91766910D01*
X133819394Y-91765000D01*
X149406387Y-91765000D01*
X152375000Y-94733614D01*
X152375001Y-96907574D01*
X152367303Y-97007122D01*
X152352457Y-97061642D01*
X152333902Y-97097118D01*
X152306424Y-97130846D01*
X152261434Y-97172141D01*
X152196640Y-97223977D01*
X152194915Y-97225369D01*
X152141845Y-97268545D01*
X152112139Y-97288394D01*
X151968394Y-97432139D01*
X151855454Y-97601165D01*
X151777660Y-97788977D01*
X151738000Y-97988357D01*
X151738000Y-98191643D01*
X151777660Y-98391023D01*
X151855454Y-98578835D01*
X151968394Y-98747861D01*
X152112139Y-98891606D01*
X152281165Y-99004546D01*
X152468977Y-99082340D01*
X152668357Y-99122000D01*
X152871643Y-99122000D01*
X153071023Y-99082340D01*
X153258835Y-99004546D01*
X153427861Y-98891606D01*
X153571606Y-98747861D01*
X153684546Y-98578835D01*
X153762340Y-98391023D01*
X153802000Y-98191643D01*
X153802000Y-97988357D01*
X154508000Y-97988357D01*
X154508000Y-98191643D01*
X154547660Y-98391023D01*
X154625454Y-98578835D01*
X154738394Y-98747861D01*
X154882139Y-98891606D01*
X155051165Y-99004546D01*
X155238977Y-99082340D01*
X155438357Y-99122000D01*
X155641643Y-99122000D01*
X155841023Y-99082340D01*
X156028835Y-99004546D01*
X156197861Y-98891606D01*
X156341606Y-98747861D01*
X156454546Y-98578835D01*
X156532340Y-98391023D01*
X156572000Y-98191643D01*
X156572000Y-97988357D01*
X156532340Y-97788977D01*
X156454546Y-97601165D01*
X156341606Y-97432139D01*
X156197861Y-97288394D01*
X156028835Y-97175454D01*
X155841023Y-97097660D01*
X155641643Y-97058000D01*
X155438357Y-97058000D01*
X155238977Y-97097660D01*
X155051165Y-97175454D01*
X154882139Y-97288394D01*
X154738394Y-97432139D01*
X154625454Y-97601165D01*
X154547660Y-97788977D01*
X154508000Y-97988357D01*
X153802000Y-97988357D01*
X153762340Y-97788977D01*
X153684546Y-97601165D01*
X153571606Y-97432139D01*
X153427861Y-97288394D01*
X153398150Y-97268542D01*
X153345084Y-97225369D01*
X153343359Y-97223977D01*
X153278565Y-97172141D01*
X153233575Y-97130846D01*
X153206097Y-97097118D01*
X153187542Y-97061642D01*
X153172698Y-97007127D01*
X153165000Y-96907571D01*
X153165000Y-95508935D01*
X155770000Y-95508935D01*
X155770000Y-95631065D01*
X155793826Y-95750847D01*
X155840563Y-95863680D01*
X155908414Y-95965227D01*
X155994773Y-96051586D01*
X156096320Y-96119437D01*
X156209153Y-96166174D01*
X156235019Y-96171319D01*
X156256752Y-96178302D01*
X156267073Y-96181392D01*
X156324316Y-96197295D01*
X156329597Y-96198705D01*
X156380225Y-96211672D01*
X156421214Y-96222569D01*
X156451165Y-96231970D01*
X156473933Y-96241106D01*
X156495380Y-96252282D01*
X156521169Y-96269307D01*
X156555075Y-96296550D01*
X156601629Y-96340243D01*
X157495001Y-97233615D01*
X157495000Y-99793897D01*
X157493327Y-99808059D01*
X157408701Y-99892686D01*
X157389864Y-99894546D01*
X157274037Y-99893960D01*
X157134136Y-99889578D01*
X157125167Y-99889446D01*
X156975976Y-99889731D01*
X156952092Y-99890836D01*
X156873142Y-99898000D01*
X156823357Y-99898000D01*
X156623977Y-99937660D01*
X156436165Y-100015454D01*
X156267139Y-100128394D01*
X156123394Y-100272139D01*
X156010454Y-100441165D01*
X155932660Y-100628977D01*
X155893000Y-100828357D01*
X155893000Y-101031643D01*
X155932660Y-101231023D01*
X156010454Y-101418835D01*
X156123394Y-101587861D01*
X156267139Y-101731606D01*
X156436165Y-101844546D01*
X156623977Y-101922340D01*
X156823357Y-101962000D01*
X157026643Y-101962000D01*
X157226023Y-101922340D01*
X157413835Y-101844546D01*
X157582861Y-101731606D01*
X157726606Y-101587861D01*
X157806229Y-101468697D01*
X162304942Y-101468697D01*
X162530493Y-101760231D01*
X162930850Y-101984660D01*
X163367298Y-102126670D01*
X163823065Y-102180805D01*
X164280635Y-102144983D01*
X164722425Y-102020582D01*
X165131457Y-101812383D01*
X165209507Y-101760231D01*
X165435058Y-101468697D01*
X163870000Y-99903640D01*
X162304942Y-101468697D01*
X157806229Y-101468697D01*
X157839546Y-101418835D01*
X157917340Y-101231023D01*
X157957000Y-101031643D01*
X157957000Y-100938822D01*
X157964338Y-100826592D01*
X157981247Y-100747016D01*
X158006331Y-100678409D01*
X158041056Y-100608392D01*
X158085948Y-100529113D01*
X158087304Y-100526689D01*
X158135848Y-100438865D01*
X158144504Y-100421804D01*
X158189112Y-100325575D01*
X158200466Y-100296891D01*
X158237202Y-100185945D01*
X158246197Y-100151188D01*
X158249016Y-100136262D01*
X158256698Y-100121891D01*
X158279284Y-100047433D01*
X158285000Y-99989401D01*
X158285000Y-99989395D01*
X158286910Y-99970001D01*
X158285000Y-99950607D01*
X158285000Y-99793065D01*
X161529195Y-99793065D01*
X161565017Y-100250635D01*
X161689418Y-100692425D01*
X161897617Y-101101457D01*
X161949769Y-101179507D01*
X162241303Y-101405058D01*
X163806360Y-99840000D01*
X163933640Y-99840000D01*
X165498697Y-101405058D01*
X165790231Y-101179507D01*
X166014660Y-100779150D01*
X166156670Y-100342702D01*
X166210805Y-99886935D01*
X166174983Y-99429365D01*
X166050582Y-98987575D01*
X165842383Y-98578543D01*
X165790231Y-98500493D01*
X165498697Y-98274942D01*
X163933640Y-99840000D01*
X163806360Y-99840000D01*
X162241303Y-98274942D01*
X161949769Y-98500493D01*
X161725340Y-98900850D01*
X161583330Y-99337298D01*
X161529195Y-99793065D01*
X158285000Y-99793065D01*
X158285000Y-98211303D01*
X162304942Y-98211303D01*
X163870000Y-99776360D01*
X165435058Y-98211303D01*
X165209507Y-97919769D01*
X164809150Y-97695340D01*
X164372702Y-97553330D01*
X163916935Y-97499195D01*
X163459365Y-97535017D01*
X163017575Y-97659418D01*
X162608543Y-97867617D01*
X162530493Y-97919769D01*
X162304942Y-98211303D01*
X158285000Y-98211303D01*
X158285000Y-97089390D01*
X158286910Y-97069999D01*
X158285000Y-97050608D01*
X158285000Y-97050599D01*
X158279284Y-96992567D01*
X158256698Y-96918109D01*
X158220019Y-96849488D01*
X158170658Y-96789342D01*
X158155589Y-96776975D01*
X157160243Y-95781629D01*
X157116550Y-95735075D01*
X157089307Y-95701169D01*
X157072282Y-95675380D01*
X157061106Y-95653933D01*
X157051970Y-95631165D01*
X157042569Y-95601214D01*
X157031672Y-95560225D01*
X157018705Y-95509597D01*
X157017295Y-95504316D01*
X157001392Y-95447073D01*
X156998302Y-95436752D01*
X156991319Y-95415019D01*
X156986174Y-95389153D01*
X156939437Y-95276320D01*
X156871586Y-95174773D01*
X156785227Y-95088414D01*
X156683680Y-95020563D01*
X156570847Y-94973826D01*
X156451065Y-94950000D01*
X156328935Y-94950000D01*
X156209153Y-94973826D01*
X156096320Y-95020563D01*
X155994773Y-95088414D01*
X155908414Y-95174773D01*
X155840563Y-95276320D01*
X155793826Y-95389153D01*
X155770000Y-95508935D01*
X153165000Y-95508935D01*
X153165000Y-94589390D01*
X153166910Y-94569999D01*
X153165000Y-94550608D01*
X153165000Y-94550599D01*
X153159284Y-94492567D01*
X153136698Y-94418109D01*
X153100019Y-94349488D01*
X153050658Y-94289342D01*
X153035591Y-94276977D01*
X149863029Y-91104416D01*
X149850658Y-91089342D01*
X149790512Y-91039981D01*
X149721891Y-91003302D01*
X149647433Y-90980716D01*
X149589401Y-90975000D01*
X149589394Y-90975000D01*
X149570000Y-90973090D01*
X149550606Y-90975000D01*
X133963614Y-90975000D01*
X133744681Y-90756067D01*
X133715000Y-90718608D01*
X133715000Y-90642374D01*
X133741718Y-90607197D01*
X133817932Y-90526138D01*
X133913178Y-90430217D01*
X133919326Y-90423819D01*
X134017777Y-90317928D01*
X134033223Y-90299768D01*
X134069828Y-90252669D01*
X134092285Y-90230212D01*
X134122953Y-90184314D01*
X134123456Y-90183667D01*
X134145174Y-90151100D01*
X134145330Y-90150825D01*
X134203912Y-90063151D01*
X134280802Y-89877523D01*
X134320000Y-89680461D01*
X134320000Y-89479539D01*
X134280802Y-89282477D01*
X134203912Y-89096849D01*
X134092285Y-88929788D01*
X133950212Y-88787715D01*
X133848870Y-88720000D01*
X135291130Y-88720000D01*
X135189788Y-88787715D01*
X135047715Y-88929788D01*
X134936088Y-89096849D01*
X134859198Y-89282477D01*
X134820000Y-89479539D01*
X134820000Y-89680461D01*
X134859198Y-89877523D01*
X134936088Y-90063151D01*
X135047715Y-90230212D01*
X135189788Y-90372285D01*
X135356849Y-90483912D01*
X135542477Y-90560802D01*
X135739539Y-90600000D01*
X135940461Y-90600000D01*
X136137523Y-90560802D01*
X136323151Y-90483912D01*
X136490212Y-90372285D01*
X136632285Y-90230212D01*
X136743912Y-90063151D01*
X136820802Y-89877523D01*
X136860000Y-89680461D01*
X136860000Y-89479539D01*
X136820802Y-89282477D01*
X136743912Y-89096849D01*
X136632285Y-88929788D01*
X136490212Y-88787715D01*
X136388870Y-88720000D01*
X137831130Y-88720000D01*
X137729788Y-88787715D01*
X137587715Y-88929788D01*
X137476088Y-89096849D01*
X137399198Y-89282477D01*
X137360000Y-89479539D01*
X137360000Y-89680461D01*
X137399198Y-89877523D01*
X137476088Y-90063151D01*
X137587715Y-90230212D01*
X137729788Y-90372285D01*
X137896849Y-90483912D01*
X138082477Y-90560802D01*
X138279539Y-90600000D01*
X138480461Y-90600000D01*
X138677523Y-90560802D01*
X138863151Y-90483912D01*
X139030212Y-90372285D01*
X139172285Y-90230212D01*
X139283912Y-90063151D01*
X139360802Y-89877523D01*
X139400000Y-89680461D01*
X139400000Y-89479539D01*
X139360802Y-89282477D01*
X139283912Y-89096849D01*
X139172285Y-88929788D01*
X139030212Y-88787715D01*
X138928870Y-88720000D01*
X166410000Y-88720000D01*
X166410001Y-102218455D01*
X162948457Y-105680000D01*
X108501544Y-105680000D01*
X107301083Y-104479539D01*
X109420000Y-104479539D01*
X109420000Y-104680461D01*
X109459198Y-104877523D01*
X109536088Y-105063151D01*
X109647715Y-105230212D01*
X109789788Y-105372285D01*
X109956849Y-105483912D01*
X110142477Y-105560802D01*
X110339539Y-105600000D01*
X110540461Y-105600000D01*
X110737523Y-105560802D01*
X110923151Y-105483912D01*
X111090212Y-105372285D01*
X111132497Y-105330000D01*
X111898403Y-105330000D01*
X111904775Y-105394691D01*
X111923644Y-105456897D01*
X111954287Y-105514225D01*
X111995526Y-105564474D01*
X112045775Y-105605713D01*
X112103103Y-105636356D01*
X112165309Y-105655225D01*
X112230000Y-105661597D01*
X112852500Y-105660000D01*
X112935000Y-105577500D01*
X112935000Y-104625000D01*
X113025000Y-104625000D01*
X113025000Y-105577500D01*
X113107500Y-105660000D01*
X113730000Y-105661597D01*
X113794691Y-105655225D01*
X113856897Y-105636356D01*
X113914225Y-105605713D01*
X113964474Y-105564474D01*
X114005713Y-105514225D01*
X114036356Y-105456897D01*
X114055225Y-105394691D01*
X114061597Y-105330000D01*
X114060000Y-104707500D01*
X113977500Y-104625000D01*
X113025000Y-104625000D01*
X112935000Y-104625000D01*
X111982500Y-104625000D01*
X111900000Y-104707500D01*
X111898403Y-105330000D01*
X111132497Y-105330000D01*
X111232285Y-105230212D01*
X111343912Y-105063151D01*
X111420802Y-104877523D01*
X111460000Y-104680461D01*
X111460000Y-104479539D01*
X111420802Y-104282477D01*
X111343912Y-104096849D01*
X111232285Y-103929788D01*
X111132497Y-103830000D01*
X111898403Y-103830000D01*
X111900000Y-104452500D01*
X111982500Y-104535000D01*
X112935000Y-104535000D01*
X112935000Y-103582500D01*
X113025000Y-103582500D01*
X113025000Y-104535000D01*
X113977500Y-104535000D01*
X114032961Y-104479539D01*
X114500000Y-104479539D01*
X114500000Y-104680461D01*
X114539198Y-104877523D01*
X114616088Y-105063151D01*
X114727715Y-105230212D01*
X114869788Y-105372285D01*
X115036849Y-105483912D01*
X115222477Y-105560802D01*
X115419539Y-105600000D01*
X115620461Y-105600000D01*
X115817523Y-105560802D01*
X116003151Y-105483912D01*
X116170212Y-105372285D01*
X116312285Y-105230212D01*
X116423912Y-105063151D01*
X116500802Y-104877523D01*
X116540000Y-104680461D01*
X116540000Y-104479539D01*
X117040000Y-104479539D01*
X117040000Y-104680461D01*
X117079198Y-104877523D01*
X117156088Y-105063151D01*
X117267715Y-105230212D01*
X117409788Y-105372285D01*
X117576849Y-105483912D01*
X117762477Y-105560802D01*
X117959539Y-105600000D01*
X118160461Y-105600000D01*
X118357523Y-105560802D01*
X118543151Y-105483912D01*
X118710212Y-105372285D01*
X118852285Y-105230212D01*
X118963912Y-105063151D01*
X119040802Y-104877523D01*
X119080000Y-104680461D01*
X119080000Y-104479539D01*
X119040802Y-104282477D01*
X118963912Y-104096849D01*
X118852285Y-103929788D01*
X118710212Y-103787715D01*
X118543151Y-103676088D01*
X118357523Y-103599198D01*
X118160461Y-103560000D01*
X117959539Y-103560000D01*
X117762477Y-103599198D01*
X117576849Y-103676088D01*
X117409788Y-103787715D01*
X117267715Y-103929788D01*
X117156088Y-104096849D01*
X117079198Y-104282477D01*
X117040000Y-104479539D01*
X116540000Y-104479539D01*
X116500802Y-104282477D01*
X116423912Y-104096849D01*
X116312285Y-103929788D01*
X116170212Y-103787715D01*
X116003151Y-103676088D01*
X115817523Y-103599198D01*
X115620461Y-103560000D01*
X115419539Y-103560000D01*
X115222477Y-103599198D01*
X115036849Y-103676088D01*
X114869788Y-103787715D01*
X114727715Y-103929788D01*
X114616088Y-104096849D01*
X114539198Y-104282477D01*
X114500000Y-104479539D01*
X114032961Y-104479539D01*
X114060000Y-104452500D01*
X114061597Y-103830000D01*
X114055225Y-103765309D01*
X114036356Y-103703103D01*
X114005713Y-103645775D01*
X113964474Y-103595526D01*
X113914225Y-103554287D01*
X113856897Y-103523644D01*
X113794691Y-103504775D01*
X113730000Y-103498403D01*
X113107500Y-103500000D01*
X113025000Y-103582500D01*
X112935000Y-103582500D01*
X112852500Y-103500000D01*
X112230000Y-103498403D01*
X112165309Y-103504775D01*
X112103103Y-103523644D01*
X112045775Y-103554287D01*
X111995526Y-103595526D01*
X111954287Y-103645775D01*
X111923644Y-103703103D01*
X111904775Y-103765309D01*
X111898403Y-103830000D01*
X111132497Y-103830000D01*
X111090212Y-103787715D01*
X110923151Y-103676088D01*
X110737523Y-103599198D01*
X110540461Y-103560000D01*
X110339539Y-103560000D01*
X110142477Y-103599198D01*
X109956849Y-103676088D01*
X109789788Y-103787715D01*
X109647715Y-103929788D01*
X109536088Y-104096849D01*
X109459198Y-104282477D01*
X109420000Y-104479539D01*
X107301083Y-104479539D01*
X105040000Y-102218457D01*
X105040000Y-101468697D01*
X105994942Y-101468697D01*
X106220493Y-101760231D01*
X106620850Y-101984660D01*
X107057298Y-102126670D01*
X107513065Y-102180805D01*
X107970635Y-102144983D01*
X108412425Y-102020582D01*
X108821457Y-101812383D01*
X108899507Y-101760231D01*
X109125058Y-101468697D01*
X107560000Y-99903640D01*
X105994942Y-101468697D01*
X105040000Y-101468697D01*
X105040000Y-99793065D01*
X105219195Y-99793065D01*
X105255017Y-100250635D01*
X105379418Y-100692425D01*
X105587617Y-101101457D01*
X105639769Y-101179507D01*
X105931303Y-101405058D01*
X107496360Y-99840000D01*
X107623640Y-99840000D01*
X109188697Y-101405058D01*
X109480231Y-101179507D01*
X109677075Y-100828357D01*
X113493000Y-100828357D01*
X113493000Y-101031643D01*
X113532660Y-101231023D01*
X113610454Y-101418835D01*
X113723394Y-101587861D01*
X113867139Y-101731606D01*
X114036165Y-101844546D01*
X114223977Y-101922340D01*
X114423357Y-101962000D01*
X114626643Y-101962000D01*
X114826023Y-101922340D01*
X115013835Y-101844546D01*
X115182861Y-101731606D01*
X115326606Y-101587861D01*
X115439546Y-101418835D01*
X115517340Y-101231023D01*
X115557000Y-101031643D01*
X115557000Y-100828357D01*
X116263000Y-100828357D01*
X116263000Y-101031643D01*
X116302660Y-101231023D01*
X116380454Y-101418835D01*
X116493394Y-101587861D01*
X116637139Y-101731606D01*
X116806165Y-101844546D01*
X116993977Y-101922340D01*
X117193357Y-101962000D01*
X117396643Y-101962000D01*
X117596023Y-101922340D01*
X117783835Y-101844546D01*
X117952861Y-101731606D01*
X118096606Y-101587861D01*
X118209546Y-101418835D01*
X118287340Y-101231023D01*
X118327000Y-101031643D01*
X118327000Y-100828357D01*
X118287340Y-100628977D01*
X118209546Y-100441165D01*
X118096606Y-100272139D01*
X117952861Y-100128394D01*
X117783835Y-100015454D01*
X117596023Y-99937660D01*
X117396643Y-99898000D01*
X117193357Y-99898000D01*
X116993977Y-99937660D01*
X116806165Y-100015454D01*
X116637139Y-100128394D01*
X116493394Y-100272139D01*
X116380454Y-100441165D01*
X116302660Y-100628977D01*
X116263000Y-100828357D01*
X115557000Y-100828357D01*
X115517340Y-100628977D01*
X115439546Y-100441165D01*
X115326606Y-100272139D01*
X115182861Y-100128394D01*
X115013835Y-100015454D01*
X114826023Y-99937660D01*
X114626643Y-99898000D01*
X114423357Y-99898000D01*
X114223977Y-99937660D01*
X114036165Y-100015454D01*
X113867139Y-100128394D01*
X113723394Y-100272139D01*
X113610454Y-100441165D01*
X113532660Y-100628977D01*
X113493000Y-100828357D01*
X109677075Y-100828357D01*
X109704660Y-100779150D01*
X109846670Y-100342702D01*
X109900805Y-99886935D01*
X109864983Y-99429365D01*
X109740582Y-98987575D01*
X109532383Y-98578543D01*
X109480231Y-98500493D01*
X109188697Y-98274942D01*
X107623640Y-99840000D01*
X107496360Y-99840000D01*
X105931303Y-98274942D01*
X105639769Y-98500493D01*
X105415340Y-98900850D01*
X105273330Y-99337298D01*
X105219195Y-99793065D01*
X105040000Y-99793065D01*
X105040000Y-98211303D01*
X105994942Y-98211303D01*
X107560000Y-99776360D01*
X109125058Y-98211303D01*
X108952572Y-97988357D01*
X114878000Y-97988357D01*
X114878000Y-98191643D01*
X114917660Y-98391023D01*
X114995454Y-98578835D01*
X115108394Y-98747861D01*
X115252139Y-98891606D01*
X115421165Y-99004546D01*
X115608977Y-99082340D01*
X115808357Y-99122000D01*
X116011643Y-99122000D01*
X116211023Y-99082340D01*
X116398835Y-99004546D01*
X116567861Y-98891606D01*
X116620792Y-98838675D01*
X117994965Y-98838675D01*
X118071982Y-99003425D01*
X118261864Y-99104492D01*
X118467816Y-99166574D01*
X118681922Y-99187283D01*
X118895954Y-99165824D01*
X119101687Y-99103022D01*
X119288018Y-99003425D01*
X119365035Y-98838675D01*
X118680000Y-98153640D01*
X117994965Y-98838675D01*
X116620792Y-98838675D01*
X116711606Y-98747861D01*
X116824546Y-98578835D01*
X116902340Y-98391023D01*
X116942000Y-98191643D01*
X116942000Y-98091922D01*
X117582717Y-98091922D01*
X117604176Y-98305954D01*
X117666978Y-98511687D01*
X117766575Y-98698018D01*
X117931325Y-98775035D01*
X118616360Y-98090000D01*
X117931325Y-97404965D01*
X117766575Y-97481982D01*
X117665508Y-97671864D01*
X117603426Y-97877816D01*
X117582717Y-98091922D01*
X116942000Y-98091922D01*
X116942000Y-97988357D01*
X116902340Y-97788977D01*
X116824546Y-97601165D01*
X116711606Y-97432139D01*
X116620792Y-97341325D01*
X117994965Y-97341325D01*
X118680000Y-98026360D01*
X119365035Y-97341325D01*
X119288018Y-97176575D01*
X119098136Y-97075508D01*
X118892184Y-97013426D01*
X118678078Y-96992717D01*
X118464046Y-97014176D01*
X118258313Y-97076978D01*
X118071982Y-97176575D01*
X117994965Y-97341325D01*
X116620792Y-97341325D01*
X116567861Y-97288394D01*
X116398835Y-97175454D01*
X116211023Y-97097660D01*
X116011643Y-97058000D01*
X115808357Y-97058000D01*
X115608977Y-97097660D01*
X115421165Y-97175454D01*
X115252139Y-97288394D01*
X115108394Y-97432139D01*
X114995454Y-97601165D01*
X114917660Y-97788977D01*
X114878000Y-97988357D01*
X108952572Y-97988357D01*
X108899507Y-97919769D01*
X108499150Y-97695340D01*
X108062702Y-97553330D01*
X107606935Y-97499195D01*
X107149365Y-97535017D01*
X106707575Y-97659418D01*
X106298543Y-97867617D01*
X106220493Y-97919769D01*
X105994942Y-98211303D01*
X105040000Y-98211303D01*
X105040000Y-88720000D01*
X109891130Y-88720000D01*
X109789788Y-88787715D01*
G04 #@! TA.AperFunction,Conductor*
D19*
G36*
X109789788Y-88787715D02*
G01*
X109647715Y-88929788D01*
X109536088Y-89096849D01*
X109459198Y-89282477D01*
X109420000Y-89479539D01*
X109420000Y-89680461D01*
X109459198Y-89877523D01*
X109536088Y-90063151D01*
X109647715Y-90230212D01*
X109789788Y-90372285D01*
X109956849Y-90483912D01*
X110142477Y-90560802D01*
X110339539Y-90600000D01*
X110540461Y-90600000D01*
X110737523Y-90560802D01*
X110923151Y-90483912D01*
X111090212Y-90372285D01*
X111232285Y-90230212D01*
X111343912Y-90063151D01*
X111420802Y-89877523D01*
X111460000Y-89680461D01*
X111460000Y-89479539D01*
X111420802Y-89282477D01*
X111343912Y-89096849D01*
X111232285Y-88929788D01*
X111090212Y-88787715D01*
X110988870Y-88720000D01*
X112431130Y-88720000D01*
X112329788Y-88787715D01*
X112187715Y-88929788D01*
X112076088Y-89096849D01*
X111999198Y-89282477D01*
X111960000Y-89479539D01*
X111960000Y-89680461D01*
X111999198Y-89877523D01*
X112076088Y-90063151D01*
X112119216Y-90127697D01*
X112158790Y-90196443D01*
X112170957Y-90215659D01*
X112250225Y-90329904D01*
X112260205Y-90343375D01*
X112337849Y-90441644D01*
X112342028Y-90446801D01*
X112413792Y-90533175D01*
X112473196Y-90608491D01*
X112518187Y-90676023D01*
X112552252Y-90744478D01*
X112578776Y-90826298D01*
X112597447Y-90934864D01*
X112605000Y-91086727D01*
X112605001Y-92940596D01*
X112603090Y-92960000D01*
X112610716Y-93037433D01*
X112623886Y-93080847D01*
X112633303Y-93111891D01*
X112669982Y-93180512D01*
X112680789Y-93193680D01*
X112702809Y-93220511D01*
X112719343Y-93240658D01*
X112734412Y-93253025D01*
X115786974Y-96305588D01*
X115799342Y-96320658D01*
X115859488Y-96370019D01*
X115928109Y-96406698D01*
X116002567Y-96429284D01*
X116060599Y-96435000D01*
X116060606Y-96435000D01*
X116080000Y-96436910D01*
X116099394Y-96435000D01*
X116735786Y-96435000D01*
X116800209Y-96437009D01*
X116843978Y-96441720D01*
X116874517Y-96447925D01*
X116897416Y-96455127D01*
X116919387Y-96464577D01*
X116946280Y-96478846D01*
X116981809Y-96500013D01*
X117026050Y-96527247D01*
X117029528Y-96529352D01*
X117080948Y-96559948D01*
X117089273Y-96564704D01*
X117117414Y-96580123D01*
X117146320Y-96599437D01*
X117259153Y-96646174D01*
X117378935Y-96670000D01*
X117501065Y-96670000D01*
X117620847Y-96646174D01*
X117733680Y-96599437D01*
X117835227Y-96531586D01*
X117921586Y-96445227D01*
X117989437Y-96343680D01*
X118036174Y-96230847D01*
X118060000Y-96111065D01*
X118060000Y-95988935D01*
X118036174Y-95869153D01*
X117989437Y-95756320D01*
X117921586Y-95654773D01*
X117835227Y-95568414D01*
X117733680Y-95500563D01*
X117620847Y-95453826D01*
X117501065Y-95430000D01*
X117378935Y-95430000D01*
X117259153Y-95453826D01*
X117146320Y-95500563D01*
X117132224Y-95509981D01*
X117117754Y-95516882D01*
X117108424Y-95521554D01*
X117054524Y-95549864D01*
X117049756Y-95552430D01*
X117002673Y-95578378D01*
X116964006Y-95599292D01*
X116933909Y-95613987D01*
X116908773Y-95624058D01*
X116882751Y-95631762D01*
X116849288Y-95638217D01*
X116802831Y-95642995D01*
X116735947Y-95645000D01*
X116243614Y-95645000D01*
X113395000Y-92796387D01*
X113395000Y-91968935D01*
X113880000Y-91968935D01*
X113880000Y-92091065D01*
X113903826Y-92210847D01*
X113950563Y-92323680D01*
X114018414Y-92425227D01*
X114104773Y-92511586D01*
X114206320Y-92579437D01*
X114319153Y-92626174D01*
X114345019Y-92631319D01*
X114366752Y-92638302D01*
X114377073Y-92641392D01*
X114434316Y-92657295D01*
X114439597Y-92658705D01*
X114490225Y-92671672D01*
X114531214Y-92682569D01*
X114561165Y-92691970D01*
X114583933Y-92701106D01*
X114605380Y-92712282D01*
X114631169Y-92729307D01*
X114665075Y-92756550D01*
X114711628Y-92800241D01*
X116536980Y-94625595D01*
X116549342Y-94640658D01*
X116564405Y-94653020D01*
X116564411Y-94653026D01*
X116609488Y-94690019D01*
X116678108Y-94726698D01*
X116729596Y-94742316D01*
X116752567Y-94749284D01*
X116810599Y-94755000D01*
X116810606Y-94755000D01*
X116830000Y-94756910D01*
X116849394Y-94755000D01*
X117595737Y-94755000D01*
X117659528Y-94757022D01*
X117702760Y-94761733D01*
X117733038Y-94767930D01*
X117756108Y-94775194D01*
X117778658Y-94784830D01*
X117806476Y-94799357D01*
X117843191Y-94820651D01*
X117888153Y-94847276D01*
X117892879Y-94850010D01*
X117944601Y-94879242D01*
X117954085Y-94884356D01*
X117974401Y-94894792D01*
X117996320Y-94909437D01*
X118109153Y-94956174D01*
X118228935Y-94980000D01*
X118351065Y-94980000D01*
X118470847Y-94956174D01*
X118583680Y-94909437D01*
X118685227Y-94841586D01*
X118771586Y-94755227D01*
X118839437Y-94653680D01*
X118886174Y-94540847D01*
X118910000Y-94421065D01*
X118910000Y-94298935D01*
X118886174Y-94179153D01*
X118839437Y-94066320D01*
X118771586Y-93964773D01*
X118685227Y-93878414D01*
X118583680Y-93810563D01*
X118470847Y-93763826D01*
X118351065Y-93740000D01*
X118228935Y-93740000D01*
X118109153Y-93763826D01*
X117996320Y-93810563D01*
X117974399Y-93825210D01*
X117954089Y-93835642D01*
X117944601Y-93840757D01*
X117892879Y-93869989D01*
X117888153Y-93872723D01*
X117843191Y-93899348D01*
X117806476Y-93920642D01*
X117778658Y-93935169D01*
X117756108Y-93944805D01*
X117733038Y-93952069D01*
X117702760Y-93958266D01*
X117659528Y-93962977D01*
X117595731Y-93965000D01*
X116993615Y-93965000D01*
X115270241Y-92241628D01*
X115226550Y-92195075D01*
X115199307Y-92161169D01*
X115182282Y-92135380D01*
X115171106Y-92113933D01*
X115161970Y-92091165D01*
X115152569Y-92061214D01*
X115141672Y-92020225D01*
X115128705Y-91969597D01*
X115127295Y-91964316D01*
X115111392Y-91907073D01*
X115108302Y-91896752D01*
X115101319Y-91875019D01*
X115096174Y-91849153D01*
X115049437Y-91736320D01*
X114981586Y-91634773D01*
X114895227Y-91548414D01*
X114793680Y-91480563D01*
X114680847Y-91433826D01*
X114561065Y-91410000D01*
X114438935Y-91410000D01*
X114319153Y-91433826D01*
X114206320Y-91480563D01*
X114104773Y-91548414D01*
X114018414Y-91634773D01*
X113950563Y-91736320D01*
X113903826Y-91849153D01*
X113880000Y-91968935D01*
X113395000Y-91968935D01*
X113395000Y-91086589D01*
X113402589Y-90930974D01*
X113421455Y-90818526D01*
X113448421Y-90732647D01*
X113483074Y-90660101D01*
X113528387Y-90588449D01*
X113587250Y-90508815D01*
X113656854Y-90418188D01*
X113661830Y-90411498D01*
X113720512Y-90330000D01*
X114438403Y-90330000D01*
X114444775Y-90394691D01*
X114463644Y-90456897D01*
X114494287Y-90514225D01*
X114535526Y-90564474D01*
X114585775Y-90605713D01*
X114643103Y-90636356D01*
X114705309Y-90655225D01*
X114770000Y-90661597D01*
X115392500Y-90660000D01*
X115475000Y-90577500D01*
X115475000Y-89625000D01*
X115565000Y-89625000D01*
X115565000Y-90577500D01*
X115647500Y-90660000D01*
X116270000Y-90661597D01*
X116334691Y-90655225D01*
X116396897Y-90636356D01*
X116454225Y-90605713D01*
X116504474Y-90564474D01*
X116545713Y-90514225D01*
X116576356Y-90456897D01*
X116595225Y-90394691D01*
X116601597Y-90330000D01*
X116978403Y-90330000D01*
X116984775Y-90394691D01*
X117003644Y-90456897D01*
X117034287Y-90514225D01*
X117075526Y-90564474D01*
X117125775Y-90605713D01*
X117183103Y-90636356D01*
X117245309Y-90655225D01*
X117310000Y-90661597D01*
X117932500Y-90660000D01*
X118015000Y-90577500D01*
X118015000Y-89625000D01*
X118105000Y-89625000D01*
X118105000Y-90577500D01*
X118187500Y-90660000D01*
X118810000Y-90661597D01*
X118874691Y-90655225D01*
X118936897Y-90636356D01*
X118994225Y-90605713D01*
X119044474Y-90564474D01*
X119085713Y-90514225D01*
X119116356Y-90456897D01*
X119135225Y-90394691D01*
X119141597Y-90330000D01*
X119140000Y-89707500D01*
X119057500Y-89625000D01*
X118105000Y-89625000D01*
X118015000Y-89625000D01*
X117062500Y-89625000D01*
X116980000Y-89707500D01*
X116978403Y-90330000D01*
X116601597Y-90330000D01*
X116600000Y-89707500D01*
X116517500Y-89625000D01*
X115565000Y-89625000D01*
X115475000Y-89625000D01*
X114522500Y-89625000D01*
X114440000Y-89707500D01*
X114438403Y-90330000D01*
X113720512Y-90330000D01*
X113735639Y-90308993D01*
X113745722Y-90293951D01*
X113820039Y-90174613D01*
X113831606Y-90154095D01*
X113858353Y-90101403D01*
X113883912Y-90063151D01*
X113960802Y-89877523D01*
X114000000Y-89680461D01*
X114000000Y-89479539D01*
X113960802Y-89282477D01*
X113883912Y-89096849D01*
X113772285Y-88929788D01*
X113630212Y-88787715D01*
X113528870Y-88720000D01*
X114458519Y-88720000D01*
X114444775Y-88765309D01*
X114438403Y-88830000D01*
X114440000Y-89452500D01*
X114522500Y-89535000D01*
X115475000Y-89535000D01*
X115475000Y-89515000D01*
X115565000Y-89515000D01*
X115565000Y-89535000D01*
X116517500Y-89535000D01*
X116600000Y-89452500D01*
X116601597Y-88830000D01*
X116595225Y-88765309D01*
X116581481Y-88720000D01*
X116998519Y-88720000D01*
X116984775Y-88765309D01*
X116978403Y-88830000D01*
X116980000Y-89452500D01*
X117062500Y-89535000D01*
X118015000Y-89535000D01*
X118015000Y-89515000D01*
X118105000Y-89515000D01*
X118105000Y-89535000D01*
X119057500Y-89535000D01*
X119140000Y-89452500D01*
X119141597Y-88830000D01*
X119135225Y-88765309D01*
X119121481Y-88720000D01*
X120051130Y-88720000D01*
X119949788Y-88787715D01*
X119807715Y-88929788D01*
X119696088Y-89096849D01*
X119619198Y-89282477D01*
X119580000Y-89479539D01*
X119580000Y-89680461D01*
X119619198Y-89877523D01*
X119696088Y-90063151D01*
X119750428Y-90144476D01*
X119794755Y-90217022D01*
X119807148Y-90235541D01*
X119888758Y-90347227D01*
X119898610Y-90359901D01*
X119978061Y-90456067D01*
X119981787Y-90460480D01*
X120054546Y-90544806D01*
X120114098Y-90618008D01*
X120158881Y-90683592D01*
X120192616Y-90750097D01*
X120218905Y-90830007D01*
X120237468Y-90936713D01*
X120240202Y-90991184D01*
X119414411Y-91816976D01*
X119399343Y-91829342D01*
X119349982Y-91889488D01*
X119340583Y-91907073D01*
X119313303Y-91958109D01*
X119290716Y-92032567D01*
X119283090Y-92110000D01*
X119285001Y-92129404D01*
X119285000Y-96480606D01*
X119283090Y-96500000D01*
X119285000Y-96519394D01*
X119285000Y-96519400D01*
X119290716Y-96577432D01*
X119313302Y-96651890D01*
X119349981Y-96720511D01*
X119399342Y-96780658D01*
X119414416Y-96793029D01*
X119655001Y-97033615D01*
X119655001Y-97597181D01*
X119593425Y-97481982D01*
X119428675Y-97404965D01*
X118743640Y-98090000D01*
X119428675Y-98775035D01*
X119593425Y-98698018D01*
X119655001Y-98582331D01*
X119655000Y-99722897D01*
X119647038Y-99829254D01*
X119630930Y-99890741D01*
X119610123Y-99932434D01*
X119580303Y-99971167D01*
X119533757Y-100016831D01*
X119468604Y-100072976D01*
X119466511Y-100074798D01*
X119392462Y-100139947D01*
X119377559Y-100154101D01*
X119304546Y-100228931D01*
X119291959Y-100243574D01*
X119263394Y-100272139D01*
X119218798Y-100338882D01*
X119213703Y-100345626D01*
X119199588Y-100367630D01*
X119150454Y-100441165D01*
X119072660Y-100628977D01*
X119033000Y-100828357D01*
X119033000Y-101031643D01*
X119072660Y-101231023D01*
X119150454Y-101418835D01*
X119263394Y-101587861D01*
X119407139Y-101731606D01*
X119576165Y-101844546D01*
X119763977Y-101922340D01*
X119963357Y-101962000D01*
X120166643Y-101962000D01*
X120366023Y-101922340D01*
X120553835Y-101844546D01*
X120722861Y-101731606D01*
X120866606Y-101587861D01*
X120979546Y-101418835D01*
X121015001Y-101333240D01*
X121015001Y-102186385D01*
X120334416Y-102866971D01*
X120319342Y-102879342D01*
X120269981Y-102939489D01*
X120260530Y-102957170D01*
X120237137Y-102988512D01*
X120166653Y-103099740D01*
X120146895Y-103137098D01*
X120101148Y-103242890D01*
X120089168Y-103276550D01*
X120060400Y-103378231D01*
X120055328Y-103399375D01*
X120035779Y-103498268D01*
X120035188Y-103501348D01*
X120018629Y-103590550D01*
X120000441Y-103663122D01*
X119976377Y-103724778D01*
X119939447Y-103786682D01*
X119871391Y-103866112D01*
X119807715Y-103929788D01*
X119696088Y-104096849D01*
X119619198Y-104282477D01*
X119580000Y-104479539D01*
X119580000Y-104680461D01*
X119619198Y-104877523D01*
X119696088Y-105063151D01*
X119807715Y-105230212D01*
X119949788Y-105372285D01*
X120116849Y-105483912D01*
X120302477Y-105560802D01*
X120499539Y-105600000D01*
X120700461Y-105600000D01*
X120897523Y-105560802D01*
X121083151Y-105483912D01*
X121250212Y-105372285D01*
X121392285Y-105230212D01*
X121503912Y-105063151D01*
X121580802Y-104877523D01*
X121620000Y-104680461D01*
X121620000Y-104479539D01*
X122120000Y-104479539D01*
X122120000Y-104680461D01*
X122159198Y-104877523D01*
X122236088Y-105063151D01*
X122347715Y-105230212D01*
X122489788Y-105372285D01*
X122656849Y-105483912D01*
X122842477Y-105560802D01*
X123039539Y-105600000D01*
X123240461Y-105600000D01*
X123437523Y-105560802D01*
X123623151Y-105483912D01*
X123790212Y-105372285D01*
X123932285Y-105230212D01*
X124043912Y-105063151D01*
X124120802Y-104877523D01*
X124160000Y-104680461D01*
X124160000Y-104479539D01*
X124660000Y-104479539D01*
X124660000Y-104680461D01*
X124699198Y-104877523D01*
X124776088Y-105063151D01*
X124887715Y-105230212D01*
X125029788Y-105372285D01*
X125196849Y-105483912D01*
X125382477Y-105560802D01*
X125579539Y-105600000D01*
X125780461Y-105600000D01*
X125977523Y-105560802D01*
X126163151Y-105483912D01*
X126330212Y-105372285D01*
X126472285Y-105230212D01*
X126583912Y-105063151D01*
X126660802Y-104877523D01*
X126663627Y-104863321D01*
X126675896Y-104831996D01*
X126683747Y-104808938D01*
X126723459Y-104672411D01*
X126728233Y-104653468D01*
X126754880Y-104528872D01*
X126756824Y-104518862D01*
X126763692Y-104479539D01*
X127200000Y-104479539D01*
X127200000Y-104680461D01*
X127239198Y-104877523D01*
X127316088Y-105063151D01*
X127427715Y-105230212D01*
X127569788Y-105372285D01*
X127736849Y-105483912D01*
X127922477Y-105560802D01*
X128119539Y-105600000D01*
X128320461Y-105600000D01*
X128517523Y-105560802D01*
X128703151Y-105483912D01*
X128870212Y-105372285D01*
X129012285Y-105230212D01*
X129123912Y-105063151D01*
X129200802Y-104877523D01*
X129240000Y-104680461D01*
X129240000Y-104479539D01*
X129740000Y-104479539D01*
X129740000Y-104680461D01*
X129779198Y-104877523D01*
X129856088Y-105063151D01*
X129967715Y-105230212D01*
X130109788Y-105372285D01*
X130276849Y-105483912D01*
X130462477Y-105560802D01*
X130659539Y-105600000D01*
X130860461Y-105600000D01*
X131057523Y-105560802D01*
X131243151Y-105483912D01*
X131410212Y-105372285D01*
X131552285Y-105230212D01*
X131663912Y-105063151D01*
X131740802Y-104877523D01*
X131780000Y-104680461D01*
X131780000Y-104479539D01*
X132280000Y-104479539D01*
X132280000Y-104680461D01*
X132319198Y-104877523D01*
X132396088Y-105063151D01*
X132507715Y-105230212D01*
X132649788Y-105372285D01*
X132816849Y-105483912D01*
X133002477Y-105560802D01*
X133199539Y-105600000D01*
X133400461Y-105600000D01*
X133597523Y-105560802D01*
X133783151Y-105483912D01*
X133950212Y-105372285D01*
X134092285Y-105230212D01*
X134203912Y-105063151D01*
X134280802Y-104877523D01*
X134320000Y-104680461D01*
X134320000Y-104479539D01*
X134820000Y-104479539D01*
X134820000Y-104680461D01*
X134859198Y-104877523D01*
X134936088Y-105063151D01*
X135047715Y-105230212D01*
X135189788Y-105372285D01*
X135356849Y-105483912D01*
X135542477Y-105560802D01*
X135739539Y-105600000D01*
X135940461Y-105600000D01*
X136137523Y-105560802D01*
X136323151Y-105483912D01*
X136490212Y-105372285D01*
X136632285Y-105230212D01*
X136743912Y-105063151D01*
X136820802Y-104877523D01*
X136860000Y-104680461D01*
X136860000Y-104479539D01*
X137360000Y-104479539D01*
X137360000Y-104680461D01*
X137399198Y-104877523D01*
X137476088Y-105063151D01*
X137587715Y-105230212D01*
X137729788Y-105372285D01*
X137896849Y-105483912D01*
X138082477Y-105560802D01*
X138279539Y-105600000D01*
X138480461Y-105600000D01*
X138677523Y-105560802D01*
X138863151Y-105483912D01*
X139030212Y-105372285D01*
X139172285Y-105230212D01*
X139283912Y-105063151D01*
X139360802Y-104877523D01*
X139400000Y-104680461D01*
X139400000Y-104479539D01*
X139360802Y-104282477D01*
X139283912Y-104096849D01*
X139172285Y-103929788D01*
X139030212Y-103787715D01*
X138863151Y-103676088D01*
X138677523Y-103599198D01*
X138480461Y-103560000D01*
X138279539Y-103560000D01*
X138082477Y-103599198D01*
X137896849Y-103676088D01*
X137729788Y-103787715D01*
X137587715Y-103929788D01*
X137476088Y-104096849D01*
X137399198Y-104282477D01*
X137360000Y-104479539D01*
X136860000Y-104479539D01*
X136820802Y-104282477D01*
X136743912Y-104096849D01*
X136632285Y-103929788D01*
X136490212Y-103787715D01*
X136323151Y-103676088D01*
X136137523Y-103599198D01*
X135940461Y-103560000D01*
X135739539Y-103560000D01*
X135542477Y-103599198D01*
X135356849Y-103676088D01*
X135189788Y-103787715D01*
X135047715Y-103929788D01*
X134936088Y-104096849D01*
X134859198Y-104282477D01*
X134820000Y-104479539D01*
X134320000Y-104479539D01*
X134280802Y-104282477D01*
X134203912Y-104096849D01*
X134092285Y-103929788D01*
X133950212Y-103787715D01*
X133783151Y-103676088D01*
X133597523Y-103599198D01*
X133400461Y-103560000D01*
X133199539Y-103560000D01*
X133002477Y-103599198D01*
X132816849Y-103676088D01*
X132649788Y-103787715D01*
X132507715Y-103929788D01*
X132396088Y-104096849D01*
X132319198Y-104282477D01*
X132280000Y-104479539D01*
X131780000Y-104479539D01*
X131740802Y-104282477D01*
X131663912Y-104096849D01*
X131552285Y-103929788D01*
X131410212Y-103787715D01*
X131243151Y-103676088D01*
X131057523Y-103599198D01*
X130860461Y-103560000D01*
X130659539Y-103560000D01*
X130462477Y-103599198D01*
X130276849Y-103676088D01*
X130109788Y-103787715D01*
X129967715Y-103929788D01*
X129856088Y-104096849D01*
X129779198Y-104282477D01*
X129740000Y-104479539D01*
X129240000Y-104479539D01*
X129200802Y-104282477D01*
X129123912Y-104096849D01*
X129012285Y-103929788D01*
X128870212Y-103787715D01*
X128703151Y-103676088D01*
X128517523Y-103599198D01*
X128320461Y-103560000D01*
X128119539Y-103560000D01*
X127922477Y-103599198D01*
X127736849Y-103676088D01*
X127569788Y-103787715D01*
X127427715Y-103929788D01*
X127316088Y-104096849D01*
X127239198Y-104282477D01*
X127200000Y-104479539D01*
X126763692Y-104479539D01*
X126776843Y-104404250D01*
X126795545Y-104303477D01*
X126817301Y-104217456D01*
X126846952Y-104138073D01*
X126891465Y-104054859D01*
X126960493Y-103958897D01*
X127067955Y-103840659D01*
X127683615Y-103225000D01*
X139736387Y-103225000D01*
X141336975Y-104825589D01*
X141349342Y-104840658D01*
X141409488Y-104890019D01*
X141478109Y-104926698D01*
X141552567Y-104949284D01*
X141610599Y-104955000D01*
X141610608Y-104955000D01*
X141629999Y-104956910D01*
X141649390Y-104955000D01*
X152880606Y-104955000D01*
X152900000Y-104956910D01*
X152919394Y-104955000D01*
X152919401Y-104955000D01*
X152977433Y-104949284D01*
X153051891Y-104926698D01*
X153120512Y-104890019D01*
X153180658Y-104840658D01*
X153193029Y-104825584D01*
X154435589Y-103583025D01*
X154450658Y-103570658D01*
X154464094Y-103554287D01*
X154489242Y-103523644D01*
X154500019Y-103510512D01*
X154536698Y-103441891D01*
X154559284Y-103367433D01*
X154565000Y-103309401D01*
X154565000Y-103309395D01*
X154566910Y-103290001D01*
X154565000Y-103270607D01*
X154565000Y-102468565D01*
X154572743Y-102309421D01*
X154592064Y-102194075D01*
X154619739Y-102105896D01*
X154655320Y-102031474D01*
X154701724Y-101958286D01*
X154761965Y-101877168D01*
X154833209Y-101785060D01*
X154838012Y-101778656D01*
X154913841Y-101674374D01*
X154923825Y-101659647D01*
X155000393Y-101538278D01*
X155011959Y-101518062D01*
X155041557Y-101460723D01*
X155069546Y-101418835D01*
X155147340Y-101231023D01*
X155187000Y-101031643D01*
X155187000Y-100828357D01*
X155147340Y-100628977D01*
X155069546Y-100441165D01*
X154956606Y-100272139D01*
X154812861Y-100128394D01*
X154643835Y-100015454D01*
X154456023Y-99937660D01*
X154256643Y-99898000D01*
X154053357Y-99898000D01*
X153853977Y-99937660D01*
X153666165Y-100015454D01*
X153497139Y-100128394D01*
X153353394Y-100272139D01*
X153240454Y-100441165D01*
X153162660Y-100628977D01*
X153123000Y-100828357D01*
X153123000Y-101031643D01*
X153162660Y-101231023D01*
X153240454Y-101418835D01*
X153281331Y-101480012D01*
X153320570Y-101549350D01*
X153332577Y-101568627D01*
X153412865Y-101686208D01*
X153422779Y-101699798D01*
X153501498Y-101800929D01*
X153505723Y-101806218D01*
X153578631Y-101895189D01*
X153639304Y-101973080D01*
X153685540Y-102043255D01*
X153720712Y-102114631D01*
X153748089Y-102199823D01*
X153767280Y-102312293D01*
X153775001Y-102468664D01*
X153775001Y-103126385D01*
X152736387Y-104165000D01*
X141793614Y-104165000D01*
X140193029Y-102564416D01*
X140180658Y-102549342D01*
X140120512Y-102499981D01*
X140051891Y-102463302D01*
X139977433Y-102440716D01*
X139919401Y-102435000D01*
X139919394Y-102435000D01*
X139900000Y-102433090D01*
X139880606Y-102435000D01*
X127539394Y-102435000D01*
X127520000Y-102433090D01*
X127500606Y-102435000D01*
X127500599Y-102435000D01*
X127442567Y-102440716D01*
X127368108Y-102463302D01*
X127299488Y-102499981D01*
X127254411Y-102536974D01*
X127254405Y-102536980D01*
X127239342Y-102549342D01*
X127226980Y-102564405D01*
X126509646Y-103281740D01*
X126399925Y-103380845D01*
X126313177Y-103441543D01*
X126240089Y-103477916D01*
X126171263Y-103499665D01*
X126095170Y-103512878D01*
X126003001Y-103520620D01*
X125893016Y-103526216D01*
X125888234Y-103526502D01*
X125764528Y-103534999D01*
X125749341Y-103536474D01*
X125613125Y-103553604D01*
X125591645Y-103557191D01*
X125550826Y-103565711D01*
X125382477Y-103599198D01*
X125196849Y-103676088D01*
X125029788Y-103787715D01*
X124887715Y-103929788D01*
X124776088Y-104096849D01*
X124699198Y-104282477D01*
X124660000Y-104479539D01*
X124160000Y-104479539D01*
X124120802Y-104282477D01*
X124043912Y-104096849D01*
X124009917Y-104045973D01*
X123976673Y-103984544D01*
X123964782Y-103964660D01*
X123887945Y-103847863D01*
X123877888Y-103833602D01*
X123802124Y-103733218D01*
X123797528Y-103727300D01*
X123726827Y-103638840D01*
X123667629Y-103561352D01*
X123622470Y-103491813D01*
X123588095Y-103421340D01*
X123561343Y-103337521D01*
X123542571Y-103227051D01*
X123536890Y-103111723D01*
X123753614Y-102895000D01*
X126280606Y-102895000D01*
X126300000Y-102896910D01*
X126319394Y-102895000D01*
X126319401Y-102895000D01*
X126377433Y-102889284D01*
X126451891Y-102866698D01*
X126520512Y-102830019D01*
X126580658Y-102780658D01*
X126593029Y-102765584D01*
X127889917Y-101468697D01*
X130984942Y-101468697D01*
X131210493Y-101760231D01*
X131610850Y-101984660D01*
X132047298Y-102126670D01*
X132503065Y-102180805D01*
X132960635Y-102144983D01*
X133402425Y-102020582D01*
X133811457Y-101812383D01*
X133889507Y-101760231D01*
X134115058Y-101468697D01*
X137314942Y-101468697D01*
X137540493Y-101760231D01*
X137940850Y-101984660D01*
X138377298Y-102126670D01*
X138833065Y-102180805D01*
X139290635Y-102144983D01*
X139732425Y-102020582D01*
X140141457Y-101812383D01*
X140219507Y-101760231D01*
X140445058Y-101468697D01*
X138880000Y-99903640D01*
X137314942Y-101468697D01*
X134115058Y-101468697D01*
X132550000Y-99903640D01*
X130984942Y-101468697D01*
X127889917Y-101468697D01*
X128825595Y-100533020D01*
X128840658Y-100520658D01*
X128853020Y-100505595D01*
X128853026Y-100505589D01*
X128890019Y-100460512D01*
X128926698Y-100391892D01*
X128949284Y-100317433D01*
X128952541Y-100284365D01*
X128955000Y-100259401D01*
X128955000Y-100259394D01*
X128956910Y-100240000D01*
X128955000Y-100220606D01*
X128955000Y-99793065D01*
X130209195Y-99793065D01*
X130245017Y-100250635D01*
X130369418Y-100692425D01*
X130577617Y-101101457D01*
X130629769Y-101179507D01*
X130921303Y-101405058D01*
X132486360Y-99840000D01*
X132613640Y-99840000D01*
X134178697Y-101405058D01*
X134470231Y-101179507D01*
X134694660Y-100779150D01*
X134836670Y-100342702D01*
X134890805Y-99886935D01*
X134883457Y-99793065D01*
X136539195Y-99793065D01*
X136575017Y-100250635D01*
X136699418Y-100692425D01*
X136907617Y-101101457D01*
X136959769Y-101179507D01*
X137251303Y-101405058D01*
X138816360Y-99840000D01*
X138943640Y-99840000D01*
X140508697Y-101405058D01*
X140800231Y-101179507D01*
X141024660Y-100779150D01*
X141166670Y-100342702D01*
X141220805Y-99886935D01*
X141184983Y-99429365D01*
X141060582Y-98987575D01*
X140852383Y-98578543D01*
X140800231Y-98500493D01*
X140508697Y-98274942D01*
X138943640Y-99840000D01*
X138816360Y-99840000D01*
X137251303Y-98274942D01*
X136959769Y-98500493D01*
X136735340Y-98900850D01*
X136593330Y-99337298D01*
X136539195Y-99793065D01*
X134883457Y-99793065D01*
X134854983Y-99429365D01*
X134730582Y-98987575D01*
X134522383Y-98578543D01*
X134470231Y-98500493D01*
X134178697Y-98274942D01*
X132613640Y-99840000D01*
X132486360Y-99840000D01*
X130921303Y-98274942D01*
X130629769Y-98500493D01*
X130405340Y-98900850D01*
X130263330Y-99337298D01*
X130209195Y-99793065D01*
X128955000Y-99793065D01*
X128955000Y-98783613D01*
X129527310Y-98211303D01*
X130984942Y-98211303D01*
X132550000Y-99776360D01*
X134115058Y-98211303D01*
X137314942Y-98211303D01*
X138880000Y-99776360D01*
X140445058Y-98211303D01*
X140219507Y-97919769D01*
X139819150Y-97695340D01*
X139382702Y-97553330D01*
X138926935Y-97499195D01*
X138469365Y-97535017D01*
X138027575Y-97659418D01*
X137618543Y-97867617D01*
X137540493Y-97919769D01*
X137314942Y-98211303D01*
X134115058Y-98211303D01*
X133889507Y-97919769D01*
X133489150Y-97695340D01*
X133052702Y-97553330D01*
X132596935Y-97499195D01*
X132139365Y-97535017D01*
X131697575Y-97659418D01*
X131288543Y-97867617D01*
X131210493Y-97919769D01*
X130984942Y-98211303D01*
X129527310Y-98211303D01*
X131383614Y-96355000D01*
X141316387Y-96355000D01*
X142065001Y-97103615D01*
X142065000Y-101440606D01*
X142063090Y-101460000D01*
X142065000Y-101479394D01*
X142065000Y-101479400D01*
X142068079Y-101510658D01*
X142070716Y-101537433D01*
X142072417Y-101543041D01*
X142093302Y-101611890D01*
X142129981Y-101680511D01*
X142179342Y-101740658D01*
X142194416Y-101753029D01*
X143586975Y-103145589D01*
X143599342Y-103160658D01*
X143659488Y-103210019D01*
X143728109Y-103246698D01*
X143775024Y-103260929D01*
X143802566Y-103269284D01*
X143810614Y-103270077D01*
X143860599Y-103275000D01*
X143860605Y-103275000D01*
X143879999Y-103276910D01*
X143899393Y-103275000D01*
X150170606Y-103275000D01*
X150190000Y-103276910D01*
X150209394Y-103275000D01*
X150209401Y-103275000D01*
X150267433Y-103269284D01*
X150341891Y-103246698D01*
X150410512Y-103210019D01*
X150470658Y-103160658D01*
X150483029Y-103145584D01*
X151110662Y-102517952D01*
X151236017Y-102396525D01*
X151342378Y-102300542D01*
X151435833Y-102222249D01*
X151521585Y-102155085D01*
X151605224Y-102092418D01*
X151689089Y-102029998D01*
X151692695Y-102027268D01*
X151779188Y-101960612D01*
X151785956Y-101955220D01*
X151878276Y-101879236D01*
X151886336Y-101872333D01*
X151988232Y-101781521D01*
X151996034Y-101774287D01*
X152034473Y-101737211D01*
X152042861Y-101731606D01*
X152186606Y-101587861D01*
X152299546Y-101418835D01*
X152377340Y-101231023D01*
X152417000Y-101031643D01*
X152417000Y-100828357D01*
X152377340Y-100628977D01*
X152299546Y-100441165D01*
X152186606Y-100272139D01*
X152042861Y-100128394D01*
X151873835Y-100015454D01*
X151686023Y-99937660D01*
X151486643Y-99898000D01*
X151283357Y-99898000D01*
X151083977Y-99937660D01*
X150896165Y-100015454D01*
X150727139Y-100128394D01*
X150583394Y-100272139D01*
X150470454Y-100441165D01*
X150392660Y-100628977D01*
X150353000Y-100828357D01*
X150353000Y-101031643D01*
X150392660Y-101231023D01*
X150470454Y-101418835D01*
X150488142Y-101445307D01*
X150501164Y-101472117D01*
X150503329Y-101476474D01*
X150551699Y-101571657D01*
X150592306Y-101654645D01*
X150620795Y-101722114D01*
X150636069Y-101772452D01*
X150640532Y-101805776D01*
X150638693Y-101828808D01*
X150630017Y-101855334D01*
X150605065Y-101897340D01*
X150546771Y-101964615D01*
X150026387Y-102485000D01*
X144043614Y-102485000D01*
X142855000Y-101296387D01*
X142855000Y-96959390D01*
X142856910Y-96939999D01*
X142855000Y-96920608D01*
X142855000Y-96920599D01*
X142849284Y-96862567D01*
X142826698Y-96788109D01*
X142790019Y-96719488D01*
X142740658Y-96659342D01*
X142725589Y-96646975D01*
X141773029Y-95694416D01*
X141760658Y-95679342D01*
X141700512Y-95629981D01*
X141631891Y-95593302D01*
X141557433Y-95570716D01*
X141499401Y-95565000D01*
X141499394Y-95565000D01*
X141480000Y-95563090D01*
X141460606Y-95565000D01*
X131239393Y-95565000D01*
X131219999Y-95563090D01*
X131200605Y-95565000D01*
X131200599Y-95565000D01*
X131150614Y-95569923D01*
X131142566Y-95570716D01*
X131119980Y-95577568D01*
X131068109Y-95593302D01*
X130999488Y-95629981D01*
X130939342Y-95679342D01*
X130926975Y-95694411D01*
X128294416Y-98326971D01*
X128279342Y-98339342D01*
X128229981Y-98399489D01*
X128193302Y-98468110D01*
X128170716Y-98542568D01*
X128165000Y-98600600D01*
X128165000Y-98600606D01*
X128163090Y-98620000D01*
X128165000Y-98639394D01*
X128165001Y-100076384D01*
X126136387Y-102105000D01*
X123609393Y-102105000D01*
X123589999Y-102103090D01*
X123570605Y-102105000D01*
X123570599Y-102105000D01*
X123520614Y-102109923D01*
X123512566Y-102110716D01*
X123489980Y-102117568D01*
X123438109Y-102133302D01*
X123369488Y-102169981D01*
X123309342Y-102219342D01*
X123296975Y-102234411D01*
X122874416Y-102656971D01*
X122859342Y-102669342D01*
X122809981Y-102729489D01*
X122773302Y-102798110D01*
X122763629Y-102830000D01*
X122752497Y-102866698D01*
X122750716Y-102872568D01*
X122745000Y-102930600D01*
X122745000Y-102930606D01*
X122743090Y-102950000D01*
X122745000Y-102969394D01*
X122745000Y-103073350D01*
X122737428Y-103227051D01*
X122718656Y-103337521D01*
X122691904Y-103421340D01*
X122657529Y-103491813D01*
X122612370Y-103561352D01*
X122553172Y-103638840D01*
X122482471Y-103727300D01*
X122477875Y-103733218D01*
X122402111Y-103833602D01*
X122392054Y-103847863D01*
X122315217Y-103964660D01*
X122303325Y-103984545D01*
X122270077Y-104045981D01*
X122236088Y-104096849D01*
X122159198Y-104282477D01*
X122120000Y-104479539D01*
X121620000Y-104479539D01*
X121580802Y-104282477D01*
X121503912Y-104096849D01*
X121392285Y-103929788D01*
X121345161Y-103882664D01*
X121297074Y-103826673D01*
X121278999Y-103807591D01*
X121167660Y-103700958D01*
X121159696Y-103693631D01*
X121050181Y-103596854D01*
X120995000Y-103546092D01*
X120995000Y-103323613D01*
X121675589Y-102643025D01*
X121690658Y-102630658D01*
X121740019Y-102570512D01*
X121776698Y-102501891D01*
X121799284Y-102427433D01*
X121805000Y-102369401D01*
X121805000Y-102369394D01*
X121806910Y-102350000D01*
X121805000Y-102330606D01*
X121805000Y-101041697D01*
X121842660Y-101231023D01*
X121920454Y-101418835D01*
X122033394Y-101587861D01*
X122177139Y-101731606D01*
X122346165Y-101844546D01*
X122533977Y-101922340D01*
X122733357Y-101962000D01*
X122936643Y-101962000D01*
X123136023Y-101922340D01*
X123323835Y-101844546D01*
X123492861Y-101731606D01*
X123636606Y-101587861D01*
X123749546Y-101418835D01*
X123827340Y-101231023D01*
X123867000Y-101031643D01*
X123867000Y-100828357D01*
X124573000Y-100828357D01*
X124573000Y-101031643D01*
X124612660Y-101231023D01*
X124690454Y-101418835D01*
X124803394Y-101587861D01*
X124947139Y-101731606D01*
X125116165Y-101844546D01*
X125303977Y-101922340D01*
X125503357Y-101962000D01*
X125706643Y-101962000D01*
X125906023Y-101922340D01*
X126093835Y-101844546D01*
X126262861Y-101731606D01*
X126406606Y-101587861D01*
X126519546Y-101418835D01*
X126597340Y-101231023D01*
X126637000Y-101031643D01*
X126637000Y-100828357D01*
X126597340Y-100628977D01*
X126519546Y-100441165D01*
X126406606Y-100272139D01*
X126262861Y-100128394D01*
X126093835Y-100015454D01*
X125906023Y-99937660D01*
X125706643Y-99898000D01*
X125503357Y-99898000D01*
X125303977Y-99937660D01*
X125116165Y-100015454D01*
X124947139Y-100128394D01*
X124803394Y-100272139D01*
X124690454Y-100441165D01*
X124612660Y-100628977D01*
X124573000Y-100828357D01*
X123867000Y-100828357D01*
X123827340Y-100628977D01*
X123749546Y-100441165D01*
X123636606Y-100272139D01*
X123492861Y-100128394D01*
X123323835Y-100015454D01*
X123136023Y-99937660D01*
X122936643Y-99898000D01*
X122733357Y-99898000D01*
X122533977Y-99937660D01*
X122346165Y-100015454D01*
X122177139Y-100128394D01*
X122033394Y-100272139D01*
X121920454Y-100441165D01*
X121842660Y-100628977D01*
X121805000Y-100818303D01*
X121805000Y-100273613D01*
X122233614Y-99845000D01*
X125310606Y-99845000D01*
X125330000Y-99846910D01*
X125349394Y-99845000D01*
X125349401Y-99845000D01*
X125407433Y-99839284D01*
X125481891Y-99816698D01*
X125550512Y-99780019D01*
X125610658Y-99730658D01*
X125623029Y-99715584D01*
X131038985Y-94299628D01*
X142575498Y-94299628D01*
X142575498Y-94440372D01*
X142602956Y-94578412D01*
X142656816Y-94708443D01*
X142735010Y-94825467D01*
X142834531Y-94924988D01*
X142951555Y-95003182D01*
X143081586Y-95057042D01*
X143099521Y-95060610D01*
X143122233Y-95068699D01*
X143177594Y-95090022D01*
X143223086Y-95109746D01*
X143261639Y-95129125D01*
X143297171Y-95150065D01*
X143333711Y-95175126D01*
X143374680Y-95207135D01*
X143422459Y-95248497D01*
X143478790Y-95301058D01*
X143545871Y-95366919D01*
X143936001Y-95757049D01*
X143936000Y-99524271D01*
X143933466Y-99550000D01*
X143936000Y-99575729D01*
X143936000Y-99575738D01*
X143943582Y-99652721D01*
X143973545Y-99751495D01*
X144022202Y-99842527D01*
X144087684Y-99922316D01*
X144107677Y-99938724D01*
X144390128Y-100221176D01*
X144499320Y-100337774D01*
X144576711Y-100434836D01*
X144631457Y-100518981D01*
X144670736Y-100596099D01*
X144701050Y-100674043D01*
X144727287Y-100760707D01*
X144753318Y-100861849D01*
X144782275Y-100977073D01*
X144783932Y-100983349D01*
X144819458Y-101111587D01*
X144822849Y-101122866D01*
X144844276Y-101188874D01*
X144852660Y-101231023D01*
X144930454Y-101418835D01*
X145043394Y-101587861D01*
X145187139Y-101731606D01*
X145356165Y-101844546D01*
X145543977Y-101922340D01*
X145743357Y-101962000D01*
X145946643Y-101962000D01*
X146146023Y-101922340D01*
X146333835Y-101844546D01*
X146502861Y-101731606D01*
X146646606Y-101587861D01*
X146759546Y-101418835D01*
X146837340Y-101231023D01*
X146877000Y-101031643D01*
X146877000Y-100828357D01*
X146837340Y-100628977D01*
X146759546Y-100441165D01*
X146646606Y-100272139D01*
X146502861Y-100128394D01*
X146333835Y-100015454D01*
X146146023Y-99937660D01*
X146099101Y-99928326D01*
X146028908Y-99906247D01*
X146017730Y-99902995D01*
X145889536Y-99868668D01*
X145883459Y-99867116D01*
X145768452Y-99839166D01*
X145667659Y-99813949D01*
X145581461Y-99788366D01*
X145504022Y-99758612D01*
X145427436Y-99719870D01*
X145343802Y-99665648D01*
X145247247Y-99588780D01*
X145131148Y-99480101D01*
X144984000Y-99332953D01*
X144984000Y-95565729D01*
X144986534Y-95540000D01*
X144984000Y-95514271D01*
X144984000Y-95514261D01*
X144976418Y-95437278D01*
X144946455Y-95338504D01*
X144910159Y-95270599D01*
X144897798Y-95247472D01*
X144848724Y-95187676D01*
X144848720Y-95187672D01*
X144832316Y-95167684D01*
X144812328Y-95151280D01*
X144286918Y-94625871D01*
X144221061Y-94558794D01*
X144168491Y-94502452D01*
X144127133Y-94454679D01*
X144095129Y-94413714D01*
X144070065Y-94377170D01*
X144049124Y-94341640D01*
X144029743Y-94303080D01*
X144010015Y-94257582D01*
X143988698Y-94202239D01*
X143980608Y-94179525D01*
X143977040Y-94161588D01*
X143923180Y-94031557D01*
X143844986Y-93914533D01*
X143745465Y-93815012D01*
X143628441Y-93736818D01*
X143498410Y-93682958D01*
X143360370Y-93655500D01*
X143219626Y-93655500D01*
X143081586Y-93682958D01*
X142951555Y-93736818D01*
X142834531Y-93815012D01*
X142735010Y-93914533D01*
X142656816Y-94031557D01*
X142602956Y-94161588D01*
X142575498Y-94299628D01*
X131038985Y-94299628D01*
X131943614Y-93395000D01*
X146176387Y-93395000D01*
X148235001Y-95453615D01*
X148235001Y-97852625D01*
X148222340Y-97788977D01*
X148144546Y-97601165D01*
X148031606Y-97432139D01*
X147887861Y-97288394D01*
X147718835Y-97175454D01*
X147531023Y-97097660D01*
X147331643Y-97058000D01*
X147128357Y-97058000D01*
X146928977Y-97097660D01*
X146741165Y-97175454D01*
X146572139Y-97288394D01*
X146428394Y-97432139D01*
X146315454Y-97601165D01*
X146237660Y-97788977D01*
X146198000Y-97988357D01*
X146198000Y-98191643D01*
X146237660Y-98391023D01*
X146315454Y-98578835D01*
X146428394Y-98747861D01*
X146572139Y-98891606D01*
X146741165Y-99004546D01*
X146928977Y-99082340D01*
X147128357Y-99122000D01*
X147331643Y-99122000D01*
X147531023Y-99082340D01*
X147718835Y-99004546D01*
X147887861Y-98891606D01*
X148031606Y-98747861D01*
X148144546Y-98578835D01*
X148222340Y-98391023D01*
X148235000Y-98327378D01*
X148235000Y-99698228D01*
X148227350Y-99803763D01*
X148211820Y-99864748D01*
X148192100Y-99905141D01*
X148164257Y-99941763D01*
X148120306Y-99984827D01*
X148056427Y-100038792D01*
X147981752Y-100101751D01*
X147969160Y-100113061D01*
X147893846Y-100185099D01*
X147873280Y-100207094D01*
X147847069Y-100238464D01*
X147813394Y-100272139D01*
X147700454Y-100441165D01*
X147622660Y-100628977D01*
X147583000Y-100828357D01*
X147583000Y-101031643D01*
X147622660Y-101231023D01*
X147700454Y-101418835D01*
X147813394Y-101587861D01*
X147957139Y-101731606D01*
X148126165Y-101844546D01*
X148313977Y-101922340D01*
X148513357Y-101962000D01*
X148716643Y-101962000D01*
X148916023Y-101922340D01*
X149103835Y-101844546D01*
X149272861Y-101731606D01*
X149416606Y-101587861D01*
X149529546Y-101418835D01*
X149607340Y-101231023D01*
X149647000Y-101031643D01*
X149647000Y-100828357D01*
X149607340Y-100628977D01*
X149529546Y-100441165D01*
X149488695Y-100380028D01*
X149487146Y-100377141D01*
X149465890Y-100343686D01*
X149451347Y-100324132D01*
X149416606Y-100272139D01*
X149401274Y-100256807D01*
X149396665Y-100250610D01*
X149375704Y-100225714D01*
X149302509Y-100148718D01*
X149288605Y-100135110D01*
X149214674Y-100067790D01*
X149213139Y-100066403D01*
X149148308Y-100008272D01*
X149101804Y-99960714D01*
X149071325Y-99919493D01*
X149049612Y-99874303D01*
X149032993Y-99808589D01*
X149025000Y-99698241D01*
X149025000Y-98838675D01*
X149314965Y-98838675D01*
X149391982Y-99003425D01*
X149581864Y-99104492D01*
X149787816Y-99166574D01*
X150001922Y-99187283D01*
X150215954Y-99165824D01*
X150421687Y-99103022D01*
X150608018Y-99003425D01*
X150685035Y-98838675D01*
X150000000Y-98153640D01*
X149314965Y-98838675D01*
X149025000Y-98838675D01*
X149025000Y-98582820D01*
X149086575Y-98698018D01*
X149251325Y-98775035D01*
X149936360Y-98090000D01*
X150063640Y-98090000D01*
X150748675Y-98775035D01*
X150913425Y-98698018D01*
X151014492Y-98508136D01*
X151076574Y-98302184D01*
X151097283Y-98088078D01*
X151075824Y-97874046D01*
X151013022Y-97668313D01*
X150913425Y-97481982D01*
X150748675Y-97404965D01*
X150063640Y-98090000D01*
X149936360Y-98090000D01*
X149251325Y-97404965D01*
X149086575Y-97481982D01*
X149025000Y-97597667D01*
X149025000Y-97341325D01*
X149314965Y-97341325D01*
X150000000Y-98026360D01*
X150685035Y-97341325D01*
X150608018Y-97176575D01*
X150418136Y-97075508D01*
X150212184Y-97013426D01*
X149998078Y-96992717D01*
X149784046Y-97014176D01*
X149578313Y-97076978D01*
X149391982Y-97176575D01*
X149314965Y-97341325D01*
X149025000Y-97341325D01*
X149025000Y-95309393D01*
X149026910Y-95289999D01*
X149025000Y-95270605D01*
X149025000Y-95270599D01*
X149019284Y-95212567D01*
X148996698Y-95138109D01*
X148960019Y-95069488D01*
X148910658Y-95009342D01*
X148895589Y-94996975D01*
X146633029Y-92734416D01*
X146620658Y-92719342D01*
X146560512Y-92669981D01*
X146491891Y-92633302D01*
X146417433Y-92610716D01*
X146359401Y-92605000D01*
X146359394Y-92605000D01*
X146340000Y-92603090D01*
X146320606Y-92605000D01*
X131799390Y-92605000D01*
X131779999Y-92603090D01*
X131760608Y-92605000D01*
X131760599Y-92605000D01*
X131702567Y-92610716D01*
X131628109Y-92633302D01*
X131559488Y-92669981D01*
X131499342Y-92719342D01*
X131486975Y-92734411D01*
X125166387Y-99055000D01*
X124587028Y-99055000D01*
X124708835Y-99004546D01*
X124877861Y-98891606D01*
X125021606Y-98747861D01*
X125134546Y-98578835D01*
X125212340Y-98391023D01*
X125252000Y-98191643D01*
X125252000Y-97988357D01*
X125212340Y-97788977D01*
X125134546Y-97601165D01*
X125021606Y-97432139D01*
X124877861Y-97288394D01*
X124708835Y-97175454D01*
X124521023Y-97097660D01*
X124321643Y-97058000D01*
X124118357Y-97058000D01*
X123918977Y-97097660D01*
X123731165Y-97175454D01*
X123562139Y-97288394D01*
X123418394Y-97432139D01*
X123305454Y-97601165D01*
X123227660Y-97788977D01*
X123188000Y-97988357D01*
X123188000Y-98191643D01*
X123227660Y-98391023D01*
X123305454Y-98578835D01*
X123418394Y-98747861D01*
X123562139Y-98891606D01*
X123731165Y-99004546D01*
X123852972Y-99055000D01*
X122089394Y-99055000D01*
X122070000Y-99053090D01*
X122050606Y-99055000D01*
X122050599Y-99055000D01*
X121999856Y-99059998D01*
X121992566Y-99060716D01*
X121983237Y-99063546D01*
X121918109Y-99083302D01*
X121849488Y-99119981D01*
X121789342Y-99169342D01*
X121776975Y-99184411D01*
X121144416Y-99816971D01*
X121129342Y-99829342D01*
X121079981Y-99889489D01*
X121043302Y-99958110D01*
X121020716Y-100032568D01*
X121015000Y-100090600D01*
X121015000Y-100090606D01*
X121013090Y-100110000D01*
X121015000Y-100129394D01*
X121015000Y-100526759D01*
X120979546Y-100441165D01*
X120866606Y-100272139D01*
X120820217Y-100225750D01*
X120805781Y-100208833D01*
X120784053Y-100186181D01*
X120736792Y-100142325D01*
X120722861Y-100128394D01*
X120718997Y-100125812D01*
X120709032Y-100116565D01*
X120695548Y-100104858D01*
X120620723Y-100044115D01*
X120620477Y-100043915D01*
X120556540Y-99992135D01*
X120512887Y-99951159D01*
X120486022Y-99917238D01*
X120467459Y-99880617D01*
X120452572Y-99824131D01*
X120445000Y-99722911D01*
X120445000Y-98327378D01*
X120457660Y-98391023D01*
X120535454Y-98578835D01*
X120648394Y-98747861D01*
X120792139Y-98891606D01*
X120961165Y-99004546D01*
X121148977Y-99082340D01*
X121348357Y-99122000D01*
X121551643Y-99122000D01*
X121751023Y-99082340D01*
X121938835Y-99004546D01*
X122107861Y-98891606D01*
X122251606Y-98747861D01*
X122364546Y-98578835D01*
X122442340Y-98391023D01*
X122482000Y-98191643D01*
X122482000Y-97988357D01*
X122442340Y-97788977D01*
X122364546Y-97601165D01*
X122251606Y-97432139D01*
X122206212Y-97386745D01*
X122197774Y-97376700D01*
X122175697Y-97353386D01*
X122130215Y-97310748D01*
X122107861Y-97288394D01*
X122102670Y-97284926D01*
X122101029Y-97283387D01*
X122087104Y-97271202D01*
X122012386Y-97210211D01*
X122011723Y-97209671D01*
X121947533Y-97157611D01*
X121903441Y-97116296D01*
X121876277Y-97082131D01*
X121857575Y-97045431D01*
X121842621Y-96989042D01*
X121835000Y-96887844D01*
X121835000Y-96433613D01*
X122693614Y-95575000D01*
X126160606Y-95575000D01*
X126180000Y-95576910D01*
X126199394Y-95575000D01*
X126199401Y-95575000D01*
X126257433Y-95569284D01*
X126331891Y-95546698D01*
X126400512Y-95510019D01*
X126460658Y-95460658D01*
X126473029Y-95445584D01*
X128525591Y-93393023D01*
X128540658Y-93380658D01*
X128590019Y-93320512D01*
X128626698Y-93251891D01*
X128648306Y-93180658D01*
X128649284Y-93177434D01*
X128651800Y-93151891D01*
X128655000Y-93119401D01*
X128655000Y-93119395D01*
X128656910Y-93100001D01*
X128655000Y-93080607D01*
X128655000Y-91086505D01*
X128662602Y-90928958D01*
X128681554Y-90814462D01*
X128708720Y-90726447D01*
X128743627Y-90651753D01*
X128789016Y-90577973D01*
X128847546Y-90496047D01*
X128915926Y-90403287D01*
X128921239Y-90395818D01*
X128993016Y-90291192D01*
X129003072Y-90275383D01*
X129074781Y-90153522D01*
X129085979Y-90132408D01*
X129106473Y-90089250D01*
X129123912Y-90063151D01*
X129200802Y-89877523D01*
X129240000Y-89680461D01*
X129240000Y-89479539D01*
X129200802Y-89282477D01*
X129123912Y-89096849D01*
X129012285Y-88929788D01*
X128870212Y-88787715D01*
X128768870Y-88720000D01*
X130211130Y-88720000D01*
X130109788Y-88787715D01*
X129967715Y-88929788D01*
X129856088Y-89096849D01*
X129779198Y-89282477D01*
X129740000Y-89479539D01*
X129740000Y-89680461D01*
X129779198Y-89877523D01*
X129856088Y-90063151D01*
X129967715Y-90230212D01*
X130109788Y-90372285D01*
X130276849Y-90483912D01*
X130462477Y-90560802D01*
X130659539Y-90600000D01*
X130860461Y-90600000D01*
X131057523Y-90560802D01*
X131243151Y-90483912D01*
X131410212Y-90372285D01*
X131552285Y-90230212D01*
X131663912Y-90063151D01*
X131740802Y-89877523D01*
X131780000Y-89680461D01*
X131780000Y-89479539D01*
X131740802Y-89282477D01*
X131663912Y-89096849D01*
X131552285Y-88929788D01*
X131410212Y-88787715D01*
X131308870Y-88720000D01*
X132751130Y-88720000D01*
X132649788Y-88787715D01*
X132507715Y-88929788D01*
X132396088Y-89096849D01*
X132319198Y-89282477D01*
X132280000Y-89479539D01*
X132280000Y-89680461D01*
X132319198Y-89877523D01*
X132396088Y-90063151D01*
X132507715Y-90230212D01*
X132573290Y-90295787D01*
X132650596Y-90382471D01*
X132699520Y-90453591D01*
X132734876Y-90521686D01*
X132764511Y-90595553D01*
X132794038Y-90681084D01*
X132794868Y-90683451D01*
X132828043Y-90776731D01*
X132834282Y-90792659D01*
X132875741Y-90889350D01*
X132887733Y-90913825D01*
X132944275Y-91015851D01*
X132946443Y-91019277D01*
X132952574Y-91039488D01*
X132953303Y-91041891D01*
X132989982Y-91110512D01*
X133039343Y-91170658D01*
X133054411Y-91183024D01*
X133506980Y-91635594D01*
X133519342Y-91650658D01*
X133534405Y-91663020D01*
X133534411Y-91663026D01*
X133579488Y-91700019D01*
X133648108Y-91736698D01*
X133722567Y-91759284D01*
X133780599Y-91765000D01*
X133780606Y-91765000D01*
X133800000Y-91766910D01*
X133819394Y-91765000D01*
X149406387Y-91765000D01*
X152375000Y-94733614D01*
X152375001Y-96907574D01*
X152367303Y-97007122D01*
X152352457Y-97061642D01*
X152333902Y-97097118D01*
X152306424Y-97130846D01*
X152261434Y-97172141D01*
X152196640Y-97223977D01*
X152194915Y-97225369D01*
X152141845Y-97268545D01*
X152112139Y-97288394D01*
X151968394Y-97432139D01*
X151855454Y-97601165D01*
X151777660Y-97788977D01*
X151738000Y-97988357D01*
X151738000Y-98191643D01*
X151777660Y-98391023D01*
X151855454Y-98578835D01*
X151968394Y-98747861D01*
X152112139Y-98891606D01*
X152281165Y-99004546D01*
X152468977Y-99082340D01*
X152668357Y-99122000D01*
X152871643Y-99122000D01*
X153071023Y-99082340D01*
X153258835Y-99004546D01*
X153427861Y-98891606D01*
X153571606Y-98747861D01*
X153684546Y-98578835D01*
X153762340Y-98391023D01*
X153802000Y-98191643D01*
X153802000Y-97988357D01*
X154508000Y-97988357D01*
X154508000Y-98191643D01*
X154547660Y-98391023D01*
X154625454Y-98578835D01*
X154738394Y-98747861D01*
X154882139Y-98891606D01*
X155051165Y-99004546D01*
X155238977Y-99082340D01*
X155438357Y-99122000D01*
X155641643Y-99122000D01*
X155841023Y-99082340D01*
X156028835Y-99004546D01*
X156197861Y-98891606D01*
X156341606Y-98747861D01*
X156454546Y-98578835D01*
X156532340Y-98391023D01*
X156572000Y-98191643D01*
X156572000Y-97988357D01*
X156532340Y-97788977D01*
X156454546Y-97601165D01*
X156341606Y-97432139D01*
X156197861Y-97288394D01*
X156028835Y-97175454D01*
X155841023Y-97097660D01*
X155641643Y-97058000D01*
X155438357Y-97058000D01*
X155238977Y-97097660D01*
X155051165Y-97175454D01*
X154882139Y-97288394D01*
X154738394Y-97432139D01*
X154625454Y-97601165D01*
X154547660Y-97788977D01*
X154508000Y-97988357D01*
X153802000Y-97988357D01*
X153762340Y-97788977D01*
X153684546Y-97601165D01*
X153571606Y-97432139D01*
X153427861Y-97288394D01*
X153398150Y-97268542D01*
X153345084Y-97225369D01*
X153343359Y-97223977D01*
X153278565Y-97172141D01*
X153233575Y-97130846D01*
X153206097Y-97097118D01*
X153187542Y-97061642D01*
X153172698Y-97007127D01*
X153165000Y-96907571D01*
X153165000Y-95508935D01*
X155770000Y-95508935D01*
X155770000Y-95631065D01*
X155793826Y-95750847D01*
X155840563Y-95863680D01*
X155908414Y-95965227D01*
X155994773Y-96051586D01*
X156096320Y-96119437D01*
X156209153Y-96166174D01*
X156235019Y-96171319D01*
X156256752Y-96178302D01*
X156267073Y-96181392D01*
X156324316Y-96197295D01*
X156329597Y-96198705D01*
X156380225Y-96211672D01*
X156421214Y-96222569D01*
X156451165Y-96231970D01*
X156473933Y-96241106D01*
X156495380Y-96252282D01*
X156521169Y-96269307D01*
X156555075Y-96296550D01*
X156601629Y-96340243D01*
X157495001Y-97233615D01*
X157495000Y-99793897D01*
X157493327Y-99808059D01*
X157408701Y-99892686D01*
X157389864Y-99894546D01*
X157274037Y-99893960D01*
X157134136Y-99889578D01*
X157125167Y-99889446D01*
X156975976Y-99889731D01*
X156952092Y-99890836D01*
X156873142Y-99898000D01*
X156823357Y-99898000D01*
X156623977Y-99937660D01*
X156436165Y-100015454D01*
X156267139Y-100128394D01*
X156123394Y-100272139D01*
X156010454Y-100441165D01*
X155932660Y-100628977D01*
X155893000Y-100828357D01*
X155893000Y-101031643D01*
X155932660Y-101231023D01*
X156010454Y-101418835D01*
X156123394Y-101587861D01*
X156267139Y-101731606D01*
X156436165Y-101844546D01*
X156623977Y-101922340D01*
X156823357Y-101962000D01*
X157026643Y-101962000D01*
X157226023Y-101922340D01*
X157413835Y-101844546D01*
X157582861Y-101731606D01*
X157726606Y-101587861D01*
X157806229Y-101468697D01*
X162304942Y-101468697D01*
X162530493Y-101760231D01*
X162930850Y-101984660D01*
X163367298Y-102126670D01*
X163823065Y-102180805D01*
X164280635Y-102144983D01*
X164722425Y-102020582D01*
X165131457Y-101812383D01*
X165209507Y-101760231D01*
X165435058Y-101468697D01*
X163870000Y-99903640D01*
X162304942Y-101468697D01*
X157806229Y-101468697D01*
X157839546Y-101418835D01*
X157917340Y-101231023D01*
X157957000Y-101031643D01*
X157957000Y-100938822D01*
X157964338Y-100826592D01*
X157981247Y-100747016D01*
X158006331Y-100678409D01*
X158041056Y-100608392D01*
X158085948Y-100529113D01*
X158087304Y-100526689D01*
X158135848Y-100438865D01*
X158144504Y-100421804D01*
X158189112Y-100325575D01*
X158200466Y-100296891D01*
X158237202Y-100185945D01*
X158246197Y-100151188D01*
X158249016Y-100136262D01*
X158256698Y-100121891D01*
X158279284Y-100047433D01*
X158285000Y-99989401D01*
X158285000Y-99989395D01*
X158286910Y-99970001D01*
X158285000Y-99950607D01*
X158285000Y-99793065D01*
X161529195Y-99793065D01*
X161565017Y-100250635D01*
X161689418Y-100692425D01*
X161897617Y-101101457D01*
X161949769Y-101179507D01*
X162241303Y-101405058D01*
X163806360Y-99840000D01*
X163933640Y-99840000D01*
X165498697Y-101405058D01*
X165790231Y-101179507D01*
X166014660Y-100779150D01*
X166156670Y-100342702D01*
X166210805Y-99886935D01*
X166174983Y-99429365D01*
X166050582Y-98987575D01*
X165842383Y-98578543D01*
X165790231Y-98500493D01*
X165498697Y-98274942D01*
X163933640Y-99840000D01*
X163806360Y-99840000D01*
X162241303Y-98274942D01*
X161949769Y-98500493D01*
X161725340Y-98900850D01*
X161583330Y-99337298D01*
X161529195Y-99793065D01*
X158285000Y-99793065D01*
X158285000Y-98211303D01*
X162304942Y-98211303D01*
X163870000Y-99776360D01*
X165435058Y-98211303D01*
X165209507Y-97919769D01*
X164809150Y-97695340D01*
X164372702Y-97553330D01*
X163916935Y-97499195D01*
X163459365Y-97535017D01*
X163017575Y-97659418D01*
X162608543Y-97867617D01*
X162530493Y-97919769D01*
X162304942Y-98211303D01*
X158285000Y-98211303D01*
X158285000Y-97089390D01*
X158286910Y-97069999D01*
X158285000Y-97050608D01*
X158285000Y-97050599D01*
X158279284Y-96992567D01*
X158256698Y-96918109D01*
X158220019Y-96849488D01*
X158170658Y-96789342D01*
X158155589Y-96776975D01*
X157160243Y-95781629D01*
X157116550Y-95735075D01*
X157089307Y-95701169D01*
X157072282Y-95675380D01*
X157061106Y-95653933D01*
X157051970Y-95631165D01*
X157042569Y-95601214D01*
X157031672Y-95560225D01*
X157018705Y-95509597D01*
X157017295Y-95504316D01*
X157001392Y-95447073D01*
X156998302Y-95436752D01*
X156991319Y-95415019D01*
X156986174Y-95389153D01*
X156939437Y-95276320D01*
X156871586Y-95174773D01*
X156785227Y-95088414D01*
X156683680Y-95020563D01*
X156570847Y-94973826D01*
X156451065Y-94950000D01*
X156328935Y-94950000D01*
X156209153Y-94973826D01*
X156096320Y-95020563D01*
X155994773Y-95088414D01*
X155908414Y-95174773D01*
X155840563Y-95276320D01*
X155793826Y-95389153D01*
X155770000Y-95508935D01*
X153165000Y-95508935D01*
X153165000Y-94589390D01*
X153166910Y-94569999D01*
X153165000Y-94550608D01*
X153165000Y-94550599D01*
X153159284Y-94492567D01*
X153136698Y-94418109D01*
X153100019Y-94349488D01*
X153050658Y-94289342D01*
X153035591Y-94276977D01*
X149863029Y-91104416D01*
X149850658Y-91089342D01*
X149790512Y-91039981D01*
X149721891Y-91003302D01*
X149647433Y-90980716D01*
X149589401Y-90975000D01*
X149589394Y-90975000D01*
X149570000Y-90973090D01*
X149550606Y-90975000D01*
X133963614Y-90975000D01*
X133744681Y-90756067D01*
X133715000Y-90718608D01*
X133715000Y-90642374D01*
X133741718Y-90607197D01*
X133817932Y-90526138D01*
X133913178Y-90430217D01*
X133919326Y-90423819D01*
X134017777Y-90317928D01*
X134033223Y-90299768D01*
X134069828Y-90252669D01*
X134092285Y-90230212D01*
X134122953Y-90184314D01*
X134123456Y-90183667D01*
X134145174Y-90151100D01*
X134145330Y-90150825D01*
X134203912Y-90063151D01*
X134280802Y-89877523D01*
X134320000Y-89680461D01*
X134320000Y-89479539D01*
X134280802Y-89282477D01*
X134203912Y-89096849D01*
X134092285Y-88929788D01*
X133950212Y-88787715D01*
X133848870Y-88720000D01*
X135291130Y-88720000D01*
X135189788Y-88787715D01*
X135047715Y-88929788D01*
X134936088Y-89096849D01*
X134859198Y-89282477D01*
X134820000Y-89479539D01*
X134820000Y-89680461D01*
X134859198Y-89877523D01*
X134936088Y-90063151D01*
X135047715Y-90230212D01*
X135189788Y-90372285D01*
X135356849Y-90483912D01*
X135542477Y-90560802D01*
X135739539Y-90600000D01*
X135940461Y-90600000D01*
X136137523Y-90560802D01*
X136323151Y-90483912D01*
X136490212Y-90372285D01*
X136632285Y-90230212D01*
X136743912Y-90063151D01*
X136820802Y-89877523D01*
X136860000Y-89680461D01*
X136860000Y-89479539D01*
X136820802Y-89282477D01*
X136743912Y-89096849D01*
X136632285Y-88929788D01*
X136490212Y-88787715D01*
X136388870Y-88720000D01*
X137831130Y-88720000D01*
X137729788Y-88787715D01*
X137587715Y-88929788D01*
X137476088Y-89096849D01*
X137399198Y-89282477D01*
X137360000Y-89479539D01*
X137360000Y-89680461D01*
X137399198Y-89877523D01*
X137476088Y-90063151D01*
X137587715Y-90230212D01*
X137729788Y-90372285D01*
X137896849Y-90483912D01*
X138082477Y-90560802D01*
X138279539Y-90600000D01*
X138480461Y-90600000D01*
X138677523Y-90560802D01*
X138863151Y-90483912D01*
X139030212Y-90372285D01*
X139172285Y-90230212D01*
X139283912Y-90063151D01*
X139360802Y-89877523D01*
X139400000Y-89680461D01*
X139400000Y-89479539D01*
X139360802Y-89282477D01*
X139283912Y-89096849D01*
X139172285Y-88929788D01*
X139030212Y-88787715D01*
X138928870Y-88720000D01*
X166410000Y-88720000D01*
X166410001Y-102218455D01*
X162948457Y-105680000D01*
X108501544Y-105680000D01*
X107301083Y-104479539D01*
X109420000Y-104479539D01*
X109420000Y-104680461D01*
X109459198Y-104877523D01*
X109536088Y-105063151D01*
X109647715Y-105230212D01*
X109789788Y-105372285D01*
X109956849Y-105483912D01*
X110142477Y-105560802D01*
X110339539Y-105600000D01*
X110540461Y-105600000D01*
X110737523Y-105560802D01*
X110923151Y-105483912D01*
X111090212Y-105372285D01*
X111132497Y-105330000D01*
X111898403Y-105330000D01*
X111904775Y-105394691D01*
X111923644Y-105456897D01*
X111954287Y-105514225D01*
X111995526Y-105564474D01*
X112045775Y-105605713D01*
X112103103Y-105636356D01*
X112165309Y-105655225D01*
X112230000Y-105661597D01*
X112852500Y-105660000D01*
X112935000Y-105577500D01*
X112935000Y-104625000D01*
X113025000Y-104625000D01*
X113025000Y-105577500D01*
X113107500Y-105660000D01*
X113730000Y-105661597D01*
X113794691Y-105655225D01*
X113856897Y-105636356D01*
X113914225Y-105605713D01*
X113964474Y-105564474D01*
X114005713Y-105514225D01*
X114036356Y-105456897D01*
X114055225Y-105394691D01*
X114061597Y-105330000D01*
X114060000Y-104707500D01*
X113977500Y-104625000D01*
X113025000Y-104625000D01*
X112935000Y-104625000D01*
X111982500Y-104625000D01*
X111900000Y-104707500D01*
X111898403Y-105330000D01*
X111132497Y-105330000D01*
X111232285Y-105230212D01*
X111343912Y-105063151D01*
X111420802Y-104877523D01*
X111460000Y-104680461D01*
X111460000Y-104479539D01*
X111420802Y-104282477D01*
X111343912Y-104096849D01*
X111232285Y-103929788D01*
X111132497Y-103830000D01*
X111898403Y-103830000D01*
X111900000Y-104452500D01*
X111982500Y-104535000D01*
X112935000Y-104535000D01*
X112935000Y-103582500D01*
X113025000Y-103582500D01*
X113025000Y-104535000D01*
X113977500Y-104535000D01*
X114032961Y-104479539D01*
X114500000Y-104479539D01*
X114500000Y-104680461D01*
X114539198Y-104877523D01*
X114616088Y-105063151D01*
X114727715Y-105230212D01*
X114869788Y-105372285D01*
X115036849Y-105483912D01*
X115222477Y-105560802D01*
X115419539Y-105600000D01*
X115620461Y-105600000D01*
X115817523Y-105560802D01*
X116003151Y-105483912D01*
X116170212Y-105372285D01*
X116312285Y-105230212D01*
X116423912Y-105063151D01*
X116500802Y-104877523D01*
X116540000Y-104680461D01*
X116540000Y-104479539D01*
X117040000Y-104479539D01*
X117040000Y-104680461D01*
X117079198Y-104877523D01*
X117156088Y-105063151D01*
X117267715Y-105230212D01*
X117409788Y-105372285D01*
X117576849Y-105483912D01*
X117762477Y-105560802D01*
X117959539Y-105600000D01*
X118160461Y-105600000D01*
X118357523Y-105560802D01*
X118543151Y-105483912D01*
X118710212Y-105372285D01*
X118852285Y-105230212D01*
X118963912Y-105063151D01*
X119040802Y-104877523D01*
X119080000Y-104680461D01*
X119080000Y-104479539D01*
X119040802Y-104282477D01*
X118963912Y-104096849D01*
X118852285Y-103929788D01*
X118710212Y-103787715D01*
X118543151Y-103676088D01*
X118357523Y-103599198D01*
X118160461Y-103560000D01*
X117959539Y-103560000D01*
X117762477Y-103599198D01*
X117576849Y-103676088D01*
X117409788Y-103787715D01*
X117267715Y-103929788D01*
X117156088Y-104096849D01*
X117079198Y-104282477D01*
X117040000Y-104479539D01*
X116540000Y-104479539D01*
X116500802Y-104282477D01*
X116423912Y-104096849D01*
X116312285Y-103929788D01*
X116170212Y-103787715D01*
X116003151Y-103676088D01*
X115817523Y-103599198D01*
X115620461Y-103560000D01*
X115419539Y-103560000D01*
X115222477Y-103599198D01*
X115036849Y-103676088D01*
X114869788Y-103787715D01*
X114727715Y-103929788D01*
X114616088Y-104096849D01*
X114539198Y-104282477D01*
X114500000Y-104479539D01*
X114032961Y-104479539D01*
X114060000Y-104452500D01*
X114061597Y-103830000D01*
X114055225Y-103765309D01*
X114036356Y-103703103D01*
X114005713Y-103645775D01*
X113964474Y-103595526D01*
X113914225Y-103554287D01*
X113856897Y-103523644D01*
X113794691Y-103504775D01*
X113730000Y-103498403D01*
X113107500Y-103500000D01*
X113025000Y-103582500D01*
X112935000Y-103582500D01*
X112852500Y-103500000D01*
X112230000Y-103498403D01*
X112165309Y-103504775D01*
X112103103Y-103523644D01*
X112045775Y-103554287D01*
X111995526Y-103595526D01*
X111954287Y-103645775D01*
X111923644Y-103703103D01*
X111904775Y-103765309D01*
X111898403Y-103830000D01*
X111132497Y-103830000D01*
X111090212Y-103787715D01*
X110923151Y-103676088D01*
X110737523Y-103599198D01*
X110540461Y-103560000D01*
X110339539Y-103560000D01*
X110142477Y-103599198D01*
X109956849Y-103676088D01*
X109789788Y-103787715D01*
X109647715Y-103929788D01*
X109536088Y-104096849D01*
X109459198Y-104282477D01*
X109420000Y-104479539D01*
X107301083Y-104479539D01*
X105040000Y-102218457D01*
X105040000Y-101468697D01*
X105994942Y-101468697D01*
X106220493Y-101760231D01*
X106620850Y-101984660D01*
X107057298Y-102126670D01*
X107513065Y-102180805D01*
X107970635Y-102144983D01*
X108412425Y-102020582D01*
X108821457Y-101812383D01*
X108899507Y-101760231D01*
X109125058Y-101468697D01*
X107560000Y-99903640D01*
X105994942Y-101468697D01*
X105040000Y-101468697D01*
X105040000Y-99793065D01*
X105219195Y-99793065D01*
X105255017Y-100250635D01*
X105379418Y-100692425D01*
X105587617Y-101101457D01*
X105639769Y-101179507D01*
X105931303Y-101405058D01*
X107496360Y-99840000D01*
X107623640Y-99840000D01*
X109188697Y-101405058D01*
X109480231Y-101179507D01*
X109677075Y-100828357D01*
X113493000Y-100828357D01*
X113493000Y-101031643D01*
X113532660Y-101231023D01*
X113610454Y-101418835D01*
X113723394Y-101587861D01*
X113867139Y-101731606D01*
X114036165Y-101844546D01*
X114223977Y-101922340D01*
X114423357Y-101962000D01*
X114626643Y-101962000D01*
X114826023Y-101922340D01*
X115013835Y-101844546D01*
X115182861Y-101731606D01*
X115326606Y-101587861D01*
X115439546Y-101418835D01*
X115517340Y-101231023D01*
X115557000Y-101031643D01*
X115557000Y-100828357D01*
X116263000Y-100828357D01*
X116263000Y-101031643D01*
X116302660Y-101231023D01*
X116380454Y-101418835D01*
X116493394Y-101587861D01*
X116637139Y-101731606D01*
X116806165Y-101844546D01*
X116993977Y-101922340D01*
X117193357Y-101962000D01*
X117396643Y-101962000D01*
X117596023Y-101922340D01*
X117783835Y-101844546D01*
X117952861Y-101731606D01*
X118096606Y-101587861D01*
X118209546Y-101418835D01*
X118287340Y-101231023D01*
X118327000Y-101031643D01*
X118327000Y-100828357D01*
X118287340Y-100628977D01*
X118209546Y-100441165D01*
X118096606Y-100272139D01*
X117952861Y-100128394D01*
X117783835Y-100015454D01*
X117596023Y-99937660D01*
X117396643Y-99898000D01*
X117193357Y-99898000D01*
X116993977Y-99937660D01*
X116806165Y-100015454D01*
X116637139Y-100128394D01*
X116493394Y-100272139D01*
X116380454Y-100441165D01*
X116302660Y-100628977D01*
X116263000Y-100828357D01*
X115557000Y-100828357D01*
X115517340Y-100628977D01*
X115439546Y-100441165D01*
X115326606Y-100272139D01*
X115182861Y-100128394D01*
X115013835Y-100015454D01*
X114826023Y-99937660D01*
X114626643Y-99898000D01*
X114423357Y-99898000D01*
X114223977Y-99937660D01*
X114036165Y-100015454D01*
X113867139Y-100128394D01*
X113723394Y-100272139D01*
X113610454Y-100441165D01*
X113532660Y-100628977D01*
X113493000Y-100828357D01*
X109677075Y-100828357D01*
X109704660Y-100779150D01*
X109846670Y-100342702D01*
X109900805Y-99886935D01*
X109864983Y-99429365D01*
X109740582Y-98987575D01*
X109532383Y-98578543D01*
X109480231Y-98500493D01*
X109188697Y-98274942D01*
X107623640Y-99840000D01*
X107496360Y-99840000D01*
X105931303Y-98274942D01*
X105639769Y-98500493D01*
X105415340Y-98900850D01*
X105273330Y-99337298D01*
X105219195Y-99793065D01*
X105040000Y-99793065D01*
X105040000Y-98211303D01*
X105994942Y-98211303D01*
X107560000Y-99776360D01*
X109125058Y-98211303D01*
X108952572Y-97988357D01*
X114878000Y-97988357D01*
X114878000Y-98191643D01*
X114917660Y-98391023D01*
X114995454Y-98578835D01*
X115108394Y-98747861D01*
X115252139Y-98891606D01*
X115421165Y-99004546D01*
X115608977Y-99082340D01*
X115808357Y-99122000D01*
X116011643Y-99122000D01*
X116211023Y-99082340D01*
X116398835Y-99004546D01*
X116567861Y-98891606D01*
X116620792Y-98838675D01*
X117994965Y-98838675D01*
X118071982Y-99003425D01*
X118261864Y-99104492D01*
X118467816Y-99166574D01*
X118681922Y-99187283D01*
X118895954Y-99165824D01*
X119101687Y-99103022D01*
X119288018Y-99003425D01*
X119365035Y-98838675D01*
X118680000Y-98153640D01*
X117994965Y-98838675D01*
X116620792Y-98838675D01*
X116711606Y-98747861D01*
X116824546Y-98578835D01*
X116902340Y-98391023D01*
X116942000Y-98191643D01*
X116942000Y-98091922D01*
X117582717Y-98091922D01*
X117604176Y-98305954D01*
X117666978Y-98511687D01*
X117766575Y-98698018D01*
X117931325Y-98775035D01*
X118616360Y-98090000D01*
X117931325Y-97404965D01*
X117766575Y-97481982D01*
X117665508Y-97671864D01*
X117603426Y-97877816D01*
X117582717Y-98091922D01*
X116942000Y-98091922D01*
X116942000Y-97988357D01*
X116902340Y-97788977D01*
X116824546Y-97601165D01*
X116711606Y-97432139D01*
X116620792Y-97341325D01*
X117994965Y-97341325D01*
X118680000Y-98026360D01*
X119365035Y-97341325D01*
X119288018Y-97176575D01*
X119098136Y-97075508D01*
X118892184Y-97013426D01*
X118678078Y-96992717D01*
X118464046Y-97014176D01*
X118258313Y-97076978D01*
X118071982Y-97176575D01*
X117994965Y-97341325D01*
X116620792Y-97341325D01*
X116567861Y-97288394D01*
X116398835Y-97175454D01*
X116211023Y-97097660D01*
X116011643Y-97058000D01*
X115808357Y-97058000D01*
X115608977Y-97097660D01*
X115421165Y-97175454D01*
X115252139Y-97288394D01*
X115108394Y-97432139D01*
X114995454Y-97601165D01*
X114917660Y-97788977D01*
X114878000Y-97988357D01*
X108952572Y-97988357D01*
X108899507Y-97919769D01*
X108499150Y-97695340D01*
X108062702Y-97553330D01*
X107606935Y-97499195D01*
X107149365Y-97535017D01*
X106707575Y-97659418D01*
X106298543Y-97867617D01*
X106220493Y-97919769D01*
X105994942Y-98211303D01*
X105040000Y-98211303D01*
X105040000Y-88720000D01*
X109891130Y-88720000D01*
X109789788Y-88787715D01*
G37*
G04 #@! TD.AperFunction*
D18*
X122489788Y-88787715D02*
X122347715Y-88929788D01*
X122236088Y-89096849D01*
X122159198Y-89282477D01*
X122120000Y-89479539D01*
X122120000Y-89680461D01*
X122159198Y-89877523D01*
X122236088Y-90063151D01*
X122347715Y-90230212D01*
X122489788Y-90372285D01*
X122656849Y-90483912D01*
X122842477Y-90560802D01*
X123039539Y-90600000D01*
X123240461Y-90600000D01*
X123437523Y-90560802D01*
X123623151Y-90483912D01*
X123790212Y-90372285D01*
X123932285Y-90230212D01*
X124043912Y-90063151D01*
X124120802Y-89877523D01*
X124160000Y-89680461D01*
X124160000Y-89479539D01*
X124120802Y-89282477D01*
X124043912Y-89096849D01*
X123932285Y-88929788D01*
X123790212Y-88787715D01*
X123688870Y-88720000D01*
X125131130Y-88720000D01*
X125029788Y-88787715D01*
X124887715Y-88929788D01*
X124776088Y-89096849D01*
X124699198Y-89282477D01*
X124660000Y-89479539D01*
X124660000Y-89680461D01*
X124699198Y-89877523D01*
X124776088Y-90063151D01*
X124805808Y-90107630D01*
X124835791Y-90164818D01*
X124847526Y-90185023D01*
X124923114Y-90303093D01*
X124933191Y-90317747D01*
X125007987Y-90419191D01*
X125012778Y-90425494D01*
X125082954Y-90515050D01*
X125141977Y-90593585D01*
X125187221Y-90664176D01*
X125221736Y-90735673D01*
X125248599Y-90820519D01*
X125267419Y-90931972D01*
X125275000Y-91086621D01*
X125275001Y-92205704D01*
X125272977Y-92269526D01*
X125268267Y-92312749D01*
X125262066Y-92343047D01*
X125254803Y-92366112D01*
X125245167Y-92388666D01*
X125230648Y-92416469D01*
X125209330Y-92453225D01*
X125182723Y-92498158D01*
X125179993Y-92502877D01*
X125150760Y-92554599D01*
X125145640Y-92564094D01*
X125135208Y-92584405D01*
X125120565Y-92606320D01*
X125073828Y-92719153D01*
X125050002Y-92838935D01*
X125050002Y-92961065D01*
X125073828Y-93080847D01*
X125120565Y-93193680D01*
X125188416Y-93295227D01*
X125274775Y-93381586D01*
X125376322Y-93449437D01*
X125489155Y-93496174D01*
X125608937Y-93520000D01*
X125731067Y-93520000D01*
X125850849Y-93496174D01*
X125963682Y-93449437D01*
X126065229Y-93381586D01*
X126151588Y-93295227D01*
X126219439Y-93193680D01*
X126266176Y-93080847D01*
X126290002Y-92961065D01*
X126290002Y-92838935D01*
X126266176Y-92719153D01*
X126219439Y-92606320D01*
X126204794Y-92584402D01*
X126194357Y-92564083D01*
X126189241Y-92554596D01*
X126160008Y-92502874D01*
X126157274Y-92498149D01*
X126130654Y-92453197D01*
X126109364Y-92416488D01*
X126094830Y-92388656D01*
X126085194Y-92366106D01*
X126077930Y-92343036D01*
X126071733Y-92312758D01*
X126067022Y-92269526D01*
X126065000Y-92205735D01*
X126065000Y-91086682D01*
X126072562Y-90933913D01*
X126091284Y-90824404D01*
X126117923Y-90741593D01*
X126152147Y-90672137D01*
X126197227Y-90603610D01*
X126256545Y-90527203D01*
X126327776Y-90439802D01*
X126332169Y-90434266D01*
X126408882Y-90334941D01*
X126418906Y-90321075D01*
X126496970Y-90205553D01*
X126509005Y-90185999D01*
X126545478Y-90120671D01*
X126583912Y-90063151D01*
X126660802Y-89877523D01*
X126700000Y-89680461D01*
X126700000Y-89479539D01*
X126660802Y-89282477D01*
X126583912Y-89096849D01*
X126472285Y-88929788D01*
X126330212Y-88787715D01*
X126228870Y-88720000D01*
X127671130Y-88720000D01*
X127569788Y-88787715D01*
X127427715Y-88929788D01*
X127316088Y-89096849D01*
X127239198Y-89282477D01*
X127200000Y-89479539D01*
X127200000Y-89680461D01*
X127239198Y-89877523D01*
X127316088Y-90063151D01*
X127370428Y-90144476D01*
X127414755Y-90217022D01*
X127427148Y-90235541D01*
X127508758Y-90347227D01*
X127518610Y-90359901D01*
X127598061Y-90456067D01*
X127601787Y-90460480D01*
X127674546Y-90544806D01*
X127734098Y-90618008D01*
X127778881Y-90683592D01*
X127812616Y-90750097D01*
X127838905Y-90830007D01*
X127857468Y-90936713D01*
X127865000Y-91086783D01*
X127865000Y-91279400D01*
X127865001Y-91279410D01*
X127865000Y-92936386D01*
X126016387Y-94785000D01*
X122549394Y-94785000D01*
X122530000Y-94783090D01*
X122510606Y-94785000D01*
X122510599Y-94785000D01*
X122452567Y-94790716D01*
X122378109Y-94813302D01*
X122309488Y-94849981D01*
X122249342Y-94899342D01*
X122236975Y-94914411D01*
X121174411Y-95976976D01*
X121159343Y-95989342D01*
X121109982Y-96049488D01*
X121081331Y-96103090D01*
X121073303Y-96118109D01*
X121050716Y-96192567D01*
X121043090Y-96270000D01*
X121045001Y-96289404D01*
X121045001Y-96887836D01*
X121037113Y-96992492D01*
X121021324Y-97052264D01*
X121001089Y-97092384D01*
X120971906Y-97129791D01*
X120925840Y-97174256D01*
X120860799Y-97229256D01*
X120858889Y-97230886D01*
X120792191Y-97288360D01*
X120792139Y-97288394D01*
X120792067Y-97288466D01*
X120784663Y-97294846D01*
X120769777Y-97308683D01*
X120696431Y-97382196D01*
X120682506Y-97398027D01*
X120648394Y-97432139D01*
X120606063Y-97495491D01*
X120604860Y-97497046D01*
X120594342Y-97513033D01*
X120535454Y-97601165D01*
X120457660Y-97788977D01*
X120445000Y-97852622D01*
X120445000Y-96889393D01*
X120446910Y-96869999D01*
X120445000Y-96850605D01*
X120445000Y-96850599D01*
X120439284Y-96792567D01*
X120437932Y-96788108D01*
X120425764Y-96747996D01*
X120416698Y-96718109D01*
X120380019Y-96649488D01*
X120330658Y-96589342D01*
X120315589Y-96576975D01*
X120075000Y-96336387D01*
X120075000Y-92273613D01*
X120905590Y-91443024D01*
X120920658Y-91430658D01*
X120970019Y-91370512D01*
X121006698Y-91301891D01*
X121029284Y-91227433D01*
X121035000Y-91169401D01*
X121035000Y-91169395D01*
X121036910Y-91150001D01*
X121035000Y-91130607D01*
X121035000Y-91086505D01*
X121042602Y-90928958D01*
X121061554Y-90814462D01*
X121088720Y-90726447D01*
X121123627Y-90651753D01*
X121169016Y-90577973D01*
X121227546Y-90496047D01*
X121295926Y-90403287D01*
X121301239Y-90395818D01*
X121373016Y-90291192D01*
X121383072Y-90275383D01*
X121454781Y-90153522D01*
X121465979Y-90132408D01*
X121486473Y-90089250D01*
X121503912Y-90063151D01*
X121580802Y-89877523D01*
X121620000Y-89680461D01*
X121620000Y-89479539D01*
X121580802Y-89282477D01*
X121503912Y-89096849D01*
X121392285Y-88929788D01*
X121250212Y-88787715D01*
X121148870Y-88720000D01*
X122591130Y-88720000D01*
X122489788Y-88787715D01*
G04 #@! TA.AperFunction,Conductor*
D19*
G36*
X122489788Y-88787715D02*
G01*
X122347715Y-88929788D01*
X122236088Y-89096849D01*
X122159198Y-89282477D01*
X122120000Y-89479539D01*
X122120000Y-89680461D01*
X122159198Y-89877523D01*
X122236088Y-90063151D01*
X122347715Y-90230212D01*
X122489788Y-90372285D01*
X122656849Y-90483912D01*
X122842477Y-90560802D01*
X123039539Y-90600000D01*
X123240461Y-90600000D01*
X123437523Y-90560802D01*
X123623151Y-90483912D01*
X123790212Y-90372285D01*
X123932285Y-90230212D01*
X124043912Y-90063151D01*
X124120802Y-89877523D01*
X124160000Y-89680461D01*
X124160000Y-89479539D01*
X124120802Y-89282477D01*
X124043912Y-89096849D01*
X123932285Y-88929788D01*
X123790212Y-88787715D01*
X123688870Y-88720000D01*
X125131130Y-88720000D01*
X125029788Y-88787715D01*
X124887715Y-88929788D01*
X124776088Y-89096849D01*
X124699198Y-89282477D01*
X124660000Y-89479539D01*
X124660000Y-89680461D01*
X124699198Y-89877523D01*
X124776088Y-90063151D01*
X124805808Y-90107630D01*
X124835791Y-90164818D01*
X124847526Y-90185023D01*
X124923114Y-90303093D01*
X124933191Y-90317747D01*
X125007987Y-90419191D01*
X125012778Y-90425494D01*
X125082954Y-90515050D01*
X125141977Y-90593585D01*
X125187221Y-90664176D01*
X125221736Y-90735673D01*
X125248599Y-90820519D01*
X125267419Y-90931972D01*
X125275000Y-91086621D01*
X125275001Y-92205704D01*
X125272977Y-92269526D01*
X125268267Y-92312749D01*
X125262066Y-92343047D01*
X125254803Y-92366112D01*
X125245167Y-92388666D01*
X125230648Y-92416469D01*
X125209330Y-92453225D01*
X125182723Y-92498158D01*
X125179993Y-92502877D01*
X125150760Y-92554599D01*
X125145640Y-92564094D01*
X125135208Y-92584405D01*
X125120565Y-92606320D01*
X125073828Y-92719153D01*
X125050002Y-92838935D01*
X125050002Y-92961065D01*
X125073828Y-93080847D01*
X125120565Y-93193680D01*
X125188416Y-93295227D01*
X125274775Y-93381586D01*
X125376322Y-93449437D01*
X125489155Y-93496174D01*
X125608937Y-93520000D01*
X125731067Y-93520000D01*
X125850849Y-93496174D01*
X125963682Y-93449437D01*
X126065229Y-93381586D01*
X126151588Y-93295227D01*
X126219439Y-93193680D01*
X126266176Y-93080847D01*
X126290002Y-92961065D01*
X126290002Y-92838935D01*
X126266176Y-92719153D01*
X126219439Y-92606320D01*
X126204794Y-92584402D01*
X126194357Y-92564083D01*
X126189241Y-92554596D01*
X126160008Y-92502874D01*
X126157274Y-92498149D01*
X126130654Y-92453197D01*
X126109364Y-92416488D01*
X126094830Y-92388656D01*
X126085194Y-92366106D01*
X126077930Y-92343036D01*
X126071733Y-92312758D01*
X126067022Y-92269526D01*
X126065000Y-92205735D01*
X126065000Y-91086682D01*
X126072562Y-90933913D01*
X126091284Y-90824404D01*
X126117923Y-90741593D01*
X126152147Y-90672137D01*
X126197227Y-90603610D01*
X126256545Y-90527203D01*
X126327776Y-90439802D01*
X126332169Y-90434266D01*
X126408882Y-90334941D01*
X126418906Y-90321075D01*
X126496970Y-90205553D01*
X126509005Y-90185999D01*
X126545478Y-90120671D01*
X126583912Y-90063151D01*
X126660802Y-89877523D01*
X126700000Y-89680461D01*
X126700000Y-89479539D01*
X126660802Y-89282477D01*
X126583912Y-89096849D01*
X126472285Y-88929788D01*
X126330212Y-88787715D01*
X126228870Y-88720000D01*
X127671130Y-88720000D01*
X127569788Y-88787715D01*
X127427715Y-88929788D01*
X127316088Y-89096849D01*
X127239198Y-89282477D01*
X127200000Y-89479539D01*
X127200000Y-89680461D01*
X127239198Y-89877523D01*
X127316088Y-90063151D01*
X127370428Y-90144476D01*
X127414755Y-90217022D01*
X127427148Y-90235541D01*
X127508758Y-90347227D01*
X127518610Y-90359901D01*
X127598061Y-90456067D01*
X127601787Y-90460480D01*
X127674546Y-90544806D01*
X127734098Y-90618008D01*
X127778881Y-90683592D01*
X127812616Y-90750097D01*
X127838905Y-90830007D01*
X127857468Y-90936713D01*
X127865000Y-91086783D01*
X127865000Y-91279400D01*
X127865001Y-91279410D01*
X127865000Y-92936386D01*
X126016387Y-94785000D01*
X122549394Y-94785000D01*
X122530000Y-94783090D01*
X122510606Y-94785000D01*
X122510599Y-94785000D01*
X122452567Y-94790716D01*
X122378109Y-94813302D01*
X122309488Y-94849981D01*
X122249342Y-94899342D01*
X122236975Y-94914411D01*
X121174411Y-95976976D01*
X121159343Y-95989342D01*
X121109982Y-96049488D01*
X121081331Y-96103090D01*
X121073303Y-96118109D01*
X121050716Y-96192567D01*
X121043090Y-96270000D01*
X121045001Y-96289404D01*
X121045001Y-96887836D01*
X121037113Y-96992492D01*
X121021324Y-97052264D01*
X121001089Y-97092384D01*
X120971906Y-97129791D01*
X120925840Y-97174256D01*
X120860799Y-97229256D01*
X120858889Y-97230886D01*
X120792191Y-97288360D01*
X120792139Y-97288394D01*
X120792067Y-97288466D01*
X120784663Y-97294846D01*
X120769777Y-97308683D01*
X120696431Y-97382196D01*
X120682506Y-97398027D01*
X120648394Y-97432139D01*
X120606063Y-97495491D01*
X120604860Y-97497046D01*
X120594342Y-97513033D01*
X120535454Y-97601165D01*
X120457660Y-97788977D01*
X120445000Y-97852622D01*
X120445000Y-96889393D01*
X120446910Y-96869999D01*
X120445000Y-96850605D01*
X120445000Y-96850599D01*
X120439284Y-96792567D01*
X120437932Y-96788108D01*
X120425764Y-96747996D01*
X120416698Y-96718109D01*
X120380019Y-96649488D01*
X120330658Y-96589342D01*
X120315589Y-96576975D01*
X120075000Y-96336387D01*
X120075000Y-92273613D01*
X120905590Y-91443024D01*
X120920658Y-91430658D01*
X120970019Y-91370512D01*
X121006698Y-91301891D01*
X121029284Y-91227433D01*
X121035000Y-91169401D01*
X121035000Y-91169395D01*
X121036910Y-91150001D01*
X121035000Y-91130607D01*
X121035000Y-91086505D01*
X121042602Y-90928958D01*
X121061554Y-90814462D01*
X121088720Y-90726447D01*
X121123627Y-90651753D01*
X121169016Y-90577973D01*
X121227546Y-90496047D01*
X121295926Y-90403287D01*
X121301239Y-90395818D01*
X121373016Y-90291192D01*
X121383072Y-90275383D01*
X121454781Y-90153522D01*
X121465979Y-90132408D01*
X121486473Y-90089250D01*
X121503912Y-90063151D01*
X121580802Y-89877523D01*
X121620000Y-89680461D01*
X121620000Y-89479539D01*
X121580802Y-89282477D01*
X121503912Y-89096849D01*
X121392285Y-88929788D01*
X121250212Y-88787715D01*
X121148870Y-88720000D01*
X122591130Y-88720000D01*
X122489788Y-88787715D01*
G37*
G04 #@! TD.AperFunction*
D20*
X143700859Y-94236652D02*
X143723542Y-94300337D01*
X143723655Y-94300641D01*
X143748227Y-94364434D01*
X143748426Y-94364921D01*
X143773413Y-94422549D01*
X143773718Y-94423200D01*
X143800588Y-94476659D01*
X143800994Y-94477404D01*
X143831219Y-94528688D01*
X143831687Y-94529423D01*
X143866736Y-94580525D01*
X143867201Y-94581161D01*
X143908543Y-94634077D01*
X143908949Y-94634570D01*
X143958055Y-94691293D01*
X143958371Y-94691645D01*
X144016711Y-94754171D01*
X144016935Y-94754404D01*
X144077162Y-94815747D01*
X143735747Y-95157162D01*
X143674404Y-95096935D01*
X143674171Y-95096711D01*
X143611646Y-95038371D01*
X143611294Y-95038055D01*
X143554571Y-94988950D01*
X143554078Y-94988544D01*
X143501162Y-94947201D01*
X143500526Y-94946736D01*
X143449424Y-94911688D01*
X143448689Y-94911220D01*
X143397405Y-94880996D01*
X143396661Y-94880590D01*
X143343202Y-94853719D01*
X143342550Y-94853414D01*
X143284921Y-94828428D01*
X143284434Y-94828229D01*
X143220642Y-94803658D01*
X143220338Y-94803545D01*
X143156652Y-94780862D01*
X143145800Y-94225803D01*
X143700859Y-94236652D01*
G04 #@! TA.AperFunction,Conductor*
D19*
G36*
X143700859Y-94236652D02*
G01*
X143723542Y-94300337D01*
X143723655Y-94300641D01*
X143748227Y-94364434D01*
X143748426Y-94364921D01*
X143773413Y-94422549D01*
X143773718Y-94423200D01*
X143800588Y-94476659D01*
X143800994Y-94477404D01*
X143831219Y-94528688D01*
X143831687Y-94529423D01*
X143866736Y-94580525D01*
X143867201Y-94581161D01*
X143908543Y-94634077D01*
X143908949Y-94634570D01*
X143958055Y-94691293D01*
X143958371Y-94691645D01*
X144016711Y-94754171D01*
X144016935Y-94754404D01*
X144077162Y-94815747D01*
X143735747Y-95157162D01*
X143674404Y-95096935D01*
X143674171Y-95096711D01*
X143611646Y-95038371D01*
X143611294Y-95038055D01*
X143554571Y-94988950D01*
X143554078Y-94988544D01*
X143501162Y-94947201D01*
X143500526Y-94946736D01*
X143449424Y-94911688D01*
X143448689Y-94911220D01*
X143397405Y-94880996D01*
X143396661Y-94880590D01*
X143343202Y-94853719D01*
X143342550Y-94853414D01*
X143284921Y-94828428D01*
X143284434Y-94828229D01*
X143220642Y-94803658D01*
X143220338Y-94803545D01*
X143156652Y-94780862D01*
X143145800Y-94225803D01*
X143700859Y-94236652D01*
G37*
G04 #@! TD.AperFunction*
D20*
X145061945Y-99802555D02*
X145062714Y-99803219D01*
X145177992Y-99894992D01*
X145178993Y-99895712D01*
X145285764Y-99964935D01*
X145286940Y-99965612D01*
X145388655Y-100017065D01*
X145389833Y-100017587D01*
X145489942Y-100056052D01*
X145490884Y-100056372D01*
X145592839Y-100086631D01*
X145593370Y-100086776D01*
X145700620Y-100113609D01*
X145700703Y-100113630D01*
X145816554Y-100141785D01*
X145944341Y-100176003D01*
X146079258Y-100218441D01*
X146102637Y-101185261D01*
X145135643Y-101170836D01*
X145091821Y-101035838D01*
X145056410Y-100908014D01*
X145027286Y-100792127D01*
X145027268Y-100792057D01*
X144999649Y-100684743D01*
X144999505Y-100684228D01*
X144968611Y-100582182D01*
X144968292Y-100581259D01*
X144929304Y-100481014D01*
X144928785Y-100479853D01*
X144876882Y-100377948D01*
X144876210Y-100376786D01*
X144806574Y-100269755D01*
X144805859Y-100268763D01*
X144713670Y-100153143D01*
X144713010Y-100152380D01*
X144601850Y-100033678D01*
X144943680Y-99691848D01*
X145061945Y-99802555D01*
G04 #@! TA.AperFunction,Conductor*
D19*
G36*
X145061945Y-99802555D02*
G01*
X145062714Y-99803219D01*
X145177992Y-99894992D01*
X145178993Y-99895712D01*
X145285764Y-99964935D01*
X145286940Y-99965612D01*
X145388655Y-100017065D01*
X145389833Y-100017587D01*
X145489942Y-100056052D01*
X145490884Y-100056372D01*
X145592839Y-100086631D01*
X145593370Y-100086776D01*
X145700620Y-100113609D01*
X145700703Y-100113630D01*
X145816554Y-100141785D01*
X145944341Y-100176003D01*
X146079258Y-100218441D01*
X146102637Y-101185261D01*
X145135643Y-101170836D01*
X145091821Y-101035838D01*
X145056410Y-100908014D01*
X145027286Y-100792127D01*
X145027268Y-100792057D01*
X144999649Y-100684743D01*
X144999505Y-100684228D01*
X144968611Y-100582182D01*
X144968292Y-100581259D01*
X144929304Y-100481014D01*
X144928785Y-100479853D01*
X144876882Y-100377948D01*
X144876210Y-100376786D01*
X144806574Y-100269755D01*
X144805859Y-100268763D01*
X144713670Y-100153143D01*
X144713010Y-100152380D01*
X144601850Y-100033678D01*
X144943680Y-99691848D01*
X145061945Y-99802555D01*
G37*
G04 #@! TD.AperFunction*
D20*
X152892808Y-97054392D02*
X152893216Y-97056750D01*
X152922467Y-97164169D01*
X152923467Y-97166718D01*
X152968256Y-97252356D01*
X152969664Y-97254492D01*
X153026750Y-97324559D01*
X153028008Y-97325893D01*
X153094148Y-97386602D01*
X153094802Y-97387163D01*
X153166675Y-97444662D01*
X153240841Y-97505001D01*
X153313752Y-97574017D01*
X153382556Y-97658027D01*
X153439981Y-97755980D01*
X152770000Y-98452678D01*
X152100019Y-97755980D01*
X152157443Y-97658027D01*
X152226247Y-97574017D01*
X152299158Y-97505001D01*
X152373324Y-97444662D01*
X152445197Y-97387163D01*
X152445851Y-97386602D01*
X152511991Y-97325893D01*
X152513249Y-97324559D01*
X152570335Y-97254492D01*
X152571743Y-97252356D01*
X152616532Y-97166718D01*
X152617532Y-97164169D01*
X152646783Y-97056750D01*
X152647191Y-97054392D01*
X152656756Y-96930700D01*
X152883244Y-96930700D01*
X152892808Y-97054392D01*
G04 #@! TA.AperFunction,Conductor*
D19*
G36*
X152892808Y-97054392D02*
G01*
X152893216Y-97056750D01*
X152922467Y-97164169D01*
X152923467Y-97166718D01*
X152968256Y-97252356D01*
X152969664Y-97254492D01*
X153026750Y-97324559D01*
X153028008Y-97325893D01*
X153094148Y-97386602D01*
X153094802Y-97387163D01*
X153166675Y-97444662D01*
X153240841Y-97505001D01*
X153313752Y-97574017D01*
X153382556Y-97658027D01*
X153439981Y-97755980D01*
X152770000Y-98452678D01*
X152100019Y-97755980D01*
X152157443Y-97658027D01*
X152226247Y-97574017D01*
X152299158Y-97505001D01*
X152373324Y-97444662D01*
X152445197Y-97387163D01*
X152445851Y-97386602D01*
X152511991Y-97325893D01*
X152513249Y-97324559D01*
X152570335Y-97254492D01*
X152571743Y-97252356D01*
X152616532Y-97166718D01*
X152617532Y-97164169D01*
X152646783Y-97056750D01*
X152647191Y-97054392D01*
X152656756Y-96930700D01*
X152883244Y-96930700D01*
X152892808Y-97054392D01*
G37*
G04 #@! TD.AperFunction*
D20*
X133967625Y-89891016D02*
X133899677Y-90010917D01*
X133810356Y-90125844D01*
X133712431Y-90231169D01*
X133614721Y-90329571D01*
X133614480Y-90329821D01*
X133526037Y-90423887D01*
X133525176Y-90424904D01*
X133454958Y-90517354D01*
X133453538Y-90519721D01*
X133410360Y-90613419D01*
X133409544Y-90615771D01*
X133409229Y-90617786D01*
X133401904Y-90715596D01*
X133401963Y-90718085D01*
X133402606Y-90720807D01*
X133439949Y-90825595D01*
X133441011Y-90827847D01*
X133441958Y-90829219D01*
X133525758Y-90934981D01*
X133366425Y-91094314D01*
X133268755Y-90986272D01*
X133191184Y-90878172D01*
X133135311Y-90777354D01*
X133094267Y-90681630D01*
X133061224Y-90588721D01*
X133029573Y-90497037D01*
X133029355Y-90496452D01*
X132992350Y-90404215D01*
X132991834Y-90403092D01*
X132942715Y-90308488D01*
X132941907Y-90307142D01*
X132873876Y-90208246D01*
X132872891Y-90206991D01*
X132785247Y-90108716D01*
X133292811Y-89225735D01*
X133967625Y-89891016D01*
G04 #@! TA.AperFunction,Conductor*
D19*
G36*
X133967625Y-89891016D02*
G01*
X133899677Y-90010917D01*
X133810356Y-90125844D01*
X133712431Y-90231169D01*
X133614721Y-90329571D01*
X133614480Y-90329821D01*
X133526037Y-90423887D01*
X133525176Y-90424904D01*
X133454958Y-90517354D01*
X133453538Y-90519721D01*
X133410360Y-90613419D01*
X133409544Y-90615771D01*
X133409229Y-90617786D01*
X133401904Y-90715596D01*
X133401963Y-90718085D01*
X133402606Y-90720807D01*
X133439949Y-90825595D01*
X133441011Y-90827847D01*
X133441958Y-90829219D01*
X133525758Y-90934981D01*
X133366425Y-91094314D01*
X133268755Y-90986272D01*
X133191184Y-90878172D01*
X133135311Y-90777354D01*
X133094267Y-90681630D01*
X133061224Y-90588721D01*
X133029573Y-90497037D01*
X133029355Y-90496452D01*
X132992350Y-90404215D01*
X132991834Y-90403092D01*
X132942715Y-90308488D01*
X132941907Y-90307142D01*
X132873876Y-90208246D01*
X132872891Y-90206991D01*
X132785247Y-90108716D01*
X133292811Y-89225735D01*
X133967625Y-89891016D01*
G37*
G04 #@! TD.AperFunction*
D20*
X120728019Y-103192842D02*
X120641742Y-103302933D01*
X120640406Y-103305034D01*
X120639648Y-103306877D01*
X120605096Y-103414256D01*
X120604570Y-103416689D01*
X120604616Y-103419960D01*
X120618915Y-103519040D01*
X120619511Y-103521457D01*
X120620438Y-103523491D01*
X120673775Y-103617542D01*
X120675357Y-103619744D01*
X120757916Y-103712035D01*
X120758783Y-103712915D01*
X120860750Y-103806717D01*
X120860938Y-103806887D01*
X120972319Y-103905313D01*
X121083013Y-104011328D01*
X121183258Y-104128050D01*
X121259036Y-104251361D01*
X120602477Y-104934103D01*
X120085203Y-104051060D01*
X120169137Y-103953098D01*
X120170400Y-103951342D01*
X120230651Y-103850346D01*
X120231575Y-103848457D01*
X120270014Y-103749973D01*
X120270502Y-103748442D01*
X120294885Y-103651147D01*
X120295053Y-103650378D01*
X120313130Y-103553001D01*
X120332563Y-103454693D01*
X120360959Y-103354327D01*
X120405980Y-103250214D01*
X120475407Y-103140654D01*
X120568812Y-103033635D01*
X120728019Y-103192842D01*
G04 #@! TA.AperFunction,Conductor*
D19*
G36*
X120728019Y-103192842D02*
G01*
X120641742Y-103302933D01*
X120640406Y-103305034D01*
X120639648Y-103306877D01*
X120605096Y-103414256D01*
X120604570Y-103416689D01*
X120604616Y-103419960D01*
X120618915Y-103519040D01*
X120619511Y-103521457D01*
X120620438Y-103523491D01*
X120673775Y-103617542D01*
X120675357Y-103619744D01*
X120757916Y-103712035D01*
X120758783Y-103712915D01*
X120860750Y-103806717D01*
X120860938Y-103806887D01*
X120972319Y-103905313D01*
X121083013Y-104011328D01*
X121183258Y-104128050D01*
X121259036Y-104251361D01*
X120602477Y-104934103D01*
X120085203Y-104051060D01*
X120169137Y-103953098D01*
X120170400Y-103951342D01*
X120230651Y-103850346D01*
X120231575Y-103848457D01*
X120270014Y-103749973D01*
X120270502Y-103748442D01*
X120294885Y-103651147D01*
X120295053Y-103650378D01*
X120313130Y-103553001D01*
X120332563Y-103454693D01*
X120360959Y-103354327D01*
X120405980Y-103250214D01*
X120475407Y-103140654D01*
X120568812Y-103033635D01*
X120728019Y-103192842D01*
G37*
G04 #@! TD.AperFunction*
D20*
X148752747Y-99852691D02*
X148753102Y-99854888D01*
X148782190Y-99969908D01*
X148783055Y-99972294D01*
X148827582Y-100064964D01*
X148828817Y-100067015D01*
X148885547Y-100143740D01*
X148886679Y-100145068D01*
X148952377Y-100212254D01*
X148952979Y-100212831D01*
X149024378Y-100276852D01*
X149097931Y-100343827D01*
X149170282Y-100419936D01*
X149238494Y-100511649D01*
X149295547Y-100617958D01*
X148603180Y-101292485D01*
X147956215Y-100574270D01*
X148018004Y-100474786D01*
X148089766Y-100388900D01*
X148164276Y-100317631D01*
X148238854Y-100254755D01*
X148238864Y-100254747D01*
X148310349Y-100194357D01*
X148311041Y-100193726D01*
X148376169Y-100129911D01*
X148377391Y-100128526D01*
X148433201Y-100055119D01*
X148434504Y-100053005D01*
X148478034Y-99963841D01*
X148478928Y-99961403D01*
X148507218Y-99850313D01*
X148507578Y-99848097D01*
X148516813Y-99720700D01*
X148743186Y-99720700D01*
X148752747Y-99852691D01*
G04 #@! TA.AperFunction,Conductor*
D19*
G36*
X148752747Y-99852691D02*
G01*
X148753102Y-99854888D01*
X148782190Y-99969908D01*
X148783055Y-99972294D01*
X148827582Y-100064964D01*
X148828817Y-100067015D01*
X148885547Y-100143740D01*
X148886679Y-100145068D01*
X148952377Y-100212254D01*
X148952979Y-100212831D01*
X149024378Y-100276852D01*
X149097931Y-100343827D01*
X149170282Y-100419936D01*
X149238494Y-100511649D01*
X149295547Y-100617958D01*
X148603180Y-101292485D01*
X147956215Y-100574270D01*
X148018004Y-100474786D01*
X148089766Y-100388900D01*
X148164276Y-100317631D01*
X148238854Y-100254755D01*
X148238864Y-100254747D01*
X148310349Y-100194357D01*
X148311041Y-100193726D01*
X148376169Y-100129911D01*
X148377391Y-100128526D01*
X148433201Y-100055119D01*
X148434504Y-100053005D01*
X148478034Y-99963841D01*
X148478928Y-99961403D01*
X148507218Y-99850313D01*
X148507578Y-99848097D01*
X148516813Y-99720700D01*
X148743186Y-99720700D01*
X148752747Y-99852691D01*
G37*
G04 #@! TD.AperFunction*
D20*
X123261005Y-103257036D02*
X123261169Y-103258539D01*
X123285824Y-103403632D01*
X123286246Y-103405365D01*
X123324736Y-103525961D01*
X123325421Y-103527668D01*
X123375621Y-103630583D01*
X123376384Y-103631932D01*
X123436165Y-103723987D01*
X123436724Y-103724780D01*
X123503961Y-103812792D01*
X123504132Y-103813011D01*
X123576584Y-103903661D01*
X123651997Y-104003580D01*
X123728308Y-104119578D01*
X123799415Y-104250968D01*
X123140000Y-104936678D01*
X122480585Y-104250968D01*
X122551691Y-104119578D01*
X122628002Y-104003580D01*
X122703415Y-103903661D01*
X122775867Y-103813011D01*
X122776038Y-103812792D01*
X122843275Y-103724780D01*
X122843834Y-103723987D01*
X122903615Y-103631932D01*
X122904378Y-103630583D01*
X122954578Y-103527668D01*
X122955263Y-103525961D01*
X122993753Y-103405365D01*
X122994175Y-103403632D01*
X123018830Y-103258539D01*
X123018994Y-103257036D01*
X123027090Y-103092700D01*
X123252910Y-103092700D01*
X123261005Y-103257036D01*
G04 #@! TA.AperFunction,Conductor*
D19*
G36*
X123261005Y-103257036D02*
G01*
X123261169Y-103258539D01*
X123285824Y-103403632D01*
X123286246Y-103405365D01*
X123324736Y-103525961D01*
X123325421Y-103527668D01*
X123375621Y-103630583D01*
X123376384Y-103631932D01*
X123436165Y-103723987D01*
X123436724Y-103724780D01*
X123503961Y-103812792D01*
X123504132Y-103813011D01*
X123576584Y-103903661D01*
X123651997Y-104003580D01*
X123728308Y-104119578D01*
X123799415Y-104250968D01*
X123140000Y-104936678D01*
X122480585Y-104250968D01*
X122551691Y-104119578D01*
X122628002Y-104003580D01*
X122703415Y-103903661D01*
X122775867Y-103813011D01*
X122776038Y-103812792D01*
X122843275Y-103724780D01*
X122843834Y-103723987D01*
X122903615Y-103631932D01*
X122904378Y-103630583D01*
X122954578Y-103527668D01*
X122955263Y-103525961D01*
X122993753Y-103405365D01*
X122994175Y-103403632D01*
X123018830Y-103258539D01*
X123018994Y-103257036D01*
X123027090Y-103092700D01*
X123252910Y-103092700D01*
X123261005Y-103257036D01*
G37*
G04 #@! TD.AperFunction*
D20*
X151907845Y-101466573D02*
X151799950Y-101570643D01*
X151698437Y-101661114D01*
X151606441Y-101736832D01*
X151520252Y-101803253D01*
X151435883Y-101866048D01*
X151435851Y-101866072D01*
X151349762Y-101930575D01*
X151349546Y-101930741D01*
X151258033Y-102002417D01*
X151257708Y-102002680D01*
X151157023Y-102087030D01*
X151156671Y-102087337D01*
X151043062Y-102189861D01*
X151042734Y-102190167D01*
X150921431Y-102307669D01*
X150761854Y-102148092D01*
X150834493Y-102064261D01*
X150835814Y-102062430D01*
X150888291Y-101974087D01*
X150889443Y-101971549D01*
X150917354Y-101886213D01*
X150917943Y-101883276D01*
X150924632Y-101799534D01*
X150924560Y-101796837D01*
X150913367Y-101713271D01*
X150912932Y-101711269D01*
X150887200Y-101626465D01*
X150886747Y-101625213D01*
X150849817Y-101537754D01*
X150849525Y-101537112D01*
X150804740Y-101445585D01*
X150804654Y-101445413D01*
X150755409Y-101348508D01*
X150708927Y-101252808D01*
X151388895Y-100569762D01*
X151907845Y-101466573D01*
G04 #@! TA.AperFunction,Conductor*
D19*
G36*
X151907845Y-101466573D02*
G01*
X151799950Y-101570643D01*
X151698437Y-101661114D01*
X151606441Y-101736832D01*
X151520252Y-101803253D01*
X151435883Y-101866048D01*
X151435851Y-101866072D01*
X151349762Y-101930575D01*
X151349546Y-101930741D01*
X151258033Y-102002417D01*
X151257708Y-102002680D01*
X151157023Y-102087030D01*
X151156671Y-102087337D01*
X151043062Y-102189861D01*
X151042734Y-102190167D01*
X150921431Y-102307669D01*
X150761854Y-102148092D01*
X150834493Y-102064261D01*
X150835814Y-102062430D01*
X150888291Y-101974087D01*
X150889443Y-101971549D01*
X150917354Y-101886213D01*
X150917943Y-101883276D01*
X150924632Y-101799534D01*
X150924560Y-101796837D01*
X150913367Y-101713271D01*
X150912932Y-101711269D01*
X150887200Y-101626465D01*
X150886747Y-101625213D01*
X150849817Y-101537754D01*
X150849525Y-101537112D01*
X150804740Y-101445585D01*
X150804654Y-101445413D01*
X150755409Y-101348508D01*
X150708927Y-101252808D01*
X151388895Y-100569762D01*
X151907845Y-101466573D01*
G37*
G04 #@! TD.AperFunction*
D20*
X126854937Y-103654716D02*
X126740917Y-103780170D01*
X126740005Y-103781296D01*
X126651519Y-103904308D01*
X126650631Y-103905734D01*
X126589146Y-104020676D01*
X126588447Y-104022222D01*
X126547283Y-104132427D01*
X126546868Y-104133757D01*
X126519350Y-104242560D01*
X126519175Y-104243357D01*
X126498625Y-104354091D01*
X126498601Y-104354223D01*
X126478379Y-104469997D01*
X126451883Y-104593888D01*
X126412456Y-104729436D01*
X126356601Y-104872042D01*
X125407313Y-104809914D01*
X125506497Y-103863757D01*
X125648903Y-103834032D01*
X125784266Y-103817009D01*
X125907463Y-103808547D01*
X126021829Y-103802728D01*
X126022247Y-103802699D01*
X126130692Y-103793590D01*
X126131802Y-103793448D01*
X126237498Y-103775094D01*
X126239152Y-103774691D01*
X126345353Y-103741132D01*
X126347184Y-103740392D01*
X126457145Y-103685669D01*
X126458768Y-103684705D01*
X126575741Y-103602858D01*
X126576973Y-103601877D01*
X126695258Y-103495037D01*
X126854937Y-103654716D01*
G04 #@! TA.AperFunction,Conductor*
D19*
G36*
X126854937Y-103654716D02*
G01*
X126740917Y-103780170D01*
X126740005Y-103781296D01*
X126651519Y-103904308D01*
X126650631Y-103905734D01*
X126589146Y-104020676D01*
X126588447Y-104022222D01*
X126547283Y-104132427D01*
X126546868Y-104133757D01*
X126519350Y-104242560D01*
X126519175Y-104243357D01*
X126498625Y-104354091D01*
X126498601Y-104354223D01*
X126478379Y-104469997D01*
X126451883Y-104593888D01*
X126412456Y-104729436D01*
X126356601Y-104872042D01*
X125407313Y-104809914D01*
X125506497Y-103863757D01*
X125648903Y-103834032D01*
X125784266Y-103817009D01*
X125907463Y-103808547D01*
X126021829Y-103802728D01*
X126022247Y-103802699D01*
X126130692Y-103793590D01*
X126131802Y-103793448D01*
X126237498Y-103775094D01*
X126239152Y-103774691D01*
X126345353Y-103741132D01*
X126347184Y-103740392D01*
X126457145Y-103685669D01*
X126458768Y-103684705D01*
X126575741Y-103602858D01*
X126576973Y-103601877D01*
X126695258Y-103495037D01*
X126854937Y-103654716D01*
G37*
G04 #@! TD.AperFunction*
D20*
X154831598Y-101251146D02*
X154761005Y-101387903D01*
X154684958Y-101508446D01*
X154609476Y-101612251D01*
X154536713Y-101706322D01*
X154536563Y-101706520D01*
X154468836Y-101797719D01*
X154468306Y-101798490D01*
X154407942Y-101893695D01*
X154407210Y-101895018D01*
X154356417Y-102001260D01*
X154355758Y-102002935D01*
X154316743Y-102127246D01*
X154316335Y-102128951D01*
X154291308Y-102278361D01*
X154291148Y-102279842D01*
X154282903Y-102449300D01*
X154057089Y-102449300D01*
X154048838Y-102282195D01*
X154048672Y-102280685D01*
X154023533Y-102133355D01*
X154023105Y-102131606D01*
X153983778Y-102009226D01*
X153983079Y-102007497D01*
X153931667Y-101903165D01*
X153930880Y-101901792D01*
X153869486Y-101808611D01*
X153868900Y-101807794D01*
X153799627Y-101718862D01*
X153799431Y-101718616D01*
X153724486Y-101627160D01*
X153646105Y-101526463D01*
X153566343Y-101409652D01*
X153491420Y-101277257D01*
X154147937Y-100567392D01*
X154831598Y-101251146D01*
G04 #@! TA.AperFunction,Conductor*
D19*
G36*
X154831598Y-101251146D02*
G01*
X154761005Y-101387903D01*
X154684958Y-101508446D01*
X154609476Y-101612251D01*
X154536713Y-101706322D01*
X154536563Y-101706520D01*
X154468836Y-101797719D01*
X154468306Y-101798490D01*
X154407942Y-101893695D01*
X154407210Y-101895018D01*
X154356417Y-102001260D01*
X154355758Y-102002935D01*
X154316743Y-102127246D01*
X154316335Y-102128951D01*
X154291308Y-102278361D01*
X154291148Y-102279842D01*
X154282903Y-102449300D01*
X154057089Y-102449300D01*
X154048838Y-102282195D01*
X154048672Y-102280685D01*
X154023533Y-102133355D01*
X154023105Y-102131606D01*
X153983778Y-102009226D01*
X153983079Y-102007497D01*
X153931667Y-101903165D01*
X153930880Y-101901792D01*
X153869486Y-101808611D01*
X153868900Y-101807794D01*
X153799627Y-101718862D01*
X153799431Y-101718616D01*
X153724486Y-101627160D01*
X153646105Y-101526463D01*
X153566343Y-101409652D01*
X153491420Y-101277257D01*
X154147937Y-100567392D01*
X154831598Y-101251146D01*
G37*
G04 #@! TD.AperFunction*
D20*
X156711299Y-95467660D02*
X156729071Y-95522972D01*
X156744883Y-95579886D01*
X156758119Y-95631566D01*
X156758148Y-95631678D01*
X156770897Y-95679635D01*
X156771054Y-95680175D01*
X156785378Y-95725809D01*
X156785708Y-95726735D01*
X156803709Y-95771596D01*
X156804233Y-95772736D01*
X156828012Y-95818370D01*
X156828676Y-95819498D01*
X156860333Y-95867452D01*
X156861032Y-95868410D01*
X156902671Y-95920232D01*
X156903311Y-95920968D01*
X156948611Y-95969235D01*
X156789235Y-96128611D01*
X156740968Y-96083311D01*
X156740232Y-96082671D01*
X156688410Y-96041032D01*
X156687452Y-96040333D01*
X156639498Y-96008676D01*
X156638370Y-96008012D01*
X156592736Y-95984233D01*
X156591596Y-95983709D01*
X156546735Y-95965708D01*
X156545809Y-95965378D01*
X156500175Y-95951054D01*
X156499635Y-95950897D01*
X156451678Y-95938148D01*
X156451566Y-95938119D01*
X156399886Y-95924883D01*
X156342972Y-95909071D01*
X156287660Y-95891299D01*
X156279213Y-95459213D01*
X156711299Y-95467660D01*
G04 #@! TA.AperFunction,Conductor*
D19*
G36*
X156711299Y-95467660D02*
G01*
X156729071Y-95522972D01*
X156744883Y-95579886D01*
X156758119Y-95631566D01*
X156758148Y-95631678D01*
X156770897Y-95679635D01*
X156771054Y-95680175D01*
X156785378Y-95725809D01*
X156785708Y-95726735D01*
X156803709Y-95771596D01*
X156804233Y-95772736D01*
X156828012Y-95818370D01*
X156828676Y-95819498D01*
X156860333Y-95867452D01*
X156861032Y-95868410D01*
X156902671Y-95920232D01*
X156903311Y-95920968D01*
X156948611Y-95969235D01*
X156789235Y-96128611D01*
X156740968Y-96083311D01*
X156740232Y-96082671D01*
X156688410Y-96041032D01*
X156687452Y-96040333D01*
X156639498Y-96008676D01*
X156638370Y-96008012D01*
X156592736Y-95984233D01*
X156591596Y-95983709D01*
X156546735Y-95965708D01*
X156545809Y-95965378D01*
X156500175Y-95951054D01*
X156499635Y-95950897D01*
X156451678Y-95938148D01*
X156451566Y-95938119D01*
X156399886Y-95924883D01*
X156342972Y-95909071D01*
X156287660Y-95891299D01*
X156279213Y-95459213D01*
X156711299Y-95467660D01*
G37*
G04 #@! TD.AperFunction*
D20*
X157993184Y-99967554D02*
X157968566Y-100097886D01*
X157932324Y-100207339D01*
X157888214Y-100302496D01*
X157839908Y-100389889D01*
X157791405Y-100475545D01*
X157791078Y-100476160D01*
X157746469Y-100566106D01*
X157745919Y-100567388D01*
X157709184Y-100667862D01*
X157708689Y-100669583D01*
X157683761Y-100786896D01*
X157683511Y-100788707D01*
X157674926Y-100920014D01*
X156667429Y-101181610D01*
X156690788Y-100219087D01*
X156827995Y-100185958D01*
X156977079Y-100172430D01*
X157125490Y-100172146D01*
X157268733Y-100176633D01*
X157269067Y-100176639D01*
X157402411Y-100177314D01*
X157403723Y-100177252D01*
X157522602Y-100165510D01*
X157525305Y-100164942D01*
X157625358Y-100132186D01*
X157627637Y-100131183D01*
X157629409Y-100129978D01*
X157706275Y-100067611D01*
X157708045Y-100065861D01*
X157709676Y-100063340D01*
X157758994Y-99962763D01*
X157759866Y-99960431D01*
X157760203Y-99958662D01*
X157776288Y-99822488D01*
X158001547Y-99822488D01*
X157993184Y-99967554D01*
G04 #@! TA.AperFunction,Conductor*
D19*
G36*
X157993184Y-99967554D02*
G01*
X157968566Y-100097886D01*
X157932324Y-100207339D01*
X157888214Y-100302496D01*
X157839908Y-100389889D01*
X157791405Y-100475545D01*
X157791078Y-100476160D01*
X157746469Y-100566106D01*
X157745919Y-100567388D01*
X157709184Y-100667862D01*
X157708689Y-100669583D01*
X157683761Y-100786896D01*
X157683511Y-100788707D01*
X157674926Y-100920014D01*
X156667429Y-101181610D01*
X156690788Y-100219087D01*
X156827995Y-100185958D01*
X156977079Y-100172430D01*
X157125490Y-100172146D01*
X157268733Y-100176633D01*
X157269067Y-100176639D01*
X157402411Y-100177314D01*
X157403723Y-100177252D01*
X157522602Y-100165510D01*
X157525305Y-100164942D01*
X157625358Y-100132186D01*
X157627637Y-100131183D01*
X157629409Y-100129978D01*
X157706275Y-100067611D01*
X157708045Y-100065861D01*
X157709676Y-100063340D01*
X157758994Y-99962763D01*
X157759866Y-99960431D01*
X157760203Y-99958662D01*
X157776288Y-99822488D01*
X158001547Y-99822488D01*
X157993184Y-99967554D01*
G37*
G04 #@! TD.AperFunction*
D20*
X128895998Y-89873442D02*
X128830853Y-90010628D01*
X128759641Y-90131644D01*
X128688264Y-90235688D01*
X128618798Y-90329921D01*
X128618687Y-90330074D01*
X128553586Y-90421198D01*
X128553103Y-90421926D01*
X128494747Y-90516783D01*
X128494058Y-90518061D01*
X128444717Y-90623642D01*
X128444088Y-90625273D01*
X128406033Y-90748567D01*
X128405638Y-90750239D01*
X128381140Y-90898236D01*
X128380985Y-90899698D01*
X128372898Y-91067300D01*
X128147079Y-91067300D01*
X128138986Y-90906065D01*
X128138814Y-90904525D01*
X128114047Y-90762152D01*
X128113599Y-90760360D01*
X128074750Y-90642275D01*
X128074012Y-90640499D01*
X128023068Y-90540069D01*
X128022230Y-90538652D01*
X127961178Y-90449241D01*
X127960542Y-90448388D01*
X127891369Y-90363360D01*
X127891132Y-90363078D01*
X127815924Y-90275913D01*
X127736789Y-90180130D01*
X127655714Y-90069176D01*
X127579040Y-89943691D01*
X128201005Y-89223829D01*
X128895998Y-89873442D01*
G04 #@! TA.AperFunction,Conductor*
D19*
G36*
X128895998Y-89873442D02*
G01*
X128830853Y-90010628D01*
X128759641Y-90131644D01*
X128688264Y-90235688D01*
X128618798Y-90329921D01*
X128618687Y-90330074D01*
X128553586Y-90421198D01*
X128553103Y-90421926D01*
X128494747Y-90516783D01*
X128494058Y-90518061D01*
X128444717Y-90623642D01*
X128444088Y-90625273D01*
X128406033Y-90748567D01*
X128405638Y-90750239D01*
X128381140Y-90898236D01*
X128380985Y-90899698D01*
X128372898Y-91067300D01*
X128147079Y-91067300D01*
X128138986Y-90906065D01*
X128138814Y-90904525D01*
X128114047Y-90762152D01*
X128113599Y-90760360D01*
X128074750Y-90642275D01*
X128074012Y-90640499D01*
X128023068Y-90540069D01*
X128022230Y-90538652D01*
X127961178Y-90449241D01*
X127960542Y-90448388D01*
X127891369Y-90363360D01*
X127891132Y-90363078D01*
X127815924Y-90275913D01*
X127736789Y-90180130D01*
X127655714Y-90069176D01*
X127579040Y-89943691D01*
X128201005Y-89223829D01*
X128895998Y-89873442D01*
G37*
G04 #@! TD.AperFunction*
D20*
X121562590Y-97035119D02*
X121562978Y-97037420D01*
X121591686Y-97145673D01*
X121592647Y-97148184D01*
X121636724Y-97234678D01*
X121638098Y-97236816D01*
X121694461Y-97307705D01*
X121695718Y-97309068D01*
X121761282Y-97370504D01*
X121761966Y-97371101D01*
X121833650Y-97429238D01*
X121907998Y-97489927D01*
X121981798Y-97559111D01*
X122052241Y-97642971D01*
X122112056Y-97740470D01*
X121458432Y-98452580D01*
X120772422Y-97771635D01*
X120829028Y-97669295D01*
X120897126Y-97581298D01*
X120969563Y-97508696D01*
X121043373Y-97445094D01*
X121115161Y-97384389D01*
X121115781Y-97383829D01*
X121181913Y-97319995D01*
X121183106Y-97318669D01*
X121240261Y-97245409D01*
X121241587Y-97243316D01*
X121286481Y-97154304D01*
X121287421Y-97151829D01*
X121316766Y-97040739D01*
X121317151Y-97038449D01*
X121326779Y-96910700D01*
X121553221Y-96910700D01*
X121562590Y-97035119D01*
G04 #@! TA.AperFunction,Conductor*
D19*
G36*
X121562590Y-97035119D02*
G01*
X121562978Y-97037420D01*
X121591686Y-97145673D01*
X121592647Y-97148184D01*
X121636724Y-97234678D01*
X121638098Y-97236816D01*
X121694461Y-97307705D01*
X121695718Y-97309068D01*
X121761282Y-97370504D01*
X121761966Y-97371101D01*
X121833650Y-97429238D01*
X121907998Y-97489927D01*
X121981798Y-97559111D01*
X122052241Y-97642971D01*
X122112056Y-97740470D01*
X121458432Y-98452580D01*
X120772422Y-97771635D01*
X120829028Y-97669295D01*
X120897126Y-97581298D01*
X120969563Y-97508696D01*
X121043373Y-97445094D01*
X121115161Y-97384389D01*
X121115781Y-97383829D01*
X121181913Y-97319995D01*
X121183106Y-97318669D01*
X121240261Y-97245409D01*
X121241587Y-97243316D01*
X121286481Y-97154304D01*
X121287421Y-97151829D01*
X121316766Y-97040739D01*
X121317151Y-97038449D01*
X121326779Y-96910700D01*
X121553221Y-96910700D01*
X121562590Y-97035119D01*
G37*
G04 #@! TD.AperFunction*
D20*
X125784793Y-92288859D02*
X125784862Y-92289833D01*
X125792063Y-92355919D01*
X125792246Y-92357090D01*
X125803769Y-92413384D01*
X125804097Y-92414651D01*
X125819551Y-92463733D01*
X125819986Y-92464909D01*
X125838979Y-92509359D01*
X125839401Y-92510248D01*
X125861541Y-92552645D01*
X125861812Y-92553138D01*
X125886708Y-92596064D01*
X125886766Y-92596163D01*
X125913971Y-92642102D01*
X125943000Y-92693465D01*
X125969560Y-92745172D01*
X125670003Y-93056677D01*
X125370443Y-92745175D01*
X125396995Y-92693478D01*
X125426031Y-92642105D01*
X125453234Y-92596165D01*
X125453292Y-92596066D01*
X125478188Y-92553141D01*
X125478460Y-92552648D01*
X125500600Y-92510250D01*
X125501021Y-92509361D01*
X125520013Y-92464911D01*
X125520448Y-92463735D01*
X125535902Y-92414653D01*
X125536230Y-92413386D01*
X125547753Y-92357091D01*
X125547936Y-92355920D01*
X125555137Y-92289833D01*
X125555206Y-92288860D01*
X125557304Y-92222698D01*
X125782696Y-92222698D01*
X125784793Y-92288859D01*
G04 #@! TA.AperFunction,Conductor*
D19*
G36*
X125784793Y-92288859D02*
G01*
X125784862Y-92289833D01*
X125792063Y-92355919D01*
X125792246Y-92357090D01*
X125803769Y-92413384D01*
X125804097Y-92414651D01*
X125819551Y-92463733D01*
X125819986Y-92464909D01*
X125838979Y-92509359D01*
X125839401Y-92510248D01*
X125861541Y-92552645D01*
X125861812Y-92553138D01*
X125886708Y-92596064D01*
X125886766Y-92596163D01*
X125913971Y-92642102D01*
X125943000Y-92693465D01*
X125969560Y-92745172D01*
X125670003Y-93056677D01*
X125370443Y-92745175D01*
X125396995Y-92693478D01*
X125426031Y-92642105D01*
X125453234Y-92596165D01*
X125453292Y-92596066D01*
X125478188Y-92553141D01*
X125478460Y-92552648D01*
X125500600Y-92510250D01*
X125501021Y-92509361D01*
X125520013Y-92464911D01*
X125520448Y-92463735D01*
X125535902Y-92414653D01*
X125536230Y-92413386D01*
X125547753Y-92357091D01*
X125547936Y-92355920D01*
X125555137Y-92289833D01*
X125555206Y-92288860D01*
X125557304Y-92222698D01*
X125782696Y-92222698D01*
X125784793Y-92288859D01*
G37*
G04 #@! TD.AperFunction*
D20*
X126334970Y-89917796D02*
X126262435Y-90047715D01*
X126184893Y-90162464D01*
X126108538Y-90261326D01*
X126035366Y-90351107D01*
X126035179Y-90351342D01*
X125967441Y-90438595D01*
X125966863Y-90439403D01*
X125906751Y-90530781D01*
X125905969Y-90532148D01*
X125855573Y-90634425D01*
X125854875Y-90636149D01*
X125816289Y-90756099D01*
X125815861Y-90757848D01*
X125791175Y-90902243D01*
X125791009Y-90903755D01*
X125782914Y-91067300D01*
X125557093Y-91067300D01*
X125548997Y-90902161D01*
X125548835Y-90900668D01*
X125524215Y-90754865D01*
X125523800Y-90753147D01*
X125485410Y-90631894D01*
X125484739Y-90630206D01*
X125434743Y-90526640D01*
X125433998Y-90525308D01*
X125374557Y-90432567D01*
X125374017Y-90431790D01*
X125307295Y-90343011D01*
X125307140Y-90342808D01*
X125235414Y-90251274D01*
X125160974Y-90150312D01*
X125085913Y-90033065D01*
X125016259Y-89900211D01*
X125684755Y-89223355D01*
X126334970Y-89917796D01*
G04 #@! TA.AperFunction,Conductor*
D19*
G36*
X126334970Y-89917796D02*
G01*
X126262435Y-90047715D01*
X126184893Y-90162464D01*
X126108538Y-90261326D01*
X126035366Y-90351107D01*
X126035179Y-90351342D01*
X125967441Y-90438595D01*
X125966863Y-90439403D01*
X125906751Y-90530781D01*
X125905969Y-90532148D01*
X125855573Y-90634425D01*
X125854875Y-90636149D01*
X125816289Y-90756099D01*
X125815861Y-90757848D01*
X125791175Y-90902243D01*
X125791009Y-90903755D01*
X125782914Y-91067300D01*
X125557093Y-91067300D01*
X125548997Y-90902161D01*
X125548835Y-90900668D01*
X125524215Y-90754865D01*
X125523800Y-90753147D01*
X125485410Y-90631894D01*
X125484739Y-90630206D01*
X125434743Y-90526640D01*
X125433998Y-90525308D01*
X125374557Y-90432567D01*
X125374017Y-90431790D01*
X125307295Y-90343011D01*
X125307140Y-90342808D01*
X125235414Y-90251274D01*
X125160974Y-90150312D01*
X125085913Y-90033065D01*
X125016259Y-89900211D01*
X125684755Y-89223355D01*
X126334970Y-89917796D01*
G37*
G04 #@! TD.AperFunction*
D20*
X120172507Y-99869929D02*
X120172891Y-99872219D01*
X120201394Y-99980367D01*
X120202347Y-99982872D01*
X120246159Y-100069304D01*
X120247531Y-100071447D01*
X120303629Y-100142280D01*
X120304893Y-100143655D01*
X120370255Y-100205008D01*
X120370954Y-100205617D01*
X120442547Y-100263597D01*
X120517043Y-100324073D01*
X120591214Y-100392900D01*
X120662333Y-100476242D01*
X120723100Y-100573058D01*
X120077498Y-101292462D01*
X119383891Y-100619253D01*
X119439859Y-100515255D01*
X119507449Y-100425782D01*
X119579560Y-100351876D01*
X119653150Y-100287131D01*
X119724915Y-100225288D01*
X119725518Y-100224733D01*
X119791680Y-100159825D01*
X119792849Y-100158506D01*
X119850088Y-100084158D01*
X119851389Y-100082082D01*
X119896384Y-99991922D01*
X119897305Y-99989469D01*
X119926736Y-99877123D01*
X119927116Y-99874853D01*
X119936785Y-99745700D01*
X120163214Y-99745700D01*
X120172507Y-99869929D01*
G04 #@! TA.AperFunction,Conductor*
D19*
G36*
X120172507Y-99869929D02*
G01*
X120172891Y-99872219D01*
X120201394Y-99980367D01*
X120202347Y-99982872D01*
X120246159Y-100069304D01*
X120247531Y-100071447D01*
X120303629Y-100142280D01*
X120304893Y-100143655D01*
X120370255Y-100205008D01*
X120370954Y-100205617D01*
X120442547Y-100263597D01*
X120517043Y-100324073D01*
X120591214Y-100392900D01*
X120662333Y-100476242D01*
X120723100Y-100573058D01*
X120077498Y-101292462D01*
X119383891Y-100619253D01*
X119439859Y-100515255D01*
X119507449Y-100425782D01*
X119579560Y-100351876D01*
X119653150Y-100287131D01*
X119724915Y-100225288D01*
X119725518Y-100224733D01*
X119791680Y-100159825D01*
X119792849Y-100158506D01*
X119850088Y-100084158D01*
X119851389Y-100082082D01*
X119896384Y-99991922D01*
X119897305Y-99989469D01*
X119926736Y-99877123D01*
X119927116Y-99874853D01*
X119936785Y-99745700D01*
X120163214Y-99745700D01*
X120172507Y-99869929D01*
G37*
G04 #@! TD.AperFunction*
D20*
X121275998Y-89873442D02*
X121210853Y-90010628D01*
X121139641Y-90131644D01*
X121068264Y-90235688D01*
X120998798Y-90329921D01*
X120998687Y-90330074D01*
X120933586Y-90421198D01*
X120933103Y-90421926D01*
X120874747Y-90516783D01*
X120874058Y-90518061D01*
X120824717Y-90623642D01*
X120824088Y-90625273D01*
X120786033Y-90748567D01*
X120785638Y-90750239D01*
X120761140Y-90898236D01*
X120760985Y-90899698D01*
X120752898Y-91067300D01*
X120527079Y-91067300D01*
X120518986Y-90906065D01*
X120518814Y-90904525D01*
X120494047Y-90762152D01*
X120493599Y-90760360D01*
X120454750Y-90642275D01*
X120454012Y-90640499D01*
X120403068Y-90540069D01*
X120402230Y-90538652D01*
X120341178Y-90449241D01*
X120340542Y-90448388D01*
X120271369Y-90363360D01*
X120271132Y-90363078D01*
X120195924Y-90275913D01*
X120116789Y-90180130D01*
X120035714Y-90069176D01*
X119959040Y-89943691D01*
X120581005Y-89223829D01*
X121275998Y-89873442D01*
G04 #@! TA.AperFunction,Conductor*
D19*
G36*
X121275998Y-89873442D02*
G01*
X121210853Y-90010628D01*
X121139641Y-90131644D01*
X121068264Y-90235688D01*
X120998798Y-90329921D01*
X120998687Y-90330074D01*
X120933586Y-90421198D01*
X120933103Y-90421926D01*
X120874747Y-90516783D01*
X120874058Y-90518061D01*
X120824717Y-90623642D01*
X120824088Y-90625273D01*
X120786033Y-90748567D01*
X120785638Y-90750239D01*
X120761140Y-90898236D01*
X120760985Y-90899698D01*
X120752898Y-91067300D01*
X120527079Y-91067300D01*
X120518986Y-90906065D01*
X120518814Y-90904525D01*
X120494047Y-90762152D01*
X120493599Y-90760360D01*
X120454750Y-90642275D01*
X120454012Y-90640499D01*
X120403068Y-90540069D01*
X120402230Y-90538652D01*
X120341178Y-90449241D01*
X120340542Y-90448388D01*
X120271369Y-90363360D01*
X120271132Y-90363078D01*
X120195924Y-90275913D01*
X120116789Y-90180130D01*
X120035714Y-90069176D01*
X119959040Y-89943691D01*
X120581005Y-89223829D01*
X121275998Y-89873442D01*
G37*
G04 #@! TD.AperFunction*
D20*
X117596613Y-96054474D02*
X117276669Y-96345026D01*
X117225299Y-96316880D01*
X117174181Y-96286464D01*
X117128345Y-96258247D01*
X117128187Y-96258151D01*
X117085240Y-96232565D01*
X117084693Y-96232257D01*
X117042148Y-96209683D01*
X117041213Y-96209235D01*
X116996512Y-96190009D01*
X116995304Y-96189561D01*
X116945891Y-96174021D01*
X116944610Y-96173690D01*
X116887928Y-96162172D01*
X116886758Y-96161991D01*
X116820250Y-96154833D01*
X116819287Y-96154766D01*
X116752700Y-96152690D01*
X116752700Y-95927325D01*
X116821090Y-95925275D01*
X116822009Y-95925214D01*
X116890053Y-95918215D01*
X116891160Y-95918052D01*
X116949200Y-95906856D01*
X116950399Y-95906564D01*
X117001096Y-95891555D01*
X117002215Y-95891166D01*
X117048230Y-95872729D01*
X117049078Y-95872352D01*
X117093073Y-95850871D01*
X117093543Y-95850630D01*
X117138178Y-95826488D01*
X117138266Y-95826440D01*
X117186133Y-95800061D01*
X117239648Y-95771953D01*
X117293786Y-95746135D01*
X117596613Y-96054474D01*
G04 #@! TA.AperFunction,Conductor*
D19*
G36*
X117596613Y-96054474D02*
G01*
X117276669Y-96345026D01*
X117225299Y-96316880D01*
X117174181Y-96286464D01*
X117128345Y-96258247D01*
X117128187Y-96258151D01*
X117085240Y-96232565D01*
X117084693Y-96232257D01*
X117042148Y-96209683D01*
X117041213Y-96209235D01*
X116996512Y-96190009D01*
X116995304Y-96189561D01*
X116945891Y-96174021D01*
X116944610Y-96173690D01*
X116887928Y-96162172D01*
X116886758Y-96161991D01*
X116820250Y-96154833D01*
X116819287Y-96154766D01*
X116752700Y-96152690D01*
X116752700Y-95927325D01*
X116821090Y-95925275D01*
X116822009Y-95925214D01*
X116890053Y-95918215D01*
X116891160Y-95918052D01*
X116949200Y-95906856D01*
X116950399Y-95906564D01*
X117001096Y-95891555D01*
X117002215Y-95891166D01*
X117048230Y-95872729D01*
X117049078Y-95872352D01*
X117093073Y-95850871D01*
X117093543Y-95850630D01*
X117138178Y-95826488D01*
X117138266Y-95826440D01*
X117186133Y-95800061D01*
X117239648Y-95771953D01*
X117293786Y-95746135D01*
X117596613Y-96054474D01*
G37*
G04 #@! TD.AperFunction*
D20*
X113647948Y-89891335D02*
X113579769Y-90025651D01*
X113505979Y-90144142D01*
X113432534Y-90246142D01*
X113361548Y-90338568D01*
X113361407Y-90338755D01*
X113295212Y-90428308D01*
X113294691Y-90429069D01*
X113235601Y-90522507D01*
X113234875Y-90523821D01*
X113185089Y-90628048D01*
X113184432Y-90629717D01*
X113146148Y-90751639D01*
X113145740Y-90753343D01*
X113121157Y-90899867D01*
X113120997Y-90901349D01*
X113112904Y-91067300D01*
X112887084Y-91067300D01*
X112878988Y-90904536D01*
X112878820Y-90903014D01*
X112854105Y-90759305D01*
X112853670Y-90757542D01*
X112814992Y-90638227D01*
X112814281Y-90636485D01*
X112763697Y-90534835D01*
X112762896Y-90533452D01*
X112702462Y-90442740D01*
X112701865Y-90441916D01*
X112633637Y-90355413D01*
X112633433Y-90355162D01*
X112559571Y-90266263D01*
X112482267Y-90168424D01*
X112403532Y-90054947D01*
X112329589Y-89926495D01*
X112970492Y-89223449D01*
X113647948Y-89891335D01*
G04 #@! TA.AperFunction,Conductor*
D19*
G36*
X113647948Y-89891335D02*
G01*
X113579769Y-90025651D01*
X113505979Y-90144142D01*
X113432534Y-90246142D01*
X113361548Y-90338568D01*
X113361407Y-90338755D01*
X113295212Y-90428308D01*
X113294691Y-90429069D01*
X113235601Y-90522507D01*
X113234875Y-90523821D01*
X113185089Y-90628048D01*
X113184432Y-90629717D01*
X113146148Y-90751639D01*
X113145740Y-90753343D01*
X113121157Y-90899867D01*
X113120997Y-90901349D01*
X113112904Y-91067300D01*
X112887084Y-91067300D01*
X112878988Y-90904536D01*
X112878820Y-90903014D01*
X112854105Y-90759305D01*
X112853670Y-90757542D01*
X112814992Y-90638227D01*
X112814281Y-90636485D01*
X112763697Y-90534835D01*
X112762896Y-90533452D01*
X112702462Y-90442740D01*
X112701865Y-90441916D01*
X112633637Y-90355413D01*
X112633433Y-90355162D01*
X112559571Y-90266263D01*
X112482267Y-90168424D01*
X112403532Y-90054947D01*
X112329589Y-89926495D01*
X112970492Y-89223449D01*
X113647948Y-89891335D01*
G37*
G04 #@! TD.AperFunction*
D20*
X114821299Y-91927660D02*
X114839071Y-91982972D01*
X114854883Y-92039886D01*
X114868119Y-92091566D01*
X114868148Y-92091678D01*
X114880897Y-92139635D01*
X114881054Y-92140175D01*
X114895378Y-92185809D01*
X114895708Y-92186735D01*
X114913709Y-92231596D01*
X114914233Y-92232736D01*
X114938012Y-92278370D01*
X114938676Y-92279498D01*
X114970333Y-92327452D01*
X114971032Y-92328410D01*
X115012671Y-92380232D01*
X115013311Y-92380968D01*
X115058611Y-92429235D01*
X114899235Y-92588611D01*
X114850968Y-92543311D01*
X114850232Y-92542671D01*
X114798410Y-92501032D01*
X114797452Y-92500333D01*
X114749498Y-92468676D01*
X114748370Y-92468012D01*
X114702736Y-92444233D01*
X114701596Y-92443709D01*
X114656735Y-92425708D01*
X114655809Y-92425378D01*
X114610175Y-92411054D01*
X114609635Y-92410897D01*
X114561678Y-92398148D01*
X114561566Y-92398119D01*
X114509886Y-92384883D01*
X114452972Y-92369071D01*
X114397660Y-92351299D01*
X114389213Y-91919213D01*
X114821299Y-91927660D01*
G04 #@! TA.AperFunction,Conductor*
D19*
G36*
X114821299Y-91927660D02*
G01*
X114839071Y-91982972D01*
X114854883Y-92039886D01*
X114868119Y-92091566D01*
X114868148Y-92091678D01*
X114880897Y-92139635D01*
X114881054Y-92140175D01*
X114895378Y-92185809D01*
X114895708Y-92186735D01*
X114913709Y-92231596D01*
X114914233Y-92232736D01*
X114938012Y-92278370D01*
X114938676Y-92279498D01*
X114970333Y-92327452D01*
X114971032Y-92328410D01*
X115012671Y-92380232D01*
X115013311Y-92380968D01*
X115058611Y-92429235D01*
X114899235Y-92588611D01*
X114850968Y-92543311D01*
X114850232Y-92542671D01*
X114798410Y-92501032D01*
X114797452Y-92500333D01*
X114749498Y-92468676D01*
X114748370Y-92468012D01*
X114702736Y-92444233D01*
X114701596Y-92443709D01*
X114656735Y-92425708D01*
X114655809Y-92425378D01*
X114610175Y-92411054D01*
X114609635Y-92410897D01*
X114561678Y-92398148D01*
X114561566Y-92398119D01*
X114509886Y-92384883D01*
X114452972Y-92369071D01*
X114397660Y-92351299D01*
X114389213Y-91919213D01*
X114821299Y-91927660D01*
G37*
G04 #@! TD.AperFunction*
D20*
X118446678Y-94360000D02*
X118135174Y-94659559D01*
X118083467Y-94632999D01*
X118032104Y-94603970D01*
X117986164Y-94576766D01*
X117986065Y-94576708D01*
X117943140Y-94551812D01*
X117942647Y-94551541D01*
X117900250Y-94529401D01*
X117899361Y-94528979D01*
X117854911Y-94509986D01*
X117853735Y-94509551D01*
X117804653Y-94494097D01*
X117803386Y-94493769D01*
X117747092Y-94482246D01*
X117745921Y-94482063D01*
X117679835Y-94474862D01*
X117678861Y-94474793D01*
X117612700Y-94472696D01*
X117612700Y-94247304D01*
X117678862Y-94245206D01*
X117679835Y-94245137D01*
X117745921Y-94237936D01*
X117747092Y-94237753D01*
X117803386Y-94226230D01*
X117804653Y-94225902D01*
X117853735Y-94210448D01*
X117854911Y-94210013D01*
X117899361Y-94191020D01*
X117900250Y-94190598D01*
X117942647Y-94168458D01*
X117943140Y-94168187D01*
X117986065Y-94143291D01*
X117986164Y-94143233D01*
X118032104Y-94116029D01*
X118083467Y-94087000D01*
X118135174Y-94060441D01*
X118446678Y-94360000D01*
G04 #@! TA.AperFunction,Conductor*
D19*
G36*
X118446678Y-94360000D02*
G01*
X118135174Y-94659559D01*
X118083467Y-94632999D01*
X118032104Y-94603970D01*
X117986164Y-94576766D01*
X117986065Y-94576708D01*
X117943140Y-94551812D01*
X117942647Y-94551541D01*
X117900250Y-94529401D01*
X117899361Y-94528979D01*
X117854911Y-94509986D01*
X117853735Y-94509551D01*
X117804653Y-94494097D01*
X117803386Y-94493769D01*
X117747092Y-94482246D01*
X117745921Y-94482063D01*
X117679835Y-94474862D01*
X117678861Y-94474793D01*
X117612700Y-94472696D01*
X117612700Y-94247304D01*
X117678862Y-94245206D01*
X117679835Y-94245137D01*
X117745921Y-94237936D01*
X117747092Y-94237753D01*
X117803386Y-94226230D01*
X117804653Y-94225902D01*
X117853735Y-94210448D01*
X117854911Y-94210013D01*
X117899361Y-94191020D01*
X117900250Y-94190598D01*
X117942647Y-94168458D01*
X117943140Y-94168187D01*
X117986065Y-94143291D01*
X117986164Y-94143233D01*
X118032104Y-94116029D01*
X118083467Y-94087000D01*
X118135174Y-94060441D01*
X118446678Y-94360000D01*
G37*
G04 #@! TD.AperFunction*
M02*
